<svg id="Layer_1" data-name="Layer 1" xmlns="http://www.w3.org/2000/svg" xmlns:xlink="http://www.w3.org/1999/xlink" viewBox="0 0 310 440"><defs><style>.cls-1{fill:none;}.cls-2{fill:#126337;}.cls-3{fill:#eec4a6;}.cls-4{opacity:0.7;}.cls-5{fill:#2f0d00;}.cls-6{opacity:0.29;}.cls-7{fill:#060305;}.cls-8{opacity:0.95;}.cls-9{fill:#040102;}.cls-10{fill:#fff;}.cls-11{fill:#473332;}.cls-12{opacity:0.92;}.cls-13{clip-path:url(#clip-path);}.cls-14{fill:#e8b28e;}.cls-15{fill:#e7b28e;}.cls-16{fill:#e7b18e;}.cls-17{fill:#e6b08e;}.cls-18{fill:#e6af8e;}.cls-19{fill:#e5af8e;}.cls-20{fill:#e5ae8e;}.cls-21{fill:#e4ae8e;}.cls-22{fill:#e4ad8e;}.cls-23{fill:#e3ac8e;}.cls-24{fill:#e3ab8e;}.cls-25{fill:#e2ab8e;}.cls-26{fill:#e2aa8e;}.cls-27{fill:#e1a98e;}.cls-28{fill:#e0a88d;}.cls-29{fill:#e0a78d;}.cls-30{fill:#dfa68d;}.cls-31{fill:#dfa58d;}.cls-32{fill:#dea58d;}.cls-33{fill:#dea48d;}.cls-34{fill:#dda38d;}.cls-35{fill:#dda28d;}.cls-36{fill:#dca18d;}.cls-37{fill:#dc9f8d;}.cls-38{fill:#db9e8d;}.cls-39{fill:#db9d8d;}.cls-40{fill:#da9c8d;}.cls-41{fill:#da9b8d;}.cls-42{fill:#d9998d;}.cls-43{fill:#d8988d;}.cls-44{fill:#d8978d;}.cls-45{fill:#d7958d;}.cls-46{fill:#d7948d;}.cls-47{fill:#d6938d;}.cls-48{fill:#d5918d;}.cls-49{fill:#d5908d;}.cls-50{fill:#d48e8d;}.cls-51{fill:#004c1f;}.cls-52{fill:#b31f2b;}.cls-53{fill:#009853;}.cls-54{fill:#009151;}.cls-55{opacity:0.64;}.cls-56{fill:#575b64;}.cls-57{clip-path:url(#clip-path-2);}.cls-58{fill:#efd68d;}.cls-59{fill:#efd68c;}.cls-60{fill:#efd58b;}.cls-61{fill:#efd589;}.cls-62{fill:#efd488;}.cls-63{fill:#f0d487;}.cls-64{fill:#f0d486;}.cls-65{fill:#f0d384;}.cls-66{fill:#f0d383;}.cls-67{fill:#f0d282;}.cls-68{fill:#f0d281;}.cls-69{fill:#f0d280;}.cls-70{fill:#f0d27f;}.cls-71{fill:#f0d17d;}.cls-72{fill:#f0d17c;}.cls-73{fill:#f1d17b;}.cls-74{fill:#f1d07a;}.cls-75{fill:#f1d079;}.cls-76{fill:#f1d078;}.cls-77{fill:#f1d077;}.cls-78{fill:#f1cf76;}.cls-79{fill:#f1cf75;}.cls-80{fill:#f1cf74;}.cls-81{fill:#f2cf73;}.cls-82{fill:#f2ce72;}.cls-83{fill:#f2ce71;}.cls-84{fill:#f2ce70;}.cls-85{fill:#f2ce6f;}.cls-86{fill:#f2cd6e;}.cls-87{fill:#f2cd6d;}.cls-88{fill:#f3cd6c;}.cls-89{fill:#f3cd6b;}.cls-90{fill:#f3cc6a;}.cls-91{fill:#f3cc69;}.cls-92{fill:#f3cc68;}.cls-93{fill:#f3cb67;}.cls-94{fill:#f4cb66;}.cls-95{fill:#f4cb65;}.cls-96{fill:#f4ca64;}.cls-97{fill:#f4ca63;}.cls-98{fill:#f4ca62;}.cls-99{fill:#f5c962;}.cls-100{fill:#f5c961;}.cls-101{fill:#f5c960;}.cls-102{fill:#f5c95f;}.cls-103{fill:#f5c95e;}.cls-104{fill:#f5c85e;}.cls-105{fill:#f5c85d;}.cls-106{fill:#f6c85c;}.cls-107{fill:#f6c85b;}.cls-108{fill:#f6c75a;}.cls-109{fill:#f6c759;}.cls-110{fill:#f6c758;}.cls-111{fill:#f6c757;}.cls-112{fill:#f6c656;}.cls-113{fill:#f7c655;}.cls-114{fill:#f7c654;}.cls-115{fill:#f7c653;}.cls-116{fill:#f7c652;}.cls-117{fill:#f7c551;}.cls-118{fill:#f7c550;}.cls-119{fill:#f8c54f;}.cls-120{fill:#f8c54e;}.cls-121{fill:#f8c44d;}.cls-122{fill:#f8c44c;}.cls-123{fill:#f8c44b;}.cls-124{fill:#f8c44a;}.cls-125{fill:#f8c449;}.cls-126{fill:#f9c349;}.cls-127{fill:#f9c348;}.cls-128{fill:#f9c347;}.cls-129{fill:#f9c346;}.cls-130{fill:#f9c245;}.cls-131{fill:#fac244;}.cls-132{fill:#fac243;}.cls-133{fill:#fac242;}.cls-134{fill:#fac142;}.cls-135{fill:#fac141;}.cls-136{fill:#fac140;}</style><clipPath id="clip-path"><ellipse class="cls-1" cx="152.19" cy="253.42" rx="19.33" ry="12.51"/></clipPath><clipPath id="clip-path-2"><ellipse class="cls-1" cx="86.64" cy="66.21" rx="14.86" ry="14.6"/></clipPath></defs><path class="cls-2" d="M253.58,412.37c-8.12,9.11-38.93,9.33-100.23,9.39-62.39.07-93.76-.08-102.23-9.39C25.89,384.66,79.18,288.17,150,287.31,221.94,286.43,278.33,384.61,253.58,412.37Z"/><path class="cls-3" d="M77.69,208.24c-1.33-24.72-14.77-34.86-11.34-58.61,1.48-10.23,5.05-15.79,4.41-16-1.5-.61-23.5,29.51-22.17,64.55.9,23.79,12.46,47.37,19.3,46.63C73.83,244.12,78.59,224.82,77.69,208.24Z"/><g class="cls-4"><path class="cls-5" d="M64.94,231.68A44.88,44.88,0,0,1,62,189.57l.33.15a44.6,44.6,0,0,0,2.9,41.78Z"/></g><g class="cls-4"><path class="cls-5" d="M63.37,215.75a8.38,8.38,0,0,1-.55-7.87l.34.15a8,8,0,0,0-.69,3.64,8.11,8.11,0,0,0,1.21,3.89Z"/></g><path class="cls-3" d="M232.54,274.11c-15.86,29.15-53.4,30-77.93,30.6S90,306.21,72.63,276c-13.2-23-7.85-54.79,7.2-74.84,20.25-26.95,53.47-26.58,73.88-26.35,20.16.22,50.3.56,69.83,25.41C238.78,219.63,245.16,250.94,232.54,274.11Z"/><g class="cls-6"><path class="cls-7" d="M99.83,241l-.14-.46a182.74,182.74,0,0,1,42.74-6.59,226.43,226.43,0,0,1,62.14,6.1l-.12.46a226,226,0,0,0-62-6.08A181.55,181.55,0,0,0,99.83,241Z"/></g><g class="cls-8"><path class="cls-7" d="M133.29,213.7c-3-5.38-10.35-13.18-19.4-11.44-11.13,2.13-13.49,16.53-13.58,17.16-1,6.9,1.11,16.22,6.79,18.58,2.06.86,2.93.11,12.13-1.42,11-1.84,12.2-1.18,14.06-2.86C137.89,229.56,136.74,219.94,133.29,213.7Z"/></g><g class="cls-8"><path class="cls-9" d="M170.08,214c2.86-5.43,10.09-13.37,19.17-11.82,11.17,1.92,13.82,16.27,13.93,16.89,1.16,6.88-.78,16.24-6.42,18.72-2,.9-2.92.17-12.15-1.19-11-1.62-12.22-.94-14.12-2.59C165.81,230,166.76,220.35,170.08,214Z"/></g><ellipse class="cls-10" cx="178.41" cy="214.65" rx="4.85" ry="4.29"/><ellipse class="cls-10" cx="124.08" cy="214.65" rx="4.85" ry="4.29"/><path class="cls-11" d="M213.53,209a41.59,41.59,0,0,0-25.71-9.68,40.57,40.57,0,0,0-17.9,4q-2.1-5-4.19-10c15.87-4.06,29.51-2.39,35.54,1.86a46.88,46.88,0,0,1,7.74,7.2A41.58,41.58,0,0,1,213.53,209Z"/><path class="cls-11" d="M88.53,204.11a41.56,41.56,0,0,1,25.71-9.68,40.41,40.41,0,0,1,17.9,4q2.09-5,4.19-10c-15.87-4.06-29.52-2.39-35.54,1.86a46.41,46.41,0,0,0-7.74,7.2A41.58,41.58,0,0,0,88.53,204.11Z"/><g class="cls-12"><g class="cls-13"><rect class="cls-14" x="132.86" y="240.91" width="15.46" height="25.01"/><rect class="cls-14" x="148.33" y="240.91" width="0.41" height="25.01"/><rect class="cls-14" x="148.74" y="240.91" width="0.41" height="25.01"/><rect class="cls-14" x="149.16" y="240.91" width="0.41" height="25.01"/><rect class="cls-14" x="149.57" y="240.91" width="0.41" height="25.01"/><rect class="cls-14" x="149.98" y="240.91" width="0.41" height="25.01"/><rect class="cls-14" x="150.4" y="240.91" width="0.41" height="25.01"/><rect class="cls-14" x="150.81" y="240.91" width="0.41" height="25.01"/><rect class="cls-14" x="151.23" y="240.91" width="0.41" height="25.01"/><rect class="cls-14" x="151.64" y="240.91" width="0.41" height="25.01"/><rect class="cls-14" x="152.05" y="240.91" width="0.41" height="25.01"/><rect class="cls-14" x="152.47" y="240.91" width="0.41" height="25.01"/><rect class="cls-15" x="152.88" y="240.91" width="0.41" height="25.01"/><rect class="cls-15" x="153.3" y="240.91" width="0.41" height="25.01"/><rect class="cls-16" x="153.71" y="240.91" width="0.41" height="25.01"/><rect class="cls-16" x="154.13" y="240.91" width="0.41" height="25.01"/><rect class="cls-16" x="154.54" y="240.91" width="0.41" height="25.01"/><rect class="cls-16" x="154.95" y="240.91" width="0.41" height="25.01"/><rect class="cls-17" x="155.37" y="240.91" width="0.41" height="25.01"/><rect class="cls-17" x="155.78" y="240.91" width="0.41" height="25.01"/><rect class="cls-17" x="156.2" y="240.91" width="0.41" height="25.01"/><rect class="cls-18" x="156.61" y="240.91" width="0.41" height="25.01"/><rect class="cls-19" x="157.02" y="240.91" width="0.41" height="25.01"/><rect class="cls-19" x="157.44" y="240.91" width="0.41" height="25.01"/><rect class="cls-20" x="157.85" y="240.91" width="0.41" height="25.01"/><rect class="cls-21" x="158.27" y="240.91" width="0.41" height="25.01"/><rect class="cls-22" x="158.68" y="240.91" width="0.41" height="25.01"/><rect class="cls-22" x="159.1" y="240.91" width="0.41" height="25.01"/><rect class="cls-23" x="159.51" y="240.91" width="0.41" height="25.01"/><rect class="cls-24" x="159.92" y="240.91" width="0.41" height="25.01"/><rect class="cls-25" x="160.34" y="240.91" width="0.41" height="25.01"/><rect class="cls-26" x="160.75" y="240.91" width="0.41" height="25.01"/><rect class="cls-27" x="161.17" y="240.91" width="0.41" height="25.01"/><rect class="cls-27" x="161.58" y="240.91" width="0.41" height="25.01"/><rect class="cls-28" x="161.99" y="240.91" width="0.41" height="25.01"/><rect class="cls-29" x="162.41" y="240.91" width="0.41" height="25.01"/><rect class="cls-30" x="162.82" y="240.91" width="0.41" height="25.01"/><rect class="cls-31" x="163.24" y="240.91" width="0.41" height="25.01"/><rect class="cls-32" x="163.65" y="240.91" width="0.41" height="25.01"/><rect class="cls-33" x="164.07" y="240.91" width="0.41" height="25.01"/><rect class="cls-34" x="164.48" y="240.91" width="0.41" height="25.01"/><rect class="cls-35" x="164.89" y="240.91" width="0.41" height="25.01"/><rect class="cls-36" x="165.31" y="240.91" width="0.41" height="25.01"/><rect class="cls-37" x="165.72" y="240.91" width="0.41" height="25.01"/><rect class="cls-38" x="166.14" y="240.91" width="0.41" height="25.01"/><rect class="cls-39" x="166.55" y="240.91" width="0.41" height="25.01"/><rect class="cls-40" x="166.96" y="240.91" width="0.41" height="25.01"/><rect class="cls-41" x="167.38" y="240.91" width="0.41" height="25.01"/><rect class="cls-42" x="167.79" y="240.91" width="0.41" height="25.01"/><rect class="cls-43" x="168.21" y="240.91" width="0.41" height="25.01"/><rect class="cls-44" x="168.62" y="240.91" width="0.41" height="25.01"/><rect class="cls-45" x="169.04" y="240.91" width="0.41" height="25.01"/><rect class="cls-46" x="169.45" y="240.91" width="0.41" height="25.01"/><rect class="cls-47" x="169.86" y="240.91" width="0.41" height="25.01"/><rect class="cls-48" x="170.28" y="240.91" width="0.41" height="25.01"/><rect class="cls-49" x="170.69" y="240.91" width="0.41" height="25.01"/><rect class="cls-50" x="171.11" y="240.91" width="0.41" height="25.01"/></g></g><path class="cls-5" d="M152.42,276.33c-.07.14,11.76,4.46,24.5-.23,12.45-4.57,18.08-14.94,17.94-15s-.44.82-1.57,2.09a45.63,45.63,0,0,1-16.93,11.64A43,43,0,0,1,155.49,277C153.52,276.71,152.46,276.24,152.42,276.33Z"/><path class="cls-51" d="M210.23,190a129.35,129.35,0,0,0-110-6.06c-9.8,6.5-14.64,6.7-17.26,5.46-9.56-4.53-5-35.74,8.61-61.13,10.83-20.24,22.37-27.43,19-39.64C106.86,74.82,88.27,70.4,89.56,67.81,92,63,163.13,67,202.3,110.15c29.22,32.22,34.78,79.75,23.28,84.78C222.64,196.21,219.33,195,210.23,190Z"/><path class="cls-52" d="M229.94,210c-5.21-4.94-41.55-38.2-92.95-32-30.5,3.65-51.14,19.37-59.59,26.65a18.14,18.14,0,0,1-.69-17.78,125.91,125.91,0,0,1,74-23.89c43.67.23,72.69,23.43,80.2,29.83a19.48,19.48,0,0,1,1.39,5.21A20.67,20.67,0,0,1,229.94,210Z"/><polygon class="cls-52" points="113.2 175.52 83.16 157.63 78.91 191.9 113.2 175.52 83.16 157.63 78.91 191.9 113.2 175.52"/><path class="cls-52" d="M78.91,196a4.17,4.17,0,0,1-2.4-.76,4,4,0,0,1-1.73-3.29,3.91,3.91,0,0,1,0-.49l4.25-34.27A4.08,4.08,0,0,1,81.35,154a4.17,4.17,0,0,1,3.94.18l30.05,17.89a4,4,0,0,1,2,3.47v.18a4.06,4.06,0,0,1-2.32,3.46L80.71,195.54A4.23,4.23,0,0,1,78.91,196Zm7.57-31.6L83.91,185l20.68-9.87Z"/><polygon class="cls-52" points="139.86 166.21 114.53 144.85 106.64 176.72 139.86 166.21 114.53 144.85 106.64 176.72 139.86 166.21"/><path class="cls-52" d="M106.64,180.77a4.15,4.15,0,0,1-2.81-1.09,4,4,0,0,1-1.32-3,3.81,3.81,0,0,1,.12-1l7.9-31.87a4.07,4.07,0,0,1,2.74-2.89,4.15,4.15,0,0,1,4,.78l25.32,21.36a4,4,0,0,1,1.44,3.07,4.26,4.26,0,0,1-.08.8,4.09,4.09,0,0,1-2.78,3.06l-33.22,10.5A4.2,4.2,0,0,1,106.64,180.77ZM117,152.23l-4.56,18.41,19.19-6.07Z"/><polygon class="cls-52" points="172.12 167.16 155.02 139 137.22 166.74 172.12 167.16 155.02 139 137.22 166.74 172.12 167.16"/><path class="cls-52" d="M172.12,171.21h-.05l-34.9-.42a4.15,4.15,0,0,1-3.57-2.11,4.09,4.09,0,0,1-.5-1.94,4,4,0,0,1,.63-2.16l17.8-27.74a4.17,4.17,0,0,1,7,.08l17.1,28.16a4,4,0,0,1,.58,2.08,3.94,3.94,0,0,1-.55,2A4.13,4.13,0,0,1,172.12,171.21Zm-27.48-8.43,20.16.24-9.88-16.27Z"/><polygon class="cls-52" points="205.01 180.17 197.27 148.27 171.84 169.51 205.01 180.17 197.27 148.27 171.84 169.51 205.01 180.17"/><path class="cls-52" d="M205,184.22a4,4,0,0,1-1.28-.2l-33.17-10.66a4.07,4.07,0,0,1-2.76-3.06,4.21,4.21,0,0,1-.08-.78,4,4,0,0,1,1.45-3.09l25.43-21.24a4.18,4.18,0,0,1,4-.77,4.07,4.07,0,0,1,2.73,2.91l7.74,31.9a3.83,3.83,0,0,1,.11.94,4,4,0,0,1-1.33,3A4.14,4.14,0,0,1,205,184.22Zm-24.88-16.31,19.16,6.16-4.47-18.43Z"/><polygon class="cls-52" points="228.34 198.43 226.44 165.69 197.6 182.2 228.34 198.43 226.44 165.69 197.6 182.2 228.34 198.43"/><path class="cls-52" d="M228.34,202.48a4.27,4.27,0,0,1-2-.48l-30.73-16.24a4,4,0,0,1-2.17-3.49.2.2,0,0,1,0-.07,4,4,0,0,1,2.05-3.5l28.84-16.51a4.18,4.18,0,0,1,4-.07,4,4,0,0,1,2.16,3.34l1.9,32.74a1.69,1.69,0,0,1,0,.23,4,4,0,0,1-1.91,3.41A4.09,4.09,0,0,1,228.34,202.48ZM206,182.05l17.76,9.38-1.1-18.92Z"/><path class="cls-3" d="M230.87,202.71c4.31-24.39,18.88-32.89,18.34-56.87-.24-10.33-3.11-16.26-2.45-16.45,1.57-.43,19.78,32,14.24,66.67-3.77,23.52-18.1,45.59-24.79,44.06C230.38,238.79,228,219.08,230.87,202.71Z"/><g class="cls-4"><path class="cls-5" d="M240.71,227.48l-.29-.22a44.63,44.63,0,0,0,7.92-41.15l.35-.1a45,45,0,0,1-8,41.47Z"/></g><g class="cls-4"><path class="cls-5" d="M244.19,211.84l-.28-.22a8.23,8.23,0,0,0,1.67-3.72,8,8,0,0,0-.25-3.7l.35-.11a8.38,8.38,0,0,1-1.49,7.75Z"/></g><path class="cls-53" d="M211.31,316.3,95.94,318.08a12.44,12.44,0,0,1-9.58-10.43,12.3,12.3,0,0,1,6.4-12.34A180.71,180.71,0,0,0,213,293.66c.35.2,6.39,3.75,6.6,10.55A12.83,12.83,0,0,1,211.31,316.3Z"/><path class="cls-54" d="M212.91,312.14c.69-5.28-.34-12.68-3.6-12.72-3.62,0-12.11,8.91-11.85,16.91.16,4.8,3.54,11.56,2,16.95-.1.32-.23.72-.06.76C200.32,334.24,211.38,323.77,212.91,312.14Z"/><path class="cls-54" d="M90.64,313.49c-.7-5.28.33-12.67,3.6-12.71,3.61,0,12.11,8.9,11.84,16.91-.16,4.79-3.53,11.55-2,16.95.09.31.22.71,0,.75C103.22,335.59,92.16,325.12,90.64,313.49Z"/><path class="cls-54" d="M118.71,315.25c-1.1-5.37-4.68-12.1-8-10.86-3.72,1.37-9.37,13.33-6.36,20.95,1.8,4.56,7.58,9.75,7.84,15.56,0,.34,0,.78.21.75C113.37,341.48,121.12,327.06,118.71,315.25Z"/><path class="cls-54" d="M183.72,315.25c1.1-5.37,4.68-12.1,8-10.86,3.72,1.37,9.36,13.33,6.36,20.95-1.81,4.56-7.58,9.75-7.85,15.56,0,.34,0,.78-.2.75C189.06,341.48,181.3,327.06,183.72,315.25Z"/><path class="cls-54" d="M118.86,318.06c1.1-5.36,4.68-12.09,8-10.85,3.72,1.37,9.37,13.33,6.36,20.94-1.81,4.56-7.58,9.76-7.85,15.57,0,.34,0,.77-.2.74C124.2,344.3,116.45,329.87,118.86,318.06Z"/><path class="cls-54" d="M168.71,315.25c1.1-5.37,4.68-12.1,8-10.86,3.72,1.37,9.37,13.33,6.36,20.95-1.8,4.56-7.58,9.75-7.84,15.56,0,.34,0,.78-.2.75C174.05,341.48,166.3,327.06,168.71,315.25Z"/><path class="cls-54" d="M132,321c1-6,4.85-13.35,8.83-11.8,4.41,1.73,11.61,15.43,8.48,23.83-1.87,5-8.35,10.58-8.37,17.09,0,.38,0,.88-.19.83C139.59,350.74,129.81,334.16,132,321Z"/><path class="cls-54" d="M154.61,319.72c1.28-6.08,5.37-13.72,9.13-12.35,4.16,1.52,10.4,15,6.95,23.64-2.07,5.17-8.61,11.1-9,17.68,0,.38,0,.88-.23.84C160.36,349.36,151.79,333.1,154.61,319.72Z"/><path class="cls-54" d="M142.66,324.82c1.36-6.46,5.69-14.58,9.7-13.11,4.45,1.62,11.11,16,7.45,25.15-2.19,5.5-9.14,11.79-9.5,18.79,0,.4,0,.93-.24.9C148.85,356.35,139.69,339.05,142.66,324.82Z"/><path class="cls-54" d="M91.28,313.76c4.21-3.35,8.67-9.39,6.34-11.64-2.58-2.48-15-1.78-20.46,4.19-3.25,3.57-5.56,10.75-10.47,13.61-.29.16-.67.36-.57.5C66.64,321.19,82,321.13,91.28,313.76Z"/><path class="cls-54" d="M213,312.47c-4.27-3.29-8.82-9.26-6.52-11.54,2.54-2.53,15-2,20.51,3.87,3.32,3.52,5.74,10.66,10.7,13.44.29.17.67.36.58.5C237.71,319.52,222.36,319.69,213,312.47Z"/><path class="cls-54" d="M208.22,313.8c-.2-3.9,1.11-9.15,3.74-8.81,2.91.38,9.14,7.82,8.4,13.59-.44,3.46-3.6,8-2.72,12.06.05.24.13.54,0,.55C216.88,331.23,208.68,322.4,208.22,313.8Z"/><path class="cls-54" d="M87.35,314.61c2.24-3.23,6.51-6.63,8.39-4.8,2.09,2,2.48,11.66-1.66,15.82-2.48,2.49-7.77,4.21-9.58,8-.11.22-.23.51-.35.44C83.53,333.64,82.43,321.74,87.35,314.61Z"/><g class="cls-55"><ellipse class="cls-56" cx="86.64" cy="68.21" rx="14.86" ry="14.6"/></g><g class="cls-57"><rect class="cls-58" x="71.78" y="51.61" width="29.72" height="29.2"/><ellipse class="cls-58" cx="86.64" cy="66.21" rx="14.86" ry="14.6"/><ellipse class="cls-59" cx="86.64" cy="66.21" rx="14.74" ry="14.48"/><ellipse class="cls-60" cx="86.64" cy="66.21" rx="14.61" ry="14.36"/><ellipse class="cls-61" cx="86.64" cy="66.21" rx="14.49" ry="14.24"/><ellipse class="cls-62" cx="86.64" cy="66.21" rx="14.37" ry="14.12"/><ellipse class="cls-63" cx="86.64" cy="66.21" rx="14.25" ry="14"/><ellipse class="cls-64" cx="86.64" cy="66.21" rx="14.12" ry="13.88"/><ellipse class="cls-65" cx="86.64" cy="66.21" rx="14" ry="13.76"/><ellipse class="cls-66" cx="86.64" cy="66.21" rx="13.88" ry="13.64"/><ellipse class="cls-67" cx="86.64" cy="66.21" rx="13.75" ry="13.52"/><ellipse class="cls-68" cx="86.64" cy="66.21" rx="13.63" ry="13.39"/><ellipse class="cls-69" cx="86.64" cy="66.21" rx="13.51" ry="13.27"/><ellipse class="cls-70" cx="86.64" cy="66.21" rx="13.39" ry="13.15"/><ellipse class="cls-71" cx="86.64" cy="66.21" rx="13.26" ry="13.03"/><ellipse class="cls-72" cx="86.64" cy="66.21" rx="13.14" ry="12.91"/><ellipse class="cls-73" cx="86.64" cy="66.21" rx="13.02" ry="12.79"/><ellipse class="cls-74" cx="86.64" cy="66.21" rx="12.89" ry="12.67"/><ellipse class="cls-75" cx="86.64" cy="66.21" rx="12.77" ry="12.55"/><ellipse class="cls-76" cx="86.64" cy="66.21" rx="12.65" ry="12.43"/><ellipse class="cls-77" cx="86.64" cy="66.21" rx="12.53" ry="12.31"/><ellipse class="cls-78" cx="86.64" cy="66.21" rx="12.4" ry="12.19"/><ellipse class="cls-79" cx="86.64" cy="66.21" rx="12.28" ry="12.07"/><ellipse class="cls-80" cx="86.64" cy="66.21" rx="12.16" ry="11.95"/><ellipse class="cls-80" cx="86.64" cy="66.21" rx="12.04" ry="11.83"/><ellipse class="cls-81" cx="86.64" cy="66.21" rx="11.91" ry="11.7"/><ellipse class="cls-82" cx="86.64" cy="66.21" rx="11.79" ry="11.58"/><ellipse class="cls-83" cx="86.64" cy="66.21" rx="11.67" ry="11.46"/><ellipse class="cls-84" cx="86.64" cy="66.21" rx="11.54" ry="11.34"/><ellipse class="cls-84" cx="86.64" cy="66.21" rx="11.42" ry="11.22"/><ellipse class="cls-85" cx="86.64" cy="66.21" rx="11.3" ry="11.1"/><ellipse class="cls-86" cx="86.64" cy="66.21" rx="11.18" ry="10.98"/><ellipse class="cls-87" cx="86.64" cy="66.21" rx="11.05" ry="10.86"/><ellipse class="cls-87" cx="86.64" cy="66.21" rx="10.93" ry="10.74"/><ellipse class="cls-88" cx="86.64" cy="66.21" rx="10.81" ry="10.62"/><ellipse class="cls-89" cx="86.64" cy="66.21" rx="10.68" ry="10.5"/><ellipse class="cls-89" cx="86.64" cy="66.21" rx="10.56" ry="10.38"/><ellipse class="cls-90" cx="86.64" cy="66.21" rx="10.44" ry="10.26"/><ellipse class="cls-90" cx="86.64" cy="66.21" rx="10.32" ry="10.14"/><ellipse class="cls-91" cx="86.64" cy="66.21" rx="10.19" ry="10.02"/><ellipse class="cls-91" cx="86.64" cy="66.21" rx="10.07" ry="9.89"/><ellipse class="cls-92" cx="86.64" cy="66.21" rx="9.95" ry="9.77"/><ellipse class="cls-93" cx="86.64" cy="66.21" rx="9.82" ry="9.65"/><ellipse class="cls-93" cx="86.64" cy="66.21" rx="9.7" ry="9.53"/><ellipse class="cls-94" cx="86.64" cy="66.21" rx="9.58" ry="9.41"/><ellipse class="cls-94" cx="86.64" cy="66.21" rx="9.46" ry="9.29"/><ellipse class="cls-95" cx="86.64" cy="66.21" rx="9.33" ry="9.17"/><ellipse class="cls-96" cx="86.64" cy="66.21" rx="9.21" ry="9.05"/><ellipse class="cls-96" cx="86.64" cy="66.21" rx="9.09" ry="8.93"/><ellipse class="cls-97" cx="86.64" cy="66.21" rx="8.96" ry="8.81"/><ellipse class="cls-97" cx="86.64" cy="66.21" rx="8.84" ry="8.69"/><ellipse class="cls-98" cx="86.64" cy="66.21" rx="8.72" ry="8.57"/><ellipse class="cls-99" cx="86.64" cy="66.21" rx="8.6" ry="8.45"/><ellipse class="cls-100" cx="86.64" cy="66.21" rx="8.47" ry="8.33"/><ellipse class="cls-101" cx="86.64" cy="66.21" rx="8.35" ry="8.21"/><ellipse class="cls-101" cx="86.64" cy="66.21" rx="8.23" ry="8.08"/><ellipse class="cls-102" cx="86.64" cy="66.21" rx="8.11" ry="7.96"/><ellipse class="cls-103" cx="86.64" cy="66.21" rx="7.98" ry="7.84"/><ellipse class="cls-104" cx="86.64" cy="66.21" rx="7.86" ry="7.72"/><ellipse class="cls-105" cx="86.64" cy="66.21" rx="7.74" ry="7.6"/><ellipse class="cls-106" cx="86.64" cy="66.21" rx="7.61" ry="7.48"/><ellipse class="cls-107" cx="86.64" cy="66.21" rx="7.49" ry="7.36"/><ellipse class="cls-107" cx="86.64" cy="66.21" rx="7.37" ry="7.24"/><ellipse class="cls-108" cx="86.64" cy="66.21" rx="7.25" ry="7.12"/><ellipse class="cls-109" cx="86.64" cy="66.21" rx="7.12" ry="7"/><ellipse class="cls-110" cx="86.64" cy="66.21" rx="7" ry="6.88"/><ellipse class="cls-110" cx="86.64" cy="66.21" rx="6.88" ry="6.76"/><ellipse class="cls-111" cx="86.64" cy="66.21" rx="6.75" ry="6.64"/><ellipse class="cls-112" cx="86.64" cy="66.21" rx="6.63" ry="6.52"/><ellipse class="cls-113" cx="86.64" cy="66.21" rx="6.51" ry="6.4"/><ellipse class="cls-113" cx="86.64" cy="66.21" rx="6.39" ry="6.27"/><ellipse class="cls-114" cx="86.64" cy="66.21" rx="6.26" ry="6.15"/><ellipse class="cls-115" cx="86.64" cy="66.21" rx="6.14" ry="6.03"/><ellipse class="cls-115" cx="86.64" cy="66.21" rx="6.02" ry="5.91"/><ellipse class="cls-116" cx="86.64" cy="66.21" rx="5.89" ry="5.79"/><ellipse class="cls-117" cx="86.64" cy="66.21" rx="5.77" ry="5.67"/><ellipse class="cls-118" cx="86.64" cy="66.21" rx="5.65" ry="5.55"/><ellipse class="cls-118" cx="86.64" cy="66.21" rx="5.53" ry="5.43"/><ellipse class="cls-119" cx="86.64" cy="66.21" rx="5.4" ry="5.31"/><ellipse class="cls-120" cx="86.64" cy="66.21" rx="5.28" ry="5.19"/><ellipse class="cls-120" cx="86.64" cy="66.21" rx="5.16" ry="5.07"/><ellipse class="cls-121" cx="86.64" cy="66.21" rx="5.04" ry="4.95"/><ellipse class="cls-121" cx="86.64" cy="66.21" rx="4.91" ry="4.83"/><ellipse class="cls-122" cx="86.64" cy="66.21" rx="4.79" ry="4.71"/><ellipse class="cls-122" cx="86.64" cy="66.21" rx="4.67" ry="4.59"/><ellipse class="cls-123" cx="86.64" cy="66.21" rx="4.54" ry="4.46"/><ellipse class="cls-124" cx="86.64" cy="66.21" rx="4.42" ry="4.34"/><ellipse class="cls-124" cx="86.64" cy="66.21" rx="4.3" ry="4.22"/><ellipse class="cls-125" cx="86.64" cy="66.21" rx="4.18" ry="4.1"/><ellipse class="cls-126" cx="86.64" cy="66.21" rx="4.05" ry="3.98"/><ellipse class="cls-127" cx="86.64" cy="66.21" rx="3.93" ry="3.86"/><ellipse class="cls-127" cx="86.64" cy="66.21" rx="3.81" ry="3.74"/><ellipse class="cls-127" cx="86.64" cy="66.21" rx="3.68" ry="3.62"/><ellipse class="cls-128" cx="86.64" cy="66.21" rx="3.56" ry="3.5"/><ellipse class="cls-128" cx="86.64" cy="66.21" rx="3.44" ry="3.38"/><ellipse class="cls-129" cx="86.64" cy="66.21" rx="3.32" ry="3.26"/><ellipse class="cls-129" cx="86.64" cy="66.21" rx="3.19" ry="3.14"/><ellipse class="cls-129" cx="86.64" cy="66.21" rx="3.07" ry="3.02"/><ellipse class="cls-130" cx="86.64" cy="66.21" rx="2.95" ry="2.9"/><ellipse class="cls-130" cx="86.64" cy="66.21" rx="2.82" ry="2.78"/><ellipse class="cls-130" cx="86.64" cy="66.21" rx="2.7" ry="2.65"/><ellipse class="cls-131" cx="86.64" cy="66.21" rx="2.58" ry="2.53"/><ellipse class="cls-131" cx="86.64" cy="66.21" rx="2.46" ry="2.41"/><ellipse class="cls-131" cx="86.64" cy="66.21" rx="2.33" ry="2.29"/><ellipse class="cls-132" cx="86.64" cy="66.21" rx="2.21" ry="2.17"/><ellipse class="cls-132" cx="86.64" cy="66.21" rx="2.09" ry="2.05"/><ellipse class="cls-132" cx="86.64" cy="66.21" rx="1.96" ry="1.93"/><ellipse class="cls-133" cx="86.64" cy="66.21" rx="1.84" ry="1.81"/><ellipse class="cls-133" cx="86.64" cy="66.21" rx="1.72" ry="1.69"/><ellipse class="cls-133" cx="86.64" cy="66.21" rx="1.6" ry="1.57"/><ellipse class="cls-133" cx="86.64" cy="66.21" rx="1.47" ry="1.45"/><ellipse class="cls-134" cx="86.64" cy="66.21" rx="1.35" ry="1.33"/><ellipse class="cls-135" cx="86.64" cy="66.21" rx="1.23" ry="1.21"/><ellipse class="cls-135" cx="86.64" cy="66.21" rx="1.11" ry="1.09"/><ellipse class="cls-135" cx="86.64" cy="66.21" rx="0.98" ry="0.97"/><ellipse class="cls-135" cx="86.64" cy="66.21" rx="0.86" ry="0.84"/><ellipse class="cls-135" cx="86.64" cy="66.21" rx="0.74" ry="0.72"/><ellipse class="cls-135" cx="86.64" cy="66.21" rx="0.61" ry="0.6"/><ellipse class="cls-136" cx="86.64" cy="66.21" rx="0.49" ry="0.48"/><ellipse class="cls-136" cx="86.64" cy="66.21" rx="0.37" ry="0.36"/><ellipse class="cls-136" cx="86.64" cy="66.21" rx="0.25" ry="0.24"/><circle class="cls-136" cx="86.64" cy="66.21" r="0.12"/></g></svg>