<svg id="Layer_1" data-name="Layer 1" xmlns="http://www.w3.org/2000/svg" viewBox="0 0 110 40"><defs><style>.cls-1{opacity:0.8;}.cls-2{fill:#060305;}.cls-3{fill:#fff;}</style></defs><g class="cls-1"><path class="cls-2" d="M35.63,13.08C32.52,7.35,24.78-1,15.3.88,3.65,3.16,1.17,18.51,1.07,19.18,0,26.54,2.23,36.47,8.19,39c2.16.91,3.06.11,12.7-1.53,11.53-2,12.79-1.25,14.74-3C40.45,30,39.24,19.74,35.63,13.08Z"/></g><g class="cls-1"><path class="cls-2" d="M74.17,13.44C77.17,7.66,84.74-.82,94.25.85c11.71,2,14.49,17.34,14.6,18,1.22,7.34-.82,17.32-6.72,20-2.14,1-3.06.18-12.73-1.27-11.56-1.73-12.81-1-14.8-2.76C69.7,30.45,70.69,20.18,74.17,13.44Z"/></g><ellipse class="cls-3" cx="82.89" cy="14.1" rx="5.08" ry="4.57"/><ellipse class="cls-3" cx="25.98" cy="14.1" rx="5.08" ry="4.57"/></svg>