<svg id="Layer_1" data-name="Layer 1" xmlns="http://www.w3.org/2000/svg" xmlns:xlink="http://www.w3.org/1999/xlink" viewBox="0 0 235.65 256.5"><defs><style>.cls-1{fill:none;}.cls-2{fill:#166037;}.cls-3{fill:#060305;}.cls-4{fill:#b31f2b;}.cls-5{fill:#00582d;}.cls-6{fill:#126337;}.cls-7{fill:#eec4a6;}.cls-8{opacity:0.29;}.cls-9{opacity:0.95;}.cls-10{fill:#040102;}.cls-11{fill:#fff;}.cls-12{fill:#473332;}.cls-13{fill:#2f0d00;}.cls-14{fill:#004c1f;}.cls-15{opacity:0.7;}.cls-16{fill:#009151;}.cls-17{fill:#351512;}.cls-18{fill:#f2eb3f;}.cls-19{fill:#eab592;}.cls-20{opacity:0.64;}.cls-21{fill:#575b64;}.cls-22{clip-path:url(#clip-path);}.cls-23{fill:#efd68d;}.cls-24{fill:#efd68c;}.cls-25{fill:#efd58b;}.cls-26{fill:#efd589;}.cls-27{fill:#efd488;}.cls-28{fill:#f0d487;}.cls-29{fill:#f0d486;}.cls-30{fill:#f0d384;}.cls-31{fill:#f0d383;}.cls-32{fill:#f0d282;}.cls-33{fill:#f0d281;}.cls-34{fill:#f0d280;}.cls-35{fill:#f0d27f;}.cls-36{fill:#f0d17d;}.cls-37{fill:#f0d17c;}.cls-38{fill:#f1d17b;}.cls-39{fill:#f1d07a;}.cls-40{fill:#f1d079;}.cls-41{fill:#f1d078;}.cls-42{fill:#f1d077;}.cls-43{fill:#f1cf76;}.cls-44{fill:#f1cf75;}.cls-45{fill:#f1cf74;}.cls-46{fill:#f2cf73;}.cls-47{fill:#f2ce72;}.cls-48{fill:#f2ce71;}.cls-49{fill:#f2ce70;}.cls-50{fill:#f2ce6f;}.cls-51{fill:#f2cd6e;}.cls-52{fill:#f2cd6d;}.cls-53{fill:#f3cd6c;}.cls-54{fill:#f3cd6b;}.cls-55{fill:#f3cc6a;}.cls-56{fill:#f3cc69;}.cls-57{fill:#f3cc68;}.cls-58{fill:#f3cb67;}.cls-59{fill:#f4cb66;}.cls-60{fill:#f4cb65;}.cls-61{fill:#f4ca64;}.cls-62{fill:#f4ca63;}.cls-63{fill:#f4ca62;}.cls-64{fill:#f5c962;}.cls-65{fill:#f5c961;}.cls-66{fill:#f5c960;}.cls-67{fill:#f5c95f;}.cls-68{fill:#f5c95e;}.cls-69{fill:#f5c85e;}.cls-70{fill:#f5c85d;}.cls-71{fill:#f6c85c;}.cls-72{fill:#f6c85b;}.cls-73{fill:#f6c75a;}.cls-74{fill:#f6c759;}.cls-75{fill:#f6c758;}.cls-76{fill:#f6c757;}.cls-77{fill:#f6c656;}.cls-78{fill:#f7c655;}.cls-79{fill:#f7c654;}.cls-80{fill:#f7c653;}.cls-81{fill:#f7c652;}.cls-82{fill:#f7c551;}.cls-83{fill:#f7c550;}.cls-84{fill:#f8c54f;}.cls-85{fill:#f8c54e;}.cls-86{fill:#f8c44d;}.cls-87{fill:#f8c44c;}.cls-88{fill:#f8c44b;}.cls-89{fill:#f8c44a;}.cls-90{fill:#f8c449;}.cls-91{fill:#f9c349;}.cls-92{fill:#f9c348;}.cls-93{fill:#f9c347;}.cls-94{fill:#f9c346;}.cls-95{fill:#f9c245;}.cls-96{fill:#fac244;}.cls-97{fill:#fac243;}.cls-98{fill:#fac242;}.cls-99{fill:#fac142;}.cls-100{fill:#fac141;}.cls-101{fill:#fac140;}</style><clipPath id="clip-path"><circle class="cls-1" cx="111.21" cy="7.39" r="7.39"/></clipPath></defs><path class="cls-2" d="M117.43,151a12.17,12.17,0,0,0-5.1-8.4c-3.93-2.45-7.25.34-20.54,8.06-12.08,7-15.84,8.49-16,13a12.28,12.28,0,0,0,4.33,9.07c5.08,4.17,11.91.6,19.4-3.33C107.93,165,118.47,159.5,117.43,151Z"/><path class="cls-3" d="M83.61,174.44c-1.78,2.81-7,.86-15.61,1.66a4.76,4.76,0,0,1-2.49-.35,5.57,5.57,0,0,1-3.08-4.16c-.36-4.24,8.83-11.9,15.74-8.76C82.83,165,85.44,171.54,83.61,174.44Z"/><path class="cls-3" d="M79.12,174.69c-.19,4.39-5.79,8.23-7.82,7-1.59-.92-1.31-5.12-.06-7.95.27-.62,2-4.45,4.36-4.43C77.68,169.38,79.22,172.26,79.12,174.69Z"/><circle class="cls-4" cx="82.95" cy="166.98" r="4.34"/><circle class="cls-4" cx="80.06" cy="160.83" r="4.34"/><circle class="cls-4" cx="79.32" cy="171.93" r="4.34"/><circle class="cls-4" cx="76.46" cy="166.02" r="4.34"/><circle class="cls-4" cx="86.32" cy="173.05" r="4.34"/><path class="cls-2" d="M177.8,149a12.17,12.17,0,0,1,3.48-9.18c3.42-3.12,7.19-1,21.66,4.17,13.16,4.7,17.12,5.46,18.06,9.86a12.33,12.33,0,0,1-2.6,9.71c-4.24,5-11.6,2.76-19.69.28C189.69,161,178.33,157.52,177.8,149Z"/><path class="cls-3" d="M215.33,165.85c2.27,2.44,7-.42,15.65-1.21a5,5,0,0,0,2.39-.8,5.58,5.58,0,0,0,2.26-4.66c-.42-4.23-10.85-10.08-17.07-5.74C214.36,156.38,213,163.34,215.33,165.85Z"/><path class="cls-3" d="M219.79,165.27c1,4.29,7.2,7,9,5.51,1.4-1.2.35-5.28-1.39-7.84-.37-.55-2.72-4-5.1-3.55C220.23,159.79,219.25,162.9,219.79,165.27Z"/><circle class="cls-4" cx="214.61" cy="158.39" r="4.34"/><circle class="cls-4" cx="216.34" cy="151.82" r="4.34"/><circle class="cls-4" cx="219.09" cy="162.6" r="4.34"/><circle class="cls-4" cx="220.82" cy="156.27" r="4.34"/><circle class="cls-4" cx="212.41" cy="164.98" r="4.34"/><polygon class="cls-5" points="137.72 245.1 125.51 244.52 126.67 204.61 138.88 205.19 137.72 245.1"/><rect class="cls-5" x="162.43" y="203.75" width="11.86" height="39.95" transform="translate(358.23 429.51) rotate(174.27)"/><path class="cls-3" d="M164.26,252.56c2.23,4.6,16.41,1.83,19.29,1.26,4.95-1,12.54-2.45,14.23-7.59a7.85,7.85,0,0,0-.72-6.06c-3-5-11.86-5.14-17.34-3.72C170.16,238.94,162.27,248.43,164.26,252.56Z"/><path class="cls-3" d="M161.24,225.72c-2,2.05-1.27,7.29.19,17.67,1,6.93,1.63,9.07,3.84,10.4,2.67,1.61,6.55,1.37,9.26.15,6.55-2.95,6.92-11.84,7-15.19.18-5,.44-12.42-5.56-15.35C171.41,221.16,164.52,222.29,161.24,225.72Z"/><path class="cls-3" d="M139.2,253.34c-1.94,4.74-16.26,2.85-19.17,2.47-5-.66-12.68-1.67-14.68-6.7a7.82,7.82,0,0,1,.34-6.08c2.69-5.2,11.52-5.88,17.07-4.8C132.46,240.12,140.93,249.09,139.2,253.34Z"/><path class="cls-3" d="M140.54,226.37c2.08,1.92,1.72,7.19.91,17.65-.54,7-1.06,9.15-3.18,10.61-2.57,1.78-6.45,1.78-9.24.73-6.71-2.53-7.64-11.39-8-14.72-.49-5-1.22-12.37,4.59-15.67C130.1,222.45,137.05,223.15,140.54,226.37Z"/><path class="cls-6" d="M209.51,206.47c-4.51,6.26-22.33,7-57.8,8.12-36.1,1.17-54.25,1.63-59.35-4.46C77.18,192,106,126.25,147,124.39,188.56,122.5,223.25,187.39,209.51,206.47Z"/><path class="cls-7" d="M186.59,118.7c-7.43,15-26.07,16-38.25,16.69s-32.11,1.76-41.2-13.25c-6.92-11.43-4.77-27.59,2.4-38,9.63-14,26.15-14.28,36.3-14.48s25-.5,35.1,11.77C188.83,91.05,192.49,106.79,186.59,118.7Z"/><g class="cls-8"><path class="cls-3" d="M120.1,104l-.07-.23a89.13,89.13,0,0,1,21.14-4,111.2,111.2,0,0,1,31,2.12l-.06.24A110.66,110.66,0,0,0,141.18,100,88.72,88.72,0,0,0,120.1,104Z"/></g><g class="cls-9"><path class="cls-3" d="M136.31,89.68c-1.56-2.67-5.36-6.5-9.83-5.48C121,85.45,120,92.77,120,93.09c-.4,3.51.81,8.19,3.67,9.3,1,.4,1.46,0,6-.92,5.43-1.1,6-.78,6.94-1.66C138.84,97.64,138.12,92.79,136.31,89.68Z"/></g><g class="cls-9"><path class="cls-10" d="M154.6,89.29c1.33-2.79,4.8-6.92,9.33-6.28,5.59.8,7.13,8,7.19,8.33.69,3.46-.13,8.23-2.89,9.57-1,.48-1.45.13-6.06-.42-5.51-.65-6.09-.28-7.06-1.09C152.72,97.42,153,92.53,154.6,89.29Z"/></g><ellipse class="cls-11" cx="158.74" cy="89.47" rx="2.41" ry="2.17" transform="translate(-2.71 5) rotate(-1.79)"/><ellipse class="cls-11" cx="131.74" cy="90.31" rx="2.41" ry="2.17" transform="translate(-2.75 4.15) rotate(-1.79)"/><path class="cls-12" d="M176.11,86.07a20.49,20.49,0,0,0-12.93-4.5,19.89,19.89,0,0,0-8.84,2.28l-2.24-5c7.83-2.3,14.63-1.66,17.7.39a23.43,23.43,0,0,1,4,3.53A21.6,21.6,0,0,1,176.11,86.07Z"/><path class="cls-12" d="M113.91,85.53a20.43,20.43,0,0,1,12.62-5.29,19.8,19.8,0,0,1,9,1.72l1.92-5.13c-7.95-1.8-14.7-.75-17.63,1.49a23.66,23.66,0,0,0-3.73,3.77A20.33,20.33,0,0,0,113.91,85.53Z"/><path class="cls-13" d="M146.8,121.07a18.17,18.17,0,0,0,12.17-.5,17.21,17.21,0,0,0,8.68-7.86s-.2.42-.75,1.08a22.67,22.67,0,0,1-8.23,6.15,21,21,0,0,1-10.33,1.41C147.36,121.25,146.82,121,146.8,121.07Z"/><path class="cls-4" d="M184.28,86.33c-2.67-2.42-21.25-18.68-46.7-14.77A55.56,55.56,0,0,0,108.38,86a9.34,9.34,0,0,1-.62-9,61,61,0,0,1,76.72.62,9.54,9.54,0,0,1,.77,2.61A10.51,10.51,0,0,1,184.28,86.33Z"/><path class="cls-14" d="M174.16,76.14a57.6,57.6,0,0,0-32.08-8,56.69,56.69,0,0,0-22.69,6.17c-4.75,3.9-7.15,4.09-8.48,3.42-4.83-2.47-3.11-20.57,3.18-35.45,5-11.86,10.62-16.19,8.75-23.19C120.7,11.18,111.38,8.92,112,7.4c1.12-2.83,36.55-1.64,56.8,22.71,15.1,18.16,18.72,45.53,13.09,48.62C180.43,79.51,178.77,78.86,174.16,76.14Z"/><polygon class="cls-4" points="124.36 69.47 109.15 60.88 107.58 78.28 124.36 69.47 109.15 60.88 107.58 78.28 124.36 69.47"/><path class="cls-4" d="M107.72,82.74a4.45,4.45,0,0,1-4.61-4.32,4.87,4.87,0,0,1,0-.54l1.57-17.4A4.47,4.47,0,0,1,111.34,57l15.22,8.58a4.49,4.49,0,0,1,2.27,3.76v.2a4.45,4.45,0,0,1-2.39,3.89l-16.79,8.82A4.43,4.43,0,0,1,107.72,82.74ZM113,68.17l-.22,2.34L115,69.32Z"/><polygon class="cls-4" points="138.82 65.56 125.89 55.15 122.47 71.39 138.82 65.56 125.89 55.15 122.47 71.39 138.82 65.56"/><path class="cls-4" d="M122.61,75.86a4.53,4.53,0,0,1-3.08-1.1A4.46,4.46,0,0,1,118,71.53a4.75,4.75,0,0,1,.09-1.06l3.42-16.24a4.48,4.48,0,0,1,7.18-2.56l12.92,10.42a4.44,4.44,0,0,1,1.66,3.34,4.34,4.34,0,0,1-.06.88,4.45,4.45,0,0,1-2.9,3.46L124,75.6A4.55,4.55,0,0,1,122.61,75.86Zm6.15-12.66-.27,1.3L129.8,64Z"/><polygon class="cls-4" points="154.87 65.54 145.92 51.56 137.52 65.87 154.87 65.54 145.92 51.56 137.52 65.87 154.87 65.54"/><path class="cls-4" d="M155,70H155l-17.35.33a4.46,4.46,0,0,1-3.94-2.21,4.48,4.48,0,0,1,0-4.52l8.41-14.31a4.48,4.48,0,0,1,3.71-2.2h.06a4.48,4.48,0,0,1,3.85,2.06l8.94,14a4.49,4.49,0,0,1,.18,4.51A4.49,4.49,0,0,1,155,70Zm-9.6-8.76,1.39,0-.71-1.12Z"/><polygon class="cls-4" points="171.42 71.61 167.07 55.6 154.77 66.74 171.42 71.61 167.07 55.6 154.77 66.74 171.42 71.61"/><path class="cls-4" d="M171.56,76.08a4.18,4.18,0,0,1-1.4-.18L153.51,71a4.49,4.49,0,0,1-3.1-3.29,5.19,5.19,0,0,1-.11-.86,4.47,4.47,0,0,1,1.47-3.45l12.3-11.14a4.46,4.46,0,0,1,7.31,2.14l4.35,16a5.35,5.35,0,0,1,.16,1,4.52,4.52,0,0,1-1.34,3.33A4.48,4.48,0,0,1,171.56,76.08Zm-7.88-11.39,1.34.39-.35-1.28Z"/><polygon class="cls-4" points="183.3 80.49 181.84 63.96 167.77 72.75 183.3 80.49 181.84 63.96 167.77 72.75 183.3 80.49"/><path class="cls-4" d="M183.89,83a4.43,4.43,0,0,1-2.13-.46l-15.53-7.74A4.43,4.43,0,0,1,163.76,71a.17.17,0,0,1,0-.07,4.46,4.46,0,0,1,2.1-3.93l14.07-8.8a4.47,4.47,0,0,1,6.82,3.39l1.46,16.53a2.28,2.28,0,0,1,0,.26,4.45,4.45,0,0,1-1.95,3.83A4.4,4.4,0,0,1,183.89,83Zm-6.53-12.64,1.24.62-.12-1.32Z"/><path class="cls-7" d="M184.63,82.61c1.76-12.4,8.86-16.93,8.21-29-.28-5.22-1.8-8.17-1.47-8.28.77-.24,10.33,15.9,8.13,33.5-1.5,12-8.28,23.34-11.63,22.67C185,100.87,183.45,90.94,184.63,82.61Z"/><g class="cls-15"><path class="cls-13" d="M189.91,95l-.15-.11A22.87,22.87,0,0,0,193.05,74l.17-.06A23.07,23.07,0,0,1,189.91,95Z"/></g><g class="cls-15"><path class="cls-13" d="M191.39,87l-.14-.11A4.18,4.18,0,0,0,192,85a4.24,4.24,0,0,0-.18-1.87l.17-.06a4.31,4.31,0,0,1,.19,2A4.36,4.36,0,0,1,191.39,87Z"/></g><path class="cls-16" d="M176.7,140.37l-57.31,2.69a6.23,6.23,0,0,1-1.94-11.47,88.3,88.3,0,0,0,59.73-2.7,6.85,6.85,0,0,1,3.45,5.24A6.49,6.49,0,0,1,176.7,140.37Z"/><path class="cls-16" d="M177.43,138.24c.26-2.68-.37-6.41-2-6.37-1.8,0-5.88,4.69-5.62,8.73.15,2.43,1.94,5.79,1.26,8.55,0,.16-.1.36,0,.38C171.52,149.62,176.85,144.15,177.43,138.24Z"/><path class="cls-16" d="M116.68,140.82c-.43-2.66,0-6.41,1.59-6.48,1.79-.08,6.16,4.31,6.15,8.37,0,2.42-1.57,5.89-.72,8.6,0,.16.12.36,0,.38C123.29,151.81,117.62,146.68,116.68,140.82Z"/><path class="cls-16" d="M130.66,141.27c-.63-2.69-2.52-6-4.17-5.36-1.82.75-4.44,6.89-2.83,10.69,1,2.28,3.92,4.82,4.15,7.75,0,.17,0,.4.11.38C128.42,154.63,132.05,147.21,130.66,141.27Z"/><path class="cls-16" d="M163,140.27c.46-2.73,2.14-6.19,3.82-5.62,1.88.64,4.87,6.6,3.49,10.5-.82,2.33-3.61,5-3.65,8,0,.17,0,.39-.09.38C166,153.45,162,146.28,163,140.27Z"/><path class="cls-16" d="M130.78,142.7c.46-2.73,2.13-6.19,3.82-5.62,1.87.64,4.87,6.6,3.49,10.5-.82,2.33-3.61,5-3.65,8,0,.17,0,.4-.09.38C133.85,155.88,129.77,148.71,130.78,142.7Z"/><path class="cls-16" d="M155.51,140.5c.46-2.73,2.14-6.19,3.83-5.62,1.87.64,4.86,6.6,3.49,10.5-.83,2.33-3.62,5.05-3.66,8,0,.18,0,.4-.08.39C158.58,153.69,154.5,146.51,155.51,140.5Z"/><path class="cls-16" d="M137.37,144c.41-3,2.2-6.83,4.21-6.1,2.22.8,6,7.62,4.59,11.91-.85,2.58-4,5.49-3.89,8.78,0,.19,0,.44-.08.42C141.6,158.9,136.48,150.67,137.37,144Z"/><path class="cls-16" d="M148.57,143c.54-3.09,2.45-7,4.35-6.39,2.09.71,5.4,7.43,3.82,11.85-.94,2.65-4.1,5.75-4.17,9.08,0,.2,0,.45-.1.43C151.9,157.88,147.38,149.79,148.57,143Z"/><path class="cls-16" d="M142.72,145.75c.57-3.29,2.59-7.47,4.61-6.79,2.23.75,5.77,7.91,4.1,12.61-1,2.82-4.36,6.11-4.43,9.65,0,.21,0,.47-.1.46C146.29,161.6,141.46,153,142.72,145.75Z"/><path class="cls-16" d="M117,141c2-1.76,4.17-4.89,3-6s-7.49-.66-10.1,2.44c-1.56,1.86-2.6,5.52-5,7-.14.09-.33.2-.28.27C104.88,145.09,112.51,144.82,117,141Z"/><path class="cls-16" d="M177.46,138.41c-2.17-1.6-4.53-4.55-3.43-5.74s7.42-1.25,10.26,1.64c1.71,1.73,3,5.31,5.53,6.64.15.07.34.17.3.24C189.87,141.59,182.24,141.92,177.46,138.41Z"/><path class="cls-16" d="M175.13,139.16c-.17-2,.4-4.65,1.71-4.52s4.67,3.82,4.4,6.74c-.17,1.76-1.67,4.09-1.17,6.15,0,.12.08.27,0,.27C179.71,147.84,175.49,143.5,175.13,139.16Z"/><path class="cls-16" d="M115.07,141.44c1.06-1.67,3.13-3.45,4.09-2.56s1.42,5.86-.57,8c-1.2,1.3-3.8,2.25-4.64,4.19,0,.11-.11.26-.17.23C113.47,151.13,112.73,145.12,115.07,141.44Z"/><path class="cls-17" d="M211.79,187.35,88.34,193.17c.11-1.56.29-3.23.56-5a58.4,58.4,0,0,1,1.26-6l119.18-3.93c.47,1.36.94,2.83,1.36,4.4S211.51,185.86,211.79,187.35Z"/><path class="cls-18" d="M159.85,196.75,139,197.4a2.63,2.63,0,0,1-2.71-2.55l-.6-19.11a2.64,2.64,0,0,1,2.55-2.71l20.84-.65a2.63,2.63,0,0,1,2.71,2.54l.59,19.12A2.63,2.63,0,0,1,159.85,196.75Zm-18.38-4.69,15.59-.48-.44-13.86L141,178.2Z"/><path class="cls-18" d="M153.11,190.29l-7.78.24a2,2,0,0,1-2-1.9l-.22-7.12a2,2,0,0,1,1.9-2l7.77-.25a2,2,0,0,1,2,1.9l.22,7.13A2,2,0,0,1,153.11,190.29Zm-5.94-3.74,3.85-.12-.1-3.21-3.85.12Z"/><path class="cls-7" d="M108.59,87.79c-1.06-12.49-7.9-17.41-6.57-29.47.58-5.2,2.26-8.07,1.94-8.19-.75-.28-11.21,15.29-10,33,.82,12,6.94,23.77,10.33,23.29C107.23,106,109.29,96.16,108.59,87.79Z"/><g class="cls-15"><path class="cls-13" d="M102.62,99.84a23.09,23.09,0,0,1-2.12-21.25l.17.07a22.9,22.9,0,0,0,2.1,21.08Z"/></g><g class="cls-15"><path class="cls-13" d="M101.58,91.81a4.44,4.44,0,0,1-.69-2,4.26,4.26,0,0,1,.3-1.93l.17.07a4,4,0,0,0-.29,1.85,4.17,4.17,0,0,0,.67,1.95Z"/></g><ellipse class="cls-19" cx="147.5" cy="109.67" rx="8.9" ry="5.67" transform="translate(-3.35 4.66) rotate(-1.79)"/><g class="cls-20"><circle class="cls-21" cx="111.24" cy="8.4" r="7.39"/></g><g class="cls-22"><rect class="cls-23" x="103.82" width="14.78" height="14.78" transform="translate(-0.18 3.47) rotate(-1.79)"/><circle class="cls-23" cx="111.21" cy="7.39" r="7.39"/><circle class="cls-24" cx="111.21" cy="7.39" r="7.33"/><circle class="cls-25" cx="111.21" cy="7.39" r="7.27"/><circle class="cls-26" cx="111.21" cy="7.39" r="7.21"/><circle class="cls-27" cx="111.21" cy="7.39" r="7.14"/><circle class="cls-28" cx="111.21" cy="7.39" r="7.08"/><circle class="cls-29" cx="111.21" cy="7.39" r="7.02"/><circle class="cls-30" cx="111.21" cy="7.39" r="6.96"/><circle class="cls-31" cx="111.21" cy="7.39" r="6.9"/><circle class="cls-32" cx="111.21" cy="7.39" r="6.84"/><circle class="cls-33" cx="111.21" cy="7.39" r="6.78"/><circle class="cls-34" cx="111.21" cy="7.39" r="6.72"/><circle class="cls-35" cx="111.21" cy="7.39" r="6.66"/><circle class="cls-36" cx="111.21" cy="7.39" r="6.6"/><circle class="cls-37" cx="111.21" cy="7.39" r="6.53"/><circle class="cls-38" cx="111.21" cy="7.39" r="6.47"/><circle class="cls-39" cx="111.21" cy="7.39" r="6.41"/><circle class="cls-40" cx="111.21" cy="7.39" r="6.35"/><circle class="cls-41" cx="111.21" cy="7.39" r="6.29"/><circle class="cls-42" cx="111.21" cy="7.39" r="6.23"/><circle class="cls-43" cx="111.21" cy="7.39" r="6.17"/><circle class="cls-44" cx="111.21" cy="7.39" r="6.11"/><circle class="cls-45" cx="111.21" cy="7.39" r="6.05"/><circle class="cls-45" cx="111.21" cy="7.39" r="5.98"/><circle class="cls-46" cx="111.21" cy="7.39" r="5.92"/><circle class="cls-47" cx="111.21" cy="7.39" r="5.86"/><circle class="cls-48" cx="111.21" cy="7.39" r="5.8"/><circle class="cls-49" cx="111.21" cy="7.39" r="5.74"/><circle class="cls-49" cx="111.21" cy="7.39" r="5.68"/><circle class="cls-50" cx="111.21" cy="7.39" r="5.62"/><circle class="cls-51" cx="111.21" cy="7.39" r="5.56"/><circle class="cls-52" cx="111.21" cy="7.39" r="5.5"/><circle class="cls-52" cx="111.21" cy="7.39" r="5.43"/><circle class="cls-53" cx="111.21" cy="7.39" r="5.37"/><circle class="cls-54" cx="111.21" cy="7.39" r="5.31"/><circle class="cls-54" cx="111.21" cy="7.39" r="5.25"/><circle class="cls-55" cx="111.21" cy="7.39" r="5.19"/><circle class="cls-55" cx="111.21" cy="7.39" r="5.13"/><circle class="cls-56" cx="111.21" cy="7.39" r="5.07"/><circle class="cls-56" cx="111.21" cy="7.39" r="5.01"/><circle class="cls-57" cx="111.21" cy="7.39" r="4.95"/><circle class="cls-58" cx="111.21" cy="7.39" r="4.89"/><circle class="cls-58" cx="111.21" cy="7.39" r="4.82"/><circle class="cls-59" cx="111.21" cy="7.39" r="4.76"/><circle class="cls-59" cx="111.21" cy="7.39" r="4.7"/><circle class="cls-60" cx="111.21" cy="7.39" r="4.64"/><circle class="cls-61" cx="111.21" cy="7.39" r="4.58"/><circle class="cls-61" cx="111.21" cy="7.39" r="4.52"/><circle class="cls-62" cx="111.21" cy="7.39" r="4.46"/><circle class="cls-62" cx="111.21" cy="7.39" r="4.4"/><circle class="cls-63" cx="111.21" cy="7.39" r="4.34"/><circle class="cls-64" cx="111.21" cy="7.39" r="4.27"/><circle class="cls-65" cx="111.21" cy="7.39" r="4.21"/><circle class="cls-66" cx="111.21" cy="7.39" r="4.15"/><circle class="cls-66" cx="111.21" cy="7.39" r="4.09"/><circle class="cls-67" cx="111.21" cy="7.39" r="4.03"/><circle class="cls-68" cx="111.21" cy="7.39" r="3.97"/><circle class="cls-69" cx="111.21" cy="7.39" r="3.91"/><circle class="cls-70" cx="111.21" cy="7.39" r="3.85"/><circle class="cls-71" cx="111.21" cy="7.39" r="3.79"/><circle class="cls-72" cx="111.21" cy="7.39" r="3.72"/><circle class="cls-72" cx="111.21" cy="7.39" r="3.66"/><circle class="cls-73" cx="111.21" cy="7.39" r="3.6"/><circle class="cls-74" cx="111.21" cy="7.39" r="3.54"/><circle class="cls-75" cx="111.21" cy="7.39" r="3.48"/><circle class="cls-75" cx="111.21" cy="7.39" r="3.42"/><circle class="cls-76" cx="111.21" cy="7.39" r="3.36"/><circle class="cls-77" cx="111.21" cy="7.39" r="3.3"/><circle class="cls-78" cx="111.21" cy="7.39" r="3.24"/><circle class="cls-78" cx="111.21" cy="7.39" r="3.18"/><circle class="cls-79" cx="111.21" cy="7.39" r="3.11"/><circle class="cls-80" cx="111.21" cy="7.39" r="3.05"/><circle class="cls-80" cx="111.21" cy="7.39" r="2.99"/><circle class="cls-81" cx="111.21" cy="7.39" r="2.93"/><circle class="cls-82" cx="111.21" cy="7.39" r="2.87"/><circle class="cls-83" cx="111.21" cy="7.39" r="2.81"/><circle class="cls-83" cx="111.21" cy="7.39" r="2.75"/><circle class="cls-84" cx="111.21" cy="7.39" r="2.69"/><circle class="cls-85" cx="111.21" cy="7.39" r="2.63"/><circle class="cls-85" cx="111.21" cy="7.39" r="2.56"/><circle class="cls-86" cx="111.21" cy="7.39" r="2.5"/><circle class="cls-86" cx="111.21" cy="7.39" r="2.44"/><circle class="cls-87" cx="111.21" cy="7.39" r="2.38"/><circle class="cls-87" cx="111.21" cy="7.39" r="2.32"/><circle class="cls-88" cx="111.21" cy="7.39" r="2.26"/><circle class="cls-89" cx="111.21" cy="7.39" r="2.2"/><circle class="cls-89" cx="111.21" cy="7.39" r="2.14"/><circle class="cls-90" cx="111.21" cy="7.39" r="2.08"/><circle class="cls-91" cx="111.21" cy="7.39" r="2.02"/><circle class="cls-92" cx="111.21" cy="7.39" r="1.95"/><circle class="cls-92" cx="111.21" cy="7.39" r="1.89"/><circle class="cls-92" cx="111.21" cy="7.39" r="1.83"/><circle class="cls-93" cx="111.21" cy="7.39" r="1.77"/><circle class="cls-93" cx="111.21" cy="7.39" r="1.71"/><circle class="cls-94" cx="111.21" cy="7.39" r="1.65"/><circle class="cls-94" cx="111.21" cy="7.39" r="1.59"/><circle class="cls-94" cx="111.21" cy="7.39" r="1.53"/><circle class="cls-95" cx="111.21" cy="7.39" r="1.47"/><circle class="cls-95" cx="111.21" cy="7.39" r="1.4"/><circle class="cls-95" cx="111.21" cy="7.39" r="1.34"/><circle class="cls-96" cx="111.21" cy="7.39" r="1.28"/><circle class="cls-96" cx="111.21" cy="7.39" r="1.22"/><circle class="cls-96" cx="111.21" cy="7.39" r="1.16"/><circle class="cls-97" cx="111.21" cy="7.39" r="1.1"/><circle class="cls-97" cx="111.21" cy="7.39" r="1.04"/><circle class="cls-97" cx="111.21" cy="7.39" r="0.98"/><circle class="cls-98" cx="111.21" cy="7.39" r="0.92"/><circle class="cls-98" cx="111.21" cy="7.39" r="0.85"/><circle class="cls-98" cx="111.21" cy="7.39" r="0.79"/><circle class="cls-98" cx="111.21" cy="7.39" r="0.73"/><circle class="cls-99" cx="111.21" cy="7.39" r="0.67"/><circle class="cls-100" cx="111.21" cy="7.39" r="0.61"/><circle class="cls-100" cx="111.21" cy="7.39" r="0.55"/><circle class="cls-100" cx="111.21" cy="7.39" r="0.49"/><circle class="cls-100" cx="111.21" cy="7.39" r="0.43"/><circle class="cls-100" cx="111.21" cy="7.39" r="0.37"/><circle class="cls-100" cx="111.21" cy="7.39" r="0.31"/><circle class="cls-101" cx="111.21" cy="7.39" r="0.24"/><circle class="cls-101" cx="111.21" cy="7.39" r="0.18"/><circle class="cls-101" cx="111.21" cy="7.39" r="0.12"/><circle class="cls-101" cx="111.21" cy="7.39" r="0.06"/></g><path class="cls-11" d="M80.88,101.68a12.71,12.71,0,0,1-4.13,11c-1,.86-1.92,1.81-2.89,2.86a44.66,44.66,0,0,0-3.62,4.46,12.29,12.29,0,0,1-8.12,5c-1.82.29-3.76.67-5.79,1.19a62,62,0,0,0-10,3.46,12.44,12.44,0,0,1-8.58.56A70.31,70.31,0,0,0,22,127.54a12.38,12.38,0,0,1-8.77-4.46,33.53,33.53,0,0,0-2.63-2.8,35.23,35.23,0,0,0-4.76-3.82A12.29,12.29,0,0,1,.38,106.13c0-.63,0-1.29,0-2,0-1-.13-2-.24-2.88a12.55,12.55,0,0,1,4.19-11,36,36,0,0,0,3-2.88,38.13,38.13,0,0,0,3.63-4.58A12.46,12.46,0,0,1,19,77.52c2-.36,4.12-.83,6.33-1.43a76.29,76.29,0,0,0,9.2-3.15,12.72,12.72,0,0,1,8.58-.41,67,67,0,0,0,8,1.9,70.4,70.4,0,0,0,8.07.89,12.29,12.29,0,0,1,8.6,4.1,44.38,44.38,0,0,0,4.63,4.49c1,.79,1.9,1.51,2.82,2.16a12.58,12.58,0,0,1,5.32,10.44c0,.23,0,.48,0,.72A36.22,36.22,0,0,0,80.88,101.68Z"/><path class="cls-11" d="M85.36,125.4a18.18,18.18,0,0,1-11.45,1.2A21.41,21.41,0,0,1,64,121.53l4.8-7.18a21,21,0,0,0,5.74,6.73A21.6,21.6,0,0,0,85.36,125.4Z"/><path class="cls-13" d="M21.11,102.07l-1.21.05c-.45,0-.85,0-1.21,0l.15,4.79a1.36,1.36,0,0,1-.4,1,1.39,1.39,0,0,1-1,.45,1.35,1.35,0,0,1-1-.39,1.46,1.46,0,0,1-.46-1l-.39-12.67A1.45,1.45,0,0,1,17,92.85a1.34,1.34,0,0,1,1,.4,1.44,1.44,0,0,1,.46,1l.15,5h1l1.43-.07c0-2.06-.07-3.74-.1-5a1.33,1.33,0,0,1,.4-1,1.41,1.41,0,0,1,2,0,1.39,1.39,0,0,1,.45,1c0,.93.06,2,.08,3.16l0,3.16c.05,2.8.09,4.9.14,6.31a1.44,1.44,0,0,1-.4,1,1.4,1.4,0,0,1-1,.44,1.45,1.45,0,0,1-1.48-1.4C21.17,105.52,21.14,104,21.11,102.07Z"/><path class="cls-13" d="M25.47,106.69c0-.76-.07-1.83-.18-3.23l-.13-1.61c0-.61-.06-1.15-.08-1.62,0-1.31-.06-2.37,0-3.2l0-.73,0-.75c0-.62,0-1.11,0-1.47a1.54,1.54,0,0,1,.4-1,1.41,1.41,0,0,1,1-.45,1.39,1.39,0,0,1,1,.39A1.33,1.33,0,0,1,28,94c0,.34,0,.83,0,1.46l0,.75,0,.73c0,1,0,2.05.05,3.2,0,.48,0,1,.08,1.62l.13,1.61c.1,1.39.16,2.47.17,3.23a1.37,1.37,0,0,1-.4,1,1.39,1.39,0,0,1-1,.45,1.38,1.38,0,0,1-1-.4A1.34,1.34,0,0,1,25.47,106.69Z"/><path class="cls-13" d="M39.17,101.51l-1.2,0c-.45,0-.85,0-1.21,0l.15,4.78a1.37,1.37,0,0,1-.4,1,1.39,1.39,0,0,1-1,.45,1.37,1.37,0,0,1-1-.4,1.4,1.4,0,0,1-.45-1l-.4-12.67a1.38,1.38,0,0,1,.4-1,1.43,1.43,0,0,1,2,0,1.37,1.37,0,0,1,.45,1l.16,5c.37,0,.71,0,1,0l1.43-.06c0-2.06-.07-3.75-.1-5a1.36,1.36,0,0,1,.4-1,1.32,1.32,0,0,1,1-.45,1.35,1.35,0,0,1,1,.4,1.39,1.39,0,0,1,.45,1c0,.93.05,2,.07,3.15L42,99.83c0,2.8.09,4.91.13,6.32a1.38,1.38,0,0,1-.4,1,1.34,1.34,0,0,1-1,.44,1.33,1.33,0,0,1-1-.4,1.36,1.36,0,0,1-.45-1C39.24,105,39.2,103.39,39.17,101.51Z"/><path class="cls-13" d="M43.53,106.12c0-.75-.07-1.83-.17-3.22l-.13-1.62c0-.6-.07-1.14-.08-1.61,0-1.31-.06-2.38,0-3.2l0-.74,0-.74q0-.93,0-1.47a1.5,1.5,0,0,1,.4-1,1.44,1.44,0,0,1,2,0,1.36,1.36,0,0,1,.44,1q0,.52,0,1.47l0,.74,0,.74c0,1,0,2,0,3.2,0,.47,0,1,.09,1.61l.12,1.62c.11,1.39.17,2.46.18,3.23a1.45,1.45,0,0,1-1.4,1.47,1.39,1.39,0,0,1-1-.39A1.42,1.42,0,0,1,43.53,106.12Z"/><path class="cls-13" d="M57.24,100.94,56,101l-1.21,0,.15,4.78a1.39,1.39,0,0,1-.4,1,1.47,1.47,0,0,1-1,.45,1.36,1.36,0,0,1-1-.4,1.41,1.41,0,0,1-.45-1l-.4-12.67a1.36,1.36,0,0,1,.4-1,1.4,1.4,0,0,1,1-.45,1.36,1.36,0,0,1,1,.4,1.47,1.47,0,0,1,.45,1l.15,5h1l1.43-.07c0-2.06-.07-3.74-.1-5a1.29,1.29,0,0,1,.4-1,1.35,1.35,0,0,1,1-.46,1.36,1.36,0,0,1,1,.4A1.39,1.39,0,0,1,60,93c0,.94.06,2,.08,3.16l.05,3.16q.06,4.2.13,6.31a1.4,1.4,0,0,1-.4,1,1.44,1.44,0,0,1-2,0,1.36,1.36,0,0,1-.45-1C57.3,104.39,57.27,102.82,57.24,100.94Z"/><path class="cls-13" d="M61.6,105.56c0-.75-.07-1.83-.18-3.23l-.12-1.61c0-.6-.07-1.14-.09-1.62,0-1.3-.05-2.37,0-3.2l0-.73,0-.75c0-.62,0-1.1,0-1.46a1.45,1.45,0,0,1,.4-1,1.43,1.43,0,0,1,2-.05,1.31,1.31,0,0,1,.44,1c0,.34,0,.83,0,1.46l0,.75,0,.73c0,1,0,2.06,0,3.2,0,.48,0,1,.08,1.62l.13,1.61c.11,1.39.16,2.47.17,3.23a1.33,1.33,0,0,1-.4,1,1.35,1.35,0,0,1-1,.45,1.4,1.4,0,0,1-1-.4A1.32,1.32,0,0,1,61.6,105.56Z"/></svg>