<svg id="Layer_1" data-name="Layer 1" xmlns="http://www.w3.org/2000/svg" xmlns:xlink="http://www.w3.org/1999/xlink" viewBox="0 0 590 400"><defs><style>.cls-1{fill:#00582d;stroke:#060305;}.cls-1,.cls-2,.cls-3,.cls-9{stroke-miterlimit:10;}.cls-2,.cls-3,.cls-5,.cls-9{stroke:#fff;}.cls-2,.cls-3,.cls-9{stroke-width:26px;}.cls-2{fill:url(#radial-gradient);}.cls-3{fill:url(#radial-gradient-2);}.cls-4,.cls-5{fill:#fff;}.cls-5{stroke-linecap:round;stroke-linejoin:round;stroke-width:0.25px;}.cls-6{fill:#fac140;}.cls-7{fill:#f88433;}.cls-8{fill:#922562;}.cls-9{fill:none;}.cls-10{fill:#b27c51;}.cls-11{fill:#d62b30;}.cls-12{fill:#f3be49;}</style><radialGradient id="radial-gradient" cx="13.33" cy="99.06" r="46.9" gradientTransform="translate(94.52 -9.89) rotate(-8.73)" gradientUnits="userSpaceOnUse"><stop offset="0" stop-color="#fbeed6"/><stop offset="0" stop-color="#c3dfbf"/><stop offset="0" stop-color="#38b884"/><stop offset="0" stop-color="#00a96d"/><stop offset="0.15" stop-color="#009660"/><stop offset="0.44" stop-color="#00663f"/><stop offset="0.45" stop-color="#00643e"/><stop offset="0.64" stop-color="#005e41"/><stop offset="1" stop-color="#005b43"/></radialGradient><radialGradient id="radial-gradient-2" cx="13.01" cy="99.17" r="46.9" gradientTransform="matrix(0.99, -0.15, 0.15, 0.99, 94.97, -9.49)" xlink:href="#radial-gradient"/></defs><rect class="cls-1" x="56.06" y="19.7" width="133.07" height="132.64" transform="translate(-11.64 19.61) rotate(-8.73)"/><line class="cls-2" x1="132.81" y1="151.55" x2="112.67" y2="20.45"/><line class="cls-3" x1="188.45" y1="76.48" x2="57.34" y2="96.62"/><circle class="cls-4" cx="112.77" cy="19.44" r="6.3"/><path class="cls-5" d="M80.61,12.42a9.38,9.38,0,0,0-1.32,1.8c-2.78,4.91-.21,10.88.24,11.92a16.84,16.84,0,0,0,2.15,3.65c3.71-.44,7.61-1,11.68-1.79A174.91,174.91,0,0,0,111,23.69L109.85,16A115.94,115.94,0,0,0,85.4,12.48C83.77,12.43,82.18,12.41,80.61,12.42Z"/><path class="cls-5" d="M141.43,3.62a9.44,9.44,0,0,1,1.79,1.32c4.13,3.85,3.47,10.32,3.35,11.44a16.59,16.59,0,0,1-.95,4.13c-3.67.69-7.57,1.31-11.68,1.8a172.79,172.79,0,0,1-18.15,1.19l-1.19-7.72A115.35,115.35,0,0,1,136.87,5.12Q139.18,4.31,141.43,3.62Z"/><rect class="cls-6" x="186.65" y="28.49" width="93.71" height="196.08"/><rect class="cls-4" x="228.19" y="28.49" width="10.63" height="196.08"/><rect class="cls-4" x="226.72" y="79.67" width="13.56" height="93.71" transform="translate(360.07 -106.96) rotate(90.01)"/><ellipse class="cls-4" cx="233.31" cy="24.06" rx="7.14" ry="9.11"/><path class="cls-4" d="M198.52,7a13.09,13.09,0,0,0-1.79,2.28c-3.95,6.42-2.1,15.5-1.78,17.09A29.19,29.19,0,0,0,196.73,32c4.23.19,8.69.21,13.38,0a153.92,153.92,0,0,0,20.52-2.27V18.47A111,111,0,0,0,203.87,8.11C202.06,7.68,200.27,7.3,198.52,7Z"/><path class="cls-4" d="M268.11,7.76A12.71,12.71,0,0,1,269.9,10c4,6.41,2.1,15.5,1.78,17.08a29.2,29.2,0,0,1-1.79,5.7c-4.22.18-8.69.2-13.38,0A153.85,153.85,0,0,1,236,30.53V19.24A110.73,110.73,0,0,1,262.76,8.9C264.57,8.46,266.36,8.08,268.11,7.76Z"/><polygon class="cls-7" points="435.83 207.87 386.27 207.86 351.23 172.8 351.24 123.24 386.29 88.2 435.85 88.21 470.89 123.26 470.88 172.83 435.83 207.87"/><rect class="cls-4" x="406.05" y="87.93" width="9.3" height="120.21"/><rect class="cls-4" x="406.41" y="87.57" width="9.3" height="120.21" transform="translate(558.81 -263.35) rotate(90.01)"/><circle class="cls-4" cx="410.66" cy="91.68" r="8.44"/><path class="cls-4" d="M369.52,75.85a12.63,12.63,0,0,0-2.11,2.1c-4.68,5.94-2.49,14.36-2.11,15.83a22.43,22.43,0,0,0,2.11,5.27c5,.18,10.28.2,15.82,0A231,231,0,0,0,407.49,97V86.49a155,155,0,0,0-31.65-9.59C373.71,76.5,371.59,76.15,369.52,75.85Z"/><path class="cls-4" d="M451.81,76.58a12.06,12.06,0,0,1,2.1,2.11c4.68,5.94,2.49,14.36,2.11,15.82a22.43,22.43,0,0,1-2.11,5.27c-5,.17-10.28.19-15.82,0a233.65,233.65,0,0,1-24.27-2.11V87.21a154,154,0,0,1,31.65-9.58Q448.69,77,451.81,76.58Z"/><rect class="cls-8" x="256.27" y="127.36" width="144.27" height="143.81"/><line class="cls-9" x1="327.93" y1="271.17" x2="327.96" y2="127.36"/><line class="cls-9" x1="400.31" y1="190.47" x2="256.5" y2="190.44"/><circle class="cls-4" cx="328.24" cy="122.6" r="6.83"/><path class="cls-5" d="M294.93,109.79a10.2,10.2,0,0,0-1.71,1.7c-3.79,4.81-2,11.63-1.71,12.82a18.62,18.62,0,0,0,1.71,4.27c4,.14,8.32.15,12.81,0a189.34,189.34,0,0,0,19.64-1.7v-8.47a124.79,124.79,0,0,0-25.62-7.77C298.32,110.31,296.61,110,294.93,109.79Z"/><path class="cls-5" d="M361.55,110.38a10.33,10.33,0,0,1,1.71,1.71c3.78,4.81,2,11.62,1.7,12.81a18.62,18.62,0,0,1-1.71,4.27c-4,.14-8.32.15-12.81,0a189.08,189.08,0,0,1-19.64-1.72V119a125,125,0,0,1,25.62-7.76C358.16,110.9,359.87,110.62,361.55,110.38Z"/><path class="cls-10" d="M127.56,309.75H111.8a95.21,95.21,0,0,1-25.23,69.34h21.27A157.46,157.46,0,0,0,122,344.42,157.8,157.8,0,0,0,127.56,309.75Z"/><path class="cls-10" d="M384.87,309.79h15.76a95.16,95.16,0,0,0,25.2,69.36H404.56a157.65,157.65,0,0,1-19.69-69.35Z"/><path class="cls-11" d="M113.06,309.5c-11.18-.21-38.52-.67-63.72-18.25-18.65-13-27.81-29.58-32.08-37.51C-13.3,197,13.85,128.34,18.73,116.49Q21.12,105.77,23.49,95a394.37,394.37,0,0,0,84,10.45c58.64.92,80.25-11.69,97.91,3.64,26.29,22.82-.26,69.52,27.8,95.22,3.51,3.21,14,11.69,66.6,10.27,72.68-2,119.66-3.27,147.68-38.33,6.89-8.63,22.25-31.32,20.59-73.72,13.08,13.66,48.9,54.75,49.39,113,.11,12.24.29,34.22-9.92,54C470.45,341.22,332.29,313.7,113.06,309.5Z"/><rect class="cls-10" x="55.04" y="379.12" width="487.79" height="17.34"/><path class="cls-10" d="M76.32,379.08Q65.69,387.75,55,396.41a75.62,75.62,0,0,1-28.36-26.79C11,343.93,16.6,317.31,18,311.3c.72,6.8,4.18,31.54,25.21,50.44A76.9,76.9,0,0,0,76.32,379.08Z"/><path class="cls-10" d="M517.62,379.16l25.21,17.34a63.36,63.36,0,0,0,20.49-12.6c2.62-2.42,12.84-12.28,18.92-32.31C596.05,306.07,575.69,250,576,249.94s18.84,59-10.26,95.35h0a70.14,70.14,0,0,1-48.07,33.87Z"/><path class="cls-12" d="M193,104.08q-10.86,1.33-22.06,2.36a728.51,728.51,0,0,1-140.27-.81,11.45,11.45,0,0,1-11.82-7.88,11.24,11.24,0,0,1,3.15-11,500.67,500.67,0,0,0,78.8,11.84c7.55.52,11.33.77,15,.79,22,.09,70.91-4.36,76.44-3.93a12.17,12.17,0,0,1,3.16.79c.94.4,2.87,1.21,3.15,2.37C199.05,100.74,193.74,104,193,104.08Z"/><path class="cls-12" d="M440.43,185.29a129.49,129.49,0,0,1-44.14,25.21c-13,4.27-23.48,5.24-43.34,7.09-2.65.24-4.61.39-6.23.51-21.76,1.61-40,1.3-51.3,1.05C244,218,235.75,216,229.23,208.9a32.25,32.25,0,0,1-6.3-10.25c-.39-1-.65-1.86-.79-2.36a7.86,7.86,0,0,0,4.87.55c1.27-.3,2.11-1,3-.55s1.09,1.3,1.58,2.36a26.66,26.66,0,0,0,5.51,6.31c5.13,4.25,10.91,5.67,22.06,7.09A206.83,206.83,0,0,0,280,213.93c27.62.31,44.54-.29,44.54-.29,30.43-1.07,41.43-2.3,51.22-3.93a144.55,144.55,0,0,0,16.26-3.53A138.16,138.16,0,0,0,418.42,196c.81-.42,2.62-1.44,5.46-2.79Z"/><path class="cls-12" d="M233.17,202.59c-.47.69-2.41,3.38-4.73,3.15-1.9-.18-3.1-2.24-3.61-3.14-6.19-10.92-7.41-35.47-7.41-35.47-.91-18.27-2.4-28.91-6.68-39.42a39.92,39.92,0,0,0-2.77-5.5c-2.23-3.76-9.82-16.51-21.27-17.34a16.71,16.71,0,0,0-2.37,0,10.46,10.46,0,0,0,4-5.53,5.25,5.25,0,0,1,1.49-3.14,4.37,4.37,0,0,1,2.36-.79c6.36-.27,15,11,15,11a89.89,89.89,0,0,1,8.6,12.66,74.81,74.81,0,0,1,4,9.41c4.44,13.09,4.29,29.68,4.72,37.82A107.16,107.16,0,0,0,233.17,202.59Z"/><path class="cls-12" d="M422.3,194l11-3.15a83.69,83.69,0,0,0,29.17-33.88c11.46-24.56,7.19-47.19,5.52-54.37.07,2.6.12,6.1,0,10.24-.16,5.76-.57,10.55-.79,12.61a101.74,101.74,0,0,1-7.89,28.37C448.93,176.64,427.5,190.69,422.3,194Z"/></svg>