<svg id="Layer_1" data-name="Layer 1" xmlns="http://www.w3.org/2000/svg" viewBox="0 0 14 13"><defs><style>.cls-1{fill:#dca538;}.cls-2{fill:#fac140;}.cls-3{fill:#fabe3b;}.cls-4{fill:#b31f2b;}.cls-5{fill:#a01d2e;}.cls-6{fill:#f9c358;}</style></defs><path class="cls-1" d="M13.91,10a13.47,13.47,0,0,1-7,1.93A13.36,13.36,0,0,1,.09,10L3.83,6.29a30.15,30.15,0,0,0,3.11.13C8,6.42,9,6.36,10,6.27Z"/><circle class="cls-2" cx="9.15" cy="11.36" r="0.87"/><path class="cls-3" d="M13.91,10a16.86,16.86,0,0,1-7,1.51A16.53,16.53,0,0,1,.09,10L4,6.09a12.88,12.88,0,0,0,2.93.32,12.8,12.8,0,0,0,2.8-.34Z"/><circle class="cls-3" cx="6.85" cy="6.24" r="3.93"/><path class="cls-4" d="M9.35,2.92c-.64-.08-1.42-.19-2.3-.33l0-.32a7.78,7.78,0,0,1,1.5-.92,3.9,3.9,0,0,1,2-.55c0,.09-.32.19-.41.53-.14.52.47,1.12.55,1.2.3.29.54.35.52.43S10.38,3,9.35,2.92Z"/><path class="cls-4" d="M4.53,2.92c.65-.08,1.43-.19,2.31-.33V2.27a7.36,7.36,0,0,0-1.49-.92A3.94,3.94,0,0,0,3.4.8c0,.09.32.19.41.53.14.52-.47,1.12-.55,1.2-.3.29-.55.35-.53.43S3.51,3,4.53,2.92Z"/><path class="cls-5" d="M9.15,2.28l-1.57.17L6.17,2.39,4.62,2.1Z"/><rect class="cls-4" x="6.11" y="1.76" width="1.51" height="1.09" rx="0.55"/><path class="cls-6" d="M6.34,3.54a2.82,2.82,0,0,0-2,1.25c-.53.84-.59,2.11-.17,2.35a.26.26,0,0,0,.21,0c.34-.13-.29-1.4.26-2.33A3.56,3.56,0,0,1,6.34,3.54Z"/><path class="cls-6" d="M3,10.2,4.41,7.14a.28.28,0,0,0,0-.38.27.27,0,0,0-.26-.08h0a.38.38,0,0,1-.23.1H3.9L2,9.72a1.32,1.32,0,0,0,.36.33A1.19,1.19,0,0,0,3,10.2Z"/></svg>