<svg id="Layer_1" data-name="Layer 1" xmlns="http://www.w3.org/2000/svg" xmlns:xlink="http://www.w3.org/1999/xlink" viewBox="0 0 100 100"><defs><style>.cls-1{fill:#653414;}.cls-2{fill:#a0252a;}.cls-3{fill:#d0cdcd;}.cls-4{opacity:0.6;}.cls-5{fill:#2f0d00;}.cls-6{fill:#683614;}.cls-7{opacity:0.29;}.cls-8{fill:#060305;}.cls-9{opacity:0.95;}.cls-10{fill:#040102;}.cls-11{fill:#fff;}.cls-12{fill:#241010;}.cls-13{fill:#e3e2e1;}.cls-14{fill:#473332;}.cls-15{fill:url(#linear-gradient);}</style><linearGradient id="linear-gradient" x1="2822.27" y1="58.4" x2="2835.18" y2="80.75" gradientTransform="matrix(-1, 0, 0, 1, 2876.48, 0)" gradientUnits="userSpaceOnUse"><stop offset="0" stop-color="#49392e"/><stop offset="0.16" stop-color="#422d22"/><stop offset="0.54" stop-color="#341609"/><stop offset="0.77" stop-color="#2f0d00"/></linearGradient></defs><path class="cls-1" d="M25.27,49.8c1.17,1.72,2.12,4.47,1,5.05s-5.72-1-7-3.83c-.8-1.7-.84-4.64-2.32-6.25-.09-.09-.2-.21-.15-.25C17.05,44.29,22.68,46,25.27,49.8Z"/><path class="cls-2" d="M59.56,4.83C67,6.38,72,11.15,74.25,13.35a43,43,0,0,1,7,9.08c3.69,6.2,5.3,11.75,6.91,17.42a115.63,115.63,0,0,1,3.48,16.91,104,104,0,0,1,.62,17.91,38.83,38.83,0,0,1-8.15-7.52c-1.23-1.52-1.49-2.07-2.84-4-3.78-5.26-5.78-6.51-9.63-11.06C68,47.9,66,45.46,64.06,41.48c-1.72-3.59-2.53-7.25-6.18-11.83-.9-1.12-2-2.46-2-2.46-.61-.74-1.13-1.35-1.7-2-1.61-1.93-3.42-3.65-4.94-5.67a22.26,22.26,0,0,1-3.06-7.11c-.68-2.59-1-3.88-.69-4.87C46.71,3.9,54.43,3.75,59.56,4.83Z"/><path class="cls-2" d="M49.92,36.78c12.64-.33,14.4.24,16.24-1.72,5.08-5.44-.89-17.9-1.66-19.52-1.85-3.86-4-8.42-9-10.32-6.53-2.5-13,1.51-14.91,2.67C30.68,14,29.66,25.84,29.3,30c-.28,3.31.16,4.37.61,5C32,38.22,37.09,37.11,49.92,36.78Z"/><ellipse class="cls-3" cx="93.29" cy="74.03" rx="2.4" ry="2.58"/><ellipse class="cls-3" cx="90.31" cy="75.33" rx="2.4" ry="2.58"/><ellipse class="cls-3" cx="91.85" cy="77.91" rx="2.4" ry="2.58"/><ellipse class="cls-3" cx="94.45" cy="77.08" rx="2.4" ry="2.58"/><g class="cls-4"><path class="cls-5" d="M23.53,52.5v-.19A4,4,0,0,1,20.84,51a3.58,3.58,0,0,1-1-2.69l-.18,0a3.74,3.74,0,0,0,1,2.83A4.25,4.25,0,0,0,23.53,52.5Z"/></g><path class="cls-1" d="M71.41,50.49c-1.17,1.72-2.13,4.47-1,5s5.72-1,7-3.83c.79-1.7.83-4.64,2.32-6.25.08-.09.2-.21.15-.25C79.63,45,74,46.7,71.41,50.49Z"/><g class="cls-4"><path class="cls-5" d="M72.59,53.11a4.25,4.25,0,0,0,2.83-1.35,3.74,3.74,0,0,0,1-2.83h-.18a3.6,3.6,0,0,1-1,2.7,4.06,4.06,0,0,1-2.7,1.28Z"/></g><path class="cls-6" d="M37.55,72.56H58a16.36,16.36,0,0,0,8.94-3.72c4.74-4,6.67-10.84,5.23-17.65a24.33,24.33,0,0,0-5.23-9.34c-7.88-8.71-19.36-8.14-21-8-2,.13-11,.72-17.32,8A22.89,22.89,0,0,0,24,50.45c-1.91,7-.16,14.2,4.64,18.39A15.93,15.93,0,0,0,37.55,72.56Z"/><ellipse class="cls-6" cx="48" cy="77.91" rx="30.86" ry="17.85"/><path class="cls-5" d="M51.58,84.27a21.7,21.7,0,0,1-14.74,1,20.63,20.63,0,0,1-11.4-8.49,23.7,23.7,0,0,0,11.48,8.09C44.57,87.15,51.53,84.19,51.58,84.27Z"/><g class="cls-7"><path class="cls-8" d="M64.05,58.11l0-.18a55.94,55.94,0,0,0-13.31-2.09,69.7,69.7,0,0,0-19.36,1.93l.05.18A69.29,69.29,0,0,1,50.78,56,55.61,55.61,0,0,1,64.05,58.11Z"/></g><g class="cls-9"><path class="cls-8" d="M53.63,49.44c.93-1.7,3.23-4.17,6-3.62,3.47.67,4.21,5.24,4.23,5.43.32,2.19-.34,5.15-2.11,5.9-.64.27-.91,0-3.78-.46-3.42-.58-3.8-.37-4.38-.9C52.2,54.47,52.56,51.42,53.63,49.44Z"/></g><g class="cls-9"><path class="cls-10" d="M42.18,49.55c-.89-1.72-3.15-4.24-6-3.74-3.48.6-4.31,5.15-4.34,5.35-.36,2.18.24,5.15,2,5.93.63.29.91,0,3.78-.38,3.44-.51,3.81-.29,4.4-.82C43.51,54.61,43.21,51.55,42.18,49.55Z"/></g><ellipse class="cls-11" cx="40" cy="50.58" rx="1.51" ry="1.36"/><ellipse class="cls-11" cx="56.04" cy="50.58" rx="1.51" ry="1.36"/><circle class="cls-11" cx="62.2" cy="48.63" r="0.3"/><ellipse class="cls-11" cx="34.36" cy="48.6" rx="0.3" ry="0.27"/><path class="cls-12" d="M28.23,48.38a12.55,12.55,0,0,1,7.67-4.07,12.15,12.15,0,0,1,5.61.69L41,40.8c-1.43-.1-6.66-.29-10.14,3.32a10,10,0,0,0-1.49,2Z"/><path class="cls-12" d="M67.8,48.38a12.55,12.55,0,0,0-7.66-4.07,12.13,12.13,0,0,0-5.61.69L55,40.8c1.43-.1,6.66-.29,10.14,3.32a9.61,9.61,0,0,1,1.49,2Z"/><path class="cls-13" d="M31.1,41.16a37.81,37.81,0,0,1,35.58.94,3.33,3.33,0,0,0,2.53-.82c1.1-1.17,1-3.61-.9-5.49a37.54,37.54,0,0,0-9.94-3.87,41.09,41.09,0,0,0-9-1,50.23,50.23,0,0,0-20.36,4.6c-1.92,2-1.89,4.49-.81,5.4S30.87,41.24,31.1,41.16Z"/><path class="cls-14" d="M70.2,47A4.27,4.27,0,0,1,67,45.6,4.09,4.09,0,0,1,66,43.26a40.71,40.71,0,0,0,4.66-3.6c.87-.78,3.59-4.19,7.92-9.69A97.47,97.47,0,0,0,87.75,16c.65-1.06,1.5-1.88,2.13-1.73.78.18,1.34,1.85,1,4.17Z"/><path class="cls-14" d="M86.12,22.12c0-.19,0-.38,0-.58a9.21,9.21,0,0,0-2.11-5.89c-.66-1.11-.59-1.46-.47-1.6.36-.4,1.88.39,2.73.88a12.38,12.38,0,0,0,2.05,6.47Z"/><path class="cls-14" d="M85,27.38l-.57-1.79a20,20,0,0,0,5.24-1.12,19.41,19.41,0,0,0,2.83-1.26c1.16-.88,2.19-1.28,2.44-1s-.19,1.28-1.13,2.39Z"/><path class="cls-14" d="M78.09,35.53,75,35.74a15.74,15.74,0,0,0,.54-4.35,15.52,15.52,0,0,0-.48-3.54L77,26.35Z"/><path class="cls-14" d="M77,30.34l-1.23-.77a7.18,7.18,0,0,0,2.67-3.35,6.61,6.61,0,0,0,.37-1.51c0-.56,0-.86.15-.89s.55.5,1.08,1.65Z"/><path class="cls-14" d="M73.39,40.31l.21-3.68a44.26,44.26,0,0,0,6.73.87,44.64,44.64,0,0,0,6.44-.11c1-.09,2,0,2.07.27s-1.19.92-2.31,1.37l-6,.58Z"/><path class="cls-14" d="M80.94,37.84l1.27.7a6.82,6.82,0,0,1,2.76-5c.5-.25.73-.44.7-.56s-.7-.24-2-.14Z"/><path class="cls-14" d="M82.27,37.08l-.16-1c.18,0,2.69.31,3.17-1.07a1.82,1.82,0,0,0,.08-.44c.19-.2.33-.28.42-.25s.19.71,0,1.89Z"/><path class="cls-14" d="M90.71,25.49l-1.24-.76a4.34,4.34,0,0,0,2.12-2.5A4.24,4.24,0,0,0,91.77,21c-.09-.46-.07-.7,0-.72s.57.47,1.19,1.49Z"/><path class="cls-14" d="M87.73,26.29l1-1.1A4.1,4.1,0,0,0,92,28.05c.47,0,.7.05.7.16s-.55.48-1.65.94Z"/><path class="cls-14" d="M86.4,16.91l-.29,1.42a5.46,5.46,0,0,0-4.28-.88c-.37-.47-1.26-1.67-1-2,.09-.1.32-.22,1.14.07a5.61,5.61,0,0,0,4.39,1.43Z"/><path class="cls-14" d="M69.79,44.11l-2.08-.36c.35-1.87.55-3.46.66-4.68a20.9,20.9,0,0,0,.18-3.27c-.1-1-.33-1.75,0-1.91s.76.3,1.14.68c-.06-.51.17-.89.42-.93a.51.51,0,0,1,.39.16A19.43,19.43,0,0,0,69.63,37,19.63,19.63,0,0,0,69.79,44.11Z"/><path class="cls-14" d="M69.19,38.37l-.32-.64c.14-.06,2.09-.88,2.19-2a1.27,1.27,0,0,0,0-.33c.1-.22.19-.33.27-.34s.27.41.32,1.31Z"/><path class="cls-14" d="M70.72,44.9l-.06-.85,1.67.16c.68,0,1.32.08,1.93.11.49.43.67.69.54.77A1.43,1.43,0,0,1,74,45c-.4,0-.83,0-1.27,0C72,45,71.35,45,70.72,44.9Z"/><path class="cls-14" d="M73.1,44.52l.47.17c0-.07-.11-1.1.53-1.14a.71.71,0,0,1,.2,0c.1,0,.14-.1.12-.14s-.32-.16-.87-.19Z"/><path class="cls-14" d="M25.88,45.73a4.35,4.35,0,0,0,3.34-1.15,4.13,4.13,0,0,0,1.14-2.26,38.47,38.47,0,0,1-4.35-4c-.81-.85-3.24-4.46-7.12-10.3a97.3,97.3,0,0,1-8-14.62c-.57-1.11-1.35-2-2-1.9s-1.48,1.74-1.29,4.08Z"/><path class="cls-14" d="M12,19.63V19a9.26,9.26,0,0,1,2.57-5.7c.76-1.05.71-1.41.61-1.55-.33-.43-1.91.24-2.8.66a12.11,12.11,0,0,1-1.18,4.07,11.76,11.76,0,0,1-1.39,2.21Z"/><path class="cls-14" d="M12.74,25l.71-1.75a19.93,19.93,0,0,1-5.13-1.53A20.06,20.06,0,0,1,5.59,20.2c-1.08-1-2.08-1.45-2.35-1.2s.09,1.29.94,2.47Z"/><path class="cls-14" d="M18.94,33.64,22,34.1a15.17,15.17,0,0,1-.19-4.38,15.64,15.64,0,0,1,.76-3.49l-1.75-1.64Z"/><path class="cls-14" d="M20.47,28.56l1.28-.67a7.11,7.11,0,0,1-2.38-3.55,6.81,6.81,0,0,1-.25-1.54c.07-.55,0-.85-.08-.9s-.58.45-1.21,1.56Z"/><path class="cls-14" d="M23.24,38.79l.09-3.69a45.28,45.28,0,0,1-6.78.33,45.33,45.33,0,0,1-6.41-.64c-1-.17-2-.17-2.09.1s1.12,1,2.2,1.56l5.94,1.06Z"/><path class="cls-14" d="M15.91,35.72l-1.32.59a7.21,7.21,0,0,0-1.29-4.08,6.75,6.75,0,0,0-1.05-1.16c-.48-.29-.7-.49-.65-.62s.71-.17,2,0Z"/><path class="cls-14" d="M14.65,34.85l.25-1c-.18,0-2.71.1-3.08-1.32a1.5,1.5,0,0,1,0-.44c-.17-.22-.31-.31-.4-.28s-.25.69-.11,1.88Z"/><path class="cls-14" d="M7.18,22.62,8.47,22A4.37,4.37,0,0,1,6.56,19.3a4.88,4.88,0,0,1-.08-1.23c.13-.46.13-.7,0-.72s-.6.42-1.31,1.38Z"/><path class="cls-14" d="M10.08,23.65l-.86-1.17A4.27,4.27,0,0,1,6.9,24.79a4.08,4.08,0,0,1-1.19.28c-.47-.05-.71,0-.72.1s.52.53,1.57,1.07Z"/><path class="cls-14" d="M12.16,14.42l.18,1.43a5.47,5.47,0,0,1,4.33-.53c.41-.44,1.4-1.56,1.12-2-.07-.11-.3-.25-1.13,0a5.9,5.9,0,0,1-2,1A5.78,5.78,0,0,1,12.16,14.42Z"/><path class="cls-14" d="M26.52,42.86l2.11-.18c-.21-1.9-.27-3.5-.29-4.72a19.67,19.67,0,0,1,.09-3.27c.18-1,.47-1.73.2-1.91s-.77.24-1.19.59c.11-.51-.09-.9-.34-1a.48.48,0,0,0-.4.13,19.62,19.62,0,0,1,.55,3.24A19.25,19.25,0,0,1,26.52,42.86Z"/><path class="cls-14" d="M27.59,37.19l.37-.61c-.14-.07-2-1-2-2.19a1.05,1.05,0,0,1,.06-.33c-.09-.22-.17-.34-.25-.36s-.31.39-.42,1.28Z"/><path class="cls-14" d="M25.53,43.58l.13-.85c-.53,0-1.09,0-1.68,0s-1.32,0-1.93,0q-.78.59-.6.72c.09.07.35,0,.79,0l1.26.11C24.22,43.55,24.9,43.58,25.53,43.58Z"/><path class="cls-14" d="M23.19,43l-.48.14c0-.07.2-1.09-.44-1.18h-.2c-.09-.06-.13-.11-.11-.15s.34-.13.88-.12Z"/><ellipse class="cls-15" cx="47.76" cy="69.57" rx="18.23" ry="10.54"/></svg>