<svg id="Layer_1" data-name="Layer 1" xmlns="http://www.w3.org/2000/svg" viewBox="0 0 150 150"><defs><style>.cls-1{fill:#00543b;}.cls-2{fill:#aa202b;}.cls-3{opacity:0.6;}.cls-4{fill:#2b0f09;}.cls-5{fill:#fff;}</style></defs><circle class="cls-1" cx="75" cy="75" r="71.72"/><circle class="cls-2" cx="75" cy="75.74" r="62.71"/><g class="cls-3"><path class="cls-4" d="M67.05,111.75l44.88-26.21a13.57,13.57,0,0,0,0-23.37L67.05,36A13.34,13.34,0,0,0,47,47.64v52.42a13.34,13.34,0,0,0,20,11.69l44.88-26.21a13.57,13.57,0,0,0,0-23.37L67.05,36A13.34,13.34,0,0,0,47,47.64v52.42A13.34,13.34,0,0,0,67.05,111.75Z"/></g><path class="cls-5" d="M65.75,108.65,110.53,82.8a13.31,13.31,0,0,0,0-23L65.75,33.9a13.31,13.31,0,0,0-20,11.52V97.13a13.31,13.31,0,0,0,20,11.52L110.53,82.8a13.31,13.31,0,0,0,0-23L65.75,33.9a13.31,13.31,0,0,0-20,11.52V97.13A13.31,13.31,0,0,0,65.75,108.65Z"/></svg>