<svg id="Layer_1" data-name="Layer 1" xmlns="http://www.w3.org/2000/svg" viewBox="0 0 95 32.58"><defs><style>.cls-1{fill:#00582d;}.cls-2{fill:#b31f2b;}.cls-3{fill:#fff;}</style></defs><rect class="cls-1" x="2.54" y="1.33" width="89.96" height="30.33" rx="15.17"/><rect class="cls-2" x="5.93" y="4.2" width="83.5" height="25.25" rx="12.63"/><path class="cls-3" d="M14.59,20.65a.84.84,0,0,1-.61-.24.76.76,0,0,1-.26-.56c0-.51,0-1.09,0-1.73l0-1.73c0-1.54,0-2.7,0-3.47a.67.67,0,0,1,.26-.55.93.93,0,0,1,.62-.23,1.26,1.26,0,0,1,.28,0l.19,0a4,4,0,0,1,2,.84,2.83,2.83,0,0,1,1.12,1.66,2.89,2.89,0,0,1-.53,2.43,3.71,3.71,0,0,1-1.09,1,3.28,3.28,0,0,1-.53.26l-.27.12-.27.11-.06,0v1.23a.68.68,0,0,1-.26.56A.91.91,0,0,1,14.59,20.65Zm1-6.67c0,.42,0,.9,0,1.44l0,1.45s.05,0,.15-.1l.06,0,0,0,.07,0a2.42,2.42,0,0,0,.33-.31,1.52,1.52,0,0,0,.37-1,1.4,1.4,0,0,0-.37-1,3.45,3.45,0,0,0-.28-.26h0Z"/><path class="cls-3" d="M24.68,14.41a5.39,5.39,0,0,1,.44,2.21,4.88,4.88,0,0,1-.49,2.19,3.4,3.4,0,0,1-1.24,1.48,2,2,0,0,1-1.94.2A2.47,2.47,0,0,1,20.2,19.3a5.35,5.35,0,0,1-.54-1.76A7.82,7.82,0,0,1,20,14.23a4.09,4.09,0,0,1,.74-1.48,1.7,1.7,0,0,1,.82-.53,2,2,0,0,1,1-.05A2.3,2.3,0,0,1,23.9,13,6.76,6.76,0,0,1,24.68,14.41Zm-1.33,2.77A4.58,4.58,0,0,0,23,14.93l0,0v0l0,0a2,2,0,0,0-.07-.19,3.51,3.51,0,0,0-.22-.47c-.22-.37-.42-.51-.62-.4a.61.61,0,0,0-.21.27l-.06.18,0,.08,0,.08a8.9,8.9,0,0,0-.26.9,6,6,0,0,0-.15,1.58,7.22,7.22,0,0,0,.07.8,2.68,2.68,0,0,0,.25.77v.05a.17.17,0,0,1,0,.05l0,.07.05.08a.87.87,0,0,0,.09.17.5.5,0,0,0,.29.23.44.44,0,0,0,.38-.15l.14-.17.05-.08,0,0,0,0a4.71,4.71,0,0,0,.38-.74A4.12,4.12,0,0,0,23.35,17.18Z"/><path class="cls-3" d="M26.56,19.85c0-.42,0-1,0-1.78l-.05-.89c0-.33,0-.63,0-.89,0-.71,0-1.3,0-1.75l0-.41,0-.41c0-.34,0-.6,0-.8a.74.74,0,0,1,.26-.56.91.91,0,0,1,.62-.23.89.89,0,0,1,.62.24.7.7,0,0,1,.25.56c0,.19,0,.46,0,.81l0,.4,0,.41c0,.54,0,1.12,0,1.76,0,.26,0,.55,0,.88l0,.89c0,.77.06,1.36,0,1.78a.74.74,0,0,1-.26.56.91.91,0,0,1-.62.23.89.89,0,0,1-.62-.24A.71.71,0,0,1,26.56,19.85Z"/><path class="cls-3" d="M30.42,20.59a1,1,0,0,1-.62-.24.61.61,0,0,1-.25-.56,25.39,25.39,0,0,0,.14-3.47l0-.86,0-.87c0-.72,0-1.3,0-1.74a.64.64,0,0,1,.11-.37.78.78,0,0,1,.32-.3l.1,0,0,0h0a1,1,0,0,1,.3,0l.21,0a.69.69,0,0,1,.54.36v0a.67.67,0,0,1,.06.12c.45.94,1.1,2.19,1.95,3.74l.12.23,0-1.86c0-.7,0-1.32,0-1.87a.7.7,0,0,1,.26-.55.87.87,0,0,1,.62-.23.85.85,0,0,1,.61.24.74.74,0,0,1,.26.56c0,.51,0,1.09,0,1.73l0,1.73c0,1.54,0,2.69-.05,3.46a.69.69,0,0,1-.28.57.84.84,0,0,1-.23.18,1,1,0,0,1-.67.08.67.67,0,0,1-.53-.36c-.21-.46-.49-1-.81-1.6l-.43-.79-.43-.79-.25-.45a22.81,22.81,0,0,1-.15,3.17.93.93,0,0,1-.27.56A.85.85,0,0,1,30.42,20.59Z"/><path class="cls-3" d="M38.44,19.85c0-.44,0-.94,0-1.51l0-.75,0-.75c-.07-1.28-.1-2.28-.08-3a6.79,6.79,0,0,1-.92,0,1.08,1.08,0,0,1-.61-.24.7.7,0,0,1-.26-.56.77.77,0,0,1,.26-.56.76.76,0,0,1,.63-.22,13.49,13.49,0,0,0,1.81,0l.45,0,.45,0c.36,0,.66,0,.91,0a.86.86,0,0,1,.62.23.74.74,0,0,1,0,1.12,1,1,0,0,1-.62.23l-1,0c0,.75,0,1.77.08,3.06l0,.77,0,.76c0,.58,0,1.09.05,1.53a.72.72,0,0,1-.27.56.93.93,0,0,1-.62.23.88.88,0,0,1-.62-.24A.78.78,0,0,1,38.44,19.85Z"/><rect class="cls-3" x="64.48" y="8.24" width="1.52" height="17.18" rx="0.76" transform="translate(11.76 -24.16) rotate(23)"/><rect class="cls-3" x="69.94" y="22.34" width="12.1" height="1.59" rx="0.79"/><rect class="cls-3" x="44.97" y="22.34" width="12.1" height="1.59" rx="0.79"/><path class="cls-3" d="M74.34,19.08a1,1,0,0,1,.61.23.71.71,0,0,1,0,1.11.84.84,0,0,1-.62.23c-.25,0-.52,0-.82,0H71.32a1.38,1.38,0,0,1-.61-.11.82.82,0,0,1-.35-.34.61.61,0,0,1,0-.73l.37-.49.38-.49q.48-.62.75-1c.29-.41.53-.77.71-1.09a5.46,5.46,0,0,0,.45-1v0l0,0,0-.1c0-.08,0-.16.07-.23a3,3,0,0,0,.11-.52c0-.43-.09-.69-.37-.79h0a1.26,1.26,0,0,0-1,.07l-.23.15A.76.76,0,0,1,71,14a.9.9,0,0,1-.54-.36.64.64,0,0,1-.09-.59,1,1,0,0,1,.4-.49,3.2,3.2,0,0,1,3.32-.07A2,2,0,0,1,75,13.75a3.25,3.25,0,0,1,0,1.54A10.9,10.9,0,0,1,72.81,19C73.41,19,73.92,19.05,74.34,19.08Z"/><path class="cls-3" d="M81.6,15.09a6.33,6.33,0,0,1-.28,3.7,3.42,3.42,0,0,1-.88,1.34,2.22,2.22,0,0,1-1.72.5l-.16,0-.11,0a2.15,2.15,0,0,1-1.17-.84,3.77,3.77,0,0,1-.57-1.3,8.57,8.57,0,0,1-.22-2.94,5.62,5.62,0,0,1,.57-2,2.45,2.45,0,0,1,.64-.79,1.77,1.77,0,0,1,1-.45,2.13,2.13,0,0,1,1.3.19,3,3,0,0,1,.86.78A4.33,4.33,0,0,1,81.6,15.09Zm-1.87,3A5.09,5.09,0,0,0,80,16.54a6,6,0,0,0-.25-1.83l0-.12,0-.13a1.27,1.27,0,0,0-.11-.26.69.69,0,0,0-.45-.35.43.43,0,0,0-.4.21,1.93,1.93,0,0,0-.13.21l0,.11,0,0,0,.05A4.82,4.82,0,0,0,78.21,16a7.21,7.21,0,0,0,0,.94,5.84,5.84,0,0,0,.35,1.64.8.8,0,0,0,.32.41.34.34,0,0,0,.46-.1,1.75,1.75,0,0,0,.22-.39l.08-.22Z"/></svg>