<svg id="Layer_1" data-name="Layer 1" xmlns="http://www.w3.org/2000/svg" xmlns:xlink="http://www.w3.org/1999/xlink" viewBox="0 0 100 35"><defs><style>.cls-1{fill:none;}.cls-2{fill:#b31f2b;}.cls-3{fill:#00582d;}.cls-4{fill:#653414;}.cls-5{fill:#a0252a;}.cls-6{fill:#d0cdcd;}.cls-7{opacity:0.6;}.cls-8{fill:#2f0d00;}.cls-9{fill:#683614;}.cls-10{opacity:0.29;}.cls-11{fill:#060305;}.cls-12{opacity:0.95;}.cls-13{fill:#040102;}.cls-14{fill:#fff;}.cls-15{fill:#241010;}.cls-16{fill:#e3e2e1;}.cls-17{fill:#473332;}.cls-18{clip-path:url(#clip-path);}.cls-19{fill:#49392e;}.cls-20{fill:#48382c;}.cls-21{fill:#47362b;}.cls-22{fill:#463529;}.cls-23{fill:#453327;}.cls-24{fill:#433225;}.cls-25{fill:#423023;}.cls-26{fill:#412f20;}.cls-27{fill:#402d1e;}.cls-28{fill:#3f2b1c;}.cls-29{fill:#3e2a19;}.cls-30{fill:#3c2816;}.cls-31{fill:#3b2613;}.cls-32{fill:#3a2410;}.cls-33{fill:#39220c;}.cls-34{fill:#382107;}.cls-35{fill:#371f03;}.cls-36{fill:#361d00;}.cls-37{fill:#341b00;}.cls-38{fill:#331900;}.cls-39{fill:#321700;}.cls-40{fill:#311400;}.cls-41{fill:#311200;}.cls-42{fill:#301000;}.cls-43{fill:#2f0f00;}</style><clipPath id="clip-path"><ellipse class="cls-1" cx="71.93" cy="22.41" rx="4.12" ry="2.38"/></clipPath></defs><rect class="cls-2" x="0.53" y="1.05" width="98.94" height="32.91" rx="15.82"/><rect class="cls-3" x="4.25" y="4.16" width="91.84" height="27.4" rx="13.17"/><path class="cls-4" d="M66.85,18c.26.39.48,1,.23,1.14a1.71,1.71,0,0,1-1.59-.87c-.18-.38-.19-1-.53-1.41,0,0,0,0,0,0A3.17,3.17,0,0,1,66.85,18Z"/><path class="cls-5" d="M74.59,7.79a6.84,6.84,0,0,1,3.32,1.92,9.62,9.62,0,0,1,1.58,2,15.41,15.41,0,0,1,1.56,3.94,27.23,27.23,0,0,1,.79,3.82A24.18,24.18,0,0,1,82,23.57a9.26,9.26,0,0,1-1.85-1.7c-.27-.35-.33-.47-.64-.9a30.26,30.26,0,0,0-2.17-2.49,10.58,10.58,0,0,1-1.71-2.41,10.49,10.49,0,0,0-1.4-2.67c-.2-.26-.45-.56-.45-.56l-.38-.46c-.36-.43-.77-.82-1.12-1.28a5.27,5.27,0,0,1-.69-1.6c-.15-.59-.23-.88-.15-1.1C71.69,7.58,73.44,7.55,74.59,7.79Z"/><path class="cls-5" d="M72.42,15c2.85-.08,3.25.05,3.66-.39,1.15-1.23-.19-4-.37-4.41a4,4,0,0,0-2-2.33,4,4,0,0,0-3.37.6c-2.24,1.38-2.47,4-2.55,5-.07.75,0,1,.14,1.14C68.37,15.33,69.52,15.08,72.42,15Z"/><ellipse class="cls-6" cx="82.21" cy="23.42" rx="0.54" ry="0.58"/><ellipse class="cls-6" cx="81.54" cy="23.71" rx="0.54" ry="0.58"/><ellipse class="cls-6" cx="81.89" cy="24.3" rx="0.54" ry="0.58"/><ellipse class="cls-6" cx="82.47" cy="24.11" rx="0.54" ry="0.58"/><g class="cls-7"><path class="cls-8" d="M66.46,18.56v0a.91.91,0,0,1-.61-.29.83.83,0,0,1-.22-.61h0a.8.8,0,0,0,.23.64A1,1,0,0,0,66.46,18.56Z"/></g><path class="cls-4" d="M77.27,18.1c-.26.39-.48,1-.23,1.14a1.68,1.68,0,0,0,1.59-.86c.18-.38.19-1.05.53-1.41,0,0,0,0,0-.06A3.25,3.25,0,0,0,77.27,18.1Z"/><g class="cls-7"><path class="cls-8" d="M77.54,18.7a1,1,0,0,0,.64-.31.84.84,0,0,0,.22-.64h0a.8.8,0,0,1-.21.61.9.9,0,0,1-.61.29Z"/></g><path class="cls-9" d="M69.62,23.09h4.61a3.64,3.64,0,0,0,2-.84,4.08,4.08,0,0,0,1.18-4,5.46,5.46,0,0,0-1.18-2.11,6.06,6.06,0,0,0-4.74-1.81,5.64,5.64,0,0,0-3.91,1.81,5.09,5.09,0,0,0-1,1.94,4.05,4.05,0,0,0,1,4.16A3.57,3.57,0,0,0,69.62,23.09Z"/><ellipse class="cls-9" cx="71.98" cy="24.3" rx="6.97" ry="4.03"/><path class="cls-8" d="M76.08,25.19a6.27,6.27,0,0,1-4.23,1.62,6,6,0,0,1-4-1.76,6.79,6.79,0,0,0,4,1.62A7.1,7.1,0,0,0,76.08,25.19Z"/><g class="cls-10"><path class="cls-11" d="M75.61,19.82v0a13.18,13.18,0,0,0-3-.47,15.66,15.66,0,0,0-4.37.44v0a16,16,0,0,1,4.36-.44A13.18,13.18,0,0,1,75.61,19.82Z"/></g><g class="cls-12"><path class="cls-11" d="M73.26,17.87a1.37,1.37,0,0,1,1.36-.82c.78.15.95,1.18,1,1.23.07.49-.08,1.16-.48,1.33-.15.06-.21,0-.85-.1s-.86-.09-1-.21C72.93,19,73,18.31,73.26,17.87Z"/></g><g class="cls-12"><path class="cls-13" d="M70.67,17.89a1.39,1.39,0,0,0-1.35-.84c-.79.13-1,1.16-1,1.21-.08.49,0,1.16.45,1.34.14.06.21,0,.86-.09s.86-.07,1-.19C71,19,70.9,18.34,70.67,17.89Z"/></g><ellipse class="cls-14" cx="70.18" cy="18.13" rx="0.34" ry="0.31"/><ellipse class="cls-14" cx="73.8" cy="18.13" rx="0.34" ry="0.31"/><circle class="cls-14" cx="75.19" cy="17.68" r="0.07"/><ellipse class="cls-14" cx="68.9" cy="17.68" rx="0.07" ry="0.06"/><path class="cls-15" d="M67.52,17.63a2.72,2.72,0,0,1,3-.77l-.11-.94a2.93,2.93,0,0,0-2.3.75,1.73,1.73,0,0,0-.33.45Z"/><path class="cls-15" d="M76.46,17.63a2.81,2.81,0,0,0-1.74-.92,2.7,2.7,0,0,0-1.26.15l.11-.94a2.92,2.92,0,0,1,2.29.75,2.05,2.05,0,0,1,.34.45Z"/><path class="cls-16" d="M68.17,16a8.55,8.55,0,0,1,8,.21.74.74,0,0,0,.57-.19.93.93,0,0,0-.2-1.24,8.56,8.56,0,0,0-2.24-.87,9.4,9.4,0,0,0-2-.22,11.28,11.28,0,0,0-4.6,1A.9.9,0,0,0,67.52,16C67.74,16.13,68.11,16,68.17,16Z"/><path class="cls-17" d="M77,17.32a.92.92,0,0,1-1-.85,8.89,8.89,0,0,0,1-.81c.2-.18.81-.95,1.79-2.19A21.06,21.06,0,0,0,81,10.32c.15-.24.34-.42.48-.39s.31.42.22.94Z"/><path class="cls-17" d="M80.59,11.69a.53.53,0,0,0,0-.13,2.09,2.09,0,0,0-.47-1.33C80,10,80,9.9,80,9.87s.43.09.62.2a3,3,0,0,0,.19.94,2.49,2.49,0,0,0,.27.52Z"/><path class="cls-17" d="M80.34,12.88l-.13-.4a4.81,4.81,0,0,0,1.18-.25,4.32,4.32,0,0,0,.64-.29c.26-.2.5-.29.55-.23s0,.29-.25.54Z"/><path class="cls-17" d="M78.78,14.73l-.7,0a3.57,3.57,0,0,0,.13-1,4,4,0,0,0-.11-.8l.42-.34Z"/><path class="cls-17" d="M78.53,13.55l-.28-.17a1.6,1.6,0,0,0,.6-.76,1.23,1.23,0,0,0,.09-.34c0-.13,0-.19,0-.2s.13.11.25.37Z"/><path class="cls-17" d="M77.72,15.8l0-.83a9.88,9.88,0,0,0,1.52.2,9.65,9.65,0,0,0,1.45,0c.23,0,.45,0,.47.06s-.27.21-.52.32l-1.36.13Z"/><path class="cls-17" d="M79.42,15.25l.29.15a1.68,1.68,0,0,1,.37-.89,1.39,1.39,0,0,1,.25-.24c.12-.06.17-.1.16-.13s-.16-.05-.44,0Z"/><path class="cls-17" d="M79.72,15.07l0-.23s.61.07.71-.24a.3.3,0,0,0,0-.1s.08-.06.1-.05,0,.16,0,.42Z"/><path class="cls-17" d="M81.63,12.46l-.28-.18a1,1,0,0,0,.48-.56.93.93,0,0,0,0-.27c0-.11,0-.16,0-.17s.13.11.27.34Z"/><path class="cls-17" d="M81,12.64l.21-.25a1,1,0,0,0,.48.56,1.07,1.07,0,0,0,.27.09c.1,0,.16,0,.16,0s-.13.11-.38.21Z"/><path class="cls-17" d="M80.66,10.52l-.07.32a1.35,1.35,0,0,0-.49-.21,1.39,1.39,0,0,0-.47,0c-.09-.11-.29-.38-.22-.46s.07,0,.25,0a1.47,1.47,0,0,0,.43.25A1.28,1.28,0,0,0,80.66,10.52Z"/><path class="cls-17" d="M76.91,16.66l-.48-.08a9.87,9.87,0,0,0,.16-1.06,4.17,4.17,0,0,0,0-.73c0-.22-.07-.4,0-.44s.17.07.26.16c0-.12,0-.2.1-.21a.09.09,0,0,1,.08,0,5.19,5.19,0,0,0-.18.73A4.32,4.32,0,0,0,76.91,16.66Z"/><path class="cls-17" d="M76.77,15.37l-.07-.15s.47-.2.49-.45v-.08a.14.14,0,0,1,.06-.08s.06.1.07.3Z"/><path class="cls-17" d="M77.12,16.84l0-.19.38,0,.44,0c.11.1.15.16.12.17s-.08,0-.18,0h-.29Z"/><path class="cls-17" d="M77.65,16.75l.11,0s0-.25.12-.25h.05s0,0,0,0-.07,0-.19,0Z"/><path class="cls-17" d="M67,17a1,1,0,0,0,.75-.26.93.93,0,0,0,.26-.51,9.7,9.7,0,0,1-1-.9c-.18-.19-.73-1-1.6-2.32A22,22,0,0,1,63.6,9.73c-.13-.25-.3-.45-.45-.42s-.33.39-.29.92Z"/><path class="cls-17" d="M63.86,11.13a.56.56,0,0,1,0-.13,2.07,2.07,0,0,1,.58-1.29c.17-.23.16-.32.13-.35s-.43.06-.63.15a2.77,2.77,0,0,1-.26.92,3.1,3.1,0,0,1-.32.5Z"/><path class="cls-17" d="M64,12.34l.16-.4a4.44,4.44,0,0,1-1.78-.68c-.24-.22-.47-.33-.53-.27s0,.29.21.56Z"/><path class="cls-17" d="M65.42,14.3l.69.1a3.39,3.39,0,0,1,0-1,3.61,3.61,0,0,1,.17-.79l-.4-.37Z"/><path class="cls-17" d="M65.76,13.15l.29-.15a1.66,1.66,0,0,1-.54-.8,1.63,1.63,0,0,1-.05-.35c0-.13,0-.19,0-.2s-.13.1-.27.35Z"/><path class="cls-17" d="M66.39,15.46l0-.83a10.28,10.28,0,0,1-1.53.07,9.91,9.91,0,0,1-1.45-.14c-.22,0-.45,0-.47,0s.25.23.5.35l1.34.24Z"/><path class="cls-17" d="M64.73,14.77l-.29.13a1.64,1.64,0,0,0-.3-.92,1.51,1.51,0,0,0-.23-.26c-.11-.07-.16-.11-.15-.14s.16,0,.45,0Z"/><path class="cls-17" d="M64.45,14.57l.06-.23c-.05,0-.62,0-.7-.3a.28.28,0,0,1,0-.1s-.07-.06-.09-.06-.05.16,0,.43Z"/><path class="cls-17" d="M62.76,11.81l.29-.15a1,1,0,0,1-.43-.6.9.9,0,0,1,0-.28c0-.1,0-.16,0-.16s-.14.09-.3.31Z"/><path class="cls-17" d="M63.42,12l-.2-.26a1,1,0,0,1-.52.52,1,1,0,0,1-.27.06c-.11,0-.16,0-.16,0s.11.12.35.25Z"/><path class="cls-17" d="M63.89,10l0,.33a1.18,1.18,0,0,1,1-.12c.09-.1.31-.35.25-.44s-.07-.06-.26,0a1,1,0,0,1-.44.22A1.12,1.12,0,0,1,63.89,10Z"/><path class="cls-17" d="M67.13,16.38l.48,0c0-.43-.06-.79-.07-1.07a6.5,6.5,0,0,1,0-.74c0-.21.11-.39,0-.43s-.18.06-.27.14c0-.12,0-.21-.08-.22a.11.11,0,0,0-.09,0,4.19,4.19,0,0,1,0,2.33Z"/><path class="cls-17" d="M67.37,15.1l.09-.14s-.46-.23-.46-.49a.22.22,0,0,1,0-.08.21.21,0,0,0-.05-.08s-.07.09-.1.29Z"/><path class="cls-17" d="M66.91,16.54l0-.19h-.82c-.12.09-.16.14-.13.16a.34.34,0,0,0,.17,0l.29,0Z"/><path class="cls-17" d="M66.38,16.41l-.11,0s0-.24-.1-.26h0l0,0s.08,0,.2,0Z"/><g class="cls-18"><polygon class="cls-19" points="76.05 21.43 73.63 20.03 76.05 20.03 76.05 21.43"/><polygon class="cls-19" points="76.05 21.63 73.28 20.03 73.63 20.03 76.05 21.43 76.05 21.63"/><polygon class="cls-20" points="76.05 21.83 72.94 20.03 73.28 20.03 76.05 21.63 76.05 21.83"/><polygon class="cls-21" points="76.05 22.03 72.59 20.03 72.94 20.03 76.05 21.83 76.05 22.03"/><polygon class="cls-22" points="76.05 22.23 72.24 20.03 72.59 20.03 76.05 22.03 76.05 22.23"/><polygon class="cls-23" points="76.05 22.43 71.9 20.03 72.24 20.03 76.05 22.23 76.05 22.43"/><polygon class="cls-24" points="76.05 22.63 71.55 20.03 71.9 20.03 76.05 22.43 76.05 22.63"/><polygon class="cls-25" points="76.05 22.83 71.2 20.03 71.55 20.03 76.05 22.63 76.05 22.83"/><polygon class="cls-26" points="76.05 23.03 70.86 20.03 71.2 20.03 76.05 22.83 76.05 23.03"/><polygon class="cls-27" points="76.05 23.23 70.51 20.03 70.86 20.03 76.05 23.03 76.05 23.23"/><polygon class="cls-28" points="76.05 23.43 70.16 20.03 70.51 20.03 76.05 23.23 76.05 23.43"/><polygon class="cls-29" points="76.05 23.63 69.81 20.03 70.16 20.03 76.05 23.43 76.05 23.63"/><polygon class="cls-30" points="76.05 23.83 69.47 20.03 69.81 20.03 76.05 23.63 76.05 23.83"/><polygon class="cls-31" points="76.05 24.03 69.12 20.03 69.47 20.03 76.05 23.83 76.05 24.03"/><polygon class="cls-32" points="76.05 24.23 68.77 20.03 69.12 20.03 76.05 24.03 76.05 24.23"/><polygon class="cls-33" points="76.05 24.43 68.42 20.03 68.77 20.03 76.05 24.23 76.05 24.43"/><polygon class="cls-34" points="76.05 24.63 68.08 20.03 68.42 20.03 76.05 24.43 76.05 24.63"/><polygon class="cls-35" points="75.98 24.8 67.81 20.08 67.81 20.03 68.08 20.03 76.05 24.63 76.05 24.8 75.98 24.8"/><polygon class="cls-36" points="75.63 24.8 67.81 20.28 67.81 20.08 75.98 24.8 75.63 24.8"/><polygon class="cls-37" points="75.29 24.8 67.81 20.48 67.81 20.28 75.63 24.8 75.29 24.8"/><polygon class="cls-38" points="74.94 24.8 67.81 20.68 67.81 20.48 75.29 24.8 74.94 24.8"/><polygon class="cls-39" points="74.59 24.8 67.81 20.88 67.81 20.68 74.94 24.8 74.59 24.8"/><polygon class="cls-40" points="74.25 24.8 67.81 21.08 67.81 20.88 74.59 24.8 74.25 24.8"/><polygon class="cls-41" points="73.9 24.8 67.81 21.28 67.81 21.08 74.25 24.8 73.9 24.8"/><polygon class="cls-42" points="73.55 24.8 67.81 21.48 67.81 21.28 73.9 24.8 73.55 24.8"/><polygon class="cls-43" points="73.2 24.8 67.81 21.68 67.81 21.48 73.55 24.8 73.2 24.8"/><polygon class="cls-8" points="72.86 24.8 67.81 21.88 67.81 21.68 73.2 24.8 72.86 24.8"/><polygon class="cls-8" points="67.81 21.88 72.86 24.8 67.81 24.8 67.81 21.88"/></g><path class="cls-2" d="M44.14,29.83a1.46,1.46,0,0,1-.75-.2,1.5,1.5,0,0,1-.55-2.05L54.74,7a1.49,1.49,0,0,1,2-.55,1.51,1.51,0,0,1,.55,2L45.44,29.08A1.5,1.5,0,0,1,44.14,29.83Z"/></svg>