<svg id="Layer_1" data-name="Layer 1" xmlns="http://www.w3.org/2000/svg" viewBox="0 0 220 80"><defs><style>.cls-1{fill:#00582d;}.cls-2{fill:#b31f2b;}.cls-3{fill:#fff;}</style></defs><rect class="cls-1" x="1.84" y="4.03" width="216.31" height="71.94" rx="35.97"/><rect class="cls-2" x="9.99" y="10.85" width="200.79" height="58.9" rx="29.45"/><path class="cls-3" d="M35.06,51.25c-.66-.87-1.31-1.66-1.94-2.37-.34-.39-.69-.78-1.06-1.16l0,2.42a2,2,0,0,1-.68,1.56,2.1,2.1,0,0,1-1.6.63,2.07,2.07,0,0,1-1.56-.66,2.1,2.1,0,0,1-.66-1.56c0-1.44,0-3.06,0-4.85l.08-4.87q.14-6.47.09-9.71a2,2,0,0,1,.67-1.56,2.24,2.24,0,0,1,1.6-.65,2,2,0,0,1,.71.14,3.91,3.91,0,0,1,.49,0,10.09,10.09,0,0,1,5,2.34,8.1,8.1,0,0,1,2.87,4.67,8.72,8.72,0,0,1-1.35,6.81,10.49,10.49,0,0,1-2.27,2.4Q37.09,46.58,39,49a1.78,1.78,0,0,1,.24,1.66,2.27,2.27,0,0,1-1,1.37,2,2,0,0,1-1.68.21A2.66,2.66,0,0,1,35.06,51.25Zm-2.19-10,.22-.15a4.68,4.68,0,0,0,.87-1,4.47,4.47,0,0,0,.83-2.43,4,4,0,0,0-1.67-3.47.74.74,0,0,0-.18-.12L32.8,34l-.15-.09a1.61,1.61,0,0,1-.39-.28c0,1.16,0,2.52,0,4.06l-.07,4s.09-.09.26-.2l.23-.15Z"/><path class="cls-3" d="M50.58,47.91a2.14,2.14,0,0,1,1.56.67,2.06,2.06,0,0,1,.66,1.56,2.08,2.08,0,0,1-.68,1.56,2.15,2.15,0,0,1-1.58.65c-1.93,0-3.55,0-4.87-.07q-3.41-.06-4.36-2.84a7.16,7.16,0,0,1-.24-2.69c0-.35,0-.77,0-1.26l0-1.26,0-2.46q0-1.44,0-2.46L41,38l0-1.29q0-1.48,0-2.58v-.58l0-.62a7.13,7.13,0,0,1,.15-1.23,3.49,3.49,0,0,1,1.13-2.09,5.58,5.58,0,0,1,3.82-1.15c.62,0,1.36,0,2.22,0h2.25a2.13,2.13,0,0,1,1.56.66,2.1,2.1,0,0,1,.66,1.58,2.08,2.08,0,0,1-.68,1.55,2.19,2.19,0,0,1-1.58.65H46.35l-.68,0-.17,0v.31c0,.71-.05,1.41-.05,2.1l0,1.54.05,1.53h3.1a2.16,2.16,0,0,1,1.58.68,2.1,2.1,0,0,1,.66,1.56,2.27,2.27,0,0,1-2.27,2.21h-3v3.71l0,.41a7.19,7.19,0,0,0,0,.87h.81c.54,0,1.25,0,2.12,0l1.06,0Z"/><path class="cls-3" d="M68.11,50.14a1.75,1.75,0,0,1-.65,1.55,2.29,2.29,0,0,1-1.62.64,2,2,0,0,1-1.55-.66,2.73,2.73,0,0,1-.68-1.56c-.12-1-.23-1.9-.32-2.66l-3.9,0c-.2,1.24-.39,2.34-.58,3.29a1.87,1.87,0,0,1-1,1.33,2.33,2.33,0,0,1-1.72.22,2.12,2.12,0,0,1-1.35-1.05,2.36,2.36,0,0,1-.23-1.68c.28-1.39.58-3.29.91-5.68l.18-1.41L55.75,41c.15-1.08.31-2.06.47-2.94.09-.53.16-1,.22-1.25.09-.46.17-.89.25-1.27A21.3,21.3,0,0,1,57.41,33a8.72,8.72,0,0,1,2.92-4.21A1.86,1.86,0,0,1,62,28.52a2.33,2.33,0,0,1,1.37.93,9.45,9.45,0,0,1,2.07,3.83A19.91,19.91,0,0,1,66,35.83l.24,1.32.22,1.29Q67.28,43.12,68.11,50.14ZM60,43h2.7c-.16-1-.32-2-.47-3L62,38.89l-.2-1.13c-.16-.87-.32-1.63-.47-2.26a42.14,42.14,0,0,0-1,4.61c-.13.79-.24,1.63-.36,2.5Z"/><path class="cls-3" d="M82.11,40.45a11,11,0,0,1-2,7,12.26,12.26,0,0,1-3.35,3.14,11.55,11.55,0,0,1-2.27,1l-.51.17-.5.16-.27.12-.14,0a2.49,2.49,0,0,1-1.72.21,2,2,0,0,1-1.36-1,2.18,2.18,0,0,1-.12-2l.1-4.65L70,39.94q.06-5.34,0-9.31a2,2,0,0,1,1.11-1.89,1.88,1.88,0,0,1,1.9-.33,15.14,15.14,0,0,1,6.82,5.05A11.4,11.4,0,0,1,82.11,40.45ZM77.53,41.8l0,0A8.27,8.27,0,0,0,77,37.51a7.77,7.77,0,0,0-1.94-2.66c-.22-.22-.41-.39-.57-.53q0,2.74,0,6.23l0,3.11-.07,3.11a6.32,6.32,0,0,0,2.14-2.13A6.81,6.81,0,0,0,77.53,41.8Z"/><path class="cls-3" d="M84,37a55.28,55.28,0,0,0-2.74-5.24A2.08,2.08,0,0,1,81,30a2.16,2.16,0,0,1,1-1.37,2.33,2.33,0,0,1,3.09.8,62.37,62.37,0,0,1,3.3,6.43c.35-.79.85-1.85,1.5-3.21l.77-1.57.75-1.6a1.8,1.8,0,0,1,1.36-1,2.26,2.26,0,0,1,1.72.22,2,2,0,0,1,1,1.34,2.57,2.57,0,0,1-.21,1.7l-.65,1.38L94,34.51c-.58,1.2-1,2.13-1.31,2.77l-.37.85,0,.08,0,.07,0,.06,0,.1c-.24.58-.43,1.07-.58,1.48a26,26,0,0,0-.79,2.74l-.05.19c0,.49,0,1.1-.07,1.82l-.1,1.83a24.86,24.86,0,0,0,0,3.64A1.8,1.8,0,0,1,90,51.7a2.3,2.3,0,0,1-1.6.65,2.08,2.08,0,0,1-1.58-.66,2.67,2.67,0,0,1-.66-1.58,25.37,25.37,0,0,1,0-3.84l0-1,.05-1c0-.74.06-1.38,0-1.93l0-.08c-.47-1.18-.87-2.16-1.19-2.92l-.12-.3,0-.1,0-.09c0-.05,0-.08-.06-.09l-.26-.64Z"/><path class="cls-3" d="M109.44,50.11c0-1.22,0-2.63-.12-4.22l-.1-2.11-.1-2.11q-.28-5.39-.2-8.46a19.39,19.39,0,0,1-2.36-.1,2.69,2.69,0,0,1-1.59-.68,2.07,2.07,0,0,1-.65-1.56A2.21,2.21,0,0,1,105,29.3a1.9,1.9,0,0,1,1.6-.63,30.62,30.62,0,0,0,4.65,0l1.16-.08,1.17-.09c.9-.05,1.68-.08,2.32-.08a2.1,2.1,0,0,1,1.58.66,2.17,2.17,0,0,1,0,3.13,2.34,2.34,0,0,1-1.6.65c-.67,0-1.48,0-2.45.1q-.07,3.14.19,8.59l.12,2.14.1,2.14c.07,1.62.1,3,.12,4.29a2.08,2.08,0,0,1-.68,1.56,2.23,2.23,0,0,1-1.6.65,2.15,2.15,0,0,1-1.58-.66A2.2,2.2,0,0,1,109.44,50.11Z"/><path class="cls-3" d="M130.75,34.85a16.41,16.41,0,0,1,1.14,6.2,15.3,15.3,0,0,1-1.26,6.15,9.58,9.58,0,0,1-3.18,4.15,4.88,4.88,0,0,1-5,.55,6.57,6.57,0,0,1-3.2-3.34,15.33,15.33,0,0,1-1.38-4.93,23.54,23.54,0,0,1,.79-9.27,11.72,11.72,0,0,1,1.9-4.18,4.3,4.3,0,0,1,2.11-1.47,4.76,4.76,0,0,1,2.59-.15A5.81,5.81,0,0,1,128.74,31,18.1,18.1,0,0,1,130.75,34.85Zm-3.42,7.76a13.58,13.58,0,0,0-.79-6.29.93.93,0,0,0-.07-.15l0-.1,0-.12a4.3,4.3,0,0,0-.2-.55,8,8,0,0,0-.56-1.29c-.55-1.07-1.08-1.44-1.6-1.13a1.46,1.46,0,0,0-.52.76l-.15.5-.05.22-.07.21a25,25,0,0,0-.65,2.54,17.44,17.44,0,0,0-.39,4.44,19.5,19.5,0,0,0,.18,2.23A8.37,8.37,0,0,0,123,46l0,.06,0,.09c0,.06,0,.11,0,.13l.11.2.11.23a5,5,0,0,0,.26.48,1.17,1.17,0,0,0,.74.63,1,1,0,0,0,1-.41c.11-.13.23-.29.37-.48l.13-.23.07-.12.07-.1a11.25,11.25,0,0,0,1-2.08A9.1,9.1,0,0,0,127.33,42.61Z"/><path class="cls-3" d="M149.28,42.78l-1.89,0c-.69,0-1.32,0-1.88,0v7.38a2.08,2.08,0,0,1-.68,1.56,2.17,2.17,0,0,1-1.58.65,2.13,2.13,0,0,1-1.58-.66,2.18,2.18,0,0,1-.66-1.58V30.57a2.07,2.07,0,0,1,.67-1.55,2.17,2.17,0,0,1,1.6-.65,2.27,2.27,0,0,1,2.23,2.23v7.74c.57,0,1.1,0,1.6,0l2.24,0q.06-4.77.08-7.77a2.08,2.08,0,0,1,.68-1.55,2.25,2.25,0,0,1,3.82,1.58c0,1.44,0,3.06,0,4.87l-.09,4.87c-.06,4.32-.1,7.56-.1,9.73a2.14,2.14,0,0,1-.67,1.57,2.17,2.17,0,0,1-1.59.63,2.13,2.13,0,0,1-1.58-.67,2.1,2.1,0,0,1-.66-1.56C149.21,48.1,149.24,45.68,149.28,42.78Z"/><path class="cls-3" d="M165.22,47.91a2.15,2.15,0,0,1,1.57.67,2.17,2.17,0,0,1,0,3.12,2.19,2.19,0,0,1-1.59.65c-1.93,0-3.55,0-4.86-.07q-3.4-.06-4.37-2.84a7.2,7.2,0,0,1-.23-2.69q0-.53,0-1.26l0-1.26V41.77c0-1,0-1.78,0-2.46l0-1.3-.05-1.29q0-1.48,0-2.58l0-.58,0-.62a7.13,7.13,0,0,1,.15-1.23,3.54,3.54,0,0,1,1.13-2.09,5.58,5.58,0,0,1,3.82-1.15c.62,0,1.36,0,2.23,0h2.24a2.24,2.24,0,0,1,2.22,2.24,2.07,2.07,0,0,1-.67,1.55,2.23,2.23,0,0,1-1.59.65H161l-.67,0-.17,0,0,.31c0,.71,0,1.41,0,2.1l0,1.54,0,1.53h3.1a2.18,2.18,0,0,1,1.59.68,2.09,2.09,0,0,1,.65,1.56,2.27,2.27,0,0,1-2.27,2.21h-3V44l0,1.06v1.07l0,.43,0,.41a5.83,5.83,0,0,0,0,.87H161c.54,0,1.25,0,2.13,0l1.06,0Z"/><path class="cls-3" d="M181.17,50a2,2,0,0,1-.67,1.54,2.19,2.19,0,0,1-1.59.65c-.26,0-.58,0-.94.05l-.93.07c-.78.06-1.4.09-1.85.08a8.26,8.26,0,0,1-3.23-.7,4,4,0,0,1-2.31-2.59,11.24,11.24,0,0,1-.42-3.54l0-1.89,0-1.9c0-1.47,0-2.73,0-3.79l-.05-3.63,0-3.66a2.08,2.08,0,0,1,.67-1.55,2.26,2.26,0,0,1,3.17,0,2.1,2.1,0,0,1,.66,1.56v3.41l0,3.42q0,4.13,0,6.82l0,1.71v.18l0,.2v.4a1.1,1.1,0,0,0,.24.71,1.18,1.18,0,0,0,.89.38,4,4,0,0,0,.52,0l.27,0h.22l.77,0,.78-.05c.63-.06,1.14-.08,1.53-.08a2.17,2.17,0,0,1,1.59.66A2.19,2.19,0,0,1,181.17,50Z"/><path class="cls-3" d="M185.08,52.35a2.11,2.11,0,0,1-1.57-.66,2.21,2.21,0,0,1-.65-1.58c0-1.43,0-3,0-4.85l.08-4.86q.13-6.48.09-9.72a2,2,0,0,1,.67-1.54,2.12,2.12,0,0,1,1.6-.65,2.21,2.21,0,0,1,.71.12,2,2,0,0,1,.49.05,10,10,0,0,1,5,2.34,8,8,0,0,1,2.87,4.65,8.76,8.76,0,0,1-1.35,6.83,10.16,10.16,0,0,1-2.8,2.76,10.93,10.93,0,0,1-1.36.73l-.69.33-.71.32-.15.07c0,1.25,0,2.4,0,3.45a2,2,0,0,1-.68,1.56A2.2,2.2,0,0,1,185.08,52.35Zm2.46-18.69c0,1.16,0,2.51,0,4l-.07,4a1.61,1.61,0,0,1,.39-.28l.15-.09.14-.08a.53.53,0,0,0,.16-.12,5.76,5.76,0,0,0,.85-.86,4.43,4.43,0,0,0,.94-2.71,4,4,0,0,0-.94-2.69,5,5,0,0,0-.73-.73l0,0C188,34,187.78,33.79,187.54,33.66Z"/></svg>