<svg id="Layer_1" data-name="Layer 1" xmlns="http://www.w3.org/2000/svg" xmlns:xlink="http://www.w3.org/1999/xlink" viewBox="0 0 300 400"><defs><style>.cls-1{fill:url(#radial-gradient);}.cls-2{fill:#653414;}.cls-3{fill:#a0252a;}.cls-4{fill:#d0cdcd;}.cls-5{fill:#551300;}.cls-6{fill:#b31f2b;}.cls-7{opacity:0.6;}.cls-8{fill:#2f0d00;}.cls-9{fill:#683614;}.cls-10{opacity:0.29;}.cls-11{fill:#060305;}.cls-12{opacity:0.95;}.cls-13{fill:#040102;}.cls-14{fill:#fff;}.cls-15{fill:#241010;}.cls-16{fill:#e3e2e1;}.cls-17{fill:#473332;}.cls-18{fill:url(#linear-gradient);}</style><radialGradient id="radial-gradient" cx="-3177.98" cy="268.16" r="86.72" gradientTransform="matrix(0.98, 0.06, -0.05, 0.96, 3275.18, 204.29)" gradientUnits="userSpaceOnUse"><stop offset="0" stop-color="#9b6a4a"/><stop offset="0.11" stop-color="#916040"/><stop offset="0.44" stop-color="#7b4928"/><stop offset="0.75" stop-color="#6d3b19"/><stop offset="1" stop-color="#683614"/></radialGradient><linearGradient id="linear-gradient" x1="-1083.23" y1="161.3" x2="-1049.26" y2="220.13" gradientTransform="matrix(-1, 0, 0, 1, -922.15, 0)" gradientUnits="userSpaceOnUse"><stop offset="0" stop-color="#49392e"/><stop offset="0.16" stop-color="#422d22"/><stop offset="0.54" stop-color="#341609"/><stop offset="0.77" stop-color="#2f0d00"/></linearGradient></defs><path class="cls-1" d="M234,341.26c-8.93,12.83-38.9,12.91-98.84,13.07-67.31.18-77.17-8.78-81.43-14.81-14.36-20.3,2.28-53.08,7.42-63.2,13.21-26,46.43-65.84,89.35-63.46C214.26,216.41,255.43,310.48,234,341.26Z"/><path class="cls-2" d="M84.88,138.65c3.09,4.52,5.61,11.77,2.68,13.31-3.23,1.69-15.06-2.63-18.55-10.09-2.09-4.47-2.2-12.21-6.1-16.45-.23-.25-.54-.56-.4-.67C63.24,124.14,78.09,128.68,84.88,138.65Z"/><path class="cls-3" d="M175.16,20.26c19.59,4.1,32.76,16.65,38.68,22.43a112.65,112.65,0,0,1,18.37,23.9c9.73,16.33,14,31,18.19,45.88a303.06,303.06,0,0,1,9.17,44.5,276.18,276.18,0,0,1,1.65,47.17,101.87,101.87,0,0,1-21.48-19.81c-3.24-4-3.91-5.44-7.47-10.4-10-13.85-15.22-17.14-25.36-29.12-9.45-11.15-14.89-17.58-19.9-28-4.53-9.47-6.65-19.1-16.28-31.15-2.35-3-5.25-6.47-5.25-6.47-1.62-2-3-3.57-4.47-5.36-4.25-5.08-9-9.59-13-14.92-1.59-2.09-5.48-8.88-8.05-18.71-1.78-6.82-2.7-10.22-1.82-12.83C141.33,17.81,161.67,17.43,175.16,20.26Z"/><path class="cls-3" d="M149.79,104.37c33.28-.85,37.92.63,42.75-4.53,13.39-14.3-2.33-47.12-4.37-51.37-4.87-10.18-10.62-22.18-23.71-27.18-17.2-6.57-34.29,4-39.26,7-26.07,16-28.75,47.25-29.7,58.3-.75,8.71.43,11.49,1.6,13.25C102.64,108.17,116,105.24,149.79,104.37Z"/><ellipse class="cls-4" cx="263.98" cy="202.46" rx="6.33" ry="6.8"/><ellipse class="cls-4" cx="256.13" cy="205.86" rx="6.33" ry="6.8"/><ellipse class="cls-4" cx="260.18" cy="212.66" rx="6.33" ry="6.8"/><ellipse class="cls-4" cx="267.01" cy="210.48" rx="6.33" ry="6.8"/><path class="cls-5" d="M187.55,257.14l6.51,45c-2.81-4.42-7.24-6.7-11.44-5.89-5.64,1.09-7.92,7.17-8.14,7.78q-3.63-21.88-7.27-43.77Z"/><path class="cls-6" d="M66.54,246.1c-.76,13.06,41.58,30.74,80.72,31.1,34.22.31,74.69-12.52,75.66-27.73.35-5.53-4.72-9.73-5-9.95-13.47-10.87-35.06,16.32-69.53,17.33-37.47,1.1-61.78-29.57-77.47-17.33C69.63,240.53,66.73,242.79,66.54,246.1Z"/><path class="cls-6" d="M193.26,243q13.35,24,26.69,48c-4.67-4-9.92-5-13.54-2.69-4.84,3.12-4.25,10.67-4.18,11.42l-27.8-48.43Z"/><g class="cls-7"><path class="cls-8" d="M80.31,145.76l0-.49a10.65,10.65,0,0,1-7.11-3.38,9.39,9.39,0,0,1-2.52-7.09l-.49,0a9.87,9.87,0,0,0,2.65,7.45A11.12,11.12,0,0,0,80.31,145.76Z"/></g><path class="cls-2" d="M206.36,140.46c-3.08,4.53-5.6,11.78-2.68,13.31,3.24,1.7,15.06-2.62,18.56-10.08,2.09-4.47,2.19-12.22,6.1-16.46.23-.25.53-.55.4-.66C228,126,213.16,130.5,206.36,140.46Z"/><g class="cls-7"><path class="cls-8" d="M209.48,147.36a11.17,11.17,0,0,0,7.44-3.54,9.89,9.89,0,0,0,2.64-7.45l-.49,0a9.4,9.4,0,0,1-2.51,7.09,10.71,10.71,0,0,1-7.12,3.39Z"/></g><path class="cls-9" d="M117.21,198.58H171a43.08,43.08,0,0,0,23.53-9.79c12.48-10.67,17.56-28.55,13.76-46.48a64.14,64.14,0,0,0-13.76-24.59c-20.75-22.92-51-21.42-55.22-21.14-5.25.34-28.94,1.9-45.6,21.14a60.26,60.26,0,0,0-12.2,22.64c-5,18.54-.44,37.39,12.2,48.43C102.3,196.33,112.22,198.09,117.21,198.58Z"/><ellipse class="cls-9" cx="144.73" cy="212.66" rx="81.25" ry="46.99"/><path class="cls-8" d="M154.16,229.42c.12.22-18.14,8.76-38.8,2.67-20.2-6-30.23-22.24-30-22.35s10.59,15.49,30.22,21.3C135.72,237,154,229.2,154.16,229.42Z"/><g class="cls-10"><path class="cls-11" d="M187,160.53l.14-.47a147,147,0,0,0-35-5.5,182.73,182.73,0,0,0-51,5.09l.12.47a182.57,182.57,0,0,1,50.82-5.07A147,147,0,0,1,187,160.53Z"/></g><g class="cls-12"><path class="cls-11" d="M159.56,137.71c2.43-4.48,8.49-11,15.91-9.54,9.12,1.78,11.06,13.79,11.14,14.32.84,5.76-.91,13.53-5.57,15.51-1.69.71-2.4.09-9.95-1.2-9-1.53-10-1-11.53-2.38C155.79,151,156.73,142.93,159.56,137.71Z"/></g><g class="cls-12"><path class="cls-13" d="M129.4,138c-2.34-4.53-8.27-11.16-15.72-9.86-9.15,1.6-11.33,13.57-11.41,14.09-1,5.74.63,13.56,5.25,15.62,1.68.75,2.4.14,10-1,9-1.36,10-.79,11.58-2.16C132.9,151.31,132.12,143.27,129.4,138Z"/></g><ellipse class="cls-14" cx="123.67" cy="140.72" rx="3.98" ry="3.58"/><ellipse class="cls-14" cx="165.89" cy="140.72" rx="3.98" ry="3.58"/><circle class="cls-14" cx="182.13" cy="135.59" r="0.8"/><ellipse class="cls-14" cx="108.82" cy="135.51" rx="0.8" ry="0.72"/><path class="cls-15" d="M92.69,134.93a33,33,0,0,1,20.18-10.72A31.63,31.63,0,0,1,127.64,126q-.65-5.52-1.3-11c-3.77-.26-17.53-.77-26.7,8.74A26.89,26.89,0,0,0,95.72,129Z"/><path class="cls-15" d="M196.87,134.93a33,33,0,0,0-20.18-10.72A31.63,31.63,0,0,0,161.92,126q.65-5.52,1.3-11c3.77-.26,17.53-.77,26.7,8.74a26.89,26.89,0,0,1,3.92,5.26Z"/><path class="cls-16" d="M100.24,115.92a99.48,99.48,0,0,1,93.67,2.48c1.08,0,4.53.09,6.66-2.18,2.89-3.07,2.5-9.5-2.35-14.45A99.1,99.1,0,0,0,172,91.59,107.75,107.75,0,0,0,148.44,89c-22.43,0-41.57,6.7-53.58,12.1-5.07,5.32-5,11.84-2.14,14.23C95.24,117.49,99.64,116.11,100.24,115.92Z"/><path class="cls-17" d="M203.19,131.32a11.33,11.33,0,0,1-8.53-3.72,10.74,10.74,0,0,1-2.5-6.17A105,105,0,0,0,204.42,112c2.3-2.06,9.44-11,20.85-25.5a255.75,255.75,0,0,0,24.12-36.67c1.72-2.79,4-4.95,5.61-4.56,2,.47,3.52,4.87,2.51,11Q230.36,93.77,203.19,131.32Z"/><path class="cls-17" d="M245.09,65.78q.09-.75.12-1.53c.27-6.51-2.8-11.93-5.53-15.51-1.76-2.91-1.56-3.85-1.25-4.2,1-1.06,4.94,1,7.19,2.32a32.36,32.36,0,0,0,5.4,17Z"/><path class="cls-17" d="M242.08,79.64l-1.5-4.73A53.09,53.09,0,0,0,254.38,72a52.24,52.24,0,0,0,7.46-3.32c3.05-2.32,5.77-3.36,6.43-2.66s-.52,3.36-3,6.28Z"/><path class="cls-17" d="M224,101.09l-8.11.54a41,41,0,0,0,1.41-11.45A40.5,40.5,0,0,0,216,80.87L221,76.93Z"/><path class="cls-17" d="M221,87.43l-3.24-2a19,19,0,0,0,7-8.83,17,17,0,0,0,1-4c-.06-1.46.07-2.24.4-2.33.5-.15,1.44,1.31,2.84,4.35Q225,81,221,87.43Z"/><path class="cls-17" d="M211.58,113.67l.56-9.7a117.33,117.33,0,0,0,17.72,2.31,118.79,118.79,0,0,0,16.95-.3c2.65-.24,5.28,0,5.45.71s-3.13,2.42-6.09,3.62l-15.81,1.52Z"/><path class="cls-17" d="M231.46,107.18l3.35,1.83a19,19,0,0,1,4.25-10.44,18.19,18.19,0,0,1,3-2.8c1.31-.66,1.92-1.16,1.84-1.49q-.18-.75-5.19-.34Z"/><path class="cls-17" d="M235,105.17l-.42-2.69c.47.06,7.09.82,8.35-2.82a3.87,3.87,0,0,0,.21-1.16c.49-.52.87-.74,1.11-.64.53.21.49,1.87-.13,5Z"/><path class="cls-17" d="M257.17,74.66l-3.25-2a11.38,11.38,0,0,0,5.58-6.58,11.55,11.55,0,0,0,.46-3.2c-.22-1.22-.19-1.85.11-1.89s1.49,1.23,3.14,3.9Q260.18,69.77,257.17,74.66Z"/><path class="cls-17" d="M249.33,76.75l2.5-2.88a10.83,10.83,0,0,0,8.68,7.53c1.24,0,1.86.12,1.85.42q0,.68-4.35,2.47Z"/><path class="cls-17" d="M245.84,52.08l-.77,3.73a14.28,14.28,0,0,0-11.26-2.32c-1-1.24-3.33-4.39-2.53-5.36.22-.27.84-.58,3,.18a15,15,0,0,0,11.58,3.77Z"/><path class="cls-17" d="M202.11,123.67l-5.49-.94c.94-4.93,1.45-9.12,1.75-12.32.42-4.57.63-6.86.46-8.6-.27-2.57-.86-4.63-.13-5s2,.78,3,1.79c-.17-1.36.44-2.35,1.1-2.46a1.38,1.38,0,0,1,1,.43,49.26,49.26,0,0,0-2.15,8.4A51.06,51.06,0,0,0,202.11,123.67Z"/><path class="cls-17" d="M200.51,108.55l-.83-1.67c.37-.15,5.51-2.31,5.77-5.32a2.65,2.65,0,0,0-.07-.87c.28-.57.52-.86.72-.9.44-.07.73,1.09.85,3.46Z"/><path class="cls-17" d="M204.55,125.75l-.15-2.24c1.39.16,2.86.3,4.4.42,1.77.13,3.47.23,5.08.29,1.29,1.14,1.76,1.82,1.41,2s-.93,0-2-.29c-1.07,0-2.18.05-3.34,0C208,126,206.21,125.89,204.55,125.75Z"/><path class="cls-17" d="M210.82,124.75l1.23.46c0-.19-.29-2.91,1.4-3a2.68,2.68,0,0,1,.53,0c.25-.14.35-.26.31-.37s-.85-.4-2.28-.5Z"/><path class="cls-17" d="M86.49,127.93a11.31,11.31,0,0,0,8.8-3,10.79,10.79,0,0,0,3-5.94,105.29,105.29,0,0,1-11.46-10.43c-2.13-2.25-8.52-11.75-18.73-27.11A256.69,256.69,0,0,1,47,42.93c-1.48-2.92-3.54-5.25-5.22-5-2.07.31-3.9,4.58-3.39,10.75Q62.46,88.3,86.49,127.93Z"/><path class="cls-17" d="M50,59.22q0-.75,0-1.53c.26-6.51,3.76-11.67,6.77-15,2-2.76,1.87-3.7,1.58-4.08-.86-1.13-5,.62-7.35,1.73a32.46,32.46,0,0,1-6.76,16.54Z"/><path class="cls-17" d="M51.9,73.28l1.88-4.59a53.3,53.3,0,0,1-13.52-4,52.87,52.87,0,0,1-7.17-3.92c-2.85-2.55-5.47-3.81-6.19-3.17s.24,3.39,2.47,6.5Z"/><path class="cls-17" d="M68.23,96.12l8,1.2a41,41,0,0,1-.48-11.53,40.38,40.38,0,0,1,2-9.18l-4.62-4.32Z"/><path class="cls-17" d="M72.24,82.74,75.64,81a19,19,0,0,1-6.29-9.36,17.71,17.71,0,0,1-.65-4.06c.18-1.46.12-2.24-.2-2.36q-.73-.27-3.19,4.11Z"/><path class="cls-17" d="M79.55,109.66l.22-9.71a118.36,118.36,0,0,1-17.84.87,117.89,117.89,0,0,1-16.87-1.67c-2.62-.45-5.26-.47-5.49.26s2.93,2.68,5.78,4.11L61,106.31Z"/><path class="cls-17" d="M60.26,101.59l-3.49,1.55a18.92,18.92,0,0,0-3.39-10.75,17.7,17.7,0,0,0-2.77-3c-1.25-.77-1.82-1.31-1.72-1.63.16-.5,1.9-.47,5.2.07Z"/><path class="cls-17" d="M56.94,99.3l.64-2.65c-.47,0-7.13.25-8.1-3.48A4.23,4.23,0,0,1,49.37,92c-.45-.57-.8-.81-1.06-.73q-.81.26-.27,5Z"/><path class="cls-17" d="M37.26,67.09l3.4-1.73a11.37,11.37,0,0,1-5-7,11.06,11.06,0,0,1-.2-3.23c.32-1.2.33-1.83,0-1.9S33.89,54.33,32,56.86Z"/><path class="cls-17" d="M44.91,69.81l-2.26-3.07a11.38,11.38,0,0,1-6.11,6.09,11.7,11.7,0,0,1-3.15.72c-1.24-.13-1.86,0-1.88.26q0,.68,4.14,2.81Z"/><path class="cls-17" d="M50.38,45.5l.47,3.79a14.2,14.2,0,0,1,11.41-1.41c1.07-1.16,3.67-4.1,2.95-5.14-.19-.28-.79-.64-3-.06A14.92,14.92,0,0,1,57,45.25,15.24,15.24,0,0,1,50.38,45.5Z"/><path class="cls-17" d="M88.18,120.39l5.55-.49c-.53-5-.71-9.21-.74-12.42-.06-4.59-.09-6.89.23-8.61.48-2.54,1.23-4.54.53-5s-2,.63-3.14,1.55c.28-1.34-.25-2.38-.9-2.54a1.34,1.34,0,0,0-1.06.34,50.29,50.29,0,0,1,1.47,8.55A51,51,0,0,1,88.18,120.39Z"/><path class="cls-17" d="M91,105.46l1-1.61c-.35-.18-5.3-2.75-5.32-5.76a2.72,2.72,0,0,1,.14-.87c-.23-.58-.44-.9-.65-1-.43-.1-.81,1-1.12,3.38Z"/><path class="cls-17" d="M85.58,122.27l.33-2.22c-1.39,0-2.87.07-4.41.06-1.78,0-3.48,0-5.09-.12-1.38,1-1.9,1.67-1.58,1.91s.93.13,2.07-.13c1.07.12,2.18.23,3.33.31C82.13,122.22,83.92,122.27,85.58,122.27Z"/><path class="cls-17" d="M79.42,120.76l-1.27.37c0-.19.52-2.88-1.15-3.11a1.62,1.62,0,0,0-.54,0c-.23-.16-.32-.29-.27-.4s.88-.33,2.31-.31Z"/><ellipse class="cls-18" cx="144.09" cy="190.72" rx="47.99" ry="27.76"/></svg>