<svg id="Layer_1" data-name="Layer 1" xmlns="http://www.w3.org/2000/svg" xmlns:xlink="http://www.w3.org/1999/xlink" viewBox="0 0 300 400"><defs><style>.cls-1{fill:url(#radial-gradient);}.cls-2{fill:#653414;}.cls-3{fill:#a0252a;}.cls-4{fill:#d0cdcd;}.cls-5{fill:#551300;}.cls-6{fill:#b31f2b;}.cls-7{opacity:0.6;}.cls-8{fill:#2f0d00;}.cls-9{fill:#683614;}.cls-10{opacity:0.29;}.cls-11{fill:#060305;}.cls-12{opacity:0.95;}.cls-13{fill:#040102;}.cls-14{fill:#fff;}.cls-15{fill:#241010;}.cls-16{fill:#e3e2e1;}.cls-17{fill:#473332;}.cls-18{fill:#af1f2c;}</style><radialGradient id="radial-gradient" cx="-3103.85" cy="184.75" r="86.72" gradientTransform="matrix(0.98, 0.06, -0.05, 0.96, 3197.95, 287.41)" gradientUnits="userSpaceOnUse"><stop offset="0" stop-color="#9b6a4a"/><stop offset="0.11" stop-color="#916040"/><stop offset="0.44" stop-color="#7b4928"/><stop offset="0.75" stop-color="#6d3b19"/><stop offset="1" stop-color="#683614"/></radialGradient></defs><path class="cls-1" d="M234,348.32c-8.93,12.84-38.9,12.91-98.84,13.07-67.31.18-77.17-8.77-81.43-14.81-14.36-20.3,2.28-53.08,7.42-63.2,13.21-26,46.43-65.84,89.35-63.45C214.26,223.47,255.43,317.54,234,348.32Z"/><path class="cls-2" d="M84.88,145.71c3.09,4.53,5.61,11.78,2.68,13.31-3.23,1.69-15.06-2.63-18.55-10.08-2.09-4.47-2.2-12.22-6.1-16.46-.23-.25-.54-.56-.4-.67C63.24,131.21,78.09,135.75,84.88,145.71Z"/><path class="cls-3" d="M175.16,27.32c19.59,4.1,32.76,16.65,38.68,22.43a112.4,112.4,0,0,1,18.37,23.91c9.73,16.32,14,30.94,18.19,45.87a303.32,303.32,0,0,1,9.17,44.5,276.18,276.18,0,0,1,1.65,47.17,101.87,101.87,0,0,1-21.48-19.81c-3.24-4-3.91-5.44-7.47-10.4-10-13.85-15.22-17.14-25.36-29.12-9.45-11.15-14.89-17.58-19.9-28.05-4.53-9.47-6.65-19.1-16.28-31.15-2.35-3-5.25-6.47-5.25-6.47-1.62-2-3-3.57-4.47-5.36-4.25-5.08-9-9.59-13-14.91-1.59-2.1-5.48-8.89-8.05-18.72-1.78-6.82-2.7-10.22-1.82-12.83C141.33,24.87,161.67,24.49,175.16,27.32Z"/><path class="cls-3" d="M149.79,111.44c33.28-.86,37.92.62,42.75-4.53,13.39-14.31-2.33-47.13-4.37-51.38-4.87-10.18-10.62-22.18-23.71-27.18-17.2-6.57-34.29,4-39.26,7C99.13,51.44,96.45,82.63,95.5,93.68c-.75,8.71.43,11.49,1.6,13.25C102.64,115.24,116,112.31,149.79,111.44Z"/><ellipse class="cls-4" cx="263.98" cy="209.52" rx="6.33" ry="6.8"/><ellipse class="cls-4" cx="256.13" cy="212.92" rx="6.33" ry="6.8"/><ellipse class="cls-4" cx="260.18" cy="219.72" rx="6.33" ry="6.8"/><ellipse class="cls-4" cx="267.01" cy="217.55" rx="6.33" ry="6.8"/><path class="cls-5" d="M187.55,264.2l6.51,45c-2.81-4.42-7.24-6.7-11.44-5.89-5.64,1.09-7.92,7.17-8.14,7.78q-3.63-21.89-7.27-43.77Z"/><path class="cls-6" d="M66.54,253.16c-.76,13.06,41.58,30.74,80.72,31.1,34.22.31,74.69-12.52,75.66-27.73.35-5.53-4.72-9.73-5-9.95-13.47-10.87-35.06,16.32-69.53,17.33-37.47,1.1-61.78-29.57-77.47-17.33C69.63,247.59,66.73,249.85,66.54,253.16Z"/><path class="cls-6" d="M193.26,250q13.35,24,26.69,48c-4.67-4-9.92-5-13.54-2.69-4.84,3.12-4.25,10.67-4.18,11.42l-27.8-48.43Z"/><g class="cls-7"><path class="cls-8" d="M80.31,152.82l0-.49A10.65,10.65,0,0,1,73.23,149a9.37,9.37,0,0,1-2.52-7.09l-.49,0a9.86,9.86,0,0,0,2.65,7.45A11.12,11.12,0,0,0,80.31,152.82Z"/></g><path class="cls-2" d="M206.36,147.53c-3.08,4.52-5.6,11.77-2.68,13.3,3.24,1.7,15.06-2.62,18.56-10.08,2.09-4.47,2.19-12.21,6.1-16.46.23-.25.53-.55.4-.66C228,133,213.16,137.56,206.36,147.53Z"/><g class="cls-7"><path class="cls-8" d="M209.48,154.43a11.22,11.22,0,0,0,7.44-3.55,9.88,9.88,0,0,0,2.64-7.45l-.49,0a9.4,9.4,0,0,1-2.51,7.08,10.71,10.71,0,0,1-7.12,3.39Z"/></g><path class="cls-9" d="M117.21,205.64H171a43.13,43.13,0,0,0,23.53-9.78c12.48-10.68,17.56-28.56,13.76-46.49a64.14,64.14,0,0,0-13.76-24.59c-20.75-22.92-51-21.42-55.22-21.14-5.25.34-28.94,1.9-45.6,21.14a60.26,60.26,0,0,0-12.2,22.64c-5,18.54-.44,37.4,12.2,48.44C102.3,203.39,112.22,205.15,117.21,205.64Z"/><ellipse class="cls-9" cx="144.73" cy="219.72" rx="81.25" ry="46.99"/><g class="cls-10"><path class="cls-11" d="M187,167.59l.14-.47a148,148,0,0,0-35-5.5,182.73,182.73,0,0,0-51,5.09l.12.48a182.12,182.12,0,0,1,50.82-5.08A147,147,0,0,1,187,167.59Z"/></g><g class="cls-12"><path class="cls-11" d="M159.56,144.78c2.43-4.49,8.49-11,15.91-9.55,9.12,1.78,11.06,13.8,11.14,14.32.84,5.76-.91,13.54-5.57,15.51-1.69.71-2.4.09-9.95-1.19-9-1.54-10-1-11.53-2.39C155.79,158,156.73,150,159.56,144.78Z"/></g><g class="cls-12"><path class="cls-13" d="M129.4,145.06c-2.34-4.53-8.27-11.16-15.72-9.86-9.15,1.6-11.33,13.57-11.41,14.1-1,5.74.63,13.55,5.25,15.61,1.68.75,2.4.14,10-1,9-1.36,10-.78,11.58-2.16C132.9,158.37,132.12,150.33,129.4,145.06Z"/></g><ellipse class="cls-14" cx="123.67" cy="147.78" rx="3.98" ry="3.58"/><ellipse class="cls-14" cx="165.89" cy="147.78" rx="3.98" ry="3.58"/><circle class="cls-14" cx="182.13" cy="142.65" r="0.8"/><ellipse class="cls-14" cx="108.82" cy="142.57" rx="0.8" ry="0.72"/><path class="cls-15" d="M92.69,142a33,33,0,0,1,20.18-10.72,31.63,31.63,0,0,1,14.77,1.81q-.65-5.52-1.3-11.05c-3.77-.26-17.53-.77-26.7,8.75A26.31,26.31,0,0,0,95.72,136Z"/><path class="cls-15" d="M196.87,142a33,33,0,0,0-20.18-10.72,31.63,31.63,0,0,0-14.77,1.81q.65-5.52,1.3-11.05c3.77-.26,17.53-.77,26.7,8.75a26.31,26.31,0,0,1,3.92,5.26Z"/><path class="cls-8" d="M197.28,222.08c.26.39-22.63,28.44-54.62,27.35-31.28-1.07-52-29.34-51.7-29.7s21.17,26.33,51.58,27.4C173.76,248.23,197,221.69,197.28,222.08Z"/><path class="cls-16" d="M100.24,123a99.48,99.48,0,0,1,93.67,2.48c1.08.05,4.53.09,6.66-2.18,2.89-3.07,2.5-9.5-2.35-14.45A99.1,99.1,0,0,0,172,98.65a108.42,108.42,0,0,0-23.6-2.56c-22.43,0-41.57,6.7-53.58,12.1-5.07,5.32-5,11.84-2.14,14.23C95.24,124.55,99.64,123.17,100.24,123Z"/><path class="cls-17" d="M203.19,138.38a11.33,11.33,0,0,1-8.53-3.72,10.71,10.71,0,0,1-2.5-6.17A105,105,0,0,0,204.42,119c2.3-2.06,9.44-11,20.85-25.5a255.75,255.75,0,0,0,24.12-36.67c1.72-2.79,4-5,5.61-4.56,2,.47,3.52,4.87,2.51,11Q230.36,100.83,203.19,138.38Z"/><path class="cls-17" d="M245.09,72.84q.09-.75.12-1.53c.27-6.51-2.8-11.93-5.53-15.51-1.76-2.91-1.56-3.84-1.25-4.19,1-1.07,4.94,1,7.19,2.31a32.45,32.45,0,0,0,2.23,11A32.87,32.87,0,0,0,251,71Z"/><path class="cls-17" d="M242.08,86.7,240.58,82a52.82,52.82,0,0,0,21.26-6.25c3.05-2.32,5.77-3.36,6.43-2.66s-.52,3.36-3,6.28Z"/><path class="cls-17" d="M224,108.15l-8.11.55a41.12,41.12,0,0,0,1.41-11.46A40.5,40.5,0,0,0,216,87.93L221,84Z"/><path class="cls-17" d="M221,94.49l-3.24-2a19,19,0,0,0,7-8.82,17.24,17.24,0,0,0,1-4c-.06-1.46.07-2.24.4-2.33.5-.14,1.44,1.31,2.84,4.35Q225,88.09,221,94.49Z"/><path class="cls-17" d="M211.58,120.73l.56-9.7a117.33,117.33,0,0,0,17.72,2.31,117.34,117.34,0,0,0,16.95-.3c2.65-.24,5.28,0,5.45.71s-3.13,2.43-6.09,3.62c-5.27.51-10.54,1-15.81,1.53Q221,119.8,211.58,120.73Z"/><path class="cls-17" d="M231.46,114.24l3.35,1.84a18.93,18.93,0,0,1,4.25-10.44,17.86,17.86,0,0,1,3-2.81c1.31-.66,1.92-1.16,1.84-1.48-.12-.51-1.85-.62-5.19-.35Z"/><path class="cls-17" d="M235,112.23l-.42-2.69c.47.06,7.09.82,8.35-2.82a3.87,3.87,0,0,0,.21-1.16c.49-.52.87-.73,1.11-.64.53.22.49,1.87-.13,5Z"/><path class="cls-17" d="M257.17,81.72l-3.25-2a11.41,11.41,0,0,0,5.58-6.58,11.67,11.67,0,0,0,.46-3.21c-.22-1.22-.19-1.85.11-1.89s1.49,1.23,3.14,3.9Q260.18,76.83,257.17,81.72Z"/><path class="cls-17" d="M249.33,83.81l2.5-2.88a10.89,10.89,0,0,0,8.68,7.54c1.24,0,1.86.11,1.85.41q0,.68-4.35,2.47Z"/><path class="cls-17" d="M245.84,59.14l-.77,3.74a14.23,14.23,0,0,0-11.26-2.33c-1-1.24-3.33-4.39-2.53-5.36.22-.27.84-.58,3,.18a15,15,0,0,0,11.58,3.77Z"/><path class="cls-17" d="M202.11,130.73l-5.49-.94c.94-4.93,1.45-9.12,1.75-12.32.42-4.57.63-6.86.46-8.6-.27-2.57-.86-4.63-.13-5s2,.79,3,1.8c-.17-1.36.44-2.36,1.1-2.47a1.38,1.38,0,0,1,1,.43,49.5,49.5,0,0,0-2.15,8.4A51.06,51.06,0,0,0,202.11,130.73Z"/><path class="cls-17" d="M200.51,115.62l-.83-1.68c.37-.15,5.51-2.31,5.77-5.32a2.65,2.65,0,0,0-.07-.87c.28-.56.52-.86.72-.89.44-.07.73,1.08.85,3.45Z"/><path class="cls-17" d="M204.55,132.81l-.15-2.23c1.39.15,2.86.29,4.4.41,1.77.14,3.47.23,5.08.29,1.29,1.15,1.76,1.82,1.41,2s-.93.05-2-.29c-1.07,0-2.18,0-3.34,0C208,133,206.21,133,204.55,132.81Z"/><path class="cls-17" d="M210.82,131.81l1.23.47c0-.2-.29-2.92,1.4-3a2,2,0,0,1,.53,0c.25-.14.35-.26.31-.37s-.85-.4-2.28-.5Z"/><path class="cls-17" d="M86.49,135a11.31,11.31,0,0,0,8.8-3,10.79,10.79,0,0,0,3-5.94A105.29,105.29,0,0,1,86.83,115.6c-2.13-2.25-8.52-11.75-18.73-27.11A256.69,256.69,0,0,1,47,50c-1.48-2.92-3.54-5.25-5.22-5-2.07.31-3.9,4.58-3.39,10.75Z"/><path class="cls-17" d="M50,66.28q0-.75,0-1.53c.26-6.51,3.76-11.67,6.77-15,2-2.77,1.87-3.71,1.58-4.09-.86-1.13-5,.63-7.35,1.73a32.46,32.46,0,0,1-6.76,16.54Z"/><path class="cls-17" d="M51.9,80.34l1.88-4.59a52.89,52.89,0,0,1-13.52-4,54,54,0,0,1-7.17-3.91c-2.85-2.56-5.47-3.82-6.19-3.17s.24,3.39,2.47,6.49Z"/><path class="cls-17" d="M68.23,103.19l8,1.19a41,41,0,0,1-.48-11.53,40.38,40.38,0,0,1,2-9.18l-4.62-4.32Z"/><path class="cls-17" d="M72.24,89.8l3.4-1.75a19,19,0,0,1-6.29-9.36,17.71,17.71,0,0,1-.65-4.06c.18-1.45.12-2.24-.2-2.36q-.73-.27-3.19,4.11Z"/><path class="cls-17" d="M79.55,116.72l.22-9.71a118.36,118.36,0,0,1-17.84.87,117.89,117.89,0,0,1-16.87-1.67c-2.62-.45-5.26-.47-5.49.26s2.93,2.68,5.78,4.11L61,113.37Z"/><path class="cls-17" d="M60.26,108.65l-3.49,1.56a18.9,18.9,0,0,0-3.39-10.75,17.43,17.43,0,0,0-2.77-3c-1.25-.77-1.82-1.31-1.72-1.63.16-.49,1.9-.47,5.2.07Z"/><path class="cls-17" d="M56.94,106.36l.64-2.65c-.47,0-7.13.25-8.1-3.48a4.23,4.23,0,0,1-.11-1.17c-.45-.56-.8-.81-1.06-.73q-.81.26-.27,5Z"/><path class="cls-17" d="M37.26,74.16l3.4-1.74a11.37,11.37,0,0,1-5-7,11,11,0,0,1-.2-3.23c.32-1.2.33-1.83,0-1.9S33.89,61.39,32,63.92Z"/><path class="cls-17" d="M44.91,76.88,42.65,73.8a10.84,10.84,0,0,1-9.26,6.81c-1.24-.12-1.86,0-1.88.26s1.35,1.39,4.14,2.81Z"/><path class="cls-17" d="M50.38,52.56l.47,3.79a14.3,14.3,0,0,1,11.41-1.41c1.07-1.16,3.67-4.1,2.95-5.14-.19-.28-.79-.64-3,0A15.11,15.11,0,0,1,57,52.31,14.93,14.93,0,0,1,50.38,52.56Z"/><path class="cls-17" d="M88.18,127.45l5.55-.49c-.53-5-.71-9.21-.74-12.42-.06-4.59-.09-6.89.23-8.61.48-2.54,1.23-4.54.53-5s-2,.63-3.14,1.55c.28-1.34-.25-2.38-.9-2.54a1.38,1.38,0,0,0-1.06.34,50.47,50.47,0,0,1,1.47,8.55A51,51,0,0,1,88.18,127.45Z"/><path class="cls-17" d="M91,112.52l1-1.6c-.35-.18-5.3-2.75-5.32-5.77a2.81,2.81,0,0,1,.14-.87c-.23-.58-.44-.9-.65-1-.43-.1-.81,1-1.12,3.38Z"/><path class="cls-17" d="M85.58,129.33l.33-2.22c-1.39,0-2.87.07-4.41.06-1.78,0-3.48,0-5.09-.12-1.38,1-1.9,1.67-1.58,1.91s.93.13,2.07-.13c1.07.13,2.18.23,3.33.31C82.13,129.28,83.92,129.33,85.58,129.33Z"/><path class="cls-17" d="M79.42,127.82l-1.27.37c0-.19.52-2.88-1.15-3.11a1.94,1.94,0,0,0-.54,0q-.34-.24-.27-.39c.11-.23.88-.34,2.31-.32Z"/><ellipse class="cls-18" cx="143.9" cy="200" rx="47.99" ry="27.22"/></svg>