<svg id="Layer_1" data-name="Layer 1" xmlns="http://www.w3.org/2000/svg" xmlns:xlink="http://www.w3.org/1999/xlink" viewBox="0 0 600 730"><defs><style>.cls-1{fill:#eec4a6;}.cls-2{opacity:0.29;}.cls-3{fill:#060305;}.cls-4{fill:#a0252a;}.cls-5{fill:#e7e7e7;}.cls-6{fill:none;}.cls-7{opacity:0.55;}.cls-8{fill:#c4c0b5;}.cls-9{fill:#fff;}.cls-10{clip-path:url(#clip-path);}.cls-11{fill:#b5b5b6;}.cls-12{opacity:0.89;}.cls-13{fill:#818181;}.cls-14{opacity:0.35;}.cls-15{fill:#f1393b;}.cls-16{fill:#e9b7a0;}.cls-17{opacity:0.8;}</style><clipPath id="clip-path"><path class="cls-1" d="M379.47,220.13c-16.63,31.08-56,32-81.65,32.62s-67.73,1.6-85.9-30.61c-13.82-24.52-8.22-58.42,7.55-79.79,21.21-28.74,56-28.35,77.4-28.1,21.12.23,52.7.59,73.16,27.09C386,162,392.68,195.42,379.47,220.13Z"/></clipPath></defs><g class="cls-2"><path class="cls-3" d="M317.19,257.22c-.36,0-.7,0-1,0l.08-1a12.17,12.17,0,0,0,6.83-1.46A12,12,0,0,0,327,251.3l.8.6a13.13,13.13,0,0,1-4.22,3.7A13.32,13.32,0,0,1,317.19,257.22Z"/></g><rect class="cls-4" x="214.69" y="533.04" width="55.27" height="157.87" transform="translate(42.69 -15.23) rotate(3.95)"/><path class="cls-3" d="M259,717.08c-7.45,16.6-58.59,8.32-69,6.64-17.86-2.89-45.24-7.32-51.87-25.38-4-10.8,1.53-20.91,1.9-21.57,10.23-18.12,42-19.57,61.74-15.12C236.34,669.43,265.69,702.2,259,717.08Z"/><path class="cls-3" d="M268.72,622.53c6.55,7,4.62,25.62.48,62.63-2.75,24.67-4.78,32.36-11.92,37.4-8.67,6.11-21.37,5.85-30.36,1.93-21.64-9.46-23.42-40.91-24-52.74-.89-17.65-2.22-44,17.27-55.22C235.09,607.9,257.76,610.88,268.72,622.53Z"/><rect class="cls-4" x="333.79" y="532.82" width="55.27" height="157.87" transform="translate(764.1 1197.17) rotate(176.05)"/><path class="cls-3" d="M344.75,716.85c7.46,16.6,58.59,8.32,69,6.64,17.86-2.89,45.23-7.32,51.87-25.38,4-10.8-1.54-20.91-1.91-21.56C453.47,658.42,421.75,657,402,661.43,367.42,669.2,338.07,702,344.75,716.85Z"/><path class="cls-3" d="M335,622.3c-6.56,7-4.62,25.62-.49,62.63,2.76,24.68,4.78,32.36,11.92,37.4,8.67,6.12,21.38,5.86,30.36,1.93,21.64-9.45,23.42-40.91,24-52.74.9-17.65,2.23-43.95-17.27-55.22C368.66,607.67,346,610.65,335,622.3Z"/><path class="cls-4" d="M494.15,528c-15.32,21.45-73.45,22-189.08,22.13-117.71.16-176.9-.2-192.88-22.13-47.6-65.31,52.94-292.66,186.55-294.69C434.45,231.25,540.84,462.6,494.15,528Z"/><circle class="cls-5" cx="429.51" cy="565.03" r="11.69"/><path class="cls-4" d="M226,9.09a146.55,146.55,0,0,0-55.17,28.15C154.49,50.44,145.19,63.65,138,74.05c-17.41,25.14-25,47.65-32.53,70.64-7.91,24.11-11.51,43-16.39,68.53-4.41,23.09-7.14,42.46-8.83,56.11,39.34-24.91,55.69-35.24,55.71-35.2s-.12.09-.13.07,25.7-18.24,47.4-39.71c14.69-14.54,25.63-25.37,35.57-43.19,5.61-10.07,19.25-37.35,29.11-48,4.21-4.54,9.39-10,9.39-10,2.89-3,5.31-5.51,8-8.26,7.6-7.82,16.09-14.77,23.29-23,2.83-3.23,9.8-13.68,14.39-28.82,3.24-10.68,4.87-16,3.25-19.75C299.53-1.88,254.9,1.5,226,9.09Z"/><path class="cls-6" d="M218.82,118.31c-10.72-2.41-18.21-12.75-20.55-23.49s-.53-21.89,1.4-32.7"/><path class="cls-6" d="M218.31,118.44c-5.89.72-11.38-2.92-15.91-6.76a33.17,33.17,0,0,1-5.1-5.09c-6.68-8.75-1.79-15.4-.67-24.86"/><g class="cls-7"><ellipse class="cls-8" cx="301.61" cy="291.97" rx="125.74" ry="107.48" transform="translate(3.59 587.61) rotate(-88.84)"/><ellipse class="cls-8" cx="392.41" cy="225.61" rx="20.58" ry="18.29" transform="translate(158.91 613.37) rotate(-88.84)"/><ellipse class="cls-8" cx="400.86" cy="260.34" rx="20.58" ry="18.29" transform="translate(132.46 655.85) rotate(-88.84)"/><ellipse class="cls-8" cx="399.47" cy="328.94" rx="20.58" ry="18.29" transform="translate(62.52 721.67) rotate(-88.84)"/><ellipse class="cls-8" cx="409.33" cy="294.06" rx="20.58" ry="18.29" transform="translate(107.04 697.35) rotate(-88.84)"/><ellipse class="cls-8" cx="389.7" cy="359.74" rx="20.58" ry="18.29" transform="translate(22.14 742.08) rotate(-88.84)"/><circle class="cls-8" cx="372.93" cy="384.56" r="21.85"/><ellipse class="cls-8" cx="352.04" cy="412.1" rx="22.36" ry="18.29" transform="matrix(0.02, -1, 1, 0.02, -67.1, 755.73)"/><ellipse class="cls-8" cx="326.83" cy="427.09" rx="24.14" ry="21.85" transform="translate(-106.79 745.21) rotate(-88.84)"/><ellipse class="cls-8" cx="299.19" cy="411.28" rx="24.14" ry="21.85" transform="translate(-118.06 702.09) rotate(-88.84)"/><circle class="cls-8" cx="198.32" cy="234.39" r="21.6"/><circle class="cls-8" cx="194.27" cy="271.16" r="24.9"/><circle class="cls-8" cx="191.2" cy="309.98" r="20.58"/><ellipse class="cls-8" cx="199.38" cy="345.22" rx="20.58" ry="18.29" transform="translate(-149.8 537.57) rotate(-88.84)"/><circle class="cls-8" cx="213.96" cy="378.3" r="18.8"/><ellipse class="cls-8" cx="234.91" cy="397.78" rx="20.58" ry="18.29" transform="translate(-167.54 624.6) rotate(-88.84)"/><ellipse class="cls-8" cx="258.37" cy="419.1" rx="20.58" ry="18.29" transform="translate(-165.87 668.93) rotate(-88.84)"/><ellipse class="cls-8" cx="286.6" cy="430.85" rx="23.63" ry="18.29" transform="translate(-149.96 708.67) rotate(-88.84)"/><ellipse class="cls-8" cx="310.2" cy="445.05" rx="20.58" ry="18.29" transform="translate(-141.04 746.18) rotate(-88.84)"/></g><ellipse class="cls-9" cx="299.02" cy="261.37" rx="125.74" ry="107.48" transform="translate(31.66 555.04) rotate(-88.84)"/><ellipse class="cls-9" cx="389.83" cy="195" rx="20.58" ry="18.29" transform="translate(186.98 580.8) rotate(-88.84)"/><ellipse class="cls-9" cx="398.27" cy="229.74" rx="20.58" ry="18.29" transform="translate(160.52 623.28) rotate(-88.84)"/><ellipse class="cls-9" cx="396.88" cy="298.33" rx="20.58" ry="18.29" transform="translate(90.58 689.09) rotate(-88.84)"/><ellipse class="cls-9" cx="406.74" cy="263.46" rx="20.58" ry="18.29" transform="translate(135.11 664.78) rotate(-88.84)"/><ellipse class="cls-9" cx="387.11" cy="329.14" rx="20.58" ry="18.29" transform="translate(50.21 709.51) rotate(-88.84)"/><circle class="cls-9" cx="370.34" cy="353.96" r="21.85"/><ellipse class="cls-9" cx="349.45" cy="381.49" rx="22.36" ry="18.29" transform="matrix(0.02, -1, 1, 0.02, -39.03, 723.15)"/><ellipse class="cls-9" cx="324.24" cy="396.48" rx="24.14" ry="21.85" transform="translate(-78.72 712.64) rotate(-88.84)"/><ellipse class="cls-9" cx="296.61" cy="380.68" rx="24.14" ry="21.85" transform="translate(-89.99 669.52) rotate(-88.84)"/><circle class="cls-9" cx="195.73" cy="203.78" r="21.6"/><circle class="cls-9" cx="191.69" cy="240.55" r="24.9"/><circle class="cls-9" cx="188.61" cy="279.37" r="20.58"/><ellipse class="cls-9" cx="196.79" cy="314.61" rx="20.58" ry="18.29" transform="translate(-121.73 505) rotate(-88.84)"/><circle class="cls-9" cx="211.37" cy="347.69" r="18.8"/><ellipse class="cls-9" cx="232.33" cy="367.18" rx="20.58" ry="18.29" transform="translate(-139.47 592.03) rotate(-88.84)"/><ellipse class="cls-9" cx="255.79" cy="388.49" rx="20.58" ry="18.29" transform="translate(-137.8 636.36) rotate(-88.84)"/><ellipse class="cls-9" cx="284.01" cy="400.24" rx="23.63" ry="18.29" transform="translate(-121.9 676.1) rotate(-88.84)"/><ellipse class="cls-9" cx="307.62" cy="414.45" rx="20.58" ry="18.29" transform="translate(-112.97 713.61) rotate(-88.84)"/><path class="cls-1" d="M379.47,220.13c-16.63,31.08-56,32-81.65,32.62s-67.73,1.6-85.9-30.61c-13.82-24.52-8.22-58.42,7.55-79.79,21.21-28.74,56-28.35,77.4-28.1,21.12.23,52.7.59,73.16,27.09C386,162,392.68,195.42,379.47,220.13Z"/><g class="cls-10"><rect class="cls-1" x="198.1" y="252.47" width="194.59" height="1.88"/><rect class="cls-1" x="198.1" y="250.41" width="194.59" height="2.06"/><rect class="cls-1" x="198.1" y="248.36" width="194.59" height="2.06"/><rect class="cls-1" x="198.1" y="246.3" width="194.59" height="2.06"/><rect class="cls-1" x="198.1" y="244.24" width="194.59" height="2.06"/><rect class="cls-1" x="198.1" y="242.19" width="194.59" height="2.06"/><rect class="cls-1" x="198.1" y="240.13" width="194.59" height="2.06"/><rect class="cls-1" x="198.1" y="238.07" width="194.59" height="2.06"/><rect class="cls-1" x="198.1" y="236.02" width="194.59" height="2.06"/><rect class="cls-1" x="198.1" y="233.96" width="194.59" height="2.06"/><rect class="cls-1" x="198.1" y="231.9" width="194.59" height="2.06"/><rect class="cls-1" x="198.1" y="229.85" width="194.59" height="2.06"/><rect class="cls-1" x="198.1" y="227.79" width="194.59" height="2.06"/><rect class="cls-1" x="198.1" y="225.73" width="194.59" height="2.06"/><rect class="cls-1" x="198.1" y="223.68" width="194.59" height="2.06"/><rect class="cls-1" x="198.1" y="221.62" width="194.59" height="2.06"/><rect class="cls-1" x="198.1" y="219.57" width="194.59" height="2.06"/><rect class="cls-1" x="198.1" y="217.51" width="194.59" height="2.06"/><rect class="cls-1" x="198.1" y="215.45" width="194.59" height="2.06"/><rect class="cls-1" x="198.1" y="213.4" width="194.59" height="2.06"/><rect class="cls-1" x="198.1" y="211.34" width="194.59" height="2.06"/><rect class="cls-1" x="198.1" y="209.28" width="194.59" height="2.06"/><rect class="cls-1" x="198.1" y="207.23" width="194.59" height="2.06"/><rect class="cls-1" x="198.1" y="205.17" width="194.59" height="2.06"/><rect class="cls-1" x="198.1" y="203.11" width="194.59" height="2.06"/><rect class="cls-1" x="198.1" y="201.06" width="194.59" height="2.06"/><rect class="cls-1" x="198.1" y="199" width="194.59" height="2.06"/><rect class="cls-1" x="198.1" y="196.94" width="194.59" height="2.06"/><rect class="cls-1" x="198.1" y="194.89" width="194.59" height="2.06"/><rect class="cls-1" x="198.1" y="192.83" width="194.59" height="2.06"/><rect class="cls-1" x="198.1" y="190.77" width="194.59" height="2.06"/><rect class="cls-1" x="198.1" y="188.72" width="194.59" height="2.06"/><rect class="cls-1" x="198.1" y="186.66" width="194.59" height="2.06"/><rect class="cls-1" x="198.1" y="184.6" width="194.59" height="2.06"/><rect class="cls-1" x="198.1" y="182.55" width="194.59" height="2.06"/><rect class="cls-1" x="198.1" y="180.49" width="194.59" height="2.06"/><rect class="cls-1" x="198.1" y="178.43" width="194.59" height="2.06"/><rect class="cls-1" x="198.1" y="176.38" width="194.59" height="2.06"/><rect class="cls-1" x="198.1" y="174.32" width="194.59" height="2.06"/><rect class="cls-1" x="198.1" y="172.26" width="194.59" height="2.06"/><rect class="cls-1" x="198.1" y="170.21" width="194.59" height="2.06"/><rect class="cls-1" x="198.1" y="168.15" width="194.59" height="2.06"/><rect class="cls-1" x="198.1" y="166.09" width="194.59" height="2.06"/><rect class="cls-1" x="198.1" y="164.04" width="194.59" height="2.06"/><rect class="cls-1" x="198.1" y="161.98" width="194.59" height="2.06"/><rect class="cls-1" x="198.1" y="159.93" width="194.59" height="2.06"/><rect class="cls-1" x="198.1" y="157.87" width="194.59" height="2.06"/><rect class="cls-1" x="198.1" y="155.81" width="194.59" height="2.06"/><rect class="cls-1" x="198.1" y="153.76" width="194.59" height="2.06"/><rect class="cls-1" x="198.1" y="151.7" width="194.59" height="2.06"/><rect class="cls-1" x="198.1" y="149.64" width="194.59" height="2.06"/><rect class="cls-1" x="198.1" y="147.59" width="194.59" height="2.06"/><rect class="cls-1" x="198.1" y="145.53" width="194.59" height="2.06"/><rect class="cls-1" x="198.1" y="143.47" width="194.59" height="2.06"/><rect class="cls-1" x="198.1" y="141.42" width="194.59" height="2.06"/><rect class="cls-1" x="198.1" y="139.36" width="194.59" height="2.06"/><rect class="cls-1" x="198.1" y="137.3" width="194.59" height="2.06"/><rect class="cls-1" x="198.1" y="135.25" width="194.59" height="2.06"/><rect class="cls-1" x="198.1" y="133.19" width="194.59" height="2.06"/><rect class="cls-1" x="198.1" y="131.13" width="194.59" height="2.06"/><rect class="cls-1" x="198.1" y="113.61" width="194.59" height="17.53"/></g><path class="cls-4" d="M287.17,136.6c-52-.22-59.15,2.25-66.85-5.63-21.36-21.87,2.05-73.6,5.09-80.3,7.26-16,15.82-34.95,36.08-43.19,26.61-10.83,53.63,5,61.49,9.65,41.2,24.17,46.43,72.75,48.28,90,1.46,13.57-.29,18-2.05,20.72C360.85,141,339.89,136.83,287.17,136.6Z"/><path class="cls-11" d="M371.52,149.4h-.23L220.36,148c-11.87-.11-21.4-8.8-21.28-19.41s9.72-19,21.49-19h.23L371.73,111c11.87.11,21.4,8.79,21.28,19.41S383.29,149.4,371.52,149.4Z"/><path class="cls-9" d="M370,148.5h-.22l-150.93-1.37c-11.88-.11-21.41-8.79-21.29-19.4s9.73-19,21.5-19h.22l150.93,1.36c11.88.11,21.41,8.8,21.29,19.41S381.76,148.5,370,148.5Z"/><ellipse class="cls-3" cx="294.75" cy="258.02" rx="24.14" ry="15.75"/><g class="cls-12"><circle class="cls-13" cx="306.57" cy="235.93" r="18.22"/><path class="cls-13" d="M408.66,242a78.77,78.77,0,0,1-15.85,11.65c-36.48,20.27-78.2,4.67-88.9.31q2.76-18,5.5-36.06a79,79,0,0,1,22.59,7c7.5,3.66,9.53,6.14,20.49,12.71,11.14,6.68,16.72,9.94,22.58,11.39C380.67,250.4,392.09,251.61,408.66,242Z"/><circle class="cls-13" cx="283.04" cy="236.31" r="18.22"/><path class="cls-13" d="M181,242.38A78.77,78.77,0,0,0,196.8,254c36.47,20.27,78.19,4.67,88.89.31q-2.74-18-5.5-36.06a79,79,0,0,0-22.58,7c-7.51,3.66-9.54,6.14-20.49,12.71C226,244.7,220.39,248,214.53,249.4,208.93,250.78,197.52,252,181,242.38Z"/></g><circle class="cls-9" cx="306.46" cy="234.28" r="18.22"/><path class="cls-9" d="M408.55,240.35A78.77,78.77,0,0,1,392.7,252c-36.47,20.27-78.19,4.67-88.89.3q2.74-18,5.5-36.05a78.88,78.88,0,0,1,22.58,7c7.51,3.66,9.54,6.14,20.5,12.71,11.13,6.68,16.72,10,22.58,11.39C380.57,248.75,392,250,408.55,240.35Z"/><circle class="cls-9" cx="282.93" cy="234.66" r="18.22"/><path class="cls-9" d="M180.84,240.73a78.53,78.53,0,0,0,15.86,11.65c36.47,20.27,78.19,4.67,88.89.3q-2.74-18-5.5-36.05a78.79,78.79,0,0,0-22.58,7c-7.51,3.66-9.54,6.14-20.5,12.71-11.14,6.68-16.72,9.95-22.58,11.39C208.83,249.13,197.41,250.34,180.84,240.73Z"/><g class="cls-14"><path class="cls-15" d="M300.11,271.23c-1.43,3-8.53,2.4-12.12,1.59-4.11-.94-10.88-3.79-10.75-7.18s7.37-7.22,13.47-5.75S301.59,268.12,300.11,271.23Z"/></g><ellipse class="cls-16" cx="294.75" cy="216.09" rx="23.89" ry="12.96"/><g class="cls-2"><path class="cls-3" d="M239.7,208.07l-.28-1a188.59,188.59,0,0,1,44.84-7,233.24,233.24,0,0,1,65.17,6.5l-.24,1a232.63,232.63,0,0,0-64.89-6.47A187.67,187.67,0,0,0,239.7,208.07Z"/></g><g class="cls-17"><path class="cls-3" d="M274.7,178.74c-3.11-5.73-10.85-14.05-20.33-12.2-11.65,2.28-14.13,17.63-14.23,18.3-1.07,7.35,1.16,17.29,7.12,19.82,2.16.91,3.06.11,12.7-1.53,11.53-2,12.79-1.25,14.74-3C279.52,195.65,278.31,185.4,274.7,178.74Z"/></g><g class="cls-17"><path class="cls-3" d="M313.24,179.1c3-5.79,10.57-14.26,20.08-12.6,11.71,2.05,14.48,17.35,14.6,18,1.22,7.34-.82,17.32-6.72,20-2.14,1-3.06.18-12.74-1.27-11.55-1.73-12.8-1-14.79-2.76C308.77,196.11,309.76,185.83,313.24,179.1Z"/></g><ellipse class="cls-9" cx="321.96" cy="179.75" rx="5.08" ry="4.57"/><ellipse class="cls-9" cx="265.05" cy="179.75" rx="5.08" ry="4.57"/><path class="cls-9" d="M362.69,171.17a60,60,0,0,0-25.94-11.23,59.31,59.31,0,0,0-18.72-.16l1.66-14.12c4.82-.33,22.41-1,34.13,11.18a33.44,33.44,0,0,1,5,6.72Z"/><path class="cls-9" d="M226.24,171.33a60.13,60.13,0,0,1,25.94-11.23,59.37,59.37,0,0,1,18.73-.16l-1.66-14.11c-4.82-.34-22.41-1-34.13,11.17a33.07,33.07,0,0,0-5,6.72Z"/><circle class="cls-9" cx="79.81" cy="269.96" r="19.57"/><circle class="cls-9" cx="81.04" cy="251.79" r="6.22"/><circle class="cls-9" cx="90.69" cy="254.84" r="6.22"/><circle class="cls-9" cx="94.76" cy="260.94" r="6.22"/><circle class="cls-9" cx="96.79" cy="267.04" r="6.22"/><circle class="cls-9" cx="96.79" cy="273.13" r="6.22"/><circle class="cls-9" cx="94.76" cy="279.23" r="6.22"/><circle class="cls-9" cx="89.68" cy="285.33" r="6.22"/><circle class="cls-9" cx="80.02" cy="287.36" r="6.22"/><circle class="cls-9" cx="73.41" cy="285.33" r="6.22"/><circle class="cls-9" cx="67.32" cy="281.27" r="6.22"/><circle class="cls-9" cx="64.27" cy="275.17" r="6.22"/><circle class="cls-9" cx="63.25" cy="267.04" r="6.22"/><circle class="cls-9" cx="64.27" cy="262.46" r="6.22"/><circle class="cls-9" cx="67.82" cy="256.36" r="6.22"/><circle class="cls-9" cx="73.92" cy="252.81" r="6.22"/><circle class="cls-9" cx="86.26" cy="253.65" r="6.22"/><path class="cls-4" d="M185.72,378.62c-.4-10.54-6-22.51-14.28-28.64-12.1-9-23.63-.87-68.88,20.58-41.15,19.51-53.75,23.26-55.35,37.86C46,419.36,51.49,432,58.8,439.05c15.38,14.92,38.51,5.18,63.93-5.53C151.07,421.59,186.79,406.55,185.72,378.62Z"/><path class="cls-3" d="M69.51,445.6c-6.55,8.64-22.82.92-51.13,1.16a15.89,15.89,0,0,1-8-1.81c-5.62-3.08-8.86-9.94-8.86-14.36,0-13.87,31.91-36.24,53.48-24.17C69.58,414.57,76.26,436.7,69.51,445.6Z"/><path class="cls-3" d="M54.86,445.18c-1.81,14.23-21,25.16-27.31,20.77-4.9-3.44-2.85-17,2-25.87,1-1.92,7.54-13.92,15.38-13.17C51.64,427.55,55.85,437.32,54.86,445.18Z"/><circle class="cls-5" cx="69.4" cy="423.18" r="14.15"/><circle class="cls-5" cx="61.67" cy="402.44" r="14.15"/><circle class="cls-5" cx="56.26" cy="438.27" r="14.15"/><circle class="cls-5" cx="48.58" cy="418.31" r="14.15"/><circle class="cls-5" cx="78.71" cy="443.81" r="14.15"/><path class="cls-4" d="M421.83,365.14c1.67-10.42,8.72-21.61,17.63-26.71,13.1-7.5,23.56,2,65.9,28.75,38.49,24.33,50.54,29.57,50.37,44.26-.14,11-7.09,22.85-15.21,29-17.06,13-38.85.49-62.79-13.21C451,412,417.39,392.73,421.83,365.14Z"/><path class="cls-3" d="M529.1,445.65c5.47,9.38,22.55,3.67,50.62,7.33a15.89,15.89,0,0,0,8.17-.83c6-2.38,10-8.79,10.54-13.18,1.67-13.77-27.31-39.83-50.18-30.46C532.79,414.85,523.48,436,529.1,445.65Z"/><path class="cls-3" d="M543.7,447c.07,14.35,17.85,27.52,24.6,23.92,5.28-2.83,4.88-16.52,1.18-25.91-.8-2-5.8-14.73-13.68-14.94C549,429.9,543.66,439.08,543.7,447Z"/><circle class="cls-5" cx="532.16" cy="421.43" r="14.15"/><circle class="cls-5" cx="542.34" cy="401.77" r="14.15"/><circle class="cls-5" cx="543.38" cy="437.99" r="14.15"/><circle class="cls-5" cx="553.42" cy="419.11" r="14.15"/><circle class="cls-5" cx="520.43" cy="440.79" r="14.15"/><path class="cls-5" d="M305.52,574.46a1376.24,1376.24,0,0,1-201.15-14.8,30.5,30.5,0,1,1,8.93-60.34,1313.68,1313.68,0,0,0,220.48,13.83,1313.91,1313.91,0,0,0,163.39-13.83,30.5,30.5,0,1,1,8.94,60.34,1374.47,1374.47,0,0,1-171,14.48Q320.33,574.46,305.52,574.46Z"/><ellipse class="cls-5" cx="110.85" cy="508.33" rx="11.32" ry="11.21"/><ellipse class="cls-5" cx="90.58" cy="514.37" rx="11.32" ry="11.21"/><ellipse class="cls-5" cx="86.37" cy="525.92" rx="11.32" ry="11.21"/><ellipse class="cls-5" cx="86.16" cy="536.67" rx="11.32" ry="11.21"/><ellipse class="cls-5" cx="95.62" cy="548.88" rx="11.32" ry="11.21"/><ellipse class="cls-5" cx="110.26" cy="552.54" rx="11.32" ry="11.21"/><ellipse class="cls-5" cx="124.79" cy="555.52" rx="11.32" ry="11.21"/><ellipse class="cls-5" cx="140.78" cy="558.84" rx="11.32" ry="11.21"/><ellipse class="cls-5" cx="158.79" cy="560.14" rx="11.32" ry="11.21"/><ellipse class="cls-5" cx="175.89" cy="561.2" rx="11.32" ry="11.21"/><ellipse class="cls-5" cx="192.48" cy="562.35" rx="11.32" ry="11.21"/><ellipse class="cls-5" cx="208.74" cy="564.37" rx="11.32" ry="11.21"/><ellipse class="cls-5" cx="227.23" cy="564.71" rx="11.32" ry="11.21"/><ellipse class="cls-5" cx="238.78" cy="552.79" rx="11.32" ry="11.21"/><ellipse class="cls-5" cx="245.03" cy="564.81" rx="11.32" ry="11.21"/><ellipse class="cls-5" cx="259.41" cy="564.81" rx="11.32" ry="11.21"/><ellipse class="cls-5" cx="277.35" cy="566.9" rx="11.32" ry="11.21"/><ellipse class="cls-5" cx="293.61" cy="568.48" rx="11.32" ry="11.21"/><ellipse class="cls-5" cx="311.92" cy="566.82" rx="11.32" ry="11.21"/><ellipse class="cls-5" cx="328.18" cy="566.82" rx="11.32" ry="11.21"/><ellipse class="cls-5" cx="343.9" cy="564.99" rx="11.32" ry="11.21"/><ellipse class="cls-5" cx="360.2" cy="564.81" rx="11.32" ry="11.21"/><ellipse class="cls-5" cx="374.77" cy="563.75" rx="11.32" ry="11.21"/><ellipse class="cls-5" cx="391.21" cy="564.46" rx="11.32" ry="11.21"/><ellipse class="cls-5" cx="406.34" cy="565.08" rx="11.32" ry="11.21"/><ellipse class="cls-5" cx="420.6" cy="563.06" rx="11.32" ry="11.21"/><ellipse class="cls-5" cx="449.68" cy="561.66" rx="11.32" ry="11.21"/><ellipse class="cls-5" cx="468.25" cy="559.81" rx="11.32" ry="11.21"/><ellipse class="cls-5" cx="487.18" cy="558.25" rx="11.32" ry="11.21"/><ellipse class="cls-5" cx="504.77" cy="553.01" rx="11.32" ry="11.21"/><ellipse class="cls-5" cx="524.37" cy="528.23" rx="11.32" ry="11.21"/><ellipse class="cls-5" cx="512.96" cy="541.58" rx="11.32" ry="11.21"/><ellipse class="cls-5" cx="518.7" cy="546.6" rx="11.32" ry="11.21"/><ellipse class="cls-5" cx="524.51" cy="534.73" rx="11.32" ry="11.21"/><ellipse class="cls-5" cx="520.19" cy="515.55" rx="11.32" ry="11.21"/><ellipse class="cls-5" cx="128.51" cy="508.18" rx="11.32" ry="11.21"/><ellipse class="cls-5" cx="146.98" cy="510.32" rx="11.32" ry="11.21"/><ellipse class="cls-5" cx="163.15" cy="512.46" rx="11.32" ry="11.21"/><ellipse class="cls-5" cx="179.84" cy="514.81" rx="11.32" ry="11.21"/><ellipse class="cls-5" cx="197.79" cy="515.26" rx="11.32" ry="11.21"/><ellipse class="cls-5" cx="214.86" cy="516.22" rx="11.32" ry="11.21"/><ellipse class="cls-5" cx="250.48" cy="519.09" rx="11.32" ry="11.21"/><ellipse class="cls-5" cx="233.63" cy="517.03" rx="11.32" ry="11.21"/><ellipse class="cls-5" cx="266.94" cy="519.9" rx="11.32" ry="11.21"/><ellipse class="cls-5" cx="282.29" cy="528.02" rx="11.32" ry="11.21"/><ellipse class="cls-5" cx="286.16" cy="519.75" rx="11.32" ry="11.21"/><ellipse class="cls-5" cx="304.26" cy="520.34" rx="11.32" ry="11.21"/><ellipse class="cls-5" cx="322.07" cy="519.75" rx="11.32" ry="11.21"/><ellipse class="cls-5" cx="339.95" cy="520.71" rx="11.32" ry="11.21"/><ellipse class="cls-5" cx="357.83" cy="520.34" rx="11.32" ry="11.21"/><ellipse class="cls-5" cx="376.01" cy="519.39" rx="11.32" ry="11.21"/><ellipse class="cls-5" cx="395.98" cy="517.03" rx="11.32" ry="11.21"/><ellipse class="cls-5" cx="416.55" cy="515.26" rx="11.32" ry="11.21"/><ellipse class="cls-5" cx="434.58" cy="515.4" rx="11.32" ry="11.21"/><ellipse class="cls-5" cx="447.54" cy="512.68" rx="11.32" ry="11.21"/><ellipse class="cls-5" cx="462.78" cy="509.46" rx="11.32" ry="11.21"/><ellipse class="cls-5" cx="479.58" cy="508.4" rx="11.32" ry="11.21"/><ellipse class="cls-5" cx="494.63" cy="506.89" rx="11.32" ry="11.21"/><ellipse class="cls-5" cx="508.56" cy="506.89" rx="11.32" ry="11.21"/><ellipse class="cls-5" cx="98.85" cy="510.19" rx="11.32" ry="11.21"/></svg>