<svg id="Layer_1" data-name="Layer 1" xmlns="http://www.w3.org/2000/svg" xmlns:xlink="http://www.w3.org/1999/xlink" viewBox="0 0 1730 580"><defs><style>.cls-1,.cls-18,.cls-3,.cls-34,.cls-8,.cls-9{fill:none;}.cls-1{stroke:#060305;opacity:0.29;}.cls-1,.cls-18,.cls-34{stroke-miterlimit:10;}.cls-2{fill:#a0252a;}.cls-4{opacity:0.55;}.cls-5{fill:#c4c0b5;}.cls-22,.cls-6{fill:#fff;}.cls-7{fill:#eec4a6;}.cls-8{stroke:#b5b5b6;}.cls-22,.cls-8,.cls-9{stroke-linecap:round;}.cls-8,.cls-9{stroke-width:31px;}.cls-18,.cls-22,.cls-9{stroke:#fff;}.cls-10,.cls-15{fill:#060305;}.cls-11{opacity:0.89;}.cls-12{fill:#818181;}.cls-13{fill:#f1393b;opacity:0.35;}.cls-14{fill:#e9b7a0;}.cls-15,.cls-32,.cls-43,.cls-49,.cls-55{opacity:0.8;}.cls-16{fill:#080304;}.cls-17{fill:#00582d;}.cls-18{stroke-width:15px;}.cls-19{fill:#fac140;}.cls-20{fill:#f28b35;}.cls-21{fill:#c82853;}.cls-22{stroke-linejoin:round;stroke-width:0.25px;}.cls-23{fill:#b27c51;}.cls-24{fill:#d62b30;}.cls-25{fill:#f3be49;}.cls-26{fill:url(#Autumn_Yellow_Radial);}.cls-27,.cls-32{fill:#683614;}.cls-28{fill:#2a0000;}.cls-29{fill:#45302e;}.cls-30{fill:#992528;}.cls-31,.cls-43{fill:#623315;}.cls-33{fill:#040103;opacity:0.95;}.cls-34{stroke:#040103;opacity:0.45;}.cls-35,.cls-36{fill:#1e0506;}.cls-35{opacity:0.99;}.cls-36{opacity:0.67;}.cls-37{fill:url(#linear-gradient);}.cls-38,.cls-45,.cls-51,.cls-58{opacity:0.85;}.cls-38{fill:url(#linear-gradient-2);}.cls-39{fill:#cdcbca;}.cls-40{fill:#2b0f09;}.cls-41{fill:#d0cdcd;}.cls-42,.cls-53{fill:#fabe3b;}.cls-42{opacity:0.93;}.cls-44{fill:url(#linear-gradient-3);}.cls-45{fill:url(#linear-gradient-4);}.cls-46{fill:#351711;}.cls-47{fill:#473332;}.cls-48,.cls-49,.cls-52{fill:#5d3724;}.cls-50{fill:url(#linear-gradient-5);}.cls-51{fill:url(#linear-gradient-6);}.cls-52,.cls-59{opacity:0.5;}.cls-54,.cls-55,.cls-59{fill:#5d3621;}.cls-56{fill:#5d3825;}.cls-57{fill:url(#linear-gradient-7);}.cls-58{fill:url(#linear-gradient-8);}.cls-60{fill:#b22628;}.cls-61{fill:#2f0d00;}</style><radialGradient id="Autumn_Yellow_Radial" cx="402.28" cy="335.56" r="5.7" gradientTransform="translate(19.06 36.74) rotate(-2.45)" gradientUnits="userSpaceOnUse"><stop offset="0" stop-color="#fbeed6"/><stop offset="0" stop-color="#fbe5b7"/><stop offset="0" stop-color="#fbd680"/><stop offset="0.55" stop-color="#f8bf40"/><stop offset="0.71" stop-color="#e8b441"/><stop offset="1" stop-color="#d1a342"/></radialGradient><linearGradient id="linear-gradient" x1="1291.81" y1="935.32" x2="1302.76" y2="954.29" gradientTransform="matrix(0, -1, -1, 0, 1905.34, 1616.9)" gradientUnits="userSpaceOnUse"><stop offset="0" stop-color="#463224"/><stop offset="0.02" stop-color="#453123"/><stop offset="0.49" stop-color="#321810"/><stop offset="0.77" stop-color="#2b0f09"/></linearGradient><linearGradient id="linear-gradient-2" x1="1290.83" y1="934.85" x2="1301.78" y2="953.82" gradientTransform="matrix(0, -1, -1, 0, 1905.96, 1615.86)" xlink:href="#linear-gradient"/><linearGradient id="linear-gradient-3" x1="875.53" y1="774.92" x2="886.37" y2="793.68" gradientTransform="matrix(0, -1, -1, 0, 2201.64, 1194.54)" xlink:href="#linear-gradient"/><linearGradient id="linear-gradient-4" x1="874.56" y1="774.45" x2="885.4" y2="793.22" gradientTransform="matrix(0, -1, -1, 0, 2202.25, 1193.5)" xlink:href="#linear-gradient"/><linearGradient id="linear-gradient-5" x1="1412.64" y1="940.39" x2="1428.85" y2="968.46" gradientTransform="matrix(0, -1, -1, 0, 1804.92, 1705.7)" xlink:href="#linear-gradient"/><linearGradient id="linear-gradient-6" x1="1411.19" y1="939.7" x2="1427.4" y2="967.77" gradientTransform="matrix(0, -1, -1, 0, 1805.83, 1704.14)" xlink:href="#linear-gradient"/><linearGradient id="linear-gradient-7" x1="996.39" y1="788.29" x2="1012.18" y2="815.64" gradientTransform="matrix(0, -1, -1, 0, 2108.39, 1289.83)" xlink:href="#linear-gradient"/><linearGradient id="linear-gradient-8" x1="994.97" y1="787.61" x2="1010.77" y2="814.97" gradientTransform="matrix(0, -1, -1, 0, 2109.28, 1288.28)" xlink:href="#linear-gradient"/></defs><path class="cls-1" d="M255.73,178.43a8.88,8.88,0,0,0,7.72-3.91"/><path class="cls-2" d="M389.16,364.1C379,379.67,338.11,381.78,256.7,385.37c-82.86,3.66-124.54,5.18-136.45-9.78C84.77,331.05,148.72,168,242.72,162.51,338.21,157,420.06,316.65,389.16,364.1Z"/><path class="cls-2" d="M184.78,6.83a103.46,103.46,0,0,0-38,21.48c-11.11,9.78-17.26,19.37-22,26.9-11.5,18.23-16.16,34.3-20.78,50.71-4.84,17.21-6.81,30.61-9.48,48.74-2.41,16.4-3.75,30.11-4.53,39.78,27-18.73,38.15-26.49,38.17-26.46s-.09.06-.1.05,17.55-13.62,32.18-29.38C170.13,128,177.52,120,184,107.17c3.64-7.26,12.43-26.87,19-34.65,2.83-3.32,6.32-7.29,6.32-7.29,1.94-2.21,3.57-4,5.37-6.05,5.12-5.74,10.88-10.89,15.71-16.87,1.89-2.36,6.48-9.93,9.26-20.72,2-7.62,2.94-11.43,1.69-14C236.2-3.1,204.89.62,184.78,6.83Z"/><path class="cls-3" d="M183,83.94c-7.62-1.37-13.21-8.42-15.18-15.91s-1-15.4,0-23.07"/><path class="cls-3" d="M182.64,84.05c-4.13.69-8.1-1.71-11.41-4.28a23.33,23.33,0,0,1-3.73-3.43c-5-6-1.73-10.79-1.22-17.48"/><g class="cls-4"><ellipse class="cls-5" cx="246.51" cy="203.72" rx="75.74" ry="88.61" transform="translate(-4.51 5.58) rotate(-1.29)"/><ellipse class="cls-5" cx="308.44" cy="154.27" rx="12.89" ry="14.5" transform="translate(-3.38 6.96) rotate(-1.29)"/><ellipse class="cls-5" cx="315.43" cy="178.47" rx="12.89" ry="14.5" transform="translate(-3.93 7.12) rotate(-1.29)"/><ellipse class="cls-5" cx="316.51" cy="226.8" rx="12.89" ry="14.5" transform="translate(-5.01 7.16) rotate(-1.29)"/><ellipse class="cls-5" cx="322.4" cy="201.95" rx="12.89" ry="14.5" transform="translate(-4.45 7.29) rotate(-1.29)"/><ellipse class="cls-5" cx="310.56" cy="248.78" rx="12.89" ry="14.5" transform="translate(-5.51 7.03) rotate(-1.29)"/><circle class="cls-5" cx="299.5" cy="266.76" r="15.4"/><ellipse class="cls-5" cx="285.62" cy="286.77" rx="12.89" ry="15.76" transform="translate(-6.36 6.48) rotate(-1.29)"/><ellipse class="cls-5" cx="268.33" cy="298.09" rx="15.4" ry="17.01" transform="matrix(1, -0.02, 0.02, 1, -6.62, 6.1)"/><ellipse class="cls-5" cx="248.39" cy="287.79" rx="15.4" ry="17.01" transform="translate(-6.4 5.65) rotate(-1.29)"/><circle class="cls-5" cx="172.06" cy="166.28" r="15.22"/><circle class="cls-5" cx="170.31" cy="192.29" r="17.55"/><circle class="cls-5" cx="169.31" cy="219.72" r="14.5"/><ellipse class="cls-5" cx="176.13" cy="244.28" rx="12.89" ry="14.5" transform="translate(-5.44 4.01) rotate(-1.29)"/><circle class="cls-5" cx="187.39" cy="267.13" r="13.25"/><ellipse class="cls-5" cx="202.73" cy="280.22" rx="12.89" ry="14.5" transform="translate(-6.24 4.62) rotate(-1.29)"/><ellipse class="cls-5" cx="219.89" cy="294.52" rx="12.89" ry="14.5" transform="translate(-6.55 5.01) rotate(-1.29)"/><ellipse class="cls-5" cx="240.11" cy="301.94" rx="12.89" ry="16.65" transform="translate(-6.72 5.47) rotate(-1.29)"/><ellipse class="cls-5" cx="257.16" cy="311.23" rx="12.89" ry="14.5" transform="translate(-6.92 5.85) rotate(-1.29)"/></g><ellipse class="cls-6" cx="243.76" cy="182.25" rx="75.74" ry="88.61" transform="translate(-4.03 5.52) rotate(-1.29)"/><ellipse class="cls-6" cx="305.7" cy="132.8" rx="12.89" ry="14.5" transform="translate(-2.9 6.89) rotate(-1.29)"/><ellipse class="cls-6" cx="312.69" cy="157" rx="12.89" ry="14.5" transform="translate(-3.44 7.06) rotate(-1.29)"/><ellipse class="cls-6" cx="313.77" cy="205.33" rx="12.89" ry="14.5" transform="translate(-4.53 7.09) rotate(-1.29)"/><ellipse class="cls-6" cx="319.66" cy="180.48" rx="12.89" ry="14.5" transform="translate(-3.97 7.22) rotate(-1.29)"/><ellipse class="cls-6" cx="307.82" cy="227.31" rx="12.89" ry="14.5" transform="translate(-5.02 6.97) rotate(-1.29)"/><circle class="cls-6" cx="296.76" cy="245.29" r="15.4"/><ellipse class="cls-6" cx="282.88" cy="265.3" rx="12.89" ry="15.76" transform="translate(-5.88 6.42) rotate(-1.29)"/><ellipse class="cls-6" cx="265.58" cy="276.62" rx="15.4" ry="17.01" transform="translate(-6.14 6.03) rotate(-1.29)"/><ellipse class="cls-6" cx="245.65" cy="266.32" rx="15.4" ry="17.01" transform="translate(-5.92 5.58) rotate(-1.29)"/><circle class="cls-6" cx="169.31" cy="144.81" r="15.22"/><circle class="cls-6" cx="167.57" cy="170.82" r="17.55"/><circle class="cls-6" cx="166.57" cy="198.25" r="14.5"/><ellipse class="cls-6" cx="173.39" cy="222.81" rx="12.89" ry="14.5" transform="translate(-4.96 3.95) rotate(-1.29)"/><circle class="cls-6" cx="184.65" cy="245.66" r="13.25"/><ellipse class="cls-6" cx="199.99" cy="258.75" rx="12.89" ry="14.5" transform="translate(-5.76 4.55) rotate(-1.29)"/><ellipse class="cls-6" cx="217.15" cy="273.05" rx="12.89" ry="14.5" transform="translate(-6.07 4.94) rotate(-1.29)"/><ellipse class="cls-6" cx="237.37" cy="280.47" rx="12.89" ry="16.65" transform="translate(-6.24 5.4) rotate(-1.29)"/><ellipse class="cls-6" cx="254.42" cy="289.76" rx="12.89" ry="14.5" transform="translate(-6.44 5.78) rotate(-1.29)"/><path class="cls-7" d="M299.16,150.8c-10.77,22.38-38.43,24.22-56.5,25.42s-47.64,3.16-61.4-19c-10.47-16.84-7.54-40.88,2.92-56.4C198.25,80,222.76,79.21,237.83,78.74c14.87-.47,37.12-1.17,52.31,16.87C302,109.7,307.72,133,299.16,150.8Z"/><path class="cls-2" d="M231.66,94.77c-36.58,1.41-41.57,3.36-47.22-2-15.7-14.76-.77-51.87,1.16-56.68,4.63-11.51,10.09-25.09,24.1-31.5,18.41-8.42,37.91,1.94,43.59,5C283,25.36,288.16,59.4,290,71.46c1.44,9.5.34,12.64-.82,14.65C283.67,95.61,268.79,93.34,231.66,94.77Z"/><line class="cls-8" x1="184.2" y1="91.88" x2="290.51" y2="88.41"/><line class="cls-9" x1="183.1" y1="91.21" x2="289.4" y2="87.74"/><ellipse class="cls-10" cx="240.66" cy="180.02" rx="17.01" ry="11.1" transform="matrix(1, -0.04, 0.04, 1, -7.46, 10.43)"/><g class="cls-11"><circle class="cls-12" cx="248.31" cy="164.12" r="12.84"/><path class="cls-12" d="M320.37,165.32A55.37,55.37,0,0,1,309.56,174c-25.07,15.37-54.91,5.64-62.58,2.89l2.79-25.55a55.37,55.37,0,0,1,16.11,4.26c5.4,2.35,6.9,4,14.81,8.34s12.08,6.49,16.24,7.33C300.92,172.08,309,172.58,320.37,165.32Z"/><circle class="cls-12" cx="231.76" cy="165.09" r="12.84"/><path class="cls-12" d="M160.06,172.44a55.55,55.55,0,0,0,11.52,7.72c26.28,13.17,55.19.94,62.59-2.46q-2.47-12.6-5-25.22a55.68,55.68,0,0,0-15.69,5.63c-5.17,2.8-6.53,4.61-14,9.56s-11.48,7.51-15.56,8.7C180,177.51,172,178.7,160.06,172.44Z"/></g><circle class="cls-6" cx="248.19" cy="162.95" r="12.84"/><path class="cls-6" d="M320.25,164.16a55.7,55.7,0,0,1-10.82,8.68c-25.06,15.36-54.91,5.64-62.57,2.88l2.79-25.54a55.45,55.45,0,0,1,16.11,4.26c5.39,2.35,6.9,4,14.81,8.33s12.07,6.5,16.24,7.34C300.79,170.91,308.87,171.42,320.25,164.16Z"/><circle class="cls-6" cx="231.63" cy="163.93" r="12.84"/><path class="cls-6" d="M159.94,171.27A55.85,55.85,0,0,0,171.45,179c26.29,13.17,55.19.93,62.6-2.46q-2.49-12.61-5-25.22a55.81,55.81,0,0,0-15.69,5.62c-5.17,2.81-6.53,4.62-14.05,9.57s-11.47,7.5-15.55,8.7C179.9,176.35,171.9,177.54,159.94,171.27Z"/><path class="cls-13" d="M244.83,189.16c-.92,2.16-5.94,2-8.49,1.48-2.92-.53-7.77-2.34-7.78-4.73s5-5.3,9.31-4.45S245.77,186.93,244.83,189.16Z"/><ellipse class="cls-14" cx="239.39" cy="150.5" rx="16.83" ry="9.13" transform="translate(-6.2 10.35) rotate(-2.45)"/><path class="cls-1" d="M277.54,142.51a164.82,164.82,0,0,0-46-2.62,131.79,131.79,0,0,0-31.27,6.29"/><path class="cls-15" d="M224.16,124.81c-2.36-3.94-8.06-9.57-14.68-8-8.14,2-9.42,12.84-9.47,13.31-.53,5.21,1.34,12.14,5.61,13.74,1.54.58,2.16,0,8.89-1.46,8.06-1.72,9-1.26,10.29-2.59C228.06,136.57,226.9,129.39,224.16,124.81Z"/><path class="cls-15" d="M251.3,123.91c1.94-4.17,7-10.36,13.76-9.48,8.3,1.09,10.72,11.78,10.82,12.24,1.08,5.13-.06,12.22-4.13,14.25-1.48.74-2.15.22-9-.51-8.19-.87-9-.32-10.5-1.49C248.66,136,249.06,128.75,251.3,123.91Z"/><ellipse class="cls-6" cx="257.46" cy="124.1" rx="3.58" ry="3.22" transform="translate(-5.06 11.1) rotate(-2.45)"/><ellipse class="cls-6" cx="217.39" cy="125.81" rx="3.58" ry="3.22" transform="translate(-5.17 9.39) rotate(-2.45)"/><path class="cls-6" d="M285.88,116.83a42.38,42.38,0,0,0-18.6-7.12,41.72,41.72,0,0,0-13.19.45l.75-10c3.38-.38,15.74-1.37,24.36,6.84a23.52,23.52,0,0,1,3.72,4.58Z"/><path class="cls-6" d="M189.82,121.05a42.47,42.47,0,0,1,17.92-8.69,41.85,41.85,0,0,1,13.18-.67l-1.59-9.89c-3.4-.09-15.81,0-23.69,8.89a23.24,23.24,0,0,0-3.32,4.89Z"/><circle class="cls-6" cx="89.69" cy="194.89" r="13.79"/><circle class="cls-6" cx="90.01" cy="182.06" r="4.39"/><circle class="cls-6" cx="96.9" cy="183.92" r="4.39"/><circle class="cls-6" cx="99.94" cy="188.09" r="4.39"/><circle class="cls-6" cx="101.56" cy="192.32" r="4.39"/><circle class="cls-6" cx="101.74" cy="196.62" r="4.39"/><circle class="cls-6" cx="100.49" cy="200.97" r="4.39"/><circle class="cls-6" cx="97.1" cy="205.42" r="4.39"/><circle class="cls-6" cx="90.36" cy="207.14" r="4.39"/><circle class="cls-6" cx="85.65" cy="205.9" r="4.39"/><circle class="cls-6" cx="81.24" cy="203.23" r="4.39"/><circle class="cls-6" cx="78.91" cy="199.02" r="4.39"/><circle class="cls-6" cx="77.95" cy="193.33" r="4.39"/><circle class="cls-6" cx="78.52" cy="190.08" r="4.39"/><circle class="cls-6" cx="80.84" cy="185.68" r="4.39"/><circle class="cls-6" cx="85.03" cy="182.99" r="4.39"/><circle class="cls-6" cx="93.74" cy="183.22" r="4.39"/><path class="cls-16" d="M1376.44,403c-29.16,1.25-53.42-1.1-68.12-2.52-54.06-5.22-106.6-21.5-156.17-48.4a.7.7,0,0,1-.29-1,.71.71,0,0,1,1-.29c49.4,26.81,101.76,43,155.62,48.24,19.41,1.87,55.53,5.36,97.51,0,51.58-6.55,95-24.44,129.14-53.16a210.26,210.26,0,0,0,16.78-15.77.71.71,0,0,1,1,1A211.52,211.52,0,0,1,1536,347c-34.32,28.9-78,46.9-129.87,53.48C1395.84,401.78,1385.88,402.56,1376.44,403Z"/><path class="cls-16" d="M946.48,412.05a361.2,361.2,0,0,1-72.17-4.2c-44-6.91-84-23.06-115.78-46.7a.72.72,0,0,1-.14-1,.71.71,0,0,1,1-.15c31.55,23.51,71.37,39.57,115.15,46.44,52.12,8.19,92.43,3.75,125-1.67a446.17,446.17,0,0,0,151.65-55.13.71.71,0,0,1,1,.25.72.72,0,0,1-.26,1,448,448,0,0,1-152.12,55.31A429.19,429.19,0,0,1,946.48,412.05Z"/><path class="cls-16" d="M678.33,384.65c-50.8,2.17-109.24-2.1-168.83-20.38a435.36,435.36,0,0,1-68-27.28.73.73,0,0,1-.31-1.15,1.2,1.2,0,0,1,1.44-.26,433,433,0,0,0,67.64,27.12c98.34,30.18,193.6,22,256.19,9.82a1,1,0,0,1,1.24.61.87.87,0,0,1-.79,1A600,600,0,0,1,678.33,384.65Z"/><rect class="cls-17" x="44.12" y="228.45" width="120.26" height="119.87" transform="translate(-45.18 20.61) rotate(-9.29)"/><line class="cls-18" x1="114.05" y1="347.52" x2="94.7" y2="229.22"/><line class="cls-18" x1="163.67" y1="279.19" x2="45.36" y2="298.53"/><circle class="cls-6" cx="94.78" cy="228.3" r="5.7"/><path class="cls-6" d="M65.66,222.25a8.42,8.42,0,0,0-1.18,1.63c-2.47,4.47-.09,9.84.32,10.77a15.47,15.47,0,0,0,2,3.28c3.35-.43,6.87-1,10.54-1.72a154.3,154.3,0,0,0,15.93-4.05l-1.14-7A104.1,104.1,0,0,0,70,222.26C68.52,222.22,67.07,222.22,65.66,222.25Z"/><path class="cls-6" d="M120.54,213.76a8.52,8.52,0,0,1,1.63,1.17c3.77,3.45,3.23,9.3,3.13,10.31a15.28,15.28,0,0,1-.83,3.75c-3.31.65-6.82,1.24-10.54,1.72A158.87,158.87,0,0,1,97.54,232l-1.14-7a104.49,104.49,0,0,1,20-9.83C117.82,214.65,119.19,214.18,120.54,213.76Z"/><rect class="cls-19" x="167.59" y="267.98" width="84.69" height="177.2" transform="translate(-3.39 2.02) rotate(-0.55)"/><rect class="cls-6" x="205.13" y="267.98" width="9.6" height="177.2" transform="translate(-3.39 2.02) rotate(-0.55)"/><rect class="cls-6" x="203.81" y="314.23" width="12.26" height="84.69" transform="translate(564.5 143.25) rotate(89.45)"/><ellipse class="cls-6" cx="208.86" cy="263.99" rx="6.45" ry="8.23" transform="translate(-2.5 2) rotate(-0.55)"/><path class="cls-6" d="M177.27,248.85a11.29,11.29,0,0,0-1.59,2.07c-3.52,5.83-1.77,14-1.47,15.46a27.09,27.09,0,0,0,1.66,5.13c3.82.13,7.86.11,12.1-.12a139.62,139.62,0,0,0,18.52-2.23l-.1-10.21a100.21,100.21,0,0,0-24.27-9.12C180.47,249.45,178.86,249.13,177.27,248.85Z"/><path class="cls-6" d="M240.17,249a11.49,11.49,0,0,1,1.63,2c3.63,5.76,2,14,1.76,15.42a26.24,26.24,0,0,1-1.57,5.16c-3.81.21-7.85.26-12.09.12a141.39,141.39,0,0,1-18.56-1.88l-.1-10.21a100.18,100.18,0,0,1,24.1-9.58C237,249.61,238.58,249.26,240.17,249Z"/><polygon class="cls-20" points="393.75 405.44 348.96 405.87 316.98 374.5 316.56 329.71 347.93 297.74 392.71 297.31 424.69 328.68 425.11 373.47 393.75 405.44"/><rect class="cls-6" x="366.31" y="297.27" width="8.41" height="108.64" transform="translate(-3.33 3.54) rotate(-0.55)"/><rect class="cls-6" x="366.63" y="296.95" width="8.41" height="108.64" transform="translate(718.55 -22.89) rotate(89.45)"/><circle class="cls-6" cx="369.98" cy="300.67" r="7.63"/><path class="cls-6" d="M332.66,286.72a11.55,11.55,0,0,0-1.88,1.93c-4.18,5.4-2.13,13-1.77,14.31a20.54,20.54,0,0,0,1.95,4.75c4.51.11,9.29.09,14.3-.13a210.55,210.55,0,0,0,21.91-2.12l-.09-9.45a139.5,139.5,0,0,0-28.69-8.39Q335.48,287.09,332.66,286.72Z"/><path class="cls-6" d="M407,286.66a11.21,11.21,0,0,1,1.93,1.89c4.28,5.33,2.37,12.95,2,14.28a20.63,20.63,0,0,1-1.86,4.78c-4.51.2-9.29.26-14.3.14a208.83,208.83,0,0,1-21.95-1.7l-.09-9.45a139.9,139.9,0,0,1,28.52-8.93C403.25,287.28,405.16,287,407,286.66Z"/><rect class="cls-21" x="231.4" y="333.63" width="130.39" height="129.97" transform="translate(-3.78 2.84) rotate(-0.55)"/><line class="cls-18" x1="296.79" y1="463.6" x2="295.56" y2="333.64"/><line class="cls-18" x1="361.5" y1="390.04" x2="231.54" y2="391.27"/><circle class="cls-6" cx="295.77" cy="329.34" r="6.18"/><path class="cls-22" d="M265.55,318.05a9.4,9.4,0,0,0-1.53,1.56c-3.38,4.38-1.72,10.52-1.43,11.59a17.18,17.18,0,0,0,1.58,3.84c3.66.09,7.52.07,11.58-.11a169.66,169.66,0,0,0,17.74-1.71l-.08-7.65a112.55,112.55,0,0,0-23.22-6.79C268.62,318.49,267.07,318.25,265.55,318.05Z"/><path class="cls-22" d="M325.76,318a8.89,8.89,0,0,1,1.56,1.53c3.47,4.31,1.92,10.49,1.66,11.56a16.88,16.88,0,0,1-1.51,3.87c-3.65.16-7.52.21-11.58.11a166.75,166.75,0,0,1-17.77-1.37l-.07-7.65a113,113,0,0,1,23.09-7.24Q323.5,318.35,325.76,318Z"/><path class="cls-23" d="M116.06,500.22l-14.25.13a86.18,86.18,0,0,1-4,31.38,86.5,86.5,0,0,1-18.22,31.51l19.23-.19a142.71,142.71,0,0,0,12.52-31.45A143.42,143.42,0,0,0,116.06,500.22Z"/><path class="cls-23" d="M348.59,498l14.24-.13a86,86,0,0,0,23.39,62.45L367,560.5a142.42,142.42,0,0,1-18.4-62.5Z"/><path class="cls-24" d="M103,500.13c-10.11-.1-34.82-.27-57.75-15.94-17-11.59-25.39-26.49-29.32-33.61-28.11-51-4.18-113.3.13-124l4.11-19.44a356.06,356.06,0,0,0,76,8.71c53,.32,72.41-11.27,88.51,2.43,24,20.4.37,62.82,26,85.8,3.19,2.88,12.73,10.45,60.27,8.7,65.67-2.42,108.11-4,133.12-35.93,6.15-7.86,19.83-28.5,18-66.8,11.94,12.23,44.67,49.05,45.63,101.72.2,11.06.56,30.92-8.49,48.86C426.2,525.66,301.11,502,103,500.13Z"/><rect class="cls-23" x="51.2" y="561.41" width="440.83" height="15.67" transform="translate(-5.41 2.61) rotate(-0.55)"/><path class="cls-23" d="M70.36,563.33,51.29,579.18a68.39,68.39,0,0,1-25.87-24C11,532.13,15.85,508,17.08,502.58c.71,6.14,4.05,28.47,23.23,45.36A69.55,69.55,0,0,0,70.36,563.33Z"/><path class="cls-23" d="M469.16,559.53,492.1,575a57.45,57.45,0,0,0,18.4-11.57c2.35-2.21,11.5-11.21,16.82-29.36,12.08-41.26-6.81-91.75-6.58-91.82s17.55,53.14-8.43,86.26h0a63.47,63.47,0,0,1-43.15,31Z"/><path class="cls-25" d="M173.39,313.79q-9.81,1.29-19.92,2.32a658.2,658.2,0,0,1-126.76.5,10.34,10.34,0,0,1-10.75-7,10.13,10.13,0,0,1,2.75-10A453.39,453.39,0,0,0,90,309.6c6.82.4,10.24.6,13.53.58,19.86-.11,64-4.56,69.05-4.22a10.91,10.91,0,0,1,2.85.68c.86.35,2.61,1.07,2.87,2.11C178.83,310.72,174.06,313.7,173.39,313.79Z"/><path class="cls-25" d="M397.7,385A116.87,116.87,0,0,1,358,408.17c-11.74,4-21.17,4.94-39.11,6.79-2.39.24-4.16.39-5.63.51-19.64,1.65-36.13,1.53-46.34,1.41-46.51-.57-53.95-2.36-59.91-8.69a29,29,0,0,1-5.78-9.21c-.36-.91-.6-1.68-.73-2.12a7.08,7.08,0,0,0,4.4.45c1.15-.28,1.9-.89,2.72-.52s1,1.16,1.44,2.12a24.2,24.2,0,0,0,5,5.65c4.68,3.8,9.91,5,20,6.22A186.31,186.31,0,0,0,253,412.29c25,0,40.24-.65,40.24-.65,27.49-1.23,37.42-2.45,46.26-4a131.8,131.8,0,0,0,14.66-3.33,125.49,125.49,0,0,0,23.73-9.47c.73-.38,2.36-1.33,4.9-2.57Z"/><path class="cls-25" d="M210.56,402.46c-.42.62-2.15,3.07-4.25,2.89-1.71-.16-2.82-2-3.29-2.82-5.69-9.81-7-32-7-32-1-16.5-2.42-26.11-6.37-35.56a37.71,37.71,0,0,0-2.56-4.95c-2.05-3.38-9-14.84-19.38-15.49a15.83,15.83,0,0,0-2.13,0,9.42,9.42,0,0,0,3.59-5,4.76,4.76,0,0,1,1.32-2.86,3.89,3.89,0,0,1,2.13-.73c5.73-.3,13.62,9.84,13.62,9.84a81.54,81.54,0,0,1,7.88,11.37,66.44,66.44,0,0,1,3.71,8.46c4.12,11.8,4.13,26.79,4.59,34.14A96.86,96.86,0,0,0,210.56,402.46Z"/><path class="cls-25" d="M381.4,393l9.94-2.95a75.61,75.61,0,0,0,26.06-30.87A76.49,76.49,0,0,0,421.91,310c.09,2.35.16,5.51.09,9.25-.09,5.21-.42,9.54-.6,11.4a91.8,91.8,0,0,1-6.88,25.71C405.31,377.11,386.07,390,381.4,393Z"/><circle class="cls-26" cx="435.29" cy="354.83" r="5.7"/><path class="cls-27" d="M820.24,539.06l-18.56.2A195.93,195.93,0,0,0,806,505.7a204,204,0,0,0-1.38-32.22,219.34,219.34,0,0,0-18.39-64.21,30,30,0,0,1,40.05,3.24,449.6,449.6,0,0,0-6,126.55Z"/><path class="cls-28" d="M825.1,546.85l-28.45.15q2.85-5.47,5.69-11c2.56-.27,5.36-.45,8.36-.5,3.34,0,6.44.1,9.25.34Q822.53,541.37,825.1,546.85Z"/><path class="cls-27" d="M903.66,539.48l18.56-.2a194.66,194.66,0,0,1-5-33.46c-.83-13.36-1.34-21.73.68-32.23,5.19-27,21.3-37.81,17.66-61.07-.24-1.56-.52-2.81-.69-3.53a30,30,0,0,0-40,4.1,449.72,449.72,0,0,1,8.75,126.39Z"/><path class="cls-28" d="M899,546.13l28.45-.47-5.93-10.82c-2.57-.22-5.36-.34-8.36-.32-3.35,0-6.44.24-9.25.54Z"/><path class="cls-27" d="M752,428.83c24.26,36.15,87.35,27.51,130,21.68,32.73-4.48,41.58-11.79,46-16.55,22.91-24.54,18.2-77.18-5.86-92.88-24.31-15.86-48.1,19.21-114.6,14.92-27.11-1.76-39.73-8.66-51.5.45C739.05,369.66,736.93,406.32,752,428.83Z"/><path class="cls-29" d="M908,275.37a9.35,9.35,0,0,1-7.68-.4,8.91,8.91,0,0,1-3.72-4,86.69,86.69,0,0,0,6.71-10.88c1.18-2.27,4.09-11.26,8.69-25.77A212.36,212.36,0,0,0,920,199c.51-2.66,1.61-5,3-5.16,1.71-.22,4.13,2.75,5.13,7.76Z"/><path class="cls-29" d="M921.29,212.55c-.1-.4-.22-.81-.35-1.21-1.69-5.11-5.64-8.41-8.79-10.37-2.21-1.74-2.32-2.52-2.18-2.88.43-1.1,4.11-.65,6.22-.31a26.78,26.78,0,0,0,9.13,11.59Z"/><path class="cls-29" d="M920.3,223.08l-2.53-3.21a44.1,44.1,0,0,0,9.81-6.28,43.07,43.07,0,0,0,4.79-4.74c1.68-2.68,3.48-4.27,4.2-3.93s.57,2.75-.48,5.72Z"/><path class="cls-29" d="M919.52,231.77l-6.11,2.77a33.76,33.76,0,0,0-5.92-16.08l2.68-4.48Z"/><path class="cls-29" d="M928.86,223.22l1.37,2.83a15.69,15.69,0,0,0-8.78,3.08,14.16,14.16,0,0,0-2.44,2.36c-.6,1-1,1.53-1.3,1.46s-.43-1.56-.07-4.3Z"/><path class="cls-29" d="M932,213.63,929,213a9.41,9.41,0,0,0,2.39-6.7,9.21,9.21,0,0,0-.58-2.61c-.52-.88-.68-1.38-.46-1.5s1.51.52,3.56,2.1Z"/><path class="cls-29" d="M925.75,217.33l1.1-3a9.35,9.35,0,0,0,6.23,3.44,9.09,9.09,0,0,0,2.66-.15c1-.38,1.47-.45,1.55-.22s-.75,1.41-2.64,3.18Z"/><path class="cls-29" d="M917.88,201.75l.49,3.11a11.75,11.75,0,0,0-9.37,1.48c-1.12-.67-3.85-2.42-3.51-3.4.09-.27.48-.69,2.35-.73a12.33,12.33,0,0,0,10-.46Z"/><path class="cls-29" d="M904.93,269.77l-4.51.88c-.71-4.09-1.53-7.47-2.23-10a43.93,43.93,0,0,0-2.15-6.78c-1-1.91-2-3.32-1.56-3.85s1.76,0,2.84.52c-.52-1-.34-1.95.14-2.23a1.16,1.16,0,0,1,.92,0,41.17,41.17,0,0,0,.78,7.12A42.1,42.1,0,0,0,904.93,269.77Z"/><path class="cls-29" d="M899.3,258.56l-1.13-1.05c.24-.22,3.58-3.39,2.91-5.79a2.26,2.26,0,0,0-.31-.65q.08-.78.3-.9c.32-.18.88.62,1.66,2.42Z"/><path class="cls-29" d="M907.43,270.67l-.77-1.69c1.12-.28,2.29-.6,3.52-1,1.4-.41,2.74-.83,4-1.25,1.33.51,1.89.9,1.69,1.16s-.71.31-1.67.37c-.82.34-1.67.67-2.57,1C910.15,269.84,908.75,270.29,907.43,270.67Z"/><path class="cls-29" d="M912,268.07h1.09c-.07-.14-1.07-2.16.21-2.73a1.77,1.77,0,0,1,.42-.12c.15-.18.2-.3.13-.38s-.77-.06-1.9.28Z"/><path class="cls-30" d="M876.91,214.91a68,68,0,0,0-16.56,5.39c-1.47.67-2.83,1.4-2.83,1.4a46.93,46.93,0,0,0-11.5,8.78c-6.31,6.22-9.5,12.12-12.71,18.17-3.36,6.33-5.19,11.41-7.68,18.27-2.25,6.21-3.83,11.45-4.88,15.16,13-5.21,18.43-7.36,18.44-7.35h-.05a143.11,143.11,0,0,0,16.07-9c5.07-3.39,8.84-5.92,12.58-10.43,2.11-2.54,7.35-9.51,10.78-12,1.47-1.08,3.27-2.35,3.27-2.35,1-.72,1.84-1.3,2.76-1.95,2.64-1.84,5.51-3.4,8-5.36a19,19,0,0,0,5.53-7.36c1.35-2.74,2-4.11,1.76-5.33C898.91,216.16,886.61,213.49,876.91,214.91Z"/><path class="cls-31" d="M907,251.42c-3.62,6-6.34,15.4-2.51,17.15,4.25,1.94,19-4.37,23-14.13,2.36-5.84,2-15.73,6.66-21.41.27-.33.64-.74.46-.87C933.58,231.44,915,238.24,907,251.42Z"/><path class="cls-32" d="M907.39,251.39c-3.62,6-6.34,15.41-2.51,17.16,4.25,1.94,19-4.38,23-14.13,2.36-5.84,2-15.73,6.66-21.41.27-.33.64-.74.46-.87C934,231.41,915.38,238.22,907.39,251.39Z"/><path class="cls-27" d="M883.45,354.59l30.18,2.15c2.83-.38,8.49-2,14-9.83,10.11-14.51,11.7-30.55,11.37-50.61-.24-14.69-.48-22.77-5.51-32.31-2.53-4.78-9.28-17.56-23.58-21.18-2.19-.55-12.51-2.9-22.69,2.77-8.2,4.57-11.72,11.79-14.18,17-3.52,7.48-4.2,13.64-5,26.49-2.79,42.1.34,48.29,3,53.8C875.26,351.51,880.69,353.85,883.45,354.59Z"/><path class="cls-33" d="M935,278.51c-1.85-4-6.72-9.9-13.17-9.05-7.94,1.05-10.24,11.28-10.33,11.72-1,4.91.06,11.69,4,13.64,1.41.7,2,.2,8.61-.51,7.83-.84,8.66-.31,10-1.44C937.55,290.09,937.16,283.14,935,278.51Z"/><ellipse class="cls-6" cx="931.6" cy="287.6" rx="3.05" ry="2.74" transform="translate(-14.07 50.33) rotate(-3.07)"/><ellipse class="cls-6" cx="927.32" cy="282.2" rx="0.75" ry="0.67" transform="translate(-13.79 50.09) rotate(-3.07)"/><path class="cls-34" d="M906.6,297.87a75.5,75.5,0,0,1,19.1-2.63,59.77,59.77,0,0,1,13.24,1.25"/><path class="cls-35" d="M902.42,280.79a30.58,30.58,0,0,1,16.31-13.65,29.33,29.33,0,0,1,13.79-1.2l-3.31-9.81c-3.48.49-16.12,2.68-22.63,13.11a24.41,24.41,0,0,0-2.55,5.54Q903.22,277.8,902.42,280.79Z"/><path class="cls-36" d="M903.07,281.65A30.58,30.58,0,0,1,919.38,268a29.33,29.33,0,0,1,13.79-1.2L929.86,257c-3.49.49-16.12,2.68-22.63,13.11a24.41,24.41,0,0,0-2.55,5.54Q903.87,278.65,903.07,281.65Z"/><ellipse class="cls-27" cx="923.1" cy="332.32" rx="52.46" ry="36.8" transform="translate(-16.48 49.94) rotate(-3.07)"/><ellipse class="cls-37" cx="960.54" cy="319.61" rx="8.95" ry="15.48" transform="translate(299.94 1086.68) rotate(-67.67)"/><ellipse class="cls-38" cx="961.62" cy="319.56" rx="8.95" ry="15.48" transform="translate(300.67 1087.65) rotate(-67.67)"/><path class="cls-27" d="M875.73,266.73c4.24,5.56,7.95,14.64,4.33,16.79-4,2.38-19.39-2.32-24.36-11.59-3-5.56-3.63-15.43-8.91-20.58-.31-.3-.72-.67-.55-.82C847.13,249.71,866.38,254.48,875.73,266.73Z"/><path class="cls-30" d="M889.87,249.28c-14,4.28-15.73,5.46-18.45,4.25-7.53-3.37-5.44-17.5-5.17-19.33s1.29-8.27,6.2-13.18c6.29-6.3,14.95-6,15.86-5.9,8.4.46,13.49,5.92,15.87,8.46,1.69,1.82,9.69,10.37,7.06,16.78C909.21,245.31,904.79,244.72,889.87,249.28Z"/><ellipse class="cls-39" cx="887.5" cy="255.65" rx="10.25" ry="10.26" transform="translate(-12.42 47.92) rotate(-3.07)"/><ellipse class="cls-39" cx="897.09" cy="252.2" rx="9.87" ry="9.88" transform="translate(-12.22 48.43) rotate(-3.07)"/><ellipse class="cls-39" cx="905.47" cy="248.98" rx="9.05" ry="9.06" transform="translate(-12.04 48.87) rotate(-3.07)"/><ellipse class="cls-39" cx="913.69" cy="245.96" rx="9.55" ry="9.55" transform="translate(-11.87 49.31) rotate(-3.07)"/><ellipse class="cls-39" cx="875.91" cy="259.92" rx="11.32" ry="9.49" transform="translate(-12.67 47.31) rotate(-3.07)"/><path class="cls-29" d="M886.88,271.59a9.33,9.33,0,0,0,7.13-2.88,8.89,8.89,0,0,0,2.2-5,85.59,85.59,0,0,1-9.9-8.09c-1.85-1.75-7.55-9.3-16.64-21.51a211.85,211.85,0,0,1-19.07-30.8c-1.35-2.34-3.15-4.17-4.53-3.89-1.69.35-3,4-2.32,9Z"/><path class="cls-29" d="M853.79,216.57c0-.41-.06-.83-.07-1.26-.07-5.37,2.58-9.78,4.91-12.67,1.52-2.37,1.38-3.14,1.13-3.44-.76-.89-4.1.74-6,1.75a26.9,26.9,0,0,1-2.09,9,26.55,26.55,0,0,1-2.76,4.95Z"/><path class="cls-29" d="M856,228.08l1.34-3.87A44,44,0,0,1,846,221.49a45,45,0,0,1-6.08-2.92c-2.46-2-4.68-2.9-5.24-2.34S835,219,837,221.48Z"/><path class="cls-29" d="M870.43,246.19l6.68.63a33.66,33.66,0,0,1,.34-17.14l-4-3.36Z"/><path class="cls-29" d="M873.14,235l2.72-1.6a15.63,15.63,0,0,1-5.59-7.43,14,14,0,0,1-.71-3.32c.08-1.21,0-1.85-.28-1.94s-1.22,1.05-2.44,3.53Z"/><path class="cls-29" d="M880.36,256.84l-.25-8a98.49,98.49,0,0,1-14.67,1.51,96.64,96.64,0,0,1-14-.64c-2.19-.25-4.36-.15-4.52.46s2.53,2.08,4.94,3.13l13,1.61Z"/><path class="cls-29" d="M864.1,251l-2.8,1.44a15.72,15.72,0,0,0-3.28-8.71,14.5,14.5,0,0,0-2.41-2.38c-1.07-.58-1.57-1-1.49-1.27s1.54-.47,4.29-.17Q861.24,245.5,864.1,251Z"/><path class="cls-29" d="M861.27,249.3l.41-2.21c-.4,0-5.88.52-6.83-2.51a3.39,3.39,0,0,1-.15-1c-.39-.45-.7-.63-.9-.55-.45.16-.45,1.52,0,4.09Z"/><path class="cls-29" d="M843.62,223.63l2.73-1.58a9.37,9.37,0,0,1-4.45-5.56,9.13,9.13,0,0,1-.31-2.65c.21-1,.19-1.52-.05-1.56s-1.26,1-2.68,3.14Z"/><path class="cls-29" d="M850,225.53l-2-2.43a9.38,9.38,0,0,1-4.76,5.29,9.58,9.58,0,0,1-2.57.73c-1-.05-1.53,0-1.54.3s1.18,1.08,3.54,2.13Z"/><path class="cls-29" d="M853.48,205.25l.55,3.1a11.9,11.9,0,0,1,4.78-1.86,11.71,11.71,0,0,1,4.56.2c.84-1,2.85-3.55,2.21-4.37-.17-.22-.68-.49-2.47.09a12.38,12.38,0,0,1-9.63,2.84Z"/><path class="cls-29" d="M888,265.3l4.55-.64c-.67-4.1-1-7.56-1.17-10.21a41.55,41.55,0,0,1-.18-7.1c.27-2.12.81-3.8.21-4.16s-1.66.61-2.52,1.42c.17-1.12-.31-2-.85-2.06a1.13,1.13,0,0,0-.86.33,41.59,41.59,0,0,1,1.58,7A42.25,42.25,0,0,1,888,265.3Z"/><path class="cls-29" d="M889.61,252.87l.72-1.36c-.3-.14-4.49-2-4.64-4.52a2.59,2.59,0,0,1,.07-.72q-.32-.71-.57-.75c-.36-.07-.62.87-.77,2.83Z"/><path class="cls-29" d="M885.88,267l.18-1.84c-1.15.09-2.36.17-3.64.24-1.46.07-2.87.11-4.19.12-1.09.92-1.5,1.47-1.22,1.65s.77.06,1.7-.2c.88.06,1.8.09,2.76.11C883,267.08,884.51,267,885.88,267Z"/><path class="cls-29" d="M880.74,266l-1,.36c0-.16.3-2.4-1.09-2.52a1.77,1.77,0,0,0-.44,0c-.2-.12-.28-.23-.24-.32s.71-.31,1.89-.36Z"/><path class="cls-27" d="M780.32,547.33l-18.56.21A195.07,195.07,0,0,0,766,514a203.86,203.86,0,0,0-1.38-32.21,219.57,219.57,0,0,0-18.38-64.21,30,30,0,0,1,40,3.23,449.65,449.65,0,0,0-6,126.55Z"/><path class="cls-28" d="M785.19,555.12l-28.46.16,5.7-10.95c2.55-.27,5.35-.46,8.35-.5,3.34,0,6.44.1,9.25.34Z"/><path class="cls-27" d="M880.39,546.24l-18.56.2a159,159,0,0,0,4.31-30.25,171.18,171.18,0,0,0-1.35-29c-1.66-13.32-5.69-35.13-16.71-62.3a35,35,0,0,0,11.06,9.28c11.59,6.13,23.09,3.62,26.4,2.76a373,373,0,0,0-6.33,48.25C878.67,493.47,878.52,500.34,880.39,546.24Z"/><path class="cls-28" d="M885.26,554l-28.46.16,5.7-11c2.56-.27,5.35-.46,8.35-.5a89.55,89.55,0,0,1,9.26.34Q882.68,548.56,885.26,554Z"/><path class="cls-40" d="M951.72,362.43c0,.58-11.54,5.25-19.56-.6-7.76-5.65-7.19-17.47-6.63-17.63s1,9.88,8.31,15.22C941.48,365,951.68,361.89,951.72,362.43Z"/><ellipse class="cls-41" cx="813.41" cy="275.28" rx="5.07" ry="4.99" transform="translate(-40.22 181.85) rotate(-12.45)"/><ellipse class="cls-41" cx="807.81" cy="279.07" rx="5.07" ry="4.99" transform="translate(-41.17 180.73) rotate(-12.45)"/><ellipse class="cls-41" cx="812.05" cy="283.24" rx="5.07" ry="4.99" transform="translate(-41.97 181.74) rotate(-12.45)"/><ellipse class="cls-41" cx="817.05" cy="280.5" rx="5.07" ry="4.99" transform="translate(-41.26 182.75) rotate(-12.45)"/><path class="cls-42" d="M804.8,410.52c.22-1.61.41-3.27.58-5,.14-1.4.26-2.77.36-4.12a446.58,446.58,0,0,0,69,1.63,447.91,447.91,0,0,0,68.17-8.94c-.12,1.71-.31,3.52-.61,5.43-.32,2.12-.73,4.11-1.19,6-4.33.5-9.67,1.09-15.79,1.7-2,.2-9,.91-16.24,1.5-5.71.47-19,1.5-35,2.12C857.13,411.49,833.6,411.83,804.8,410.52Z"/><path class="cls-27" d="M1286.64,529.28l-17.83.48a188.17,188.17,0,0,0,3.6-32.32,195.8,195.8,0,0,0-1.82-30.92A210.73,210.73,0,0,0,1252,405.1a28.89,28.89,0,0,1,38.53,2.5,432.71,432.71,0,0,0-3.84,121.68Z"/><path class="cls-28" d="M1291.43,536.69l-27.33.58q2.65-5.29,5.3-10.61c2.46-.29,5.14-.51,8-.6a85,85,0,0,1,8.9.19Z"/><path class="cls-27" d="M1366.8,528.43l17.83-.48a188.26,188.26,0,0,1-5.32-32.07c-1-12.83-1.61-20.86.17-31,4.58-26,19.9-36.64,16-58.93-.26-1.5-.54-2.69-.72-3.39a28.87,28.87,0,0,0-38.33,4.55,432.36,432.36,0,0,1,10.32,121.31Z"/><path class="cls-28" d="M1362.37,534.88l27.33-.88-5.86-10.31c-2.47-.17-5.16-.24-8-.17a85.57,85.57,0,0,0-8.87.66Z"/><path class="cls-27" d="M1219.44,424.41c23.85,34.36,84.34,25.11,125.25,18.85,31.38-4.8,39.77-11.95,44-16.59,21.64-23.93,16.31-74.43-7.05-89.15-23.6-14.87-45.92,19.19-109.88,16.07-26.07-1.28-38.3-7.72-49.47,1.22C1206.06,367.76,1204.58,403,1219.44,424.41Z"/><path class="cls-29" d="M1367,274.6a9,9,0,0,1-7.38-.26,8.58,8.58,0,0,1-3.64-3.82,83.79,83.79,0,0,0,6.29-10.56c1.09-2.19,3.75-10.88,8-24.89A203.81,203.81,0,0,0,1377.3,201c.45-2.55,1.47-4.8,2.81-5,1.64-.24,4,2.58,5.05,7.38Q1376.05,239,1367,274.6Z"/><path class="cls-29" d="M1378.78,214c-.1-.38-.22-.77-.36-1.16-1.69-4.88-5.54-8-8.59-9.83-2.15-1.64-2.27-2.38-2.15-2.73.4-1.06,4-.68,6-.39a25.49,25.49,0,0,0,8.95,11Z"/><path class="cls-29" d="M1378,224.18l-2.48-3.05a42.47,42.47,0,0,0,9.33-6.19,41.35,41.35,0,0,0,4.53-4.62c1.58-2.6,3.28-4.16,4-3.84s.6,2.63-.37,5.5Z"/><path class="cls-29" d="M1377.37,232.53l-5.83,2.76a32.32,32.32,0,0,0-5.93-15.36l2.5-4.35Z"/><path class="cls-29" d="M1386.21,224.18l1.37,2.7a15.06,15.06,0,0,0-8.4,3.09,13.85,13.85,0,0,0-2.3,2.3c-.56,1-1,1.49-1.23,1.42s-.44-1.48-.13-4.12Z"/><path class="cls-29" d="M1389.12,214.92l-3-.53a9,9,0,0,0,2.2-6.48,8.91,8.91,0,0,0-.59-2.5c-.52-.83-.68-1.31-.47-1.43s1.46.48,3.45,2Z"/><path class="cls-29" d="M1383.14,218.57l1-2.86a8.91,8.91,0,0,0,6,3.21,8.75,8.75,0,0,0,2.57-.18c.9-.37,1.4-.45,1.48-.23s-.7,1.36-2.49,3.09Z"/><path class="cls-29" d="M1375.34,203.72l.52,3a11.34,11.34,0,0,0-9,1.56c-1.09-.63-3.74-2.26-3.43-3.22.08-.26.45-.67,2.25-.73a11.79,11.79,0,0,0,4.56.74A11.91,11.91,0,0,0,1375.34,203.72Z"/><path class="cls-29" d="M1363.93,269.27l-4.32.91c-.75-3.92-1.59-7.16-2.3-9.6a40.57,40.57,0,0,0-2.17-6.48c-.94-1.82-2-3.17-1.55-3.68s1.7,0,2.74.45c-.52-1-.36-1.86.1-2.14a1.08,1.08,0,0,1,.88,0,39.44,39.44,0,0,0,.86,6.82A40.81,40.81,0,0,0,1363.93,269.27Z"/><path class="cls-29" d="M1358.35,258.58l-1.1-1c.23-.22,3.39-3.31,2.71-5.6a2,2,0,0,0-.31-.63c0-.49.13-.78.28-.87s.84.59,1.62,2.31Q1360,255.7,1358.35,258.58Z"/><path class="cls-29" d="M1366.34,270.09l-.76-1.6c1.07-.29,2.19-.62,3.36-1,1.35-.42,2.63-.84,3.83-1.26,1.29.47,1.83.83,1.64,1.08s-.67.31-1.6.38c-.78.34-1.59.68-2.45,1C1369,269.25,1367.61,269.71,1366.34,270.09Z"/><path class="cls-29" d="M1370.67,267.53l1,0c-.08-.13-1.06-2.06.15-2.63a1.83,1.83,0,0,1,.41-.12q.21-.25.12-.36c-.14-.15-.75,0-1.83.29Z"/><path class="cls-30" d="M1334.16,217.09a65.52,65.52,0,0,0-15.83,5.43c-1.41.67-2.7,1.39-2.71,1.4a45.25,45.25,0,0,0-10.91,8.61c-6,6.06-8.94,11.79-11.93,17.64a125.86,125.86,0,0,0-7.11,17.67c-2.06,6-3.51,11.07-4.46,14.65,12.44-5.21,17.6-7.36,17.61-7.35l0,0a143.09,143.09,0,0,0,15.3-8.86c4.82-3.33,8.4-5.82,11.93-10.21,2-2.48,6.91-9.25,10.17-11.72,1.4-1.06,3.1-2.32,3.1-2.32l2.63-1.9c2.5-1.81,5.24-3.35,7.64-5.27a18.59,18.59,0,0,0,5.2-7.16c1.25-2.65,1.87-4,1.61-5.15C1355.32,218,1343.46,215.59,1334.16,217.09Z"/><path class="cls-31" d="M1365.61,251.6c-3.39,5.81-5.86,14.9-2.15,16.52,4.11,1.8,18.22-4.49,21.86-13.92,2.18-5.65,1.65-15.14,6.08-20.67.25-.32.6-.73.43-.85C1390.88,232,1373.08,238.82,1365.61,251.6Z"/><path class="cls-43" d="M1366,251.57c-3.39,5.81-5.86,14.9-2.15,16.53,4.1,1.8,18.22-4.5,21.86-13.93,2.18-5.65,1.65-15.14,6.07-20.67.26-.32.61-.72.43-.85C1391.28,232,1373.49,238.79,1366,251.57Z"/><path class="cls-27" d="M1344.58,351.09l29,1.6c2.72-.4,8.14-2,13.29-9.65,9.49-14.1,10.77-29.53,10.15-48.8-.46-14.11-.81-21.87-5.79-31-2.5-4.56-9.17-16.73-23-20-2.1-.5-12.06-2.6-21.75,3-7.81,4.52-11.09,11.51-13.37,16.56-3.26,7.24-3.82,13.17-4.45,25.53-2,40.49,1.06,46.39,3.75,51.64C1336.66,348.25,1341.92,350.41,1344.58,351.09Z"/><path class="cls-33" d="M1392.85,275.83c-2-4.1-7.13-10.17-13.82-9.17-8.22,1.22-10.44,11.87-10.53,12.33-1,5.11.26,12.13,4.34,14.09,1.48.71,2.14.18,8.93-.66,8.12-1,9-.48,10.41-1.67C1395.68,287.81,1395.17,280.6,1392.85,275.83Z"/><ellipse class="cls-6" cx="1389.16" cy="285.47" rx="3.56" ry="3.2" transform="translate(-16.45 97) rotate(-3.98)"/><ellipse class="cls-6" cx="1385.63" cy="280.87" rx="0.72" ry="0.65" transform="translate(-16.14 96.75) rotate(-3.98)"/><path class="cls-34" d="M1366,296.23a73.61,73.61,0,0,1,18.31-2.81,57.35,57.35,0,0,1,12.74,1"/><path class="cls-35" d="M1359.53,276.42a29.43,29.43,0,0,1,16.82-11.61,28.4,28.4,0,0,1,13.31.08c-.77-3.23-1.53-6.45-2.3-9.68-3.37.16-15.66,1.13-22.82,10.53a23.57,23.57,0,0,0-2.93,5.08C1360.92,272.69,1360.23,274.55,1359.53,276.42Z"/><path class="cls-36" d="M1360.08,277.3a29.44,29.44,0,0,1,16.82-11.61,28.36,28.36,0,0,1,13.3.08c-.76-3.23-1.53-6.45-2.29-9.68-3.38.16-15.66,1.13-22.82,10.53a23.22,23.22,0,0,0-2.94,5.08Z"/><ellipse class="cls-27" cx="1382.34" cy="329.09" rx="50.41" ry="35.36" transform="translate(-19.49 96.63) rotate(-3.98)"/><ellipse class="cls-44" cx="1417.34" cy="313.59" rx="8.85" ry="15.31" transform="translate(607.67 1518.43) rotate(-68.57)"/><ellipse class="cls-45" cx="1418.42" cy="313.52" rx="8.85" ry="15.31" transform="translate(608.42 1519.38) rotate(-68.57)"/><path class="cls-31" d="M1335.83,266.79c4.16,5.28,7.86,13.94,4.41,16.06-3.82,2.36-18.66-1.93-23.57-10.76-3-5.3-3.73-14.77-8.88-19.64-.3-.28-.7-.63-.54-.78C1308.09,250.87,1326.66,255.16,1335.83,266.79Z"/><path class="cls-30" d="M1347.88,251.78c-14.65,4.64-16.47,5.87-19.32,4.73-7.92-3.16-5.81-17.33-5.53-19.16a23.65,23.65,0,0,1,6.42-13.33c6.56-6.45,15.64-6.34,16.6-6.31,8.8.24,14.17,5.55,16.68,8,1.79,1.77,10.22,10.1,7.5,16.57C1368.13,247.3,1363.49,246.83,1347.88,251.78Z"/><circle class="cls-39" cx="1343.78" cy="256.03" r="10"/><ellipse class="cls-39" cx="1352.58" cy="252.3" rx="10.08" ry="10.09" transform="translate(-14.24 94.39) rotate(-3.98)"/><ellipse class="cls-39" cx="1362.51" cy="248.39" rx="9.08" ry="9.69" transform="matrix(1, -0.07, 0.07, 1, -13.94, 95.06)"/><ellipse class="cls-39" cx="1372.06" cy="244.73" rx="8.6" ry="9.43" transform="translate(-13.67 95.72) rotate(-3.98)"/><ellipse class="cls-39" cx="1333.44" cy="259.7" rx="9.69" ry="9.65" transform="matrix(1, -0.07, 0.07, 1, -14.8, 93.08)"/><path class="cls-29" d="M1346.62,271.29a9,9,0,0,0,6.8-2.87,8.56,8.56,0,0,0,2-4.87,83.09,83.09,0,0,1-9.64-7.62c-1.8-1.66-7.39-8.83-16.31-20.42a203.75,203.75,0,0,1-18.79-29.3c-1.33-2.23-3.09-4-4.41-3.67-1.62.36-2.83,3.84-2.09,8.69Z"/><path class="cls-29" d="M1314,218.93a11.87,11.87,0,0,1-.09-1.21c-.15-5.16,2.33-9.44,4.53-12.25,1.42-2.3,1.27-3,1-3.32-.75-.85-3.93.77-5.72,1.77a25.64,25.64,0,0,1-4.44,13.46Z"/><path class="cls-29" d="M1316.25,230l1.23-3.73a42.69,42.69,0,0,1-10.92-2.45,41.82,41.82,0,0,1-5.88-2.71c-2.4-1.86-4.55-2.72-5.08-2.17s.38,2.67,2.31,5Z"/><path class="cls-29" d="M1330.42,247.13l6.43.5a32.23,32.23,0,0,1,.07-16.47L1333,228Z"/><path class="cls-29" d="M1332.86,236.32l2.59-1.57a15,15,0,0,1-5.49-7.06,14,14,0,0,1-.73-3.18q.09-1.74-.3-1.86-.59-.17-2.29,3.43Q1329.75,231.21,1332.86,236.32Z"/><path class="cls-29" d="M1340.12,257.22l-.35-7.7a94,94,0,0,1-27.51,1.28c-2.11-.22-4.19-.08-4.34.51s2.47,1.95,4.8,2.93l12.53,1.35Z"/><path class="cls-29" d="M1324.41,251.89l-2.67,1.42a15,15,0,0,0-3.27-8.31,13.92,13.92,0,0,0-2.36-2.25c-1-.54-1.52-.94-1.45-1.2s1.47-.47,4.12-.23Z"/><path class="cls-29" d="M1321.67,250.26l.36-2.13c-.38.05-5.64.59-6.6-2.31a2.77,2.77,0,0,1-.15-.92c-.39-.42-.69-.59-.88-.52-.43.17-.41,1.48,0,3.94Z"/><path class="cls-29" d="M1304.32,225.86l2.6-1.56a9,9,0,0,1-4.36-5.26,8.88,8.88,0,0,1-.34-2.55c.19-1,.16-1.47-.07-1.5s-1.2,1-2.52,3.06Z"/><path class="cls-29" d="M1310.52,227.6l-2-2.31a9,9,0,0,1-4.5,5.15,9.21,9.21,0,0,1-2.46.74c-1,0-1.47.08-1.47.31s1.14,1,3.43,2Z"/><path class="cls-29" d="M1313.52,208.06l.57,3a11.33,11.33,0,0,1,9-1.74c.79-1,2.68-3.45,2.06-4.23-.17-.22-.66-.47-2.37.12a11.84,11.84,0,0,1-9.21,2.88Z"/><path class="cls-29" d="M1347.54,265.23l4.37-.69c-.7-3.92-1.07-7.25-1.28-9.79a40.84,40.84,0,0,1-.28-6.82c.23-2,.72-3.66.14-4s-1.58.6-2.4,1.4c.15-1.08-.33-1.88-.85-2a1.1,1.1,0,0,0-.82.33,39.89,39.89,0,0,1,1.12,21.53Z"/><path class="cls-29" d="M1349,253.26l.68-1.32c-.29-.12-4.35-1.88-4.53-4.27a2.09,2.09,0,0,1,.06-.69q-.32-.67-.57-.72c-.35-.06-.58.85-.7,2.74Z"/><path class="cls-29" d="M1345.59,266.86l.14-1.77c-1.1.11-2.27.21-3.49.29-1.41.09-2.76.15-4,.18-1,.9-1.42,1.43-1.15,1.6s.75,0,1.64-.21c.84,0,1.73.06,2.65.06C1342.85,267,1344.27,267,1345.59,266.86Z"/><path class="cls-29" d="M1340.63,266l-1,.36c0-.16.25-2.31-1.09-2.4a1.59,1.59,0,0,0-.42,0c-.19-.11-.28-.21-.24-.3s.68-.31,1.81-.37Z"/><path class="cls-27" d="M1248.41,537.84l-17.83.48a186.31,186.31,0,0,0,3.6-32.32,196,196,0,0,0-1.82-30.93,210.6,210.6,0,0,0-18.63-61.41,28.85,28.85,0,0,1,38.52,2.5,432.71,432.71,0,0,0-3.84,121.68Z"/><path class="cls-28" d="M1253.21,545.25l-27.34.58,5.31-10.61c2.45-.29,5.13-.52,8-.6a84.83,84.83,0,0,1,8.9.19Z"/><path class="cls-27" d="M1344.55,535.27l-17.83.48a154,154,0,0,0,3.68-29.14,165.52,165.52,0,0,0-1.74-27.87c-1.8-12.78-6-33.67-17-59.61a33.5,33.5,0,0,0,10.77,8.74c11.23,5.72,22.23,3.13,25.41,2.26a356,356,0,0,0-5.36,46.45C1342.09,484.6,1342.05,491.19,1344.55,535.27Z"/><path class="cls-28" d="M1349.34,542.68l-27.34.58,5.31-10.6c2.45-.3,5.13-.52,8-.61a87.64,87.64,0,0,1,8.9.19Z"/><path class="cls-40" d="M1411.74,356.8c0,.15-9.59,4.89-18.85,1-9-3.76-12.48-13.52-12.36-13.6s3.69,9.18,12.54,12.9C1402.22,361,1411.71,356.65,1411.74,356.8Z"/><ellipse class="cls-41" cx="1276.08" cy="275.94" rx="4.87" ry="4.8" transform="translate(-29.23 302.22) rotate(-13.36)"/><ellipse class="cls-41" cx="1270.76" cy="279.67" rx="4.87" ry="4.8" transform="translate(-30.24 301.09) rotate(-13.36)"/><ellipse class="cls-41" cx="1274.9" cy="283.62" rx="4.87" ry="4.8" transform="translate(-31.03 302.15) rotate(-13.36)"/><ellipse class="cls-41" cx="1279.66" cy="280.91" rx="4.87" ry="4.8" transform="translate(-30.28 303.18) rotate(-13.36)"/><path class="cls-40" d="M1381.65,343a2.06,2.06,0,0,1-.92,1.62,2.48,2.48,0,0,1-2.39-.32,3.28,3.28,0,0,0,2.07,0C1381.3,343.85,1381.58,342.9,1381.65,343Z"/><path class="cls-42" d="M1271.67,413a28.37,28.37,0,0,0,.4-3.47,29.62,29.62,0,0,0-.19-5.48,308.23,308.23,0,0,0,130-9.82c-.25,2.17-.61,4.5-1.12,7-.44,2.1-.93,4-1.45,5.87A516.63,516.63,0,0,1,1337,414,516.49,516.49,0,0,1,1271.67,413Z"/><circle class="cls-46" cx="435.63" cy="354.46" r="3.2"/><circle class="cls-46" cx="762.38" cy="392.16" r="2.49"/><path class="cls-47" d="M1230.06,342.64a40,40,0,0,1-10.4-5.53,45.77,45.77,0,0,1-12.33-12.85,52.6,52.6,0,0,0,9.72,10.36A62.43,62.43,0,0,0,1230.06,342.64Z"/><path class="cls-48" d="M686.46,557.28l-22.56.53A237.12,237.12,0,0,0,668.58,517a248.16,248.16,0,0,0-2.18-39.13c-2.35-17.42-8-45.09-23.33-77.75a36.52,36.52,0,0,1,48.72,3.31,546.12,546.12,0,0,0-5.33,153.9Z"/><path class="cls-28" d="M692.49,566.67l-34.58.63,6.75-13.4c3.11-.37,6.5-.64,10.15-.73a109.45,109.45,0,0,1,11.25.27Z"/><path class="cls-48" d="M787.85,556.51l22.56-.53a236.63,236.63,0,0,1-6.6-40.59c-1.21-16.23-2-26.39.32-39.19,5.9-32.86,25.32-46.27,20.53-74.48-.32-1.9-.67-3.41-.89-4.29a36.5,36.5,0,0,0-48.5,5.61,547.43,547.43,0,0,1,12.58,153.47Z"/><path class="cls-28" d="M782.23,564.65l34.57-1-7.38-13.06c-3.12-.22-6.52-.33-10.17-.26a112.29,112.29,0,0,0-11.23.81Z"/><path class="cls-48" d="M601.87,424.37c30,43.55,106.58,32.09,158.35,24.34,39.71-5.95,50.35-15,55.67-20.82,27.47-30.18,20.92-94.08-8.56-112.79-29.79-18.9-58.16,24.09-139,19.89-33-1.71-48.42-9.91-62.58,1.35C585.17,352.66,583.16,397.24,601.87,424.37Z"/><path class="cls-29" d="M789.05,235.45a11.39,11.39,0,0,1-9.34-.36,10.85,10.85,0,0,1-4.59-4.84,106.53,106.53,0,0,0,8-13.33c1.39-2.77,4.79-13.75,10.16-31.45a257.94,257.94,0,0,0,9.13-43.08c.58-3.23,1.88-6.06,3.57-6.31,2.08-.3,5.07,3.27,6.36,9.35Q800.7,190.45,789.05,235.45Z"/><path class="cls-29" d="M804.23,158.91c-.12-.49-.27-1-.44-1.47-2.13-6.18-7-10.13-10.84-12.47-2.71-2.08-2.86-3-2.7-3.47.51-1.34,5-.84,7.56-.46A32.58,32.58,0,0,0,809.09,155Z"/><path class="cls-29" d="M803.2,171.72l-3.13-3.87a53.76,53.76,0,0,0,11.83-7.78,54.8,54.8,0,0,0,5.75-5.83c2-3.28,4.15-5.25,5-4.84s.75,3.33-.49,7Z"/><path class="cls-29" d="M802.38,182.29,795,185.76a40.73,40.73,0,0,0-7.45-19.46l3.19-5.49Z"/><path class="cls-29" d="M813.6,171.75l1.71,3.43a19,19,0,0,0-10.63,3.87,17.8,17.8,0,0,0-2.92,2.9q-1.07,1.94-1.56,1.8-.75-.21-.15-5.22Z"/><path class="cls-29" d="M817.31,160.06l-3.76-.69A10.87,10.87,0,0,0,815.61,148c-.65-1.06-.85-1.66-.59-1.81s1.85.61,4.36,2.5Z"/><path class="cls-29" d="M809.73,164.65,811,161a10.86,10.86,0,0,0,10.87,3.87c1.15-.48,1.78-.57,1.88-.29s-.9,1.72-3.16,3.89Z"/><path class="cls-29" d="M799.92,145.83l.65,3.78a14.25,14.25,0,0,0-11.37,1.94c-1.37-.8-4.71-2.88-4.32-4.09.11-.32.58-.84,2.85-.91a15.05,15.05,0,0,0,12.19-.72Z"/><path class="cls-29" d="M785.24,228.7l-5.47,1.13c-.93-5-2-9.05-2.87-12.15-1.28-4.43-1.91-6.64-2.72-8.2-1.19-2.31-2.49-4-1.95-4.66s2.14,0,3.46.58c-.65-1.21-.45-2.36.13-2.7a1.35,1.35,0,0,1,1.12,0,50.07,50.07,0,0,0,1.06,8.64A51.46,51.46,0,0,0,785.24,228.7Z"/><path class="cls-29" d="M778.22,215.17l-1.39-1.27c.29-.27,4.3-4.17,3.45-7.07a2.91,2.91,0,0,0-.38-.8c.05-.62.16-1,.34-1.09.39-.23,1.07.74,2,2.92Z"/><path class="cls-29" d="M788.28,229.75l-1-2c1.36-.36,2.78-.77,4.26-1.22,1.71-.52,3.33-1.06,4.85-1.59,1.63.6,2.31,1.06,2.07,1.38s-.85.39-2,.48c-1,.42-2,.84-3.1,1.26Q790.69,229,788.28,229.75Z"/><path class="cls-29" d="M793.77,226.52h1.32c-.09-.17-1.33-2.62.21-3.32a1.71,1.71,0,0,1,.51-.15c.18-.22.24-.38.16-.46s-1-.07-2.32.36Z"/><path class="cls-30" d="M747.76,163.81s-8.42,1.34-20,6.81c-1.78.84-3.42,1.75-3.42,1.75a57.08,57.08,0,0,0-13.83,10.85c-7.58,7.65-11.37,14.88-15.17,22.27-4,7.75-6.14,13.95-9,22.33-2.64,7.57-4.49,14-5.7,18.5,15.74-6.53,22.29-9.24,22.29-9.22l-.05,0A178.29,178.29,0,0,0,722.17,226c6.1-4.2,10.65-7.33,15.13-12.87,2.52-3.13,8.78-11.68,12.91-14.79,1.77-1.33,3.94-2.91,3.94-2.91,1.2-.88,2.21-1.61,3.33-2.41,3.17-2.27,6.64-4.21,9.67-6.63a23.46,23.46,0,0,0,6.61-9c1.59-3.35,2.39-5,2.06-6.51C774.52,165,759.52,162,747.76,163.81Z"/><path class="cls-31" d="M787.43,206.36c-4.31,7.33-7.47,18.82-2.78,20.89,5.18,2.3,23.06-5.61,27.7-17.53,2.78-7.13,2.15-19.14,7.76-26.12.33-.41.78-.91.56-1.07C819.47,181.67,796.93,190.23,787.43,206.36Z"/><path class="cls-49" d="M788,206.33c-4.32,7.32-7.48,18.82-2.79,20.89,5.19,2.29,23.06-5.62,27.7-17.53,2.79-7.14,2.15-19.15,7.77-26.12.33-.41.77-.92.55-1.07C820,181.63,797.45,190.19,788,206.33Z"/><path class="cls-48" d="M760.44,332.11l36.71,2.15c3.43-.5,10.29-2.52,16.83-12.16,12.06-17.79,13.75-37.31,13-61.69-.52-17.84-.93-27.67-7.19-39.17-3.15-5.78-11.55-21.2-29-25.38-2.66-.64-15.25-3.34-27.53,3.71-9.89,5.68-14.06,14.52-17,20.9-4.16,9.14-4.89,16.63-5.73,32.27-2.74,51.2,1.16,58.68,4.54,65.33C750.44,328.5,757.07,331.25,760.44,332.11Z"/><path class="cls-33" d="M821.61,238c-2.29-5.3-8.45-13.25-17-12.37-10.46,1.08-13.86,14.41-14,15-1.53,6.41-.35,15.35,4.7,18,1.83,1,2.69.35,11.32-.33,10.32-.81,11.38-.09,13.24-1.52C824.51,253.29,824.26,244.15,821.61,238Z"/><ellipse class="cls-6" cx="816.97" cy="251.24" rx="4.5" ry="4.05" transform="translate(-6 20.41) rotate(-1.43)"/><ellipse class="cls-6" cx="811.34" cy="245.45" rx="0.91" ry="0.82" transform="translate(-5.86 20.27) rotate(-1.43)"/><path class="cls-34" d="M787.7,262.82a92.22,92.22,0,0,1,23.17-3.49A73,73,0,0,1,827,260.65"/><path class="cls-35" d="M778,232.26a37.19,37.19,0,0,1,24.26-8.91,35.63,35.63,0,0,1,16.28,4.29l.24-12.58c-4.18-.87-19.53-3.56-31.27,5.69a29.47,29.47,0,0,0-5.2,5.3Z"/><path class="cls-36" d="M778.39,233.51a37.22,37.22,0,0,1,24.26-8.91,35.67,35.67,0,0,1,16.28,4.29l.24-12.58c-4.19-.87-19.54-3.56-31.27,5.69a29.47,29.47,0,0,0-5.2,5.3Z"/><ellipse class="cls-48" cx="808.28" cy="304.43" rx="63.76" ry="44.73" transform="translate(-18.39 54.21) rotate(-3.8)"/><ellipse class="cls-50" cx="850.49" cy="284.95" rx="13.24" ry="22.9" transform="translate(272.41 970.78) rotate(-68.4)"/><ellipse class="cls-51" cx="852.1" cy="284.85" rx="13.24" ry="22.9" transform="translate(273.53 972.21) rotate(-68.4)"/><path class="cls-48" d="M749.7,225.45c5.24,6.7,9.89,17.67,5.52,20.34-4.84,3-23.6-2.51-29.78-13.71-3.7-6.71-4.66-18.7-11.15-24.87-.37-.36-.88-.8-.68-1C714.68,205.21,738.15,210.72,749.7,225.45Z"/><path class="cls-30" d="M767.78,205.05c-16.1,5.17-18.09,6.56-21.24,5.18-8.76-3.83-6.59-20.34-6.3-22.48s1.34-9.66,6.93-15.45c7.17-7.42,17.17-7.13,18.23-7.08,9.7.44,15.68,6.74,18.47,9.68,2,2.09,11.38,12,8.45,19.48C790.06,200.18,784.93,199.54,767.78,205.05Z"/><circle class="cls-39" cx="762.49" cy="209.42" r="10.46"/><circle class="cls-39" cx="773.38" cy="206.62" r="9.82"/><ellipse class="cls-39" cx="784.34" cy="202.48" rx="10.36" ry="9.73" transform="translate(-11.69 52.4) rotate(-3.8)"/><circle class="cls-39" cx="792.49" cy="199.12" r="9.5"/><ellipse class="cls-39" cx="747.38" cy="214.86" rx="11.45" ry="11.17" transform="matrix(1, -0.07, 0.07, 1, -12.59, 49.98)"/><path class="cls-29" d="M763.33,231.19a11.35,11.35,0,0,0,8.61-3.61,10.79,10.79,0,0,0,2.6-6.14,106.4,106.4,0,0,1-12.16-9.68c-2.27-2.11-9.31-11.2-20.55-25.89a257.51,257.51,0,0,1-23.65-37.14c-1.68-2.82-3.9-5-5.56-4.66-2,.45-3.6,4.84-2.68,11Z"/><path class="cls-29" d="M722.26,164.84c0-.5-.09-1-.1-1.54-.17-6.53,3-11.93,5.77-15.47,1.81-2.9,1.63-3.84,1.32-4.2-.94-1.08-5,1-7.24,2.22a33,33,0,0,1-2.4,11,32.3,32.3,0,0,1-3.28,6.06Z"/><path class="cls-29" d="M725.08,178.78l1.57-4.72a53.34,53.34,0,0,1-21.23-6.58c-3-2.37-5.74-3.46-6.42-2.76s.47,3.37,2.91,6.34Z"/><path class="cls-29" d="M742.94,200.57l8.13.66a40.84,40.84,0,0,1-1.25-11.51,40.2,40.2,0,0,1,1.4-9.32l-4.91-4Z"/><path class="cls-29" d="M746.07,186.9l3.28-2a19,19,0,0,1-6.92-8.95,17.13,17.13,0,0,1-.91-4c.08-1.47,0-2.25-.37-2.35-.49-.15-1.47,1.3-2.91,4.33Z"/><path class="cls-29" d="M755.17,213.36l-.42-9.73a118.49,118.49,0,0,1-34.8,1.51c-2.66-.28-5.3-.12-5.49.62-.21.89,3.11,2.49,6.06,3.73l15.84,1.76Z"/><path class="cls-29" d="M735.32,206.56l-3.38,1.8a19,19,0,0,0-4.12-10.54,17,17,0,0,0-3-2.85c-1.3-.69-1.91-1.19-1.83-1.52q.19-.76,5.22-.27Z"/><path class="cls-29" d="M731.85,204.5l.47-2.7c-.48.06-7.13.72-8.34-3a3.91,3.91,0,0,1-.19-1.16q-.74-.8-1.11-.66-.81.32.06,5Z"/><path class="cls-29" d="M710,173.57l3.29-2a11.4,11.4,0,0,1-5.5-6.68,11.56,11.56,0,0,1-.41-3.22c.24-1.22.21-1.85-.09-1.9s-1.51,1.22-3.2,3.87Z"/><path class="cls-29" d="M717.85,175.78l-2.47-2.93a11.39,11.39,0,0,1-5.71,6.5,11,11,0,0,1-3.11.93q-1.86-.06-1.86.39c0,.46,1.44,1.3,4.33,2.54Z"/><path class="cls-29" d="M721.71,151.08l.72,3.76a14.39,14.39,0,0,1,5.78-2.34,14.23,14.23,0,0,1,5.54.18c1-1.24,3.41-4.36,2.62-5.35-.21-.27-.84-.59-3,.14a15,15,0,0,1-11.67,3.61Z"/><path class="cls-29" d="M764.52,223.53l5.53-.86c-.87-5-1.33-9.17-1.58-12.38-.36-4.59-.54-6.89-.33-8.63.3-2.58.92-4.63.2-5s-2,.76-3,1.76c.18-1.36-.41-2.37-1.08-2.49a1.36,1.36,0,0,0-1,.41,50.62,50.62,0,0,1,1.33,27.24Z"/><path class="cls-29" d="M766.35,208.4l.86-1.67c-.37-.16-5.49-2.4-5.71-5.42a2.73,2.73,0,0,1,.08-.88c-.27-.57-.51-.87-.71-.9q-.66-.12-.9,3.45Z"/><path class="cls-29" d="M762,225.59l.19-2.25c-1.4.14-2.87.26-4.42.35-1.78.12-3.48.18-5.1.22-1.31,1.13-1.79,1.8-1.45,2s.94.07,2.07-.27c1.07.06,2.19.09,3.35.09C758.58,225.76,760.38,225.7,762,225.59Z"/><path class="cls-29" d="M755.77,224.49l-1.24.45c0-.2.33-2.92-1.36-3a2.14,2.14,0,0,0-.54,0c-.24-.14-.34-.27-.3-.38s.86-.39,2.3-.47Z"/><path class="cls-52" d="M623.61,341.08c-.94,1-4.91-2.95-14.77-5.46-3-.76-6.37-1.34-19.66-1.68-14.53-.36-24.14,0-24.28-1.18s9.16-2.16,8.7-4.44c-.58-2.81-15-5.61-15.15-7.44s14.3.69,15.68-3.53c1.22-3.76-8.89-10.16-7.57-11.87,1.69-2.2,18.62,7.66,22.26,4.7,2.82-2.3-5.43-11.82-4.46-12.64C586.51,295.72,626.64,337.79,623.61,341.08Z"/><path class="cls-48" d="M623.67,339.89c-.94,1-4.9-2.95-14.76-5.46-3-.77-6.37-1.35-19.66-1.68-14.53-.37-24.15,0-24.28-1.19s9.16-2.15,8.69-4.44c-.57-2.81-15-5.6-15.14-7.43s14.3.69,15.67-3.53c1.23-3.77-8.88-10.16-7.56-11.88,1.69-2.19,18.62,7.67,22.25,4.71,2.83-2.31-5.42-11.82-4.45-12.65C586.57,294.53,626.71,336.59,623.67,339.89Z"/><path class="cls-48" d="M638.07,568l-22.55.53a237,237,0,0,0,4.67-40.85A249,249,0,0,0,618,488.5c-2.35-17.42-8-45.1-23.34-77.75a36.52,36.52,0,0,1,48.72,3.31A547.07,547.07,0,0,0,638.07,568Z"/><path class="cls-28" d="M644.1,577.34l-34.58.63,6.76-13.39c3.1-.37,6.49-.64,10.14-.74a112.28,112.28,0,0,1,11.25.27Q640.9,570.72,644.1,577.34Z"/><path class="cls-48" d="M759.67,565.08l-22.55.53a193.75,193.75,0,0,0,4.77-36.84,208.56,208.56,0,0,0-2.08-35.26c-2.23-16.17-7.46-42.61-21.28-75.47a42.42,42.42,0,0,0,13.59,11.11c14.18,7.28,28.11,4.05,32.13,3a450.88,450.88,0,0,0-7,58.73C756.77,501,756.69,509.32,759.67,565.08Z"/><path class="cls-28" d="M765.71,574.47l-34.58.63,6.75-13.4c3.1-.36,6.5-.63,10.14-.73a112.49,112.49,0,0,1,11.26.27Q762.49,567.86,765.71,574.47Z"/><path class="cls-40" d="M844.55,340c0,.64-11.75,4.2-24.39.39-13.89-4.2-22.1-15.29-21.69-15.8s8.17,8.56,22.45,13C834,341.7,844.53,339.42,844.55,340Z"/><ellipse class="cls-41" cx="676.85" cy="244.91" rx="4.05" ry="3.99" transform="translate(-38.01 160.75) rotate(-13.18)"/><ellipse class="cls-41" cx="672.42" cy="248" rx="4.05" ry="3.99" transform="translate(-38.83 159.82) rotate(-13.18)"/><ellipse class="cls-41" cx="675.85" cy="251.29" rx="4.05" ry="3.99" transform="translate(-39.49 160.69) rotate(-13.18)"/><ellipse class="cls-41" cx="679.82" cy="249.05" rx="4.05" ry="3.99" transform="translate(-38.88 161.53) rotate(-13.18)"/><path class="cls-47" d="M770.29,341.71A39.92,39.92,0,0,1,760,336a45.78,45.78,0,0,1-12.09-13.08,52.56,52.56,0,0,0,9.53,10.55A62.53,62.53,0,0,0,770.29,341.71Z"/><path class="cls-53" d="M713.69,454.69c-1.09.12-2.19.22-3.31.31-1.49.13-2.94.23-4.36.31q-1.14-60.76-2.29-121.54c1.43-.18,2.89-.38,4.37-.6s2.88-.45,4.27-.69Z"/><path class="cls-53" d="M705.38,399.11q-.17-6-.32-12a205.21,205.21,0,0,0,127.52,1.17q-.3,2.49-.81,5.24c-.36,1.95-.77,3.78-1.21,5.48a302.31,302.31,0,0,1-125.18.13Z"/><circle class="cls-46" cx="710.84" cy="395.33" r="2.49"/><path class="cls-16" d="M635.74,405.94c-42.7,1.83-91.86-2.7-142.07-20.93a344.35,344.35,0,0,1-57.34-27.08.79.79,0,0,1-.26-1.13.91.91,0,0,1,1.21-.25,341.42,341.42,0,0,0,57,26.93c82.86,30.1,162.9,22.65,215.46,11.11a.86.86,0,0,1,1,.61.81.81,0,0,1-.65,1A434.38,434.38,0,0,1,635.74,405.94Z"/><path class="cls-54" d="M1151.68,553.91l-22,.94a230.88,230.88,0,0,0,3.8-39.89,241.24,241.24,0,0,0-2.85-38.08c-2.61-16.94-8.64-43.79-24.18-75.32a35.56,35.56,0,0,1,47.53,2.32,532.72,532.72,0,0,0-2.33,150Z"/><path class="cls-28" d="M1157.73,563l-33.68,1.26,6.33-13.18c3-.42,6.32-.74,9.87-.9,4-.18,7.63-.13,11,0Z"/><path class="cls-54" d="M1250.45,551.28l22-.94a230.6,230.6,0,0,1-7.18-39.42c-1.48-15.78-2.41-25.67-.41-38.18,5.13-32.13,23.8-45.55,18.62-73-.35-1.83-.72-3.3-1-4.15a35.57,35.57,0,0,0-47.16,6.36,533.08,533.08,0,0,1,15.12,149.29Z"/><path class="cls-28" d="M1245.12,559.32l33.67-1.62-7.44-12.59c-3-.16-6.36-.2-9.91-.06a109,109,0,0,0-10.92,1Z"/><path class="cls-54" d="M1066.79,426c30.08,41.87,104.44,29.28,154.73,20.76,38.58-6.53,48.78-15.52,53.86-21.32,26.2-29.91,18.63-92-10.44-109.72-29.37-17.86-56.22,24.55-135.1,22-32.16-1.05-47.35-8.75-60.95,2.48C1049.19,356.44,1048.06,399.92,1066.79,426Z"/><path class="cls-29" d="M1245.64,238.46a11.1,11.1,0,0,1-9.1-.18,10.62,10.62,0,0,1-4.56-4.63,102.28,102.28,0,0,0,7.54-13.14c1.31-2.72,4.42-13.48,9.32-30.83a251.33,251.33,0,0,0,8.09-42.14c.51-3.16,1.72-5.95,3.37-6.21,2-.33,5,3.09,6.37,9Z"/><path class="cls-29" d="M1259,163.6c-.14-.47-.29-.95-.46-1.43-2.19-6-7-9.74-10.79-11.94-2.68-2-2.85-2.9-2.7-3.33.47-1.32,4.85-.92,7.36-.59a31.46,31.46,0,0,0,11.25,13.37Q1261.34,161.63,1259,163.6Z"/><path class="cls-29" d="M1258.25,176.1l-3.12-3.71A52,52,0,0,0,1272,158.8c1.89-3.24,4-5.19,4.82-4.81s.78,3.23-.36,6.79Z"/><path class="cls-29" d="M1257.65,186.41l-7.13,3.52a39.94,39.94,0,0,0-7.61-18.82l3-5.4Z"/><path class="cls-29" d="M1268.38,175.94l1.73,3.3a18.55,18.55,0,0,0-10.28,4,17.33,17.33,0,0,0-2.79,2.89c-.67,1.26-1.17,1.86-1.49,1.77-.49-.12-.57-1.82-.25-5.08Z"/><path class="cls-29" d="M1271.78,164.47l-3.68-.6a10.57,10.57,0,0,0,1.8-11.09c-.65-1-.86-1.6-.61-1.75s1.81.56,4.29,2.35Z"/><path class="cls-29" d="M1264.48,169.09l1.18-3.54a11.16,11.16,0,0,0,7.51,3.84,10.78,10.78,0,0,0,3.15-.28c1.11-.48,1.72-.59,1.83-.31s-.84,1.69-3,3.85Z"/><path class="cls-29" d="M1254.58,150.94l.7,3.66a14.21,14.21,0,0,0-6.08,0,14,14,0,0,0-5,2.15c-1.35-.76-4.65-2.72-4.29-3.9.1-.32.54-.84,2.76-.95a14.6,14.6,0,0,0,11.87-.92Z"/><path class="cls-29" d="M1241.81,231.94l-5.31,1.21c-1-4.81-2.1-8.78-3-11.78-1.33-4.29-2-6.43-2.8-7.94-1.2-2.23-2.5-3.86-2-4.5s2.09,0,3.38.5c-.65-1.17-.48-2.3.08-2.64a1.38,1.38,0,0,1,1.09,0,48.56,48.56,0,0,0,1.2,8.4A49.79,49.79,0,0,0,1241.81,231.94Z"/><path class="cls-29" d="M1234.72,218.89l-1.38-1.2c.28-.27,4.12-4.15,3.23-7a2.66,2.66,0,0,0-.39-.77c0-.61.15-1,.32-1.07.37-.23,1.06.71,2,2.8Z"/><path class="cls-29" d="M1244.8,232.92l-1-2c1.31-.38,2.69-.8,4.13-1.27,1.65-.54,3.22-1.08,4.69-1.63,1.6.55,2.28,1,2,1.31s-.82.39-2,.5c-1,.43-2,.86-3,1.28C1248,231.83,1246.34,232.42,1244.8,232.92Z"/><path class="cls-29" d="M1250.08,229.67l1.29,0c-.1-.17-1.35-2.52.14-3.24a2.27,2.27,0,0,1,.5-.16c.17-.21.22-.36.14-.45s-.92,0-2.25.4Z"/><path class="cls-30" d="M1205.79,166.68s-8.18,1.46-19.4,7c-1.72.85-3.3,1.77-3.31,1.77a55.73,55.73,0,0,0-13.27,10.83c-7.24,7.59-10.8,14.7-14.36,22-3.74,7.62-5.73,13.7-8.41,21.92-2.43,7.43-4.11,13.7-5.21,18.13,15.22-6.66,21.55-9.41,21.55-9.4l-.05,0A172.22,172.22,0,0,0,1182,227.73c5.87-4.21,10.25-7.35,14.5-12.82,2.4-3.1,8.34-11.54,12.31-14.65,1.7-1.33,3.78-2.91,3.78-2.91l3.2-2.41c3-2.27,6.39-4.23,9.3-6.64a22.66,22.66,0,0,0,6.27-8.92c1.49-3.3,2.24-4.94,1.89-6.38C1231.88,167.34,1217.22,164.65,1205.79,166.68Z"/><path class="cls-31" d="M1243.53,210.14c-4.06,7.22-6.93,18.48-2.33,20.41,5.1,2.14,22.37-5.9,26.67-17.59,2.58-7,1.74-18.7,7.08-25.6.31-.4.73-.9.52-1.05C1274.28,185.49,1252.49,194.25,1243.53,210.14Z"/><path class="cls-55" d="M1244,210.1c-4.07,7.22-6.93,18.48-2.33,20.41,5.1,2.13,22.37-5.9,26.67-17.6,2.58-7,1.74-18.69,7.08-25.59.31-.4.73-.91.52-1C1274.78,185.45,1253,194.2,1244,210.1Z"/><path class="cls-56" d="M1219.57,333.16l35.8,1.41c3.34-.55,10-2.64,16.18-12.16,11.42-17.55,12.7-36.6,11.55-60.34-.84-17.38-1.42-26.94-7.74-38-3.17-5.57-11.64-20.44-28.71-24.18-2.61-.57-14.92-3-26.75,4.12-9.54,5.72-13.44,14.41-16.15,20.68-3.88,9-4.46,16.3-5,31.55-1.73,49.93,2.22,57.15,5.63,63.57C1209.76,329.83,1216.27,332.39,1219.57,333.16Z"/><path class="cls-33" d="M1277.58,239.47c-2.53-5-9-12.39-17.22-11-10.11,1.67-12.63,14.84-12.73,15.42-1.12,6.31.56,14.94,5.63,17.27,1.84.84,2.64.17,11-1,10-1.39,11.06-.75,12.79-2.25C1281.3,254.18,1280.53,245.3,1277.58,239.47Z"/><ellipse class="cls-6" cx="1273.22" cy="251.42" rx="4.38" ry="3.95" transform="translate(-16.8 109.48) rotate(-4.89)"/><ellipse class="cls-6" cx="1268.78" cy="245.82" rx="0.88" ry="0.8" transform="translate(-16.34 109.08) rotate(-4.89)"/><path class="cls-34" d="M1244.84,265.14a90.59,90.59,0,0,1,22.51-3.83,71.78,71.78,0,0,1,15.72,1"/><path class="cls-35" d="M1234.86,237a36.28,36.28,0,0,1,22.61-11.11,35,35,0,0,1,16.21,2.51l-1-12.22c-4.14-.42-19.29-1.46-29.73,8.7a28.81,28.81,0,0,0-4.49,5.66Q1236.63,233.77,1234.86,237Z"/><path class="cls-36" d="M1235.36,238.17a36.27,36.27,0,0,1,22.61-11.1,35,35,0,0,1,16.21,2.5l-1-12.21c-4.14-.42-19.29-1.47-29.72,8.69a28.87,28.87,0,0,0-4.5,5.66C1237.73,233.87,1236.54,236,1235.36,238.17Z"/><ellipse class="cls-48" cx="1265.67" cy="305.31" rx="62.13" ry="43.59" transform="translate(-21.42 109.03) rotate(-4.89)"/><ellipse class="cls-57" cx="1306.43" cy="285.54" rx="12.91" ry="22.32" transform="translate(581.24 1409.11) rotate(-69.49)"/><ellipse class="cls-58" cx="1307.99" cy="285.41" rx="12.91" ry="22.32" transform="translate(582.38 1410.49) rotate(-69.49)"/><path class="cls-54" d="M1207.12,229.45c5.24,6.42,10,17,5.76,19.71-4.66,3-23-2-29.27-12.81-3.73-6.46-4.89-18.13-11.32-24-.38-.34-.88-.76-.69-1C1172.63,210.37,1195.59,215.3,1207.12,229.45Z"/><path class="cls-30" d="M1221.23,208.9c-9,5.09-14.72,7.31-20.88,6.37a5.73,5.73,0,0,1-1.49-.44c-9.36-4-7.46-21.75-7.21-24.06s1.2-10.41,7-16.72c7.21-7.88,17.39-7.93,19.13-7.92a25.61,25.61,0,0,1,12,3.05c2,1.11,4.42,2.86,7.82,7,7.26,8.92,13.09,21.83,10.36,23.93-.86.66-1.93-.22-4.14-.7C1238.09,198.19,1234.24,201.57,1221.23,208.9Z"/><ellipse class="cls-39" cx="1214.18" cy="211.26" rx="11.31" ry="11.9" transform="translate(-13.59 104.3) rotate(-4.89)"/><circle class="cls-39" cx="1228.57" cy="208.09" r="10.73"/><ellipse class="cls-39" cx="1241.74" cy="206.3" rx="11.17" ry="10.55" transform="translate(-13.07 106.63) rotate(-4.89)"/><ellipse class="cls-39" cx="1252.45" cy="205.15" rx="10.4" ry="10.4" transform="translate(-12.93 107.54) rotate(-4.89)"/><ellipse class="cls-39" cx="1200.09" cy="215.65" rx="10.9" ry="11" transform="translate(-14.02 103.11) rotate(-4.89)"/><path class="cls-29" d="M1220.51,234.78a11,11,0,0,0,8.32-3.67,10.5,10.5,0,0,0,2.42-6,102.62,102.62,0,0,1-12-9.2c-2.25-2-9.27-10.74-20.5-24.84A252.52,252.52,0,0,1,1175,155.28c-1.68-2.72-3.88-4.82-5.5-4.43-2,.47-3.42,4.78-2.41,10.75Q1193.8,198.19,1220.51,234.78Z"/><path class="cls-29" d="M1179.26,170.9q-.09-.74-.12-1.5c-.3-6.36,2.68-11.67,5.33-15.18,1.71-2.86,1.51-3.77,1.21-4.11-.94-1-4.83,1-7,2.29a31.9,31.9,0,0,1-2.13,10.72,31.24,31.24,0,0,1-3.08,6Z"/><path class="cls-29" d="M1182.27,184.43l1.44-4.62A52.28,52.28,0,0,1,1170.2,177a50.48,50.48,0,0,1-7.3-3.22c-3-2.25-5.65-3.26-6.3-2.57s.52,3.28,3,6.13Z"/><path class="cls-29" d="M1200.07,205.33l7.94.49a40.21,40.21,0,0,1-1.44-11.19,39.79,39.79,0,0,1,1.19-9.11l-4.85-3.83Z"/><path class="cls-29" d="M1202.87,192l3.15-2a18.52,18.52,0,0,1-6.9-8.59,17.45,17.45,0,0,1-1-3.9q.09-2.15-.39-2.28-.73-.19-2.76,4.27Q1198.93,185.71,1202.87,192Z"/><path class="cls-29" d="M1212.23,217.57l-.59-9.48a117,117,0,0,1-17.31,2.34,114.29,114.29,0,0,1-16.57-.23c-2.6-.22-5.17,0-5.33.72s3.07,2.36,6,3.52c5.16.46,10.31.94,15.47,1.41Z"/><path class="cls-29" d="M1192.76,211.31l-3.26,1.81a18.6,18.6,0,0,0-4.2-10.19,16.84,16.84,0,0,0-3-2.72c-1.29-.65-1.89-1.13-1.81-1.45q.17-.73,5.07-.36Q1189.2,204.85,1192.76,211.31Z"/><path class="cls-29" d="M1189.34,209.36l.41-2.63c-.47.06-6.93.83-8.18-2.72a4.06,4.06,0,0,1-.21-1.13c-.48-.51-.85-.72-1.09-.62-.52.21-.47,1.82.15,4.85Z"/><path class="cls-29" d="M1167.49,179.63l3.17-2a10.61,10.61,0,0,1-6-9.54c.21-1.19.18-1.81-.11-1.85s-1.46,1.21-3,3.82Z"/><path class="cls-29" d="M1175.17,181.64l-2.46-2.8a11.15,11.15,0,0,1-5.44,6.44,11.29,11.29,0,0,1-3,1c-1.21,0-1.81.12-1.8.41q0,.66,4.26,2.4Z"/><path class="cls-29" d="M1178.47,157.51l.77,3.65a13.88,13.88,0,0,1,11-2.32c1-1.23,3.23-4.31,2.45-5.26-.22-.26-.83-.56-2.92.2a14.75,14.75,0,0,1-4.88,2.93A14.93,14.93,0,0,1,1178.47,157.51Z"/><path class="cls-29" d="M1221.53,227.3l5.37-.94c-.94-4.82-1.46-8.91-1.77-12-.43-4.47-.65-6.7-.48-8.4.24-2.52.81-4.53.09-4.92s-1.94.77-2.92,1.77c.15-1.33-.45-2.3-1.1-2.41a1.34,1.34,0,0,0-1,.43,48.85,48.85,0,0,1,2.14,8.2A50,50,0,0,1,1221.53,227.3Z"/><path class="cls-29" d="M1223,212.52l.81-1.64c-.37-.15-5.4-2.24-5.67-5.18a2.8,2.8,0,0,1,.06-.85c-.27-.55-.51-.84-.71-.87-.43-.07-.7,1.06-.81,3.38Z"/><path class="cls-29" d="M1219.15,229.35l.14-2.19c-1.36.16-2.79.3-4.3.42-1.73.14-3.39.24-5,.31-1.25,1.12-1.71,1.79-1.38,2s.92.05,2-.3c1,0,2.14,0,3.27,0C1215.78,229.58,1217.53,229.49,1219.15,229.35Z"/><path class="cls-29" d="M1213,228.39l-1.2.46c0-.19.27-2.84-1.38-2.93a1.66,1.66,0,0,0-.52.05c-.24-.14-.35-.26-.3-.37s.82-.39,2.22-.5Z"/><path class="cls-59" d="M1085.87,345.33c-1,.9-4.45-3.36-13.75-6.79-2.84-1.05-6-2-18.88-3.63-14-1.84-23.4-2.48-23.42-3.63s9.1-1.15,8.88-3.41c-.27-2.78-13.94-7-13.92-8.75s13.79,2.12,15.55-1.82c1.58-3.53-7.58-10.75-6.12-12.28,1.86-2,17.27,9.32,21.09,6.82,3-1.94-4-12-3-12.7C1054.53,297.59,1089.14,342.45,1085.87,345.33Z"/><path class="cls-54" d="M1086.05,344.18c-1,.9-4.45-3.36-13.75-6.79-2.83-1.05-6-2-18.88-3.63-14.05-1.84-23.4-2.48-23.41-3.63s9.1-1.15,8.88-3.41c-.27-2.78-14-7-13.92-8.75s13.79,2.12,15.55-1.82c1.57-3.53-7.58-10.75-6.12-12.28,1.86-2,17.26,9.32,21.09,6.82,3-1.94-4.06-12-3-12.7C1054.72,296.44,1089.33,341.3,1086.05,344.18Z"/><path class="cls-54" d="M1104.73,565.21l-22,.94a231.88,231.88,0,0,0,3.8-39.89,243.92,243.92,0,0,0-2.85-38.08,260,260,0,0,0-24.18-75.32,35.58,35.58,0,0,1,47.52,2.32,533.72,533.72,0,0,0-2.33,150Z"/><path class="cls-28" d="M1110.79,574.25l-33.68,1.26,6.33-13.18c3-.42,6.32-.74,9.87-.9,4-.18,7.63-.13,11,.05Z"/><path class="cls-54" d="M1223.16,560.16l-22,.93a189.55,189.55,0,0,0,4-36,203.91,203.91,0,0,0-2.69-34.31c-2.47-15.72-8.06-41.38-22.14-73.13a41.66,41.66,0,0,0,13.46,10.57c14,6.82,27.46,3.41,31.35,2.28a438.7,438.7,0,0,0-5.68,57.35C1219.14,497.75,1219.22,505.88,1223.16,560.16Z"/><path class="cls-28" d="M1229.21,569.19l-33.68,1.26,6.33-13.18c3-.41,6.32-.74,9.87-.9,4-.18,7.63-.13,11,0Z"/><path class="cls-40" d="M1306.24,336.58c.11.71-11.14,5.72-23.16,2.45-10.91-3-17.78-11.47-17.36-12s6.81,6,18.15,9C1296.37,339.26,1306.14,335.92,1306.24,336.58Z"/><ellipse class="cls-41" cx="1138.7" cy="247.3" rx="3.43" ry="3.38" transform="translate(-25.82 288.33) rotate(-14.27)"/><ellipse class="cls-41" cx="1134.99" cy="249.98" rx="3.43" ry="3.38" transform="translate(-26.6 287.5) rotate(-14.27)"/><ellipse class="cls-41" cx="1137.95" cy="252.71" rx="3.43" ry="3.38" transform="translate(-27.18 288.31) rotate(-14.27)"/><ellipse class="cls-41" cx="1141.27" cy="250.75" rx="3.43" ry="3.38" transform="translate(-26.59 289.07) rotate(-14.27)"/><path class="cls-53" d="M1160,454.88l-7.89.38q-2.46-58.86-4.91-117.74c1.44-.08,2.91-.17,4.4-.29s2.89-.23,4.29-.36Z"/><path class="cls-53" d="M1150,384.79c-.14-3.39-.29-6.78-.43-10.17a187.07,187.07,0,0,0,141.78,6.63c-.07,1.3-.16,2.65-.29,4-.22,2.38-.52,4.62-.87,6.73A222.59,222.59,0,0,1,1150,384.79Z"/><circle class="cls-46" cx="1153.69" cy="380.24" r="2.49"/><path class="cls-59" d="M1516.48,318.43c-.78.91-4.2-2.5-12.6-4.54-2.56-.62-5.43-1.07-16.7-1.14-12.32-.08-20.47.39-20.6-.64s7.73-2,7.3-4c-.53-2.46-12.79-4.67-13-6.27s12.13.37,13.23-3.35c1-3.32-7.7-8.76-6.6-10.29,1.39-1.95,15.91,6.41,18.94,3.75,2.36-2.06-4.79-10.27-4-11C1484.3,279.29,1519,315.49,1516.48,318.43Z"/><path class="cls-54" d="M1516.52,317.38c-.78.92-4.21-2.5-12.61-4.54-2.55-.62-5.42-1.07-16.69-1.14-12.33-.08-20.47.39-20.6-.63s7.73-2.05,7.29-4c-.53-2.45-12.79-4.66-13-6.26s12.13.36,13.23-3.36c1-3.32-7.7-8.76-6.61-10.28,1.4-1.95,15.91,6.41,19,3.75,2.35-2.07-4.8-10.27-4-11C1484.33,278.24,1519,314.44,1516.52,317.38Z"/><path class="cls-54" d="M1573.26,506.87l-19.11.85a214.76,214.76,0,0,0,3.3-35.89,224.11,224.11,0,0,0-2.47-34.26,239.84,239.84,0,0,0-21-67.76,30.87,30.87,0,0,1,20-7.19,31.33,31.33,0,0,1,21.35,9.27,495.82,495.82,0,0,0-2,135Z"/><path class="cls-28" d="M1578.53,515l-29.31,1.12q2.76-5.93,5.51-11.85c2.63-.37,5.5-.67,8.59-.81a91.05,91.05,0,0,1,9.54,0Z"/><path class="cls-54" d="M1659.21,504.51l19.11-.85a214.52,214.52,0,0,1-6.25-35.46c-1.29-14.2-2.09-23.1-.35-34.36,4.46-28.9,20.71-41,16.2-65.63-.31-1.65-.63-3-.83-3.74a30.77,30.77,0,0,0-20.53-5.4,31.54,31.54,0,0,0-20.5,11.13,495.11,495.11,0,0,1,13.15,134.31Z"/><path class="cls-28" d="M1654.57,511.74l29.3-1.46L1677.4,499c-2.65-.15-5.53-.18-8.62-.06a91.52,91.52,0,0,0-9.51.89Q1656.93,505.78,1654.57,511.74Z"/><path class="cls-54" d="M1499.4,391.79c26.17,37.68,90.88,26.35,134.64,18.69,33.57-5.88,42.44-14,46.86-19.18,22.8-26.91,16.22-82.81-9.08-98.72-25.56-16.07-48.92,22.09-117.56,19.76-28-.95-41.2-7.87-53,2.23C1484.09,329.22,1483.1,368.33,1499.4,391.79Z"/><path class="cls-29" d="M1655,223.08a8.91,8.91,0,0,1-11.89-4.33,94,94,0,0,0,6.56-11.82c1.14-2.45,3.84-12.13,8.11-27.74a231.58,231.58,0,0,0,7-37.91c.44-2.84,1.5-5.35,2.93-5.59,1.76-.29,4.35,2.78,5.54,8.09Q1664.19,183.43,1655,223.08Z"/><path class="cls-29" d="M1666.67,155.73c-.12-.43-.25-.85-.4-1.28-1.91-5.38-6.08-8.76-9.39-10.75-2.33-1.78-2.48-2.6-2.35-3,.41-1.19,4.22-.83,6.4-.54a28.71,28.71,0,0,0,5.32,8.15,27.28,27.28,0,0,0,4.47,3.88Z"/><path class="cls-29" d="M1666,167l-2.72-3.34A45.48,45.48,0,0,0,1678,151.41c1.64-2.91,3.44-4.67,4.19-4.32s.69,2.9-.3,6.1Z"/><path class="cls-29" d="M1665.47,176.25l-6.2,3.17a36.57,36.57,0,0,0-6.62-16.93l2.61-4.86Z"/><path class="cls-29" d="M1674.81,166.83l1.51,3a15.84,15.84,0,0,0-9,3.57,15.53,15.53,0,0,0-2.43,2.6c-.58,1.14-1,1.67-1.29,1.6-.43-.12-.5-1.64-.21-4.57Z"/><path class="cls-29" d="M1677.77,156.52l-3.2-.54a10.22,10.22,0,0,0,2.24-7.22,10.06,10.06,0,0,0-.67-2.76c-.57-.92-.75-1.44-.53-1.58s1.57.5,3.73,2.12Q1678.56,151.52,1677.77,156.52Z"/><path class="cls-29" d="M1671.42,160.67l1-3.18a9.58,9.58,0,0,0,6.53,3.45,9.44,9.44,0,0,0,2.74-.25c1-.43,1.5-.53,1.59-.29s-.73,1.53-2.62,3.47Z"/><path class="cls-29" d="M1662.8,144.34l.61,3.3a11.7,11.7,0,0,0-5.28,0,12,12,0,0,0-4.32,1.93c-1.18-.68-4-2.45-3.74-3.51.09-.29.48-.75,2.41-.85a12.37,12.37,0,0,0,10.32-.83Z"/><path class="cls-29" d="M1651.69,217.22l-4.62,1.08c-.86-4.32-1.82-7.9-2.63-10.6a46.52,46.52,0,0,0-2.43-7.14c-1-2-2.18-3.48-1.74-4.05s1.83,0,3,.45c-.57-1.05-.42-2.06.07-2.37a1.13,1.13,0,0,1,1,0,45.48,45.48,0,0,0,7.45,22.63Z"/><path class="cls-29" d="M1645.52,205.47l-1.2-1.08c.25-.24,3.58-3.73,2.81-6.26a2.41,2.41,0,0,0-.33-.69c0-.55.12-.87.27-1,.33-.2.92.64,1.79,2.53Z"/><path class="cls-29" d="M1654.29,218.09l-.85-1.77c1.15-.34,2.34-.71,3.6-1.14,1.43-.48,2.8-1,4.08-1.47,1.39.5,2,.89,1.78,1.18s-.72.36-1.71.45c-.83.39-1.7.77-2.62,1.15C1657.07,217.12,1655.64,217.64,1654.29,218.09Z"/><path class="cls-29" d="M1658.89,215.17l1.12,0c-.08-.15-1.17-2.28.12-2.92a1.52,1.52,0,0,1,.44-.14c.15-.2.19-.33.12-.41s-.8,0-2,.36Z"/><path class="cls-30" d="M1619.53,159.48a68.63,68.63,0,0,0-16.88,6.3c-1.5.77-2.87,1.59-2.87,1.59a49,49,0,0,0-11.56,9.75c-6.29,6.83-9.39,13.23-12.49,19.77-3.26,6.86-5,12.33-7.32,19.72-2.11,6.69-3.57,12.33-4.53,16.31,13.24-6,18.75-8.46,18.75-8.45l0,0a151.74,151.74,0,0,0,16.26-10.09c5.1-3.79,8.91-6.61,12.61-11.54,2.09-2.78,7.26-10.38,10.71-13.18,1.48-1.19,3.29-2.61,3.29-2.61,1-.79,1.85-1.45,2.79-2.17,2.65-2,5.56-3.8,8.09-6a20.5,20.5,0,0,0,5.45-8c1.3-3,2-4.45,1.64-5.74C1642.24,160.07,1629.48,157.65,1619.53,159.48Z"/><path class="cls-31" d="M1653.19,197.6c-3.54,6.5-6,16.62-2,18.36,4.43,1.92,19.46-5.31,23.2-15.83,2.24-6.3,1.51-16.82,6.16-23,.27-.36.64-.82.45-1C1680,175.42,1661,183.3,1653.19,197.6Z"/><path class="cls-55" d="M1653.63,197.56c-3.54,6.5-6,16.63-2,18.36,4.44,1.93,19.46-5.3,23.21-15.82,2.24-6.31,1.51-16.82,6.15-23,.28-.36.64-.81.45-.95C1680.38,175.38,1661.42,183.26,1653.63,197.56Z"/><path class="cls-54" d="M1632.34,308.28l31.15,1.27c2.91-.5,8.69-2.39,14.08-10.95,9.94-15.79,11-32.93,10-54.28-.73-15.64-1.24-24.24-6.73-34.22-2.76-5-10.13-18.39-25-21.76-2.27-.51-13-2.67-23.28,3.71-8.29,5.15-11.69,13-14,18.6-3.37,8.08-3.87,14.67-4.33,28.39-1.5,44.92,1.93,51.41,4.9,57.19C1623.8,305.28,1629.47,307.58,1632.34,308.28Z"/><path class="cls-33" d="M1682.82,224c-2.21-4.51-7.83-11.14-15-9.92-8.8,1.5-11,13.35-11.08,13.86-1,5.69.48,13.45,4.9,15.54,1.6.76,2.29.16,9.56-.89,8.69-1.26,9.62-.68,11.13-2C1686.06,237.22,1685.38,229.23,1682.82,224Z"/><ellipse class="cls-6" cx="1679.02" cy="234.74" rx="3.82" ry="3.55" transform="translate(-16.15 210.27) rotate(-7.13)"/><ellipse class="cls-6" cx="1675.16" cy="229.7" rx="0.77" ry="0.72" transform="translate(-15.56 209.75) rotate(-7.13)"/><path class="cls-34" d="M1654.33,247.08a76.27,76.27,0,0,1,19.59-3.44,59.75,59.75,0,0,1,13.68.89"/><path class="cls-35" d="M1646.15,223.84c1.76-2.21,8.11-9.67,18.88-11.52a29.48,29.48,0,0,1,14.23,1.13q-.85-5.44-1.72-10.88c-3.62-.09-16.84,0-25.21,9.85a26.23,26.23,0,0,0-3.53,5.39Q1647.48,220.83,1646.15,223.84Z"/><path class="cls-36" d="M1646.67,224.86c1.76-2.22,8.1-9.67,18.88-11.52a29.49,29.49,0,0,1,14.23,1.13q-.87-5.44-1.73-10.89c-3.62-.09-16.83,0-25.21,9.86a26,26,0,0,0-3.52,5.38C1648.44,220.84,1647.55,222.85,1646.67,224.86Z"/><ellipse class="cls-54" cx="1672.45" cy="283.22" rx="54.08" ry="39.2" transform="translate(-19.27 159.12) rotate(-5.42)"/><ellipse class="cls-60" cx="1709.51" cy="265.27" rx="11.22" ry="18.93" transform="translate(827.72 1753.64) rotate(-68.18)"/><path class="cls-54" d="M1621.51,215c4.55,5.78,8.67,15.32,5,17.73-4,2.68-20-1.81-25.47-11.52-3.24-5.81-4.25-16.31-9.85-21.61-.33-.31-.76-.69-.6-.85C1591.5,197.81,1611.48,202.24,1621.51,215Z"/><path class="cls-30" d="M1633.61,194.84c-15.25,5.18-17.14,6.5-20.12,5.4-8.27-3-6.15-17.66-5.87-19.56a24.76,24.76,0,0,1,6.61-13.88c6.81-6.83,16.28-7,17.28-7,9.18,0,14.81,5.32,17.44,7.8,1.87,1.76,10.71,10.1,7.92,16.83C1654.7,189.67,1649.86,189.31,1633.61,194.84Z"/><ellipse class="cls-39" cx="1630.36" cy="200.28" rx="10.04" ry="10.39" transform="translate(-0.32 2.62) rotate(-0.09)"/><ellipse class="cls-39" cx="1640.52" cy="196.9" rx="9.99" ry="10.34" transform="translate(-0.31 2.64) rotate(-0.09)"/><ellipse class="cls-39" cx="1650.9" cy="193.43" rx="9.67" ry="10" transform="translate(-0.31 2.66) rotate(-0.09)"/><ellipse class="cls-39" cx="1661.09" cy="188.8" rx="9.02" ry="9.33" transform="translate(-0.3 2.67) rotate(-0.09)"/><ellipse class="cls-39" cx="1616.23" cy="204.66" rx="9.84" ry="10.18" transform="translate(-0.33 2.6) rotate(-0.09)"/><path class="cls-29" d="M1633.16,219.77a9.44,9.44,0,0,0,7.24-3.31,9.73,9.73,0,0,0,2.11-5.43,88.22,88.22,0,0,1-10.47-8.28c-2-1.81-8.07-9.65-17.84-22.35a226.86,226.86,0,0,1-20.65-32.15c-1.47-2.45-3.39-4.34-4.8-4-1.73.43-3,4.3-2.09,9.67Z"/><path class="cls-29" d="M1597.27,162.3c-.06-.44-.09-.89-.11-1.35-.26-5.72,2.33-10.5,4.64-13.66,1.49-2.57,1.32-3.39,1-3.69-.82-.94-4.2.92-6.11,2.06a29.66,29.66,0,0,1-1.85,9.64,28.68,28.68,0,0,1-2.68,5.36Z"/><path class="cls-29" d="M1599.88,174.47l1.26-4.16a43.86,43.86,0,0,1-11.75-2.52,43.31,43.31,0,0,1-6.36-2.9c-2.6-2-4.92-2.93-5.48-2.31s.45,2.95,2.56,5.51Z"/><path class="cls-29" d="M1615.38,193.27l6.9.44a36.94,36.94,0,0,1-.21-18.26l-4.23-3.44Z"/><path class="cls-29" d="M1617.81,181.24l2.74-1.79a16.62,16.62,0,0,1-6-7.73,15.13,15.13,0,0,1-.84-3.51c0-1.29-.07-2-.35-2.05s-1.22,1.16-2.4,3.84Z"/><path class="cls-29" d="M1626,204.28l-.51-8.53a96.88,96.88,0,0,1-29.48,1.91c-2.26-.2-4.5,0-4.64.64s2.68,2.12,5.2,3.16l13.45,1.28Z"/><path class="cls-29" d="M1609,198.65l-2.84,1.63a17.1,17.1,0,0,0-3.66-9.17,15.6,15.6,0,0,0-2.57-2.45c-1.11-.58-1.64-1-1.57-1.3.1-.44,1.57-.55,4.41-.32Z"/><path class="cls-29" d="M1606,196.9l.35-2.37c-.4.05-6,.75-7.12-2.45a3.6,3.6,0,0,1-.17-1c-.43-.46-.75-.65-1-.56-.45.19-.4,1.64.13,4.36Z"/><path class="cls-29" d="M1587,170.15l2.75-1.77a9.94,9.94,0,0,1-4.77-5.77,10.12,10.12,0,0,1-.4-2.81c.18-1.08.15-1.63-.1-1.67s-1.27,1.09-2.66,3.44Z"/><path class="cls-29" d="M1593.7,172l-2.14-2.52a9.94,9.94,0,0,1-4.73,5.79,9.69,9.69,0,0,1-2.62.87c-1.06,0-1.58.11-1.58.37s1.25,1.12,3.72,2.15Z"/><path class="cls-29" d="M1596.58,150.25l.67,3.28a11.87,11.87,0,0,1,9.57-2.09c.82-1.09,2.81-3.87,2.13-4.72-.19-.24-.72-.51-2.54.17a12.66,12.66,0,0,1-4.24,2.64A12.47,12.47,0,0,1,1596.58,150.25Z"/><path class="cls-29" d="M1634.05,213l4.67-.85c-.82-4.33-1.27-8-1.54-10.83a45.92,45.92,0,0,1-.42-7.56c.21-2.26.71-4.07.08-4.43s-1.69.7-2.54,1.6c.13-1.2-.39-2.07-1-2.16a1.15,1.15,0,0,0-.87.37,44.68,44.68,0,0,1,1.86,7.39A46.69,46.69,0,0,1,1634.05,213Z"/><path class="cls-29" d="M1635.35,199.74l.7-1.48c-.31-.13-4.69-2-4.93-4.65a2.29,2.29,0,0,1,.06-.77c-.24-.49-.45-.76-.62-.78-.38-.06-.61.95-.7,3Z"/><path class="cls-29" d="M1632,214.88l.12-2c-1.18.14-2.43.27-3.74.38-1.51.13-2.95.22-4.32.28-1.09,1-1.49,1.61-1.2,1.79s.8,0,1.75-.27c.91,0,1.86,0,2.84,0C1629.05,215.09,1630.57,215,1632,214.88Z"/><path class="cls-29" d="M1626.64,214l-1,.42c0-.18.23-2.57-1.2-2.65a2.07,2.07,0,0,0-.46.05c-.21-.12-.3-.23-.26-.33s.72-.35,1.94-.45Z"/><path class="cls-54" d="M1532.42,517l-19.12.85a214.75,214.75,0,0,0,3.31-35.89,226,226,0,0,0-2.48-34.26,239.46,239.46,0,0,0-21-67.77,30.94,30.94,0,0,1,20-7.19,31.31,31.31,0,0,1,21.34,9.28,495.3,495.3,0,0,0-2,135Z"/><path class="cls-28" d="M1537.68,525.17l-29.3,1.13q2.74-5.92,5.51-11.85c2.62-.38,5.49-.67,8.58-.82a94.07,94.07,0,0,1,9.55,0Z"/><path class="cls-54" d="M1635.46,512.49l-19.11.84A175.66,175.66,0,0,0,1619.8,481a189,189,0,0,0-2.34-30.88c-2.15-14.14-7-37.22-19.26-65.79a36.48,36.48,0,0,0,11.7,9.51c12.14,6.14,23.9,3.07,27.29,2.05a409.22,409.22,0,0,0-5,51.6C1632,456.35,1632,463.66,1635.46,512.49Z"/><path class="cls-28" d="M1640.73,520.62l-29.31,1.13,5.51-11.85c2.63-.38,5.5-.67,8.59-.82a93.87,93.87,0,0,1,9.54.05Z"/><path class="cls-40" d="M1702.91,314.33c0,.27-11,5.29-20.16,0-9-5.17-10.81-17.08-10.56-17.2s2.46,11,11.28,16S1702.88,314.06,1702.91,314.33Z"/><ellipse class="cls-41" cx="1561.19" cy="232.1" rx="2.98" ry="2.91" transform="translate(1071.23 1732.47) rotate(-80.37)"/><ellipse class="cls-41" cx="1558.03" cy="234.46" rx="2.98" ry="2.91" transform="translate(1066.27 1731.33) rotate(-80.37)"/><ellipse class="cls-41" cx="1560.55" cy="236.87" rx="2.98" ry="2.91" transform="translate(1066 1735.81) rotate(-80.37)"/><ellipse class="cls-41" cx="1563.38" cy="235.14" rx="2.98" ry="2.91" transform="translate(1070.06 1737.17) rotate(-80.37)"/><path class="cls-53" d="M1571.21,418.12a37.76,37.76,0,0,1-4.09.12,37.32,37.32,0,0,1-4.23-.33q-2.91-52.79-5.81-105.58c1.83.07,3.74.11,5.74.1s4-.09,5.85-.19Q1569.95,365.17,1571.21,418.12Z"/><path class="cls-53" d="M1560,362.91c-.11-3.15-.22-6.29-.34-9.44a452,452,0,0,0,68.3-.59,451.22,451.22,0,0,0,66.77-10.72c.14,1.56.23,3.23.24,5,0,2.19-.07,4.22-.23,6.06-20.85,3.16-43.28,5.78-67.15,7.5S1581.1,363.07,1560,362.91Z"/><circle class="cls-46" cx="1564.82" cy="358.16" r="2.49"/><path class="cls-16" d="M1383.76,431.68c-30,1.28-54.93-1.08-70-2.5-55.59-5.24-109.62-21.68-160.57-48.85a.72.72,0,0,1-.3-1,.74.74,0,0,1,1-.29c50.78,27.08,104.62,43.46,160,48.68,20,1.89,57.1,5.39,100.28,0,53-6.66,97.73-24.78,132.84-53.86a217.68,217.68,0,0,0,17.27-16,.74.74,0,0,1,1,0,.7.7,0,0,1,0,1,218.81,218.81,0,0,1-17.39,16.08c-35.33,29.26-80.27,47.49-133.6,54.19C1403.71,430.46,1393.47,431.26,1383.76,431.68Z"/><path class="cls-16" d="M921.66,443.57A475.86,475.86,0,0,1,840.33,440c-49.58-6.36-94.6-21.65-130.22-44.23a.62.62,0,0,1-.15-1,.89.89,0,0,1,1.12-.14c35.41,22.44,80.19,37.64,129.5,44,58.71,7.53,104.19,3,140.94-2.49A566.36,566.36,0,0,0,1152.88,382a.88.88,0,0,1,1.09.24.63.63,0,0,1-.29.94,568,568,0,0,1-171.91,54.4A569.45,569.45,0,0,1,921.66,443.57Z"/><path class="cls-6" d="M340.37,116.72a24.45,24.45,0,0,0,12.41,19c2.15,1.2,4.37,2.57,6.63,4.13a86.94,86.94,0,0,1,8.69,6.82,23.61,23.61,0,0,0,17.34,6c3.54-.24,7.33-.34,11.35-.23a119.59,119.59,0,0,1,20.15,2.26,23.91,23.91,0,0,0,16.32-2.6,135.41,135.41,0,0,1,28.47-11.86,23.79,23.79,0,0,0,14.53-12.07,67.6,67.6,0,0,1,11.05-15.55A23.58,23.58,0,0,0,493.09,91c-.28-1.19-.54-2.43-.77-3.71q-.51-2.85-.76-5.51A24.12,24.12,0,0,0,479,62.86a71.68,71.68,0,0,1-6.76-4.14,74.48,74.48,0,0,1-8.75-7,23.93,23.93,0,0,0-17.45-6.43c-3.9.17-8.07.19-12.46,0a144.1,144.1,0,0,1-18.57-2,24.51,24.51,0,0,0-16.25,2.88,128.21,128.21,0,0,1-14.25,7,131,131,0,0,1-14.73,5.08,23.69,23.69,0,0,0-14.39,11.33,83.1,83.1,0,0,1-6.77,10.37c-1.45,1.9-2.91,3.64-4.36,5.24a24.13,24.13,0,0,0-5.54,21.81c.1.45.21.9.31,1.36A72,72,0,0,1,340.37,116.72Z"/><path class="cls-6" d="M342,163.06a34.85,34.85,0,0,0,22-2.58,41.35,41.35,0,0,0,16.38-13.71l-12-11.42a40.53,40.53,0,0,1-7.91,15.05A41.44,41.44,0,0,1,342,163.06Z"/><path class="cls-61" d="M366.4,104.28l-2,.06c-.73,0-1.39,0-2,0l.17,7.8a2.21,2.21,0,0,1-.66,1.67,2.36,2.36,0,0,1-1.64.72,2.25,2.25,0,0,1-1.67-.67,2.36,2.36,0,0,1-.72-1.65l-.46-20.66a2.19,2.19,0,0,1,.66-1.65,2.26,2.26,0,0,1,1.66-.73,2.23,2.23,0,0,1,1.65.67,2.26,2.26,0,0,1,.72,1.64l.18,8.18c.6,0,1.16,0,1.67,0l2.34-.09q0-5-.1-8.22a2.23,2.23,0,0,1,.67-1.65,2.32,2.32,0,0,1,3.3-.06,2.28,2.28,0,0,1,.72,1.64c0,1.52.07,3.24.09,5.15l0,5.15q.06,6.85.13,10.3a2.26,2.26,0,0,1-.67,1.66,2.19,2.19,0,0,1-1.63.71,2.24,2.24,0,0,1-1.67-.67,2.2,2.2,0,0,1-.72-1.63C366.46,109.91,366.43,107.35,366.4,104.28Z"/><path class="cls-61" d="M386.39,95.44a17.75,17.75,0,0,1,1.34,6.53,16.44,16.44,0,0,1-1.17,6.53,10.15,10.15,0,0,1-3.22,4.47,5,5,0,0,1-5.19.69,6.9,6.9,0,0,1-3.42-3.45,16.66,16.66,0,0,1-1.56-5.19,25.36,25.36,0,0,1,.61-9.82,12.54,12.54,0,0,1,1.88-4.46,4.5,4.5,0,0,1,2.17-1.61,5,5,0,0,1,2.7-.22,6.27,6.27,0,0,1,3.68,2.52A20,20,0,0,1,386.39,95.44ZM383,103.73a14.67,14.67,0,0,0-1-6.64,1.58,1.58,0,0,0-.07-.16l0-.11,0-.12c-.08-.22-.15-.41-.22-.57a10.59,10.59,0,0,0-.61-1.36c-.6-1.11-1.17-1.5-1.7-1.16a1.62,1.62,0,0,0-.53.82c0,.15-.09.32-.14.54l-.05.23-.07.23c-.26.93-.46,1.83-.62,2.7a19.47,19.47,0,0,0-.3,4.7,21.78,21.78,0,0,0,.25,2.35,8.56,8.56,0,0,0,.7,2.27l0,.07,0,.09.06.13.11.21.13.25c.09.19.19.36.27.5a1.28,1.28,0,0,0,.79.65,1.06,1.06,0,0,0,1-.46c.12-.15.24-.32.38-.52l.13-.25.07-.12.07-.11a11.5,11.5,0,0,0,1-2.22A10.42,10.42,0,0,0,383,103.73Z"/><path class="cls-61" d="M405.9,103.39l-2,.06c-.73,0-1.39,0-2,0l.17,7.8a2.23,2.23,0,0,1-.66,1.67,2.28,2.28,0,0,1-1.64.72,2.25,2.25,0,0,1-1.67-.66,2.33,2.33,0,0,1-.72-1.66L397,90.67a2.18,2.18,0,0,1,.66-1.65,2.21,2.21,0,0,1,1.66-.72A2.18,2.18,0,0,1,401,89a2.36,2.36,0,0,1,.72,1.64l.18,8.19c.6,0,1.16,0,1.67,0l2.34-.08q0-5.06-.1-8.23a2.23,2.23,0,0,1,.67-1.65,2.18,2.18,0,0,1,1.63-.72,2.37,2.37,0,0,1,2.39,2.3c0,1.52.06,3.24.08,5.15l0,5.15c0,4.57.08,8,.13,10.3a2.29,2.29,0,0,1-.67,1.67,2.24,2.24,0,0,1-1.64.7,2.18,2.18,0,0,1-1.66-.67,2.25,2.25,0,0,1-.73-1.63C406,109,405.92,106.46,405.9,103.39Z"/><path class="cls-61" d="M425.89,94.56a17.7,17.7,0,0,1,1.34,6.52,16.44,16.44,0,0,1-1.17,6.53,10.11,10.11,0,0,1-3.23,4.47,5,5,0,0,1-5.18.7,6.89,6.89,0,0,1-3.42-3.46,16.66,16.66,0,0,1-1.56-5.19,25.18,25.18,0,0,1,.61-9.82,12.41,12.41,0,0,1,1.88-4.45,4.6,4.6,0,0,1,2.16-1.62A5,5,0,0,1,420,88a6.16,6.16,0,0,1,3.67,2.51A20,20,0,0,1,425.89,94.56Zm-3.39,8.28a14.52,14.52,0,0,0-1-6.64s0-.09-.08-.16l0-.1,0-.12c-.08-.22-.15-.41-.23-.58a10.47,10.47,0,0,0-.61-1.36c-.6-1.11-1.16-1.49-1.69-1.15a1.48,1.48,0,0,0-.53.82l-.15.53,0,.23-.07.23a27.28,27.28,0,0,0-.62,2.7,18.54,18.54,0,0,0-.3,4.7,22.12,22.12,0,0,0,.24,2.35,8.8,8.8,0,0,0,.71,2.27l0,.07,0,.09a.48.48,0,0,0,.06.14l.11.21.12.24a5.29,5.29,0,0,0,.28.5,1.25,1.25,0,0,0,.79.65,1,1,0,0,0,1-.46,5.56,5.56,0,0,0,.37-.52l.14-.25.07-.12.06-.11a10.91,10.91,0,0,0,1-2.22A9,9,0,0,0,422.5,102.84Z"/><path class="cls-61" d="M445.4,102.5l-2,.07c-.72,0-1.38,0-2,0l.18,7.8a2.37,2.37,0,0,1-2.3,2.39,2.19,2.19,0,0,1-1.67-.66,2.28,2.28,0,0,1-.72-1.65l-.47-20.67a2.37,2.37,0,0,1,2.32-2.37,2.2,2.2,0,0,1,1.65.67,2.29,2.29,0,0,1,.73,1.63l.18,8.19H443l2.34-.09c0-3.36-.07-6.1-.1-8.22a2.39,2.39,0,0,1,2.3-2.38A2.37,2.37,0,0,1,450,89.52c0,1.52.06,3.23.08,5.14l0,5.15c0,4.57.07,8,.12,10.3a2.33,2.33,0,0,1-4,1.71,2.27,2.27,0,0,1-.73-1.64C445.46,108.13,445.42,105.57,445.4,102.5Z"/><path class="cls-61" d="M465.38,93.67a17.52,17.52,0,0,1,1.35,6.53,16.31,16.31,0,0,1-1.18,6.53,10.06,10.06,0,0,1-3.22,4.46,5,5,0,0,1-5.19.7,6.91,6.91,0,0,1-3.41-3.46,16.67,16.67,0,0,1-1.56-5.18,25.16,25.16,0,0,1,.6-9.82A12.28,12.28,0,0,1,454.66,89a4.52,4.52,0,0,1,2.16-1.61,4.88,4.88,0,0,1,2.7-.22,6.13,6.13,0,0,1,3.68,2.52A19.47,19.47,0,0,1,465.38,93.67ZM462,102a14.67,14.67,0,0,0-1-6.64l-.08-.15,0-.11,0-.12a5.59,5.59,0,0,0-.23-.57A9.37,9.37,0,0,0,460,93c-.6-1.11-1.16-1.5-1.69-1.16a1.51,1.51,0,0,0-.53.82l-.15.53,0,.23-.07.23a26.82,26.82,0,0,0-.62,2.71,18.51,18.51,0,0,0-.3,4.7,20,20,0,0,0,.24,2.35,9.07,9.07,0,0,0,.7,2.27l0,.06,0,.09a.93.93,0,0,0,0,.14l.11.21.13.24a5.58,5.58,0,0,0,.28.51,1.29,1.29,0,0,0,.79.65,1.06,1.06,0,0,0,1-.46c.11-.15.24-.32.37-.52l.14-.25.06-.13.07-.1a11.42,11.42,0,0,0,1-2.22A9.76,9.76,0,0,0,462,102Z"/><path class="cls-61" d="M470.82,86.67a2.25,2.25,0,0,1,1.66.67,2.14,2.14,0,0,1,.73,1.65q-.06,2.83.05,7.23l.1,3.62c.05,1.41.07,2.62.08,3.62a2.29,2.29,0,0,1-.66,1.66,2.34,2.34,0,0,1-1.66.73,2.43,2.43,0,0,1-2.39-2.32c0-1,0-2.21-.08-3.62l-.1-3.62q-.1-4.4-.05-7.23a2.44,2.44,0,0,1,.68-1.66A2.27,2.27,0,0,1,470.82,86.67Zm.37,20.67a2.23,2.23,0,0,1,1.67.66,2.29,2.29,0,0,1,.72,1.66,2.17,2.17,0,0,1-.66,1.66,2.34,2.34,0,0,1-1.66.73,2.25,2.25,0,0,1-1.66-.67,2.32,2.32,0,0,1-.06-3.32A2.28,2.28,0,0,1,471.19,107.34Z"/></svg>