<svg id="Layer_1" data-name="Layer 1" xmlns="http://www.w3.org/2000/svg" xmlns:xlink="http://www.w3.org/1999/xlink" viewBox="0 0 130 150"><defs><style>.cls-1{fill:#683614;}.cls-2{fill:url(#linear-gradient);}.cls-3{fill:#b31f2b;}.cls-4{fill:#7b482e;}.cls-5{fill:#fff;}.cls-6{fill:#2f0d00;}.cls-7{fill:#551300;}.cls-8{fill:url(#linear-gradient-2);}</style><linearGradient id="linear-gradient" x1="1750.08" y1="4688.38" x2="1757.6" y2="4680.86" gradientTransform="matrix(0.04, 1, -1, 0.04, 4720.03, -1914.22)" gradientUnits="userSpaceOnUse"><stop offset="0.15" stop-color="#7b482e"/><stop offset="0.34" stop-color="#7b482e"/><stop offset="1" stop-color="#683614"/></linearGradient><linearGradient id="linear-gradient-2" x1="1751.83" y1="4689.37" x2="1759.35" y2="4681.85" gradientTransform="matrix(-0.71, 0.71, 0.71, 0.71, -2001.1, -4541.59)" xlink:href="#linear-gradient"/></defs><polygon class="cls-1" points="107.75 45.74 100.49 38.89 107.17 31.49 114.43 38.34 107.75 45.74"/><path class="cls-1" d="M116,39.81,105,29.47a3.66,3.66,0,0,1-.21-5.1l2.28-2.53a3.47,3.47,0,0,1,5-.19l11,10.33a3.66,3.66,0,0,1,.21,5.1L121,39.61A3.48,3.48,0,0,1,116,39.81Z"/><path class="cls-2" d="M112.09,21.65l5.08,4.79-7.06,7.82L105,29.47a3.66,3.66,0,0,1-.21-5.1l2.28-2.53A3.47,3.47,0,0,1,112.09,21.65Z"/><rect class="cls-1" x="59.83" y="17.24" width="11.25" height="11.5"/><circle class="cls-3" cx="65" cy="84.72" r="4.42"/><circle class="cls-4" cx="65" cy="84.72" r="64.68"/><circle class="cls-5" cx="65" cy="84.72" r="57.52"/><rect class="cls-6" x="61.36" y="29.96" width="6.31" height="18.89"/><rect class="cls-6" x="38.77" y="36.27" width="6.31" height="18.89" transform="translate(-17.24 27.09) rotate(-30)"/><rect class="cls-6" x="22.36" y="53.03" width="6.31" height="18.89" transform="translate(-41.35 53.34) rotate(-60)"/><rect class="cls-6" x="16.53" y="75.75" width="6.31" height="18.89" transform="translate(-65.51 104.88) rotate(-90)"/><rect class="cls-6" x="22.84" y="98.34" width="6.31" height="18.89" transform="translate(-54.35 184.2) rotate(-120)"/><rect class="cls-6" x="39.6" y="114.75" width="6.31" height="18.89" transform="translate(17.69 253.14) rotate(-150)"/><rect class="cls-6" x="62.32" y="120.58" width="6.31" height="18.89" transform="translate(130.96 260.06) rotate(-180)"/><rect class="cls-6" x="84.92" y="114.27" width="6.31" height="18.89" transform="translate(226.2 186.82) rotate(150)"/><rect class="cls-6" x="101.33" y="97.51" width="6.31" height="18.89" transform="translate(249.35 69.95) rotate(120)"/><rect class="cls-6" x="107.16" y="74.79" width="6.31" height="18.89" transform="translate(194.55 -26.08) rotate(90)"/><rect class="cls-6" x="100.85" y="52.2" width="6.31" height="18.89" transform="translate(105.39 -59.25) rotate(60)"/><rect class="cls-6" x="84.08" y="35.79" width="6.31" height="18.89" transform="translate(34.3 -37.56) rotate(30)"/><circle class="cls-3" cx="65" cy="84.72" r="4.42"/><circle class="cls-7" cx="65" cy="84.72" r="1.79"/><path class="cls-3" d="M63.78,34.26c0-3.46.63-5.87,1.14-5.92s1.21,2.22,1.39,5.63l.81,47.24H62.73Z"/><polygon class="cls-3" points="66.64 97.07 63.21 97.07 62.73 88.5 67.12 88.5 66.64 97.07"/><circle class="cls-3" cx="65" cy="84.72" r="4.42"/><path class="cls-1" d="M72.52,7.56l-15.07.16a3.67,3.67,0,0,0-3.61,3.61l0,3.4a3.47,3.47,0,0,0,3.53,3.53L72.4,18.1A3.67,3.67,0,0,0,76,14.49l0-3.4A3.48,3.48,0,0,0,72.52,7.56Z"/><path class="cls-8" d="M72.52,7.72l-7,.08-.11,10.54,7-.08A3.67,3.67,0,0,0,76,14.65l0-3.4A3.48,3.48,0,0,0,72.52,7.72Z"/></svg>