<svg id="Layer_1" data-name="Layer 1" xmlns="http://www.w3.org/2000/svg" xmlns:xlink="http://www.w3.org/1999/xlink" viewBox="0 0 130 150"><defs><style>.cls-1{fill:none;}.cls-2{fill:#432413;}.cls-3{clip-path:url(#clip-path);}.cls-4{fill:#7b482e;}.cls-5{fill:#7b472e;}.cls-6{fill:#7a472d;}.cls-7{fill:#79472d;}.cls-8{fill:#78462c;}.cls-9{fill:#77462c;}.cls-10{fill:#76452b;}.cls-11{fill:#75452b;}.cls-12{fill:#74452b;}.cls-13{fill:#74452a;}.cls-14{fill:#73442a;}.cls-15{fill:#72442a;}.cls-16{fill:#724429;}.cls-17{fill:#714329;}.cls-18{fill:#704329;}.cls-19{fill:#704328;}.cls-20{fill:#6f4328;}.cls-21{fill:#6f4228;}.cls-22{fill:#6e4228;}.cls-23{fill:#6e4227;}.cls-24{fill:#6d4227;}.cls-25{fill:#6d4127;}.cls-26{fill:#6c4126;}.cls-27{fill:#6b4126;}.cls-28{fill:#6a4025;}.cls-29{fill:#694025;}.cls-30{fill:#694024;}.cls-31{fill:#683f24;}.cls-32{fill:#673f24;}.cls-33{fill:#673f23;}.cls-34{fill:#663e23;}.cls-35{fill:#663e22;}.cls-36{fill:#653d21;}.cls-37{fill:#643d21;}.cls-38{fill:#633c20;}.cls-39{fill:#633c1f;}.cls-40{fill:#623b1f;}.cls-41{fill:#613b1e;}.cls-42{fill:#613a1d;}.cls-43{fill:#603a1c;}.cls-44{fill:#5f391b;}.cls-45{fill:#5e391a;}.cls-46{fill:#5d381a;}.cls-47{fill:#5c371a;}.cls-48{fill:#5b361a;}.cls-49{fill:#5a3519;}.cls-50{fill:#593519;}.cls-51{fill:#583419;}.cls-52{fill:#573319;}.cls-53{fill:#563318;}.cls-54{fill:#553218;}.cls-55{fill:#543118;}.cls-56{fill:#533017;}.cls-57{fill:#523017;}.cls-58{fill:#512f17;}.cls-59{fill:#512e16;}.cls-60{fill:#502e16;}.cls-61{fill:#4f2d16;}.cls-62{fill:#4e2d15;}.cls-63{fill:#4d2c15;}.cls-64{fill:#4c2b15;}.cls-65{fill:#4b2a14;}.cls-66{fill:#4a2914;}.cls-67{fill:#492914;}.cls-68{fill:#482814;}.cls-69{fill:#472814;}.cls-70{fill:#472713;}.cls-71{fill:#462713;}.cls-72{fill:#452613;}.cls-73{fill:#442613;}.cls-74{fill:#442513;}.cls-75{clip-path:url(#clip-path-2);}.cls-76{fill:#5e381a;}.cls-77{fill:#4b2a15;}.cls-78{fill:#4a2a14;}.cls-79{fill:#462613;}.cls-80{fill:#432513;}.cls-81{fill:#b31f2b;}.cls-82{fill:#683614;}.cls-83{fill:#fff;}.cls-84{fill:#2f0d00;}</style><clipPath id="clip-path"><path class="cls-1" d="M112.09,19.41l5.08,4.79L110.11,32,105,27.23a3.66,3.66,0,0,1-.21-5.1l2.28-2.52A3.47,3.47,0,0,1,112.09,19.41Z"/></clipPath><clipPath id="clip-path-2"><path class="cls-1" d="M65.62,2.85h8.44A3.46,3.46,0,0,1,77.52,6.3v5.24A3.46,3.46,0,0,1,74.06,15H65.62a0,0,0,0,1,0,0V2.85A0,0,0,0,1,65.62,2.85Z"/></clipPath></defs><polygon class="cls-2" points="107.75 43.5 100.49 36.65 107.17 29.25 114.43 36.1 107.75 43.5"/><path class="cls-2" d="M116,37.57,105,27.23a3.66,3.66,0,0,1-.21-5.1l2.28-2.52a3.47,3.47,0,0,1,5-.2l11,10.34a3.66,3.66,0,0,1,.21,5.1L121,37.37A3.47,3.47,0,0,1,116,37.57Z"/><g class="cls-3"><polygon class="cls-4" points="108.53 18.05 103.5 23.51 103.5 18.05 108.53 18.05"/><polygon class="cls-4" points="108.56 18.05 103.5 23.54 103.5 23.51 108.53 18.05 108.56 18.05"/><polygon class="cls-5" points="108.59 18.05 103.5 23.58 103.5 23.54 108.56 18.05 108.59 18.05"/><polygon class="cls-6" points="108.62 18.05 103.5 23.61 103.5 23.58 108.59 18.05 108.62 18.05"/><polygon class="cls-6" points="108.66 18.05 103.5 23.65 103.5 23.61 108.62 18.05 108.66 18.05"/><polygon class="cls-7" points="108.69 18.05 103.5 23.68 103.5 23.65 108.66 18.05 108.69 18.05"/><polygon class="cls-8" points="108.72 18.05 103.5 23.71 103.5 23.68 108.69 18.05 108.72 18.05"/><polygon class="cls-8" points="108.75 18.05 103.5 23.75 103.5 23.71 108.72 18.05 108.75 18.05"/><polygon class="cls-9" points="108.78 18.05 103.5 23.78 103.5 23.75 108.75 18.05 108.78 18.05"/><polygon class="cls-9" points="108.81 18.05 103.5 23.82 103.5 23.78 108.78 18.05 108.81 18.05"/><polygon class="cls-10" points="108.84 18.05 103.5 23.85 103.5 23.82 108.81 18.05 108.84 18.05"/><polygon class="cls-10" points="108.88 18.05 103.5 23.89 103.5 23.85 108.84 18.05 108.88 18.05"/><polygon class="cls-11" points="108.91 18.05 103.5 23.92 103.5 23.89 108.88 18.05 108.91 18.05"/><polygon class="cls-12" points="108.94 18.05 103.5 23.95 103.5 23.92 108.91 18.05 108.94 18.05"/><polygon class="cls-13" points="108.97 18.05 103.5 23.99 103.5 23.95 108.94 18.05 108.97 18.05"/><polygon class="cls-14" points="109 18.05 103.5 24.02 103.5 23.99 108.97 18.05 109 18.05"/><polygon class="cls-14" points="109.03 18.05 103.5 24.06 103.5 24.02 109 18.05 109.03 18.05"/><polygon class="cls-15" points="109.07 18.05 103.5 24.09 103.5 24.06 109.03 18.05 109.07 18.05"/><polygon class="cls-16" points="109.1 18.05 103.5 24.13 103.5 24.09 109.07 18.05 109.1 18.05"/><polygon class="cls-17" points="109.13 18.05 103.5 24.16 103.5 24.13 109.1 18.05 109.13 18.05"/><polygon class="cls-17" points="109.16 18.05 103.5 24.2 103.5 24.16 109.13 18.05 109.16 18.05"/><polygon class="cls-18" points="109.19 18.05 103.5 24.23 103.5 24.2 109.16 18.05 109.19 18.05"/><polygon class="cls-19" points="109.22 18.05 103.5 24.26 103.5 24.23 109.19 18.05 109.22 18.05"/><polygon class="cls-20" points="109.26 18.05 103.5 24.3 103.5 24.26 109.22 18.05 109.26 18.05"/><polygon class="cls-21" points="109.29 18.05 103.5 24.33 103.5 24.3 109.26 18.05 109.29 18.05"/><polygon class="cls-22" points="109.32 18.05 103.5 24.37 103.5 24.33 109.29 18.05 109.32 18.05"/><polygon class="cls-23" points="109.35 18.05 103.5 24.4 103.5 24.37 109.32 18.05 109.35 18.05"/><polygon class="cls-24" points="109.38 18.05 103.5 24.43 103.5 24.4 109.35 18.05 109.38 18.05"/><polygon class="cls-25" points="109.42 18.05 103.5 24.47 103.5 24.43 109.38 18.05 109.42 18.05"/><polygon class="cls-26" points="109.45 18.05 103.5 24.5 103.5 24.47 109.42 18.05 109.45 18.05"/><polygon class="cls-26" points="109.48 18.05 103.5 24.54 103.5 24.5 109.45 18.05 109.48 18.05"/><polygon class="cls-27" points="109.51 18.05 103.5 24.57 103.5 24.54 109.48 18.05 109.51 18.05"/><polygon class="cls-28" points="109.54 18.05 103.5 24.61 103.5 24.57 109.51 18.05 109.54 18.05"/><polygon class="cls-28" points="109.57 18.05 103.5 24.64 103.5 24.61 109.54 18.05 109.57 18.05"/><polygon class="cls-29" points="109.6 18.05 103.5 24.68 103.5 24.64 109.57 18.05 109.6 18.05"/><polygon class="cls-30" points="109.64 18.05 103.5 24.71 103.5 24.68 109.6 18.05 109.64 18.05"/><polygon class="cls-31" points="109.67 18.05 103.5 24.74 103.5 24.71 109.64 18.05 109.67 18.05"/><polygon class="cls-32" points="109.7 18.05 103.5 24.78 103.5 24.74 109.67 18.05 109.7 18.05"/><polygon class="cls-33" points="109.73 18.05 103.5 24.81 103.5 24.78 109.7 18.05 109.73 18.05"/><polygon class="cls-34" points="109.76 18.05 103.5 24.85 103.5 24.81 109.73 18.05 109.76 18.05"/><polygon class="cls-35" points="109.79 18.05 103.5 24.88 103.5 24.85 109.76 18.05 109.79 18.05"/><polygon class="cls-36" points="109.83 18.05 103.5 24.91 103.5 24.88 109.79 18.05 109.83 18.05"/><polygon class="cls-37" points="109.86 18.05 103.5 24.95 103.5 24.91 109.83 18.05 109.86 18.05"/><polygon class="cls-38" points="109.89 18.05 103.5 24.98 103.5 24.95 109.86 18.05 109.89 18.05"/><polygon class="cls-39" points="109.92 18.05 103.5 25.02 103.5 24.98 109.89 18.05 109.92 18.05"/><polygon class="cls-40" points="109.95 18.05 103.5 25.05 103.5 25.02 109.92 18.05 109.95 18.05"/><polygon class="cls-41" points="109.98 18.05 103.5 25.09 103.5 25.05 109.95 18.05 109.98 18.05"/><polygon class="cls-42" points="110.02 18.05 103.5 25.12 103.5 25.09 109.98 18.05 110.02 18.05"/><polygon class="cls-43" points="110.05 18.05 103.5 25.16 103.5 25.12 110.02 18.05 110.05 18.05"/><polygon class="cls-44" points="110.08 18.05 103.5 25.19 103.5 25.16 110.05 18.05 110.08 18.05"/><polygon class="cls-45" points="110.11 18.05 103.5 25.22 103.5 25.19 110.08 18.05 110.11 18.05"/><polygon class="cls-45" points="110.5 18.05 103.5 25.65 103.5 25.22 110.11 18.05 110.5 18.05"/><polygon class="cls-46" points="110.89 18.05 103.5 26.07 103.5 25.65 110.5 18.05 110.89 18.05"/><polygon class="cls-47" points="111.28 18.05 103.5 26.49 103.5 26.07 110.89 18.05 111.28 18.05"/><polygon class="cls-47" points="111.67 18.05 103.5 26.91 103.5 26.49 111.28 18.05 111.67 18.05"/><polygon class="cls-48" points="112.06 18.05 103.5 27.33 103.5 26.91 111.67 18.05 112.06 18.05"/><polygon class="cls-49" points="112.45 18.05 103.5 27.76 103.5 27.33 112.06 18.05 112.45 18.05"/><polygon class="cls-50" points="112.84 18.05 103.5 28.18 103.5 27.76 112.45 18.05 112.84 18.05"/><polygon class="cls-51" points="113.22 18.05 103.5 28.6 103.5 28.18 112.84 18.05 113.22 18.05"/><polygon class="cls-52" points="113.6 18.05 113.61 18.06 103.68 28.82 103.5 28.65 103.5 28.6 113.22 18.05 113.6 18.05"/><rect class="cls-53" x="101.43" y="23.39" width="14.64" height="0.29" transform="translate(17.71 87.51) rotate(-47.31)"/><rect class="cls-54" x="101.64" y="23.59" width="14.64" height="0.29" transform="translate(17.64 87.73) rotate(-47.31)"/><rect class="cls-55" x="101.85" y="23.78" width="14.64" height="0.29" transform="translate(17.56 87.94) rotate(-47.31)"/><rect class="cls-56" x="102.06" y="23.98" width="14.64" height="0.29" transform="translate(17.49 88.16) rotate(-47.31)"/><rect class="cls-57" x="102.27" y="24.17" width="14.64" height="0.29" transform="translate(17.41 88.38) rotate(-47.31)"/><rect class="cls-58" x="102.48" y="24.36" width="14.64" height="0.29" transform="translate(17.34 88.59) rotate(-47.31)"/><rect class="cls-59" x="102.69" y="24.56" width="14.64" height="0.29" transform="translate(17.26 88.81) rotate(-47.31)"/><rect class="cls-60" x="102.9" y="24.75" width="14.64" height="0.29" transform="translate(17.19 89.03) rotate(-47.31)"/><rect class="cls-61" x="103.11" y="24.95" width="14.64" height="0.29" transform="translate(17.11 89.24) rotate(-47.31)"/><rect class="cls-62" x="103.33" y="25.14" width="14.64" height="0.29" transform="translate(17.04 89.46) rotate(-47.31)"/><rect class="cls-63" x="103.54" y="25.33" width="14.64" height="0.29" transform="translate(16.96 89.68) rotate(-47.31)"/><rect class="cls-64" x="103.75" y="25.53" width="14.64" height="0.29" transform="translate(16.89 89.9) rotate(-47.31)"/><rect class="cls-64" x="103.96" y="25.72" width="14.64" height="0.29" transform="translate(16.81 90.11) rotate(-47.31)"/><rect class="cls-65" x="104.17" y="25.92" width="14.64" height="0.29" transform="translate(16.74 90.33) rotate(-47.31)"/><rect class="cls-66" x="104.38" y="26.11" width="14.64" height="0.29" transform="translate(16.66 90.55) rotate(-47.31)"/><rect class="cls-67" x="104.59" y="26.3" width="14.64" height="0.29" transform="translate(16.59 90.76) rotate(-47.31)"/><polygon class="cls-68" points="116.97 21.16 117.17 21.34 117.17 21.38 107.34 32.02 107.16 32.02 107.05 31.92 116.97 21.16"/><polygon class="cls-69" points="117.17 21.8 107.73 32.02 107.34 32.02 117.17 21.38 117.17 21.8"/><polygon class="cls-70" points="117.17 22.22 108.12 32.02 107.73 32.02 117.17 21.8 117.17 22.22"/><polygon class="cls-71" points="117.17 22.64 108.51 32.02 108.12 32.02 117.17 22.22 117.17 22.64"/><polygon class="cls-72" points="117.17 23.06 108.9 32.02 108.51 32.02 117.17 22.64 117.17 23.06"/><polygon class="cls-73" points="117.17 23.48 109.29 32.02 108.9 32.02 117.17 23.06 117.17 23.48"/><polygon class="cls-74" points="117.17 23.91 109.68 32.02 109.29 32.02 117.17 23.48 117.17 23.91"/><polygon class="cls-2" points="117.17 24.33 110.07 32.02 109.68 32.02 117.17 23.91 117.17 24.33"/><polygon class="cls-2" points="110.07 32.02 117.17 24.33 117.17 32.02 110.07 32.02"/></g><rect class="cls-2" x="59.83" y="15" width="11.25" height="11.5"/><rect class="cls-2" x="52.48" y="2.85" width="25.03" height="12.16" rx="3.46"/><g class="cls-75"><rect class="cls-44" x="76.64" y="2.85" width="0.87" height="12.16"/><rect class="cls-44" x="76.32" y="2.85" width="0.32" height="12.16"/><rect class="cls-76" x="76" y="2.85" width="0.32" height="12.16"/><rect class="cls-47" x="75.67" y="2.85" width="0.32" height="12.16"/><rect class="cls-48" x="75.35" y="2.85" width="0.32" height="12.16"/><rect class="cls-50" x="75.03" y="2.85" width="0.32" height="12.16"/><rect class="cls-51" x="74.7" y="2.85" width="0.32" height="12.16"/><rect class="cls-53" x="74.38" y="2.85" width="0.32" height="12.16"/><rect class="cls-54" x="74.06" y="2.85" width="0.32" height="12.16"/><rect class="cls-55" x="73.73" y="2.85" width="0.32" height="12.16"/><rect class="cls-56" x="73.41" y="2.85" width="0.32" height="12.16"/><rect class="cls-58" x="73.09" y="2.85" width="0.32" height="12.16"/><rect class="cls-60" x="72.76" y="2.85" width="0.32" height="12.16"/><rect class="cls-61" x="72.44" y="2.85" width="0.32" height="12.16"/><rect class="cls-62" x="72.12" y="2.85" width="0.32" height="12.16"/><rect class="cls-63" x="71.8" y="2.85" width="0.32" height="12.16"/><rect class="cls-64" x="71.47" y="2.85" width="0.32" height="12.16"/><rect class="cls-77" x="71.15" y="2.85" width="0.32" height="12.16"/><rect class="cls-78" x="70.83" y="2.85" width="0.32" height="12.16"/><rect class="cls-66" x="70.5" y="2.85" width="0.32" height="12.16"/><rect class="cls-67" x="70.18" y="2.85" width="0.32" height="12.16"/><rect class="cls-68" x="69.86" y="2.85" width="0.32" height="12.16"/><rect class="cls-69" x="69.53" y="2.85" width="0.32" height="12.16"/><rect class="cls-70" x="69.21" y="2.85" width="0.32" height="12.16"/><rect class="cls-71" x="68.89" y="2.85" width="0.32" height="12.16"/><rect class="cls-79" x="68.56" y="2.85" width="0.32" height="12.16"/><rect class="cls-72" x="68.24" y="2.85" width="0.32" height="12.16"/><rect class="cls-72" x="67.92" y="2.85" width="0.32" height="12.16"/><rect class="cls-74" x="67.59" y="2.85" width="0.32" height="12.16"/><rect class="cls-74" x="67.27" y="2.85" width="0.32" height="12.16"/><rect class="cls-74" x="66.95" y="2.85" width="0.32" height="12.16"/><rect class="cls-80" x="66.62" y="2.85" width="0.32" height="12.16"/><rect class="cls-80" x="66.3" y="2.85" width="0.32" height="12.16"/><rect class="cls-2" x="65.98" y="2.85" width="0.32" height="12.16"/><rect class="cls-2" x="65.65" y="2.85" width="0.32" height="12.16"/><rect class="cls-2" x="65.62" y="2.85" width="0.03" height="12.16"/></g><circle class="cls-81" cx="65" cy="82.48" r="4.42"/><circle class="cls-82" cx="65" cy="82.48" r="64.68"/><circle class="cls-83" cx="65" cy="82.48" r="57.52"/><rect class="cls-84" x="61.36" y="27.72" width="6.31" height="18.89"/><rect class="cls-84" x="38.77" y="34.03" width="6.31" height="18.89" transform="translate(-16.12 26.79) rotate(-30)"/><rect class="cls-84" x="22.36" y="50.79" width="6.31" height="18.89" transform="translate(-39.41 52.22) rotate(-60)"/><rect class="cls-84" x="16.53" y="73.51" width="6.31" height="18.89" transform="translate(-63.27 102.65) rotate(-90)"/><rect class="cls-84" x="22.84" y="96.1" width="6.31" height="18.89" transform="translate(-52.41 180.84) rotate(-120)"/><rect class="cls-84" x="39.6" y="112.51" width="6.31" height="18.89" transform="translate(18.81 248.96) rotate(-150)"/><rect class="cls-84" x="62.32" y="118.34" width="6.31" height="18.89" transform="translate(130.96 255.58) rotate(-180)"/><rect class="cls-84" x="84.92" y="112.03" width="6.31" height="18.89" transform="translate(225.08 182.65) rotate(150)"/><rect class="cls-84" x="101.33" y="95.27" width="6.31" height="18.89" transform="translate(247.41 66.59) rotate(120)"/><rect class="cls-84" x="107.16" y="72.55" width="6.31" height="18.89" transform="translate(192.31 -28.31) rotate(90)"/><rect class="cls-84" x="100.85" y="49.96" width="6.31" height="18.89" transform="translate(103.45 -60.36) rotate(60)"/><rect class="cls-84" x="84.08" y="33.55" width="6.31" height="18.89" transform="translate(33.19 -37.86) rotate(30)"/></svg>