<svg id="Layer_1" data-name="Layer 1" xmlns="http://www.w3.org/2000/svg" xmlns:xlink="http://www.w3.org/1999/xlink" viewBox="0 0 440 680"><defs><style>.cls-1{fill:none;}.cls-2{opacity:0.64;}.cls-3{fill:#575b64;}.cls-4{clip-path:url(#clip-path);}.cls-5{fill:#efd68d;}.cls-6{fill:#efd68c;}.cls-7{fill:#efd58b;}.cls-8{fill:#efd589;}.cls-9{fill:#efd488;}.cls-10{fill:#f0d487;}.cls-11{fill:#f0d486;}.cls-12{fill:#f0d384;}.cls-13{fill:#f0d383;}.cls-14{fill:#f0d282;}.cls-15{fill:#f0d281;}.cls-16{fill:#f0d280;}.cls-17{fill:#f0d27f;}.cls-18{fill:#f0d17d;}.cls-19{fill:#f0d17c;}.cls-20{fill:#f1d17b;}.cls-21{fill:#f1d07a;}.cls-22{fill:#f1d079;}.cls-23{fill:#f1d078;}.cls-24{fill:#f1d077;}.cls-25{fill:#f1cf76;}.cls-26{fill:#f1cf75;}.cls-27{fill:#f1cf74;}.cls-28{fill:#f2cf73;}.cls-29{fill:#f2ce72;}.cls-30{fill:#f2ce71;}.cls-31{fill:#f2ce70;}.cls-32{fill:#f2ce6f;}.cls-33{fill:#f2cd6e;}.cls-34{fill:#f2cd6d;}.cls-35{fill:#f3cd6c;}.cls-36{fill:#f3cd6b;}.cls-37{fill:#f3cc6a;}.cls-38{fill:#f3cc69;}.cls-39{fill:#f3cc68;}.cls-40{fill:#f3cb67;}.cls-41{fill:#f4cb66;}.cls-42{fill:#f4cb65;}.cls-43{fill:#f4ca64;}.cls-44{fill:#f4ca63;}.cls-45{fill:#f4ca62;}.cls-46{fill:#f5c962;}.cls-47{fill:#f5c961;}.cls-48{fill:#f5c960;}.cls-49{fill:#f5c95f;}.cls-50{fill:#f5c95e;}.cls-51{fill:#f5c85e;}.cls-52{fill:#f5c85d;}.cls-53{fill:#f6c85c;}.cls-54{fill:#f6c85b;}.cls-55{fill:#f6c75a;}.cls-56{fill:#f6c759;}.cls-57{fill:#f6c758;}.cls-58{fill:#f6c757;}.cls-59{fill:#f6c656;}.cls-60{fill:#f7c655;}.cls-61{fill:#f7c654;}.cls-62{fill:#f7c653;}.cls-63{fill:#f7c652;}.cls-64{fill:#f7c551;}.cls-65{fill:#f7c550;}.cls-66{fill:#f8c54f;}.cls-67{fill:#f8c54e;}.cls-68{fill:#f8c44d;}.cls-69{fill:#f8c44c;}.cls-70{fill:#f8c44b;}.cls-71{fill:#f8c44a;}.cls-72{fill:#f8c449;}.cls-73{fill:#f9c349;}.cls-74{fill:#f9c348;}.cls-75{fill:#f9c347;}.cls-76{fill:#f9c346;}.cls-77{fill:#f9c245;}.cls-78{fill:#fac244;}.cls-79{fill:#fac243;}.cls-80{fill:#fac242;}.cls-81{fill:#fac142;}.cls-82{fill:#fac141;}.cls-83{fill:#fac140;}.cls-84{fill:#126337;}.cls-85{fill:#eec4a6;}.cls-86{opacity:0.7;}.cls-87{fill:#2f0d00;}.cls-88{opacity:0.29;}.cls-89{fill:#060305;}.cls-90{opacity:0.95;}.cls-91{fill:#040102;}.cls-92{fill:#fff;}.cls-93{fill:#473332;}.cls-94{opacity:0.92;}.cls-95{clip-path:url(#clip-path-2);}.cls-96{fill:#e8b28e;}.cls-97{fill:#e7b28e;}.cls-98{fill:#e7b18e;}.cls-99{fill:#e6b08e;}.cls-100{fill:#e6af8e;}.cls-101{fill:#e5af8e;}.cls-102{fill:#e5ae8e;}.cls-103{fill:#e4ae8e;}.cls-104{fill:#e4ad8e;}.cls-105{fill:#e3ac8e;}.cls-106{fill:#e3ab8e;}.cls-107{fill:#e2ab8e;}.cls-108{fill:#e2aa8e;}.cls-109{fill:#e1a98e;}.cls-110{fill:#e0a88d;}.cls-111{fill:#e0a78d;}.cls-112{fill:#dfa68d;}.cls-113{fill:#dfa58d;}.cls-114{fill:#dea58d;}.cls-115{fill:#dea48d;}.cls-116{fill:#dda38d;}.cls-117{fill:#dda28d;}.cls-118{fill:#dca18d;}.cls-119{fill:#dc9f8d;}.cls-120{fill:#db9e8d;}.cls-121{fill:#db9d8d;}.cls-122{fill:#da9c8d;}.cls-123{fill:#da9b8d;}.cls-124{fill:#d9998d;}.cls-125{fill:#d8988d;}.cls-126{fill:#d8978d;}.cls-127{fill:#d7958d;}.cls-128{fill:#d7948d;}.cls-129{fill:#d6938d;}.cls-130{fill:#d5918d;}.cls-131{fill:#d5908d;}.cls-132{fill:#d48e8d;}.cls-133{fill:#004c1f;}.cls-134{fill:#b31f2b;}.cls-135{fill:#009853;}.cls-136{fill:#009151;}</style><clipPath id="clip-path"><circle class="cls-1" cx="105.29" cy="29.62" r="25.45"/></clipPath><clipPath id="clip-path-2"><ellipse class="cls-1" cx="215.19" cy="384.84" rx="33.1" ry="21.8"/></clipPath></defs><g class="cls-2"><circle class="cls-3" cx="105.29" cy="33.11" r="25.45"/></g><g class="cls-4"><rect class="cls-5" x="79.84" y="4.17" width="50.9" height="50.9"/><circle class="cls-5" cx="105.29" cy="29.62" r="25.45"/><circle class="cls-6" cx="105.29" cy="29.62" r="25.24"/><circle class="cls-7" cx="105.29" cy="29.62" r="25.03"/><circle class="cls-8" cx="105.29" cy="29.62" r="24.82"/><circle class="cls-9" cx="105.29" cy="29.62" r="24.61"/><circle class="cls-10" cx="105.29" cy="29.62" r="24.4"/><circle class="cls-11" cx="105.29" cy="29.62" r="24.19"/><circle class="cls-12" cx="105.29" cy="29.62" r="23.98"/><circle class="cls-13" cx="105.29" cy="29.62" r="23.77"/><circle class="cls-14" cx="105.29" cy="29.62" r="23.55"/><circle class="cls-15" cx="105.29" cy="29.62" r="23.34"/><circle class="cls-16" cx="105.29" cy="29.62" r="23.13"/><circle class="cls-17" cx="105.29" cy="29.62" r="22.92"/><circle class="cls-18" cx="105.29" cy="29.62" r="22.71"/><circle class="cls-19" cx="105.29" cy="29.62" r="22.5"/><circle class="cls-20" cx="105.29" cy="29.62" r="22.29"/><circle class="cls-21" cx="105.29" cy="29.62" r="22.08"/><circle class="cls-22" cx="105.29" cy="29.62" r="21.87"/><circle class="cls-23" cx="105.29" cy="29.62" r="21.66"/><circle class="cls-24" cx="105.29" cy="29.62" r="21.45"/><circle class="cls-25" cx="105.29" cy="29.62" r="21.24"/><circle class="cls-26" cx="105.29" cy="29.62" r="21.03"/><circle class="cls-27" cx="105.29" cy="29.62" r="20.82"/><circle class="cls-27" cx="105.29" cy="29.62" r="20.61"/><circle class="cls-28" cx="105.29" cy="29.62" r="20.4"/><circle class="cls-29" cx="105.29" cy="29.62" r="20.19"/><circle class="cls-30" cx="105.29" cy="29.62" r="19.98"/><circle class="cls-31" cx="105.29" cy="29.62" r="19.77"/><circle class="cls-31" cx="105.29" cy="29.62" r="19.56"/><circle class="cls-32" cx="105.29" cy="29.62" r="19.35"/><circle class="cls-33" cx="105.29" cy="29.62" r="19.14"/><circle class="cls-34" cx="105.29" cy="29.62" r="18.93"/><circle class="cls-34" cx="105.29" cy="29.62" r="18.72"/><circle class="cls-35" cx="105.29" cy="29.62" r="18.51"/><circle class="cls-36" cx="105.29" cy="29.62" r="18.3"/><circle class="cls-36" cx="105.29" cy="29.62" r="18.09"/><circle class="cls-37" cx="105.29" cy="29.62" r="17.88"/><circle class="cls-37" cx="105.29" cy="29.62" r="17.67"/><circle class="cls-38" cx="105.29" cy="29.62" r="17.46"/><circle class="cls-38" cx="105.29" cy="29.62" r="17.25"/><circle class="cls-39" cx="105.29" cy="29.62" r="17.04"/><circle class="cls-40" cx="105.29" cy="29.62" r="16.82"/><circle class="cls-40" cx="105.29" cy="29.62" r="16.61"/><circle class="cls-41" cx="105.29" cy="29.62" r="16.4"/><circle class="cls-41" cx="105.29" cy="29.62" r="16.19"/><circle class="cls-42" cx="105.29" cy="29.62" r="15.98"/><circle class="cls-43" cx="105.29" cy="29.62" r="15.77"/><circle class="cls-43" cx="105.29" cy="29.62" r="15.56"/><circle class="cls-44" cx="105.29" cy="29.62" r="15.35"/><circle class="cls-44" cx="105.29" cy="29.62" r="15.14"/><circle class="cls-45" cx="105.29" cy="29.62" r="14.93"/><circle class="cls-46" cx="105.29" cy="29.62" r="14.72"/><circle class="cls-47" cx="105.29" cy="29.62" r="14.51"/><circle class="cls-48" cx="105.29" cy="29.62" r="14.3"/><circle class="cls-48" cx="105.29" cy="29.62" r="14.09"/><circle class="cls-49" cx="105.29" cy="29.62" r="13.88"/><circle class="cls-50" cx="105.29" cy="29.62" r="13.67"/><circle class="cls-51" cx="105.29" cy="29.62" r="13.46"/><circle class="cls-52" cx="105.29" cy="29.62" r="13.25"/><circle class="cls-53" cx="105.29" cy="29.62" r="13.04"/><circle class="cls-54" cx="105.29" cy="29.62" r="12.83"/><circle class="cls-54" cx="105.29" cy="29.62" r="12.62"/><circle class="cls-55" cx="105.29" cy="29.62" r="12.41"/><circle class="cls-56" cx="105.29" cy="29.62" r="12.2"/><circle class="cls-57" cx="105.29" cy="29.62" r="11.99"/><circle class="cls-57" cx="105.29" cy="29.62" r="11.78"/><circle class="cls-58" cx="105.29" cy="29.62" r="11.57"/><circle class="cls-59" cx="105.29" cy="29.62" r="11.36"/><circle class="cls-60" cx="105.29" cy="29.62" r="11.15"/><circle class="cls-60" cx="105.29" cy="29.62" r="10.94"/><circle class="cls-61" cx="105.29" cy="29.62" r="10.73"/><circle class="cls-62" cx="105.29" cy="29.62" r="10.52"/><circle class="cls-62" cx="105.29" cy="29.62" r="10.31"/><circle class="cls-63" cx="105.29" cy="29.62" r="10.1"/><circle class="cls-64" cx="105.29" cy="29.62" r="9.88"/><circle class="cls-65" cx="105.29" cy="29.62" r="9.67"/><circle class="cls-65" cx="105.29" cy="29.62" r="9.46"/><circle class="cls-66" cx="105.29" cy="29.62" r="9.25"/><circle class="cls-67" cx="105.29" cy="29.62" r="9.04"/><circle class="cls-67" cx="105.29" cy="29.62" r="8.83"/><circle class="cls-68" cx="105.29" cy="29.62" r="8.62"/><circle class="cls-68" cx="105.29" cy="29.62" r="8.41"/><circle class="cls-69" cx="105.29" cy="29.62" r="8.2"/><circle class="cls-69" cx="105.29" cy="29.62" r="7.99"/><circle class="cls-70" cx="105.29" cy="29.62" r="7.78"/><circle class="cls-71" cx="105.29" cy="29.62" r="7.57"/><circle class="cls-71" cx="105.29" cy="29.62" r="7.36"/><circle class="cls-72" cx="105.29" cy="29.62" r="7.15"/><circle class="cls-73" cx="105.29" cy="29.62" r="6.94"/><circle class="cls-74" cx="105.29" cy="29.62" r="6.73"/><circle class="cls-74" cx="105.29" cy="29.62" r="6.52"/><circle class="cls-74" cx="105.29" cy="29.62" r="6.31"/><circle class="cls-75" cx="105.29" cy="29.62" r="6.1"/><circle class="cls-75" cx="105.29" cy="29.62" r="5.89"/><circle class="cls-76" cx="105.29" cy="29.62" r="5.68"/><circle class="cls-76" cx="105.29" cy="29.62" r="5.47"/><circle class="cls-76" cx="105.29" cy="29.62" r="5.26"/><circle class="cls-77" cx="105.29" cy="29.62" r="5.05"/><circle class="cls-77" cx="105.29" cy="29.62" r="4.84"/><circle class="cls-77" cx="105.29" cy="29.62" r="4.63"/><circle class="cls-78" cx="105.29" cy="29.62" r="4.42"/><circle class="cls-78" cx="105.29" cy="29.62" r="4.21"/><circle class="cls-78" cx="105.29" cy="29.62" r="4"/><circle class="cls-79" cx="105.29" cy="29.62" r="3.79"/><circle class="cls-79" cx="105.29" cy="29.62" r="3.58"/><circle class="cls-79" cx="105.29" cy="29.62" r="3.37"/><circle class="cls-80" cx="105.29" cy="29.62" r="3.15"/><circle class="cls-80" cx="105.29" cy="29.62" r="2.94"/><circle class="cls-80" cx="105.29" cy="29.62" r="2.73"/><circle class="cls-80" cx="105.29" cy="29.62" r="2.52"/><circle class="cls-81" cx="105.29" cy="29.62" r="2.31"/><circle class="cls-82" cx="105.29" cy="29.62" r="2.1"/><circle class="cls-82" cx="105.29" cy="29.62" r="1.89"/><circle class="cls-82" cx="105.29" cy="29.62" r="1.68"/><circle class="cls-82" cx="105.29" cy="29.62" r="1.47"/><circle class="cls-82" cx="105.29" cy="29.62" r="1.26"/><circle class="cls-82" cx="105.29" cy="29.62" r="1.05"/><circle class="cls-83" cx="105.29" cy="29.62" r="0.84"/><circle class="cls-83" cx="105.29" cy="29.62" r="0.63"/><circle class="cls-83" cx="105.29" cy="29.62" r="0.42"/><circle class="cls-83" cx="105.29" cy="29.62" r="0.21"/></g><path class="cls-84" d="M422.27,659.08c-16.19,16.22-77.62,16.61-199.83,16.73-124.39.13-186.94-.15-203.83-16.73-50.3-49.39,56-221.32,197.15-222.86C359.18,434.65,471.61,609.61,422.27,659.08Z"/><path class="cls-85" d="M87.61,306.09C85.32,263,62.31,245.34,68.19,204c2.53-17.82,8.64-27.51,7.55-28-2.57-1.07-40.25,51.43-38,112.49C39.3,329.93,59.11,371,70.81,369.75,81,368.64,89.14,335,87.61,306.09Z"/><g class="cls-86"><path class="cls-87" d="M65.76,347a79.51,79.51,0,0,1-5-73.39l.57.25a78.83,78.83,0,0,0,5,72.81Z"/></g><g class="cls-86"><path class="cls-87" d="M63.08,319.19a14.86,14.86,0,0,1-.94-13.71l.57.25a14.21,14.21,0,0,0,.9,13.13Z"/></g><path class="cls-85" d="M352.8,420.91c-27.18,50.8-91.46,52.32-133.46,53.32s-110.72,2.62-140.41-50c-22.6-40.07-13.44-95.48,12.34-130.42,34.67-47,91.56-46.33,126.52-45.94,34.53.39,86.14,1,119.58,44.3C363.48,326,374.4,380.52,352.8,420.91Z"/><g class="cls-88"><path class="cls-89" d="M125.51,363.17l-.23-.8c22.22-6.5,46.85-10.36,73.19-11.48a381.41,381.41,0,0,1,106.42,10.63l-.2.8a380.69,380.69,0,0,0-106.18-10.6C172.23,352.83,147.67,356.69,125.51,363.17Z"/></g><g class="cls-90"><path class="cls-89" d="M182.83,315.61c-5.08-9.36-17.73-23-33.23-19.94-19,3.72-23.1,28.82-23.26,29.91-1.76,12,1.9,28.27,11.63,32.4,3.53,1.49,5,.18,20.77-2.5,18.83-3.2,20.9-2.05,24.09-5C190.7,343.26,188.73,326.5,182.83,315.61Z"/></g><g class="cls-90"><path class="cls-91" d="M245.83,316.21c4.89-9.46,17.27-23.31,32.82-20.6C297.78,299,302.32,324,302.5,325.05c2,12-1.33,28.3-11,32.62-3.5,1.56-5,.29-20.81-2.08-18.89-2.83-20.94-1.63-24.18-4.5C238.51,344,240.14,327.21,245.83,316.21Z"/></g><ellipse class="cls-92" cx="260.08" cy="317.27" rx="8.31" ry="7.48"/><ellipse class="cls-92" cx="167.05" cy="317.27" rx="8.31" ry="7.48"/><path class="cls-93" d="M320.23,307.44c-4.88-4.14-20.78-16.55-44-16.87a68.27,68.27,0,0,0-30.65,6.91L238.37,280c27.18-7.07,50.54-4.16,60.86,3.24a80.11,80.11,0,0,1,13.26,12.56A71.28,71.28,0,0,1,320.23,307.44Z"/><path class="cls-93" d="M106.16,298.9c4.88-4.14,20.78-16.55,44-16.87a68.23,68.23,0,0,1,30.65,6.91q3.6-8.73,7.18-17.46c-27.17-7.07-50.54-4.15-60.86,3.24a79.82,79.82,0,0,0-13.25,12.56A72.55,72.55,0,0,0,106.16,298.9Z"/><g class="cls-94"><g class="cls-95"><rect class="cls-96" x="182.09" y="363.04" width="26.48" height="43.6"/><rect class="cls-96" x="208.57" y="363.04" width="0.71" height="43.6"/><rect class="cls-96" x="209.28" y="363.04" width="0.71" height="43.6"/><rect class="cls-96" x="209.99" y="363.04" width="0.71" height="43.6"/><rect class="cls-96" x="210.7" y="363.04" width="0.71" height="43.6"/><rect class="cls-96" x="211.41" y="363.04" width="0.71" height="43.6"/><rect class="cls-96" x="212.12" y="363.04" width="0.71" height="43.6"/><rect class="cls-96" x="212.83" y="363.04" width="0.71" height="43.6"/><rect class="cls-96" x="213.54" y="363.04" width="0.71" height="43.6"/><rect class="cls-96" x="214.25" y="363.04" width="0.71" height="43.6"/><rect class="cls-96" x="214.96" y="363.04" width="0.71" height="43.6"/><rect class="cls-96" x="215.66" y="363.04" width="0.71" height="43.6"/><rect class="cls-97" x="216.37" y="363.04" width="0.71" height="43.6"/><rect class="cls-97" x="217.08" y="363.04" width="0.71" height="43.6"/><rect class="cls-98" x="217.79" y="363.04" width="0.71" height="43.6"/><rect class="cls-98" x="218.5" y="363.04" width="0.71" height="43.6"/><rect class="cls-98" x="219.21" y="363.04" width="0.71" height="43.6"/><rect class="cls-98" x="219.92" y="363.04" width="0.71" height="43.6"/><rect class="cls-99" x="220.63" y="363.04" width="0.71" height="43.6"/><rect class="cls-99" x="221.34" y="363.04" width="0.71" height="43.6"/><rect class="cls-99" x="222.05" y="363.04" width="0.71" height="43.6"/><rect class="cls-100" x="222.76" y="363.04" width="0.71" height="43.6"/><rect class="cls-101" x="223.47" y="363.04" width="0.71" height="43.6"/><rect class="cls-101" x="224.18" y="363.04" width="0.71" height="43.6"/><rect class="cls-102" x="224.89" y="363.04" width="0.71" height="43.6"/><rect class="cls-103" x="225.6" y="363.04" width="0.71" height="43.6"/><rect class="cls-104" x="226.3" y="363.04" width="0.71" height="43.6"/><rect class="cls-104" x="227.01" y="363.04" width="0.71" height="43.6"/><rect class="cls-105" x="227.72" y="363.04" width="0.71" height="43.6"/><rect class="cls-106" x="228.43" y="363.04" width="0.71" height="43.6"/><rect class="cls-107" x="229.14" y="363.04" width="0.71" height="43.6"/><rect class="cls-108" x="229.85" y="363.04" width="0.71" height="43.6"/><rect class="cls-109" x="230.56" y="363.04" width="0.71" height="43.6"/><rect class="cls-109" x="231.27" y="363.04" width="0.71" height="43.6"/><rect class="cls-110" x="231.98" y="363.04" width="0.71" height="43.6"/><rect class="cls-111" x="232.69" y="363.04" width="0.71" height="43.6"/><rect class="cls-112" x="233.4" y="363.04" width="0.71" height="43.6"/><rect class="cls-113" x="234.11" y="363.04" width="0.71" height="43.6"/><rect class="cls-114" x="234.82" y="363.04" width="0.71" height="43.6"/><rect class="cls-115" x="235.53" y="363.04" width="0.71" height="43.6"/><rect class="cls-116" x="236.23" y="363.04" width="0.71" height="43.6"/><rect class="cls-117" x="236.94" y="363.04" width="0.71" height="43.6"/><rect class="cls-118" x="237.65" y="363.04" width="0.71" height="43.6"/><rect class="cls-119" x="238.36" y="363.04" width="0.71" height="43.6"/><rect class="cls-120" x="239.07" y="363.04" width="0.71" height="43.6"/><rect class="cls-121" x="239.78" y="363.04" width="0.71" height="43.6"/><rect class="cls-122" x="240.49" y="363.04" width="0.71" height="43.6"/><rect class="cls-123" x="241.2" y="363.04" width="0.71" height="43.6"/><rect class="cls-124" x="241.91" y="363.04" width="0.71" height="43.6"/><rect class="cls-125" x="242.62" y="363.04" width="0.71" height="43.6"/><rect class="cls-126" x="243.33" y="363.04" width="0.71" height="43.6"/><rect class="cls-127" x="244.04" y="363.04" width="0.71" height="43.6"/><rect class="cls-128" x="244.75" y="363.04" width="0.71" height="43.6"/><rect class="cls-129" x="245.46" y="363.04" width="0.71" height="43.6"/><rect class="cls-130" x="246.16" y="363.04" width="0.71" height="43.6"/><rect class="cls-131" x="246.87" y="363.04" width="0.71" height="43.6"/><rect class="cls-132" x="247.58" y="363.04" width="0.71" height="43.6"/></g></g><path class="cls-87" d="M215.58,424.76c-.12.25,20.15,7.78,41.95-.38,21.33-8,31-26.05,30.73-26.15s-.75,1.42-2.69,3.64a77.7,77.7,0,0,1-29,20.28,72.23,72.23,0,0,1-35.74,3.74C217.47,425.44,215.65,424.61,215.58,424.76Z"/><path class="cls-133" d="M314.58,273.05C298.52,262.9,258.93,241,205,242.21A194.67,194.67,0,0,0,126.26,261c-16.79,12.92-25.08,13.32-29.56,10.86-16.37-9-8.52-71.14,14.75-121.69C130,109.89,149.76,95.57,144,71.27c-6.49-27.57-38.33-36.37-36.1-41.52C112.1,20.1,233.91,28,301,114c50,64.13,59.55,158.75,39.86,168.76C335.83,285.34,330.18,282.91,314.58,273.05Z"/><path class="cls-134" d="M348.34,309.2c-8.93-8.6-71.16-66.58-159.18-55.85-52.24,6.37-87.58,33.77-102,46.47a32.11,32.11,0,0,1-1.18-31c14.81-11,60.71-42,126.68-41.63,74.79.39,124.5,40.83,137.35,52a34.26,34.26,0,0,1,2.38,9.08A36.44,36.44,0,0,1,348.34,309.2Z"/><polygon class="cls-134" points="148.41 249.08 96.96 217.89 89.68 277.62 148.41 249.08 96.96 217.89 89.68 277.62 148.41 249.08"/><path class="cls-134" d="M89.69,284.68a7.08,7.08,0,0,1-7.07-7.06,6.22,6.22,0,0,1,.06-.86L90,217a7.06,7.06,0,0,1,10.66-5.19L152.07,243a7.06,7.06,0,0,1,3.41,6c0,.11,0,.22,0,.33a7.05,7.05,0,0,1-4,6L92.77,284A7.12,7.12,0,0,1,89.69,284.68Zm13-55.08-4.39,36,35.41-17.21Z"/><polygon class="cls-134" points="194.06 232.85 150.7 195.62 137.18 251.15 194.06 232.85 150.7 195.62 137.18 251.15 194.06 232.85"/><path class="cls-134" d="M137.18,258.21a7.07,7.07,0,0,1-7.07-7.06,7.4,7.4,0,0,1,.2-1.67L143.84,194a7.06,7.06,0,0,1,11.46-3.69l43.36,37.23a7.07,7.07,0,0,1,2.47,5.36,7.47,7.47,0,0,1-.14,1.4,7.07,7.07,0,0,1-4.76,5.32l-56.89,18.31A7.31,7.31,0,0,1,137.18,258.21Zm17.65-49.73L147,240.57,179.89,230Z"/><polygon class="cls-134" points="249.31 234.5 220.03 185.42 189.56 233.77 249.31 234.5 220.03 185.42 189.56 233.77 249.31 234.5"/><path class="cls-134" d="M249.31,241.56h-.08l-59.76-.73a7.05,7.05,0,0,1-6.12-3.69,6.94,6.94,0,0,1-.85-3.37,7.1,7.1,0,0,1,1.08-3.77l30.48-48.35a7.06,7.06,0,0,1,12,.15l29.29,49.08a7.07,7.07,0,0,1-6.07,10.68Zm-47.05-14.7,34.53.42-16.92-28.36Z"/><polygon class="cls-134" points="305.65 257.18 292.39 201.59 248.84 238.6 305.65 257.18 292.39 201.59 248.84 238.6 305.65 257.18"/><path class="cls-134" d="M305.65,264.24a6.93,6.93,0,0,1-2.2-.35l-56.8-18.58a7.06,7.06,0,0,1-2.38-12.09l43.55-37A7.05,7.05,0,0,1,299.26,200l13.25,55.59a7.14,7.14,0,0,1,.2,1.64,7.07,7.07,0,0,1-7.06,7.06ZM263,235.81l32.82,10.74-7.66-32.13Z"/><polygon class="cls-134" points="345.59 289 342.33 231.94 292.95 260.71 345.59 289 342.33 231.94 292.95 260.71 345.59 289"/><path class="cls-134" d="M345.59,296.06a7.07,7.07,0,0,1-3.34-.84l-52.64-28.29a7.07,7.07,0,0,1-3.72-6.1v-.12a7,7,0,0,1,3.51-6.1l49.38-28.78a7.07,7.07,0,0,1,10.61,5.7l3.25,57.07c0,.13,0,.26,0,.4a7.06,7.06,0,0,1-7.06,7.06Zm-38.19-35.6,30.42,16.35-1.88-33Z"/><path class="cls-85" d="M349.94,296.46c7.38-42.51,32.32-57.32,31.39-99.12-.4-18-5.31-28.34-4.18-28.66,2.67-.76,33.87,55.83,24.37,116.19-6.45,41-31,79.46-42.45,76.79C349.09,359.35,345,325,349.94,296.46Z"/><g class="cls-86"><path class="cls-87" d="M366.78,339.63l-.49-.39a78.86,78.86,0,0,0,13.56-71.71l.6-.18a79.47,79.47,0,0,1-13.67,72.28Z"/></g><g class="cls-86"><path class="cls-87" d="M372.74,312.37l-.49-.38a14.22,14.22,0,0,0,2.45-12.94l.6-.18a14.81,14.81,0,0,1-2.56,13.5Z"/></g><path class="cls-135" d="M316.44,494.44l-197.58,3.1a21.45,21.45,0,0,1-5.45-39.69A304.51,304.51,0,0,0,319.32,455c.6.34,11,6.53,11.3,18.38A22.37,22.37,0,0,1,316.44,494.44Z"/><path class="cls-136" d="M319.17,487.18c1.18-9.21-.57-22.09-6.16-22.16-6.19-.08-20.74,15.52-20.29,29.47.27,8.36,6,20.14,3.41,29.55-.15.55-.38,1.24-.09,1.31C297.61,525.7,316.55,507.45,319.17,487.18Z"/><path class="cls-136" d="M109.78,489.54c-1.19-9.21.57-22.09,6.16-22.16,6.19-.08,20.74,15.52,20.29,29.47-.27,8.36-6.06,20.14-3.42,29.54.16.55.39,1.25.1,1.32C131.33,528.06,112.39,509.8,109.78,489.54Z"/><path class="cls-136" d="M157.85,492.6c-1.88-9.35-8-21.08-13.77-18.92-6.37,2.39-16,23.23-10.89,36.5,3.09,7.95,13,17,13.43,27.13,0,.59,0,1.36.35,1.3C148.7,538.32,162,513.18,157.85,492.6Z"/><path class="cls-136" d="M269.18,492.6c1.88-9.35,8-21.08,13.77-18.92,6.37,2.39,16,23.23,10.89,36.5-3.09,7.95-13,17-13.43,27.13,0,.59,0,1.36-.35,1.3C278.33,538.32,265.05,513.18,269.18,492.6Z"/><path class="cls-136" d="M158.11,497.5c1.88-9.34,8-21.07,13.77-18.91,6.37,2.39,16,23.23,10.88,36.5-3.08,7.95-13,17-13.43,27.13,0,.59,0,1.35-.34,1.3C167.25,543.23,154,518.09,158.11,497.5Z"/><path class="cls-136" d="M243.49,492.6c1.87-9.35,8-21.08,13.76-18.92,6.37,2.39,16,23.23,10.89,36.5-3.09,7.95-13,17-13.43,27.13,0,.59,0,1.36-.35,1.3C252.63,538.32,239.35,513.18,243.49,492.6Z"/><path class="cls-136" d="M180.67,502.66c1.73-10.41,8.31-23.27,15.13-20.56,7.56,3,19.88,26.88,14.52,41.53-3.2,8.77-14.3,18.44-14.33,29.79,0,.66,0,1.52-.33,1.44C193.62,554.45,176.87,525.56,180.67,502.66Z"/><path class="cls-136" d="M219.33,500.39c2.19-10.59,9.19-23.91,15.63-21.52,7.14,2.65,17.81,26.14,11.9,41.2-3.54,9-14.73,19.35-15.33,30.81,0,.67,0,1.53-.4,1.48C229.19,552.05,214.5,523.72,219.33,500.39Z"/><path class="cls-136" d="M198.87,509.29c2.32-11.26,9.75-25.42,16.62-22.86,7.6,2.83,19,27.83,12.75,43.84-3.75,9.58-15.65,20.55-16.27,32.74,0,.71,0,1.63-.42,1.57C209.48,564.24,193.77,534.09,198.87,509.29Z"/><path class="cls-136" d="M110.88,490c7.21-5.84,14.85-16.37,10.85-20.28-4.42-4.33-25.72-3.11-35,7.29-5.58,6.23-9.53,18.74-17.94,23.72-.49.29-1.14.64-1,.88C68.68,503,95,502.85,110.88,490Z"/><path class="cls-136" d="M319.26,487.75c-7.31-5.72-15.11-16.13-11.17-20.1,4.35-4.41,25.67-3.51,35.14,6.74,5.67,6.14,9.82,18.59,18.31,23.43.5.28,1.15.62,1,.87C361.65,500.05,335.35,500.35,319.26,487.75Z"/><path class="cls-136" d="M311.15,490.08c-.36-6.81,1.89-15.94,6.39-15.35,5,.65,15.67,13.63,14.4,23.68-.76,6-6.18,13.9-4.66,21,.08.42.22,1,0,1C326,520.46,311.94,505.06,311.15,490.08Z"/><path class="cls-136" d="M104.15,491.49c3.83-5.63,11.15-11.55,14.37-8.36,3.58,3.53,4.25,20.32-2.84,27.57-4.25,4.34-13.32,7.33-16.42,13.92-.18.39-.39.89-.59.76C97.6,524.66,95.72,503.91,104.15,491.49Z"/></svg>