<svg id="Layer_1" data-name="Layer 1" xmlns="http://www.w3.org/2000/svg" xmlns:xlink="http://www.w3.org/1999/xlink" viewBox="0 0 140 140"><defs><style>.cls-1{fill:none;}.cls-2{fill:#653414;}.cls-3{fill:#683614;}.cls-4{clip-path:url(#clip-path);}.cls-5{fill:#49392e;}.cls-6{fill:#48382c;}.cls-7{fill:#47362b;}.cls-8{fill:#463529;}.cls-9{fill:#453327;}.cls-10{fill:#433225;}.cls-11{fill:#423023;}.cls-12{fill:#412f20;}.cls-13{fill:#402d1e;}.cls-14{fill:#3f2b1c;}.cls-15{fill:#3e2a19;}.cls-16{fill:#3c2816;}.cls-17{fill:#3b2613;}.cls-18{fill:#3a2410;}.cls-19{fill:#39220c;}.cls-20{fill:#382107;}.cls-21{fill:#371f03;}.cls-22{fill:#361d00;}.cls-23{fill:#341b00;}.cls-24{fill:#331900;}.cls-25{fill:#321700;}.cls-26{fill:#311400;}.cls-27{fill:#311200;}.cls-28{fill:#301000;}.cls-29{fill:#2f0f00;}.cls-30{fill:#2f0d00;}.cls-31{opacity:0.29;}.cls-32{fill:#060305;}.cls-33{opacity:0.95;}.cls-34{fill:#040102;}.cls-35{fill:#fff;}.cls-36{fill:#241010;}.cls-37{fill:#a0252a;}.cls-38{fill:#d0cdcd;}.cls-39{fill:#e3e2e1;}.cls-40{fill:#473332;}.cls-41{opacity:0.5;}</style><clipPath id="clip-path"><ellipse class="cls-1" cx="59.72" cy="92.28" rx="20.61" ry="11.92"/></clipPath></defs><path class="cls-2" d="M32.1,69.41c1.44,2.11,2.61,5.49,1.25,6.2-1.51.8-7-1.22-8.65-4.7-1-2.08-1-5.7-2.85-7.68-.11-.11-.25-.25-.19-.31C22,62.64,28.93,64.76,32.1,69.41Z"/><path class="cls-2" d="M88.77,70.25c-1.44,2.11-2.62,5.5-1.26,6.21s7-1.22,8.66-4.7c1-2.09,1-5.7,2.85-7.68.1-.11.25-.26.18-.31C98.86,63.49,91.94,65.61,88.77,70.25Z"/><path class="cls-3" d="M47.18,97.36H72.26a20.11,20.11,0,0,0,11-4.56c5.82-5,8.19-13.32,6.42-21.69a30,30,0,0,0-6.42-11.47c-9.68-10.69-23.78-10-25.76-9.86C55,49.94,44,50.67,36.2,59.64A28.23,28.23,0,0,0,30.51,70.2c-2.35,8.65-.2,17.45,5.69,22.6A19.66,19.66,0,0,0,47.18,97.36Z"/><ellipse class="cls-3" cx="59.72" cy="103.15" rx="41.23" ry="23.84"/><g class="cls-4"><polygon class="cls-5" points="80.33 87.34 68.25 80.36 80.33 80.36 80.33 87.34"/><polygon class="cls-5" points="80.33 88.34 66.51 80.36 68.25 80.36 80.33 87.34 80.33 88.34"/><polygon class="cls-6" points="80.33 89.35 64.77 80.36 66.51 80.36 80.33 88.34 80.33 89.35"/><polygon class="cls-7" points="80.33 90.35 63.03 80.36 64.77 80.36 80.33 89.35 80.33 90.35"/><polygon class="cls-8" points="80.33 91.35 61.3 80.36 63.03 80.36 80.33 90.35 80.33 91.35"/><polygon class="cls-9" points="80.33 92.36 59.56 80.36 61.3 80.36 80.33 91.35 80.33 92.36"/><polygon class="cls-10" points="80.33 93.36 57.82 80.36 59.56 80.36 80.33 92.36 80.33 93.36"/><polygon class="cls-11" points="80.33 94.36 56.08 80.36 57.82 80.36 80.33 93.36 80.33 94.36"/><polygon class="cls-12" points="80.33 95.37 54.35 80.36 56.08 80.36 80.33 94.36 80.33 95.37"/><polygon class="cls-13" points="80.33 96.37 52.61 80.36 54.35 80.36 80.33 95.37 80.33 96.37"/><polygon class="cls-14" points="80.33 97.37 50.87 80.36 52.61 80.36 80.33 96.37 80.33 97.37"/><polygon class="cls-15" points="80.33 98.38 49.13 80.36 50.87 80.36 80.33 97.37 80.33 98.38"/><polygon class="cls-16" points="80.33 99.38 47.4 80.36 49.13 80.36 80.33 98.38 80.33 99.38"/><polygon class="cls-17" points="80.33 100.38 45.66 80.36 47.4 80.36 80.33 99.38 80.33 100.38"/><polygon class="cls-18" points="80.33 101.39 43.92 80.36 45.66 80.36 80.33 100.38 80.33 101.39"/><polygon class="cls-19" points="80.33 102.39 42.18 80.36 43.92 80.36 80.33 101.39 80.33 102.39"/><polygon class="cls-20" points="80.33 102.87 80.1 103.26 40.45 80.36 42.18 80.36 80.33 102.39 80.33 102.87"/><polygon class="cls-21" points="80.1 103.26 79.67 104.01 39.59 80.87 39.88 80.36 40.45 80.36 80.1 103.26"/><polygon class="cls-22" points="79.67 104.01 79.56 104.21 78.27 104.21 39.15 81.62 39.59 80.87 79.67 104.01"/><polygon class="cls-23" points="76.53 104.21 39.1 82.6 39.1 81.7 39.15 81.62 78.27 104.21 76.53 104.21"/><polygon class="cls-24" points="74.79 104.21 39.1 83.6 39.1 82.6 76.53 104.21 74.79 104.21"/><polygon class="cls-25" points="73.05 104.21 39.1 84.61 39.1 83.6 74.79 104.21 73.05 104.21"/><polygon class="cls-26" points="71.31 104.21 39.1 85.61 39.1 84.61 73.05 104.21 71.31 104.21"/><polygon class="cls-27" points="69.58 104.21 39.1 86.61 39.1 85.61 71.31 104.21 69.58 104.21"/><polygon class="cls-28" points="67.84 104.21 39.1 87.62 39.1 86.61 69.58 104.21 67.84 104.21"/><polygon class="cls-29" points="66.1 104.21 39.1 88.62 39.1 87.62 67.84 104.21 66.1 104.21"/><polygon class="cls-30" points="64.36 104.21 39.1 89.62 39.1 88.62 66.1 104.21 64.36 104.21"/><polygon class="cls-30" points="39.1 89.62 64.36 104.21 39.1 104.21 39.1 89.62"/></g><path class="cls-30" d="M65.73,113A23.71,23.71,0,0,1,49,115.77a22.7,22.7,0,0,1-13.57-9.17c.09-.06,5,6.77,13.63,8.68C57.93,117.23,65.68,112.86,65.73,113Z"/><g class="cls-31"><path class="cls-32" d="M79.62,80a68.25,68.25,0,0,0-16.2-2.54,84.44,84.44,0,0,0-23.6,2.36l-.24-1a85.47,85.47,0,0,1,23.88-2.39A69.09,69.09,0,0,1,79.9,79Z"/></g><g class="cls-33"><path class="cls-32" d="M66.93,69c1.14-2.09,4-5.13,7.43-4.45,4.25.83,5.15,6.43,5.19,6.68.39,2.68-.42,6.31-2.6,7.23-.79.34-1.12,0-4.64-.55-4.2-.72-4.66-.46-5.38-1.12C65.18,75.15,65.62,71.4,66.93,69Z"/></g><g class="cls-33"><path class="cls-34" d="M52.86,69.11C51.77,67,49,63.9,45.53,64.51c-4.27.74-5.28,6.33-5.32,6.57-.45,2.68.29,6.32,2.45,7.28.78.35,1.12.07,4.65-.46,4.22-.63,4.67-.36,5.4-1C54.5,75.31,54.13,71.56,52.86,69.11Z"/></g><ellipse class="cls-35" cx="50.19" cy="70.37" rx="1.86" ry="1.67"/><ellipse class="cls-35" cx="69.89" cy="70.37" rx="1.86" ry="1.67"/><circle class="cls-35" cx="77.46" cy="67.98" r="0.37"/><ellipse class="cls-35" cx="43.27" cy="67.94" rx="0.37" ry="0.34"/><path class="cls-36" d="M35.74,67.67a15.36,15.36,0,0,1,9.42-5,14.81,14.81,0,0,1,6.89.85c-.21-1.72-.41-3.44-.61-5.16C49.68,58.24,43.26,58,39,62.44a12.23,12.23,0,0,0-1.82,2.45Z"/><path class="cls-36" d="M84.34,67.67a15.36,15.36,0,0,0-9.42-5,14.79,14.79,0,0,0-6.89.85c.2-1.72.41-3.44.61-5.16,1.76-.12,8.18-.36,12.46,4.08a12.23,12.23,0,0,1,1.82,2.45Z"/><path class="cls-37" d="M62.83,13.45A38.51,38.51,0,0,1,82.9,15.93a46.6,46.6,0,0,1,11.31,6.22c6.48,4.68,10.31,9.57,14.18,14.58a133.06,133.06,0,0,1,10,15.47c3.1,5.31,5.46,9.85,7.07,13.07-11.88-2.71-16.81-3.83-16.81-3.82h0A126.76,126.76,0,0,1,93.56,55.8c-4.89-2.31-8.54-4-12.54-7.56-2.26-2-8-7.53-11.36-9.29-1.44-.75-3.19-1.63-3.19-1.63-1-.5-1.79-.9-2.69-1.34-2.55-1.27-5.25-2.24-7.74-3.64A22.45,22.45,0,0,1,50,26.49c-1.7-2.31-2.56-3.46-2.52-4.59C47.59,17.79,56.51,14.48,62.83,13.45Z"/><path class="cls-37" d="M62.38,53.42c15.52-.4,17.69.29,19.94-2.11,6.24-6.68-1.09-22-2-24C78,22.59,75.33,17,69.22,14.66c-8-3.06-16,1.85-18.32,3.28-12.16,7.49-13.41,22-13.85,27.2-.35,4.06.2,5.36.75,6.18C40.38,55.19,46.62,53.82,62.38,53.42Z"/><circle class="cls-38" cx="127.49" cy="66.02" r="5.11"/><circle class="cls-38" cx="121.16" cy="68.57" r="5.11"/><circle class="cls-38" cx="124.43" cy="73.68" r="5.11"/><circle class="cls-38" cx="129.95" cy="72.05" r="5.11"/><path class="cls-39" d="M39.26,58.8A46.4,46.4,0,0,1,83,60a4.1,4.1,0,0,0,3.11-1c1.35-1.44,1.17-4.44-1.09-6.75a46.59,46.59,0,0,0-12.22-4.74,49.58,49.58,0,0,0-11-1.2,61.63,61.63,0,0,0-25,5.65c-2.36,2.48-2.33,5.52-1,6.64S39,58.89,39.26,58.8Z"/><path class="cls-40" d="M32.85,64.41A5.32,5.32,0,0,0,37,63a5,5,0,0,0,1.39-2.77A49.28,49.28,0,0,1,33,55.36c-1-1-4-5.48-8.74-12.64a120.23,120.23,0,0,1-9.83-18c-.69-1.36-1.65-2.45-2.44-2.33-1,.14-1.82,2.13-1.58,5Z"/><path class="cls-40" d="M15.84,32.36q0-.36,0-.72a11.33,11.33,0,0,1,3.15-7c.93-1.29.87-1.73.74-1.91-.4-.53-2.33.29-3.43.81a15,15,0,0,1-1.45,5,15.76,15.76,0,0,1-1.7,2.71Z"/><path class="cls-40" d="M16.71,38.91l.88-2.14a24.63,24.63,0,0,1-6.31-1.88,24.93,24.93,0,0,1-3.34-1.83c-1.33-1.19-2.55-1.78-2.89-1.48s.11,1.58,1.15,3Z"/><path class="cls-40" d="M24.33,49.57l3.75.56a19.21,19.21,0,0,1,.71-9.66l-2.15-2Z"/><path class="cls-40" d="M26.2,43.33l1.59-.82a8.37,8.37,0,0,1-3.24-6.26c.09-.68.05-1-.09-1.1s-.72.55-1.49,1.92Z"/><path class="cls-40" d="M29.61,55.88l.11-4.53a54.36,54.36,0,0,1-8.33.41A55.53,55.53,0,0,1,13.52,51c-1.22-.21-2.45-.22-2.56.12s1.37,1.25,2.7,1.92L21,54.32Z"/><path class="cls-40" d="M20.61,52.12,19,52.85a8.91,8.91,0,0,0-1.59-5,7.84,7.84,0,0,0-1.29-1.41c-.58-.36-.85-.62-.8-.77s.88-.21,2.43,0Z"/><path class="cls-40" d="M19.07,51.05l.29-1.23c-.22,0-3.32.11-3.77-1.63a1.84,1.84,0,0,1-.05-.54c-.22-.27-.38-.38-.5-.34s-.3.85-.13,2.31Z"/><path class="cls-40" d="M9.89,36l1.58-.81A5.09,5.09,0,0,1,9,30.44c.15-.56.16-.85,0-.88s-.74.52-1.6,1.69Z"/><path class="cls-40" d="M13.45,37.3l-1-1.44A5.29,5.29,0,0,1,9.55,38.7,5.08,5.08,0,0,1,8.08,39c-.58-.06-.87,0-.88.12s.63.65,1.93,1.31Z"/><path class="cls-40" d="M16,26l.21,1.76a6.67,6.67,0,0,1,2.76-.9,6.56,6.56,0,0,1,2.57.25c.5-.54,1.71-1.92,1.37-2.4-.09-.13-.37-.3-1.39,0a6.94,6.94,0,0,1-2.44,1.2A7,7,0,0,1,16,26Z"/><path class="cls-40" d="M33.64,60.89l2.59-.23c-.25-2.33-.33-4.29-.35-5.79a23.45,23.45,0,0,1,.11-4c.22-1.18.57-2.12.25-2.33s-1,.29-1.47.72c.13-.63-.12-1.11-.42-1.19a.62.62,0,0,0-.49.16,23.25,23.25,0,0,1,.68,4A23.87,23.87,0,0,1,33.64,60.89Z"/><path class="cls-40" d="M35,53.92l.45-.74c-.16-.09-2.47-1.29-2.48-2.69a1.51,1.51,0,0,1,.06-.41c-.1-.27-.2-.42-.3-.44s-.37.48-.52,1.57Z"/><path class="cls-40" d="M32.42,61.77l.16-1c-.65,0-1.34,0-2.06,0s-1.62,0-2.37-.06c-.64.49-.89.78-.74.89s.43.06,1-.06c.49.06,1,.11,1.55.15C30.81,61.74,31.65,61.77,32.42,61.77Z"/><path class="cls-40" d="M29.55,61.06l-.59.17c0-.09.24-1.34-.54-1.45h-.25c-.11-.07-.15-.13-.13-.18s.41-.16,1.08-.15Z"/><path class="cls-40" d="M87.29,66a5.32,5.32,0,0,1-4-1.74,5.05,5.05,0,0,1-1.17-2.87A49.56,49.56,0,0,0,87.86,57c1.07-1,4.4-5.14,9.73-11.9A120.86,120.86,0,0,0,108.84,28c.8-1.31,1.84-2.31,2.62-2.13,1,.22,1.64,2.27,1.17,5.12Z"/><path class="cls-40" d="M106.83,35.42c0-.24,0-.47.06-.72a11.39,11.39,0,0,0-2.58-7.23c-.82-1.36-.73-1.8-.58-2,.44-.49,2.3.48,3.35,1.08a15.11,15.11,0,0,0,2.52,8Z"/><path class="cls-40" d="M105.43,41.88l-.7-2.2a24.72,24.72,0,0,0,9.91-2.92c1.43-1.08,2.69-1.57,3-1.24s-.24,1.56-1.39,2.93Z"/><path class="cls-40" d="M97,51.89l-3.78.25a19,19,0,0,0,.07-9.69l2.31-1.83Z"/><path class="cls-40" d="M95.61,45.51l-1.51-.94a8.84,8.84,0,0,0,3.28-4.11,8.39,8.39,0,0,0,.45-1.87c0-.68,0-1,.18-1.09s.68.62,1.33,2Z"/><path class="cls-40" d="M91.2,57.75l.26-4.52a55.45,55.45,0,0,0,8.27,1.08,55.88,55.88,0,0,0,7.9-.14c1.24-.11,2.47,0,2.55.33s-1.47,1.13-2.85,1.69L100,56.9Z"/><path class="cls-40" d="M100.47,54.73l1.57.85a8.8,8.8,0,0,1,2-4.87,8.24,8.24,0,0,1,1.4-1.3c.61-.31.9-.54.86-.7s-.86-.29-2.42-.16Z"/><path class="cls-40" d="M102.1,53.79l-.2-1.26c.23,0,3.31.39,3.9-1.31a2,2,0,0,0,.1-.54c.23-.24.4-.34.52-.3s.22.87-.06,2.32Z"/><path class="cls-40" d="M112.47,39.56,111,38.62a5.28,5.28,0,0,0,2.6-3.07,5.54,5.54,0,0,0,.22-1.49c-.11-.57-.09-.86,0-.88s.69.57,1.46,1.81Z"/><path class="cls-40" d="M108.81,40.53,110,39.19a5.33,5.33,0,0,0,2.61,3.06,5.27,5.27,0,0,0,1.44.45c.58,0,.87.06.87.2s-.68.59-2,1.15Z"/><path class="cls-40" d="M107.18,29l-.36,1.75a6.51,6.51,0,0,0-2.67-1.13,6.64,6.64,0,0,0-2.58,0c-.46-.58-1.55-2-1.18-2.5.1-.12.39-.27,1.39.09a6.94,6.94,0,0,0,5.4,1.75Z"/><path class="cls-40" d="M86.78,62.42,84.22,62c.44-2.3.68-4.25.82-5.75a25.14,25.14,0,0,0,.21-4c-.12-1.2-.4-2.16-.06-2.35s.93.37,1.4.84c-.07-.63.21-1.1.52-1.14a.63.63,0,0,1,.48.19,22.56,22.56,0,0,0-1,3.92A23.87,23.87,0,0,0,86.78,62.42Z"/><path class="cls-40" d="M86,55.37l-.38-.78c.17-.07,2.57-1.08,2.69-2.48a1.44,1.44,0,0,0,0-.41q.19-.39.33-.42c.21,0,.34.51.4,1.61Z"/><path class="cls-40" d="M87.92,63.39l-.07-1c.65.07,1.33.14,2.05.19s1.62.11,2.37.14c.6.53.82.85.66.94s-.43,0-1-.13c-.49,0-1,0-1.55,0C89.53,63.5,88.7,63.45,87.92,63.39Z"/><path class="cls-40" d="M90.84,62.92l.58.22c0-.09-.14-1.36.65-1.4a.74.74,0,0,1,.25,0c.12-.07.16-.12.14-.18s-.39-.18-1.06-.23Z"/><g class="cls-41"><path class="cls-30" d="M29.9,72.44c-2.64,0-4.79-2.65-4.79-5.91h.75c0,2.85,1.81,5.16,4,5.16Z"/></g><g class="cls-41"><path class="cls-30" d="M90.26,73.52v-.75c2.23,0,4-2.32,4-5.17h.75C95.05,70.86,92.9,73.52,90.26,73.52Z"/></g></svg>