<svg id="Layer_1" data-name="Layer 1" xmlns="http://www.w3.org/2000/svg" viewBox="0 0 420 150"><defs><style>.cls-1{fill:#00582d;}.cls-2{fill:#b31f2b;}.cls-3{fill:#fff;}</style></defs><rect class="cls-1" x="3.57" y="5.39" width="412.87" height="139.22" rx="52.57"/><rect class="cls-2" x="19.11" y="18.58" width="383.23" height="115.9" rx="44.62"/><path class="cls-3" d="M58.87,94.07A3.92,3.92,0,0,1,56.07,93a3.38,3.38,0,0,1-1.18-2.58q-.06-3.51,0-7.94L55,74.52q.24-10.59.15-15.9A3.1,3.1,0,0,1,56.4,56.1,4,4,0,0,1,59.26,55a4.25,4.25,0,0,1,1.26.2,4.18,4.18,0,0,1,.88.08,18.89,18.89,0,0,1,9,3.83,13.07,13.07,0,0,1,5.12,7.61,13.34,13.34,0,0,1-2.41,11.17,17.84,17.84,0,0,1-5,4.51,22.31,22.31,0,0,1-2.44,1.2l-1.24.54-1.26.52-.28.11c0,2,0,3.93,0,5.65A3.18,3.18,0,0,1,61.73,93,4.22,4.22,0,0,1,58.87,94.07Zm4.4-30.58q0,2.85-.09,6.6l-.13,6.64a3.29,3.29,0,0,1,.7-.47l.27-.13.24-.14.3-.19a11.79,11.79,0,0,0,1.51-1.41A6.83,6.83,0,0,0,67.75,70a6.28,6.28,0,0,0-1.68-4.41,8.71,8.71,0,0,0-1.3-1.19l-.09-.08C64.16,64,63.69,63.71,63.27,63.49Z"/><path class="cls-3" d="M105.17,65.45a24.8,24.8,0,0,1,2,10.13A23.21,23.21,0,0,1,105,85.64a15.9,15.9,0,0,1-5.69,6.8,9.38,9.38,0,0,1-8.92.89,11.21,11.21,0,0,1-5.72-5.46,23.82,23.82,0,0,1-2.47-8.07,35.58,35.58,0,0,1,1.41-15.17A18.34,18.34,0,0,1,87,57.81a7.76,7.76,0,0,1,3.76-2.42,9.49,9.49,0,0,1,4.64-.25,10.71,10.71,0,0,1,6.21,4A29.38,29.38,0,0,1,105.17,65.45ZM99.06,78.14a20.44,20.44,0,0,0-1.42-10.3,1.73,1.73,0,0,0-.12-.25l-.06-.16-.06-.19q-.18-.51-.36-.9a14.68,14.68,0,0,0-1-2.12c-1-1.74-1.94-2.35-2.87-1.85a2.42,2.42,0,0,0-.93,1.25c-.08.22-.17.49-.27.82l-.09.35-.12.36a41.19,41.19,0,0,0-1.18,4.16,26.84,26.84,0,0,0-.69,7.25,30.28,30.28,0,0,0,.33,3.64,12.18,12.18,0,0,0,1.12,3.54l.06.11.06.13a2.23,2.23,0,0,0,.09.22l.18.33.21.38c.16.31.31.57.45.79a2.16,2.16,0,0,0,1.33,1,1.9,1.9,0,0,0,1.71-.68c.2-.22.42-.48.67-.79l.24-.38.12-.19.12-.16a16.81,16.81,0,0,0,1.74-3.4A13.35,13.35,0,0,0,99.06,78.14Z"/><path class="cls-3" d="M113.79,90.4c0-1.91,0-4.62-.21-8.16l-.21-4.07q-.09-2.3-.09-4.08,0-4.95.15-8.07l.12-1.85.12-1.88q.18-2.34.21-3.69A3.56,3.56,0,0,1,115.09,56,4.15,4.15,0,0,1,118,55a4.07,4.07,0,0,1,2.83,1.09,3.18,3.18,0,0,1,1.15,2.58c0,.87-.09,2.1-.22,3.7l-.12,1.87-.12,1.85q-.15,3.72-.15,8.07,0,1.8.09,4.08l.21,4.08q.28,5.27.22,8.15A3.31,3.31,0,0,1,120.63,93,4.26,4.26,0,0,1,115,93,3.25,3.25,0,0,1,113.79,90.4Z"/><path class="cls-3" d="M131.51,93.8a4.47,4.47,0,0,1-2.83-1.09,2.83,2.83,0,0,1-1.15-2.58,112.09,112.09,0,0,0,.64-15.91l-.12-4-.12-4c-.1-3.3-.17-6-.19-8a3.23,3.23,0,0,1,.52-1.72,3.65,3.65,0,0,1,1.47-1.38,2.51,2.51,0,0,1,.49-.19l.18-.08h0a4.42,4.42,0,0,1,1.38-.22,4.53,4.53,0,0,1,.94.11,3.22,3.22,0,0,1,2.5,1.68l.06.14a3.4,3.4,0,0,1,.27.54q3.07,6.47,8.91,17.18l.58,1,.15-8.53q.06-4.81.06-8.56a3.27,3.27,0,0,1,1.2-2.53,4,4,0,0,1,2.83-1.06,4,4,0,0,1,2.84,1.09,3.36,3.36,0,0,1,1.17,2.55c0,2.36,0,5-.06,8l-.12,7.93q-.18,10.6-.21,15.9a3.27,3.27,0,0,1-1.3,2.61,4,4,0,0,1-1,.82,4.6,4.6,0,0,1-3.07.38,3.11,3.11,0,0,1-2.44-1.66c-1-2.12-2.23-4.57-3.74-7.37l-2-3.61-2-3.62-1.14-2.09a105.07,105.07,0,0,1-.66,14.57,4.31,4.31,0,0,1-1.24,2.56A4,4,0,0,1,131.51,93.8Z"/><path class="cls-3" d="M168.36,90.4q0-3-.21-6.91L168,80l-.18-3.45q-.51-8.81-.36-13.84a37.45,37.45,0,0,1-4.22-.16,5,5,0,0,1-2.83-1.11,3.24,3.24,0,0,1-1.17-2.56,3.45,3.45,0,0,1,1.2-2.55,3.54,3.54,0,0,1,2.87-1,59.25,59.25,0,0,0,8.31,0l2.08-.13,2.08-.14c1.62-.09,3-.14,4.15-.14A4,4,0,0,1,182.73,56a3.35,3.35,0,0,1,0,5.11,4.4,4.4,0,0,1-2.87,1.06c-1.18,0-2.64.06-4.36.16-.11,3.43,0,8.11.33,14.06l.21,3.5.18,3.51c.12,2.65.19,5,.21,7A3.28,3.28,0,0,1,175.19,93a4.27,4.27,0,0,1-2.86,1.06A4,4,0,0,1,169.5,93,3.45,3.45,0,0,1,168.36,90.4Z"/><rect class="cls-3" x="287.87" y="37.1" width="6.98" height="78.86" rx="2.69" transform="matrix(0.92, 0.39, -0.39, 0.92, 53.07, -107.76)"/><rect class="cls-3" x="312.9" y="101.85" width="55.51" height="7.28" rx="2.81"/><rect class="cls-3" x="198.3" y="101.85" width="55.51" height="7.28" rx="2.81"/><path class="cls-3" d="M333.09,86.86A4.73,4.73,0,0,1,335.92,88a3.23,3.23,0,0,1,1.18,2.53A3.5,3.5,0,0,1,335.86,93a3.79,3.79,0,0,1-2.83,1c-1.16-.07-2.42-.12-3.77-.14l-3.34,0h-3.34l-3.35,0a6.3,6.3,0,0,1-2.8-.49,3.88,3.88,0,0,1-1.59-1.55,2.86,2.86,0,0,1,.12-3.37l1.71-2.25L318.42,84q2.24-2.87,3.43-4.54c1.35-1.89,2.43-3.55,3.26-5A27,27,0,0,0,327.19,70l.06-.19.09-.22.15-.46.33-1.06a14.55,14.55,0,0,0,.51-2.39c.18-2-.39-3.18-1.72-3.62l-.12,0a5.76,5.76,0,0,0-4.76.35c-.36.2-.71.42-1.05.65a3.54,3.54,0,0,1-3,.38,4.08,4.08,0,0,1-2.47-1.66,2.91,2.91,0,0,1-.39-2.72,4.55,4.55,0,0,1,1.8-2.22,13.75,13.75,0,0,1,7.59-2.29,13.26,13.26,0,0,1,7.66,2,9.13,9.13,0,0,1,4.06,5.87,15.3,15.3,0,0,1-.24,7.07Q334,76.4,326.07,86.7C328.84,86.7,331.18,86.76,333.09,86.86Z"/><path class="cls-3" d="M366.44,68.57a29.39,29.39,0,0,1-1.29,17,15.61,15.61,0,0,1-4,6.12A10.14,10.14,0,0,1,353.22,94c-.26,0-.5,0-.73-.09a3.8,3.8,0,0,1-.51-.13,9.86,9.86,0,0,1-5.39-3.89A17,17,0,0,1,344,83.93a38.3,38.3,0,0,1-1-13.48,25.45,25.45,0,0,1,2.59-9.08,11.57,11.57,0,0,1,2.95-3.64,8.18,8.18,0,0,1,4.4-2,9.61,9.61,0,0,1,6,.87,13.31,13.31,0,0,1,4,3.56A19.86,19.86,0,0,1,366.44,68.57Zm-8.58,13.78A24.94,24.94,0,0,0,359,75.2a26.86,26.86,0,0,0-1.14-8.37l-.18-.57-.21-.6a10.58,10.58,0,0,0-.55-1.19,2.92,2.92,0,0,0-2.05-1.58,1.83,1.83,0,0,0-1.83,1,6.68,6.68,0,0,0-.58,1l-.24.49-.09.22-.09.21a21.16,21.16,0,0,0-1.2,7.1,37.68,37.68,0,0,0,.12,4.29,26,26,0,0,0,1.63,7.56,3.72,3.72,0,0,0,1.44,1.85,1.52,1.52,0,0,0,2.11-.46,6.71,6.71,0,0,0,1-1.8c.1-.27.22-.6.37-1Z"/></svg>