<svg id="Layer_1" data-name="Layer 1" xmlns="http://www.w3.org/2000/svg" viewBox="0 0 420 150"><defs><style>.cls-1{fill:#00582d;}.cls-2{fill:#b31f2b;}.cls-3{fill:#fff;}</style></defs><rect class="cls-1" y="5" width="420.95" height="140" rx="52.57"/><rect class="cls-2" x="15.85" y="18.27" width="390.73" height="116.56" rx="44.62"/><path class="cls-3" d="M64.64,96.9q-1.94-2.55-3.77-4.62c-.66-.76-1.35-1.51-2.07-2.27l0,4.73a3.92,3.92,0,0,1-1.31,3A4.14,4.14,0,0,1,54.41,99a4.39,4.39,0,0,1-4.33-4.33q-.06-4.2,0-9.44l.16-9.48q.27-12.57.17-18.88a4,4,0,0,1,1.31-3,4.33,4.33,0,0,1,3.11-1.26,4,4,0,0,1,1.38.26,7.23,7.23,0,0,1,.95.06A19.54,19.54,0,0,1,67,57.45a15.83,15.83,0,0,1,5.58,9.09A17,17,0,0,1,69.92,79.8a20.4,20.4,0,0,1-4.43,4.65q3.12,3.36,6.72,8.09a3.46,3.46,0,0,1,.46,3.23,4.38,4.38,0,0,1-2,2.65,3.91,3.91,0,0,1-3.28.42A5.23,5.23,0,0,1,64.64,96.9ZM60.37,77.4l.43-.29a9.27,9.27,0,0,0,1.71-1.91,8.68,8.68,0,0,0,1.6-4.72,7.79,7.79,0,0,0-3.24-6.76l-.36-.22-.27-.16L60,63.18a4,4,0,0,1-.76-.55q0,3.39-.09,7.89L59,78.37s.16-.17.49-.38l.46-.3Z"/><path class="cls-3" d="M94.83,90.4a4.12,4.12,0,0,1,3,1.3,4.2,4.2,0,0,1,0,6.07A4.28,4.28,0,0,1,94.77,99q-5.64,0-9.48-.13-6.62-.14-8.49-5.53a13.88,13.88,0,0,1-.46-5.24c0-.69.07-1.51.07-2.46l0-2.46,0-4.78c0-1.86,0-3.45-.06-4.79l-.07-2.52-.1-2.52q-.06-2.88,0-5l0-1.14.07-1.19a14.33,14.33,0,0,1,.29-2.4,6.94,6.94,0,0,1,2.2-4.07,10.85,10.85,0,0,1,7.44-2.23c1.21,0,2.65,0,4.33,0h4.36A4.39,4.39,0,0,1,99.16,57a4,4,0,0,1-1.31,3,4.32,4.32,0,0,1-3.08,1.27l-4.1,0c-1.62,0-3,0-4.07,0l-1.31,0a2,2,0,0,0-.33,0l0,.61c-.07,1.38-.1,2.74-.1,4.07l.07,3,.1,3h6a4.19,4.19,0,0,1,3.08,1.32A4.17,4.17,0,0,1,94,79.31,4.23,4.23,0,0,1,91,80.57H85.13V82.8l0,2.07v2.07l0,.84-.07.81A11.69,11.69,0,0,0,85,90.27h1.57c1.05,0,2.43,0,4.13,0l2.07.06Z"/><path class="cls-3" d="M129,94.74a3.38,3.38,0,0,1-1.28,3A4.46,4.46,0,0,1,124.53,99a3.9,3.9,0,0,1-3-1.29,5.27,5.27,0,0,1-1.31-3l-.63-5.17-7.6,0c-.37,2.42-.75,4.55-1.12,6.41a3.63,3.63,0,0,1-2,2.58,4.4,4.4,0,0,1-3.34.42,4.11,4.11,0,0,1-2.63-2,4.69,4.69,0,0,1-.46-3.27q.82-4.08,1.78-11.06l.36-2.75L104.9,77c.3-2.11.61-4,.91-5.72.18-1,.32-1.85.43-2.43.18-.9.34-1.73.49-2.49a42.31,42.31,0,0,1,1.41-5,17,17,0,0,1,5.67-8.18,3.56,3.56,0,0,1,3.18-.48,4.39,4.39,0,0,1,2.66,1.81,18.23,18.23,0,0,1,4,7.43,40.51,40.51,0,0,1,1.21,5l.46,2.56.43,2.52Q127.33,81.06,129,94.74Zm-15.8-13.91h5.24c-.3-1.94-.61-3.86-.91-5.76l-.37-2.23-.39-2.2c-.3-1.7-.61-3.16-.92-4.39a89.41,89.41,0,0,0-1.87,9c-.24,1.56-.47,3.18-.68,4.89Z"/><path class="cls-3" d="M156.2,75.88q.08,8.22-4,13.55a23.81,23.81,0,0,1-6.53,6.11,21.58,21.58,0,0,1-4.42,2l-1,.32-1,.32-.52.23a1,1,0,0,0-.27.1,4.93,4.93,0,0,1-3.34.42A4,4,0,0,1,132.53,97a4.21,4.21,0,0,1-.23-4l.2-9.06.16-9.05q.14-10.38-.09-18.11a4,4,0,0,1,2.16-3.68,3.72,3.72,0,0,1,3.7-.65,29.54,29.54,0,0,1,13.28,9.83A22.24,22.24,0,0,1,156.2,75.88Zm-8.91,2.62,0,0a16.08,16.08,0,0,0-1-8.31A15.14,15.14,0,0,0,142.57,65c-.44-.43-.81-.78-1.12-1q0,5.34-.06,12.13l-.1,6-.13,6A12.38,12.38,0,0,0,145.32,84,13.53,13.53,0,0,0,147.29,78.5Z"/><path class="cls-3" d="M159.84,69.06a109.2,109.2,0,0,0-5.34-10.19,4.16,4.16,0,0,1-.43-3.26,4.21,4.21,0,0,1,2-2.65,4.08,4.08,0,0,1,3.31-.42,4.12,4.12,0,0,1,2.69,2A122,122,0,0,1,168.5,67q1-2.3,2.92-6.24l1.5-3.07,1.45-3.1a3.52,3.52,0,0,1,2.65-2,4.39,4.39,0,0,1,3.35.42,4,4,0,0,1,2,2.62,4.89,4.89,0,0,1-.4,3.3l-1.28,2.68-1.27,2.69q-1.71,3.52-2.56,5.4l-.72,1.65-.07.16-.06.13,0,.13-.06.19c-.46,1.12-.83,2.08-1.12,2.88a47.43,47.43,0,0,0-1.54,5.33l-.1.36c0,1,0,2.16-.13,3.56l-.19,3.55a45,45,0,0,0,.06,7.09,3.49,3.49,0,0,1-1.31,3A4.54,4.54,0,0,1,168.47,99a4.07,4.07,0,0,1-3.09-1.3,5.12,5.12,0,0,1-1.28-3.07,50.42,50.42,0,0,1,0-7.47l.1-1.87.1-1.88c.09-1.44.12-2.69.1-3.75l-.07-.16c-.92-2.31-1.69-4.21-2.33-5.69l-.23-.59-.09-.19-.07-.16a.87.87,0,0,0-.1-.2L161,71.49Z"/><path class="cls-3" d="M209.38,94.67q0-3.56-.23-8.21l-.2-4.11-.19-4.11q-.56-10.47-.4-16.46a36.88,36.88,0,0,1-4.59-.19,5.2,5.2,0,0,1-3.08-1.32,4,4,0,0,1-1.28-3,4.27,4.27,0,0,1,1.31-3A3.63,3.63,0,0,1,203.84,53a59.47,59.47,0,0,0,9,0l2.26-.16,2.26-.16c1.77-.11,3.28-.17,4.53-.17A4.08,4.08,0,0,1,225,53.8a4.18,4.18,0,0,1,1.28,3,4.28,4.28,0,0,1-1.31,3,4.54,4.54,0,0,1-3.12,1.26c-1.29,0-2.87.06-4.75.19q-.17,6.12.36,16.72l.23,4.17.19,4.17c.14,3.15.21,5.93.23,8.35a4,4,0,0,1-1.31,3A4.36,4.36,0,0,1,213.71,99a4.35,4.35,0,0,1-4.33-4.37Z"/><path class="cls-3" d="M250.85,65a32,32,0,0,1,2.23,12.06,29.71,29.71,0,0,1-2.46,12,18.62,18.62,0,0,1-6.19,8.09,9.49,9.49,0,0,1-9.71,1.06,12.78,12.78,0,0,1-6.23-6.5,30.3,30.3,0,0,1-2.68-9.6,45.69,45.69,0,0,1,1.54-18,22.67,22.67,0,0,1,3.7-8.12,8.42,8.42,0,0,1,4.1-2.88,9.33,9.33,0,0,1,5-.29A11.53,11.53,0,0,1,247,57.52,35.47,35.47,0,0,1,250.85,65Zm-6.65,15.1a26.57,26.57,0,0,0-1.54-12.26l-.13-.29-.07-.19-.07-.23c-.13-.41-.26-.76-.39-1.07a18.28,18.28,0,0,0-1.08-2.52q-1.6-3.11-3.12-2.2a2.87,2.87,0,0,0-1,1.49c-.09.26-.19.58-.3,1l-.1.42-.13.42q-.78,2.55-1.28,5a34.71,34.71,0,0,0-.75,8.63,41.48,41.48,0,0,0,.36,4.33,16,16,0,0,0,1.21,4.21l.07.13.07.16a2.25,2.25,0,0,0,.09.26l.2.39.23.45c.18.37.34.68.49.94a2.41,2.41,0,0,0,1.44,1.23,2,2,0,0,0,1.87-.81c.22-.26.46-.57.72-.94l.27-.45.13-.23.13-.19a20.44,20.44,0,0,0,1.9-4A18.26,18.26,0,0,0,244.2,80.09Z"/><path class="cls-3" d="M275.18,99a4.09,4.09,0,0,1-3.05-1.3,4.22,4.22,0,0,1-1.28-3.07q-.06-4.17,0-9.44l.17-9.44q.25-12.62.16-18.92a3.88,3.88,0,0,1,1.31-3,4.17,4.17,0,0,1,3.11-1.26,4.44,4.44,0,0,1,1.38.23,4.19,4.19,0,0,1,.95.1,19.68,19.68,0,0,1,9.81,4.55,15.73,15.73,0,0,1,5.57,9.06,17,17,0,0,1-2.62,13.29,20.07,20.07,0,0,1-5.45,5.37,22.9,22.9,0,0,1-2.65,1.42l-1.35.65-1.37.61-.3.13q0,3.66,0,6.73a3.86,3.86,0,0,1-1.31,3A4.3,4.3,0,0,1,275.18,99ZM280,62.66q0,3.39-.1,7.86l-.13,7.89a3,3,0,0,1,.75-.55l.29-.17.27-.16.33-.22A11.88,11.88,0,0,0,283,75.62a8.47,8.47,0,0,0,1.84-5.27A7.8,7.8,0,0,0,283,65.12a9.07,9.07,0,0,0-1.41-1.43l-.09-.09C280.94,63.23,280.42,62.92,280,62.66Z"/><path class="cls-3" d="M320.42,94.38a4.05,4.05,0,0,1-1.31,3A4.29,4.29,0,0,1,316,98.65c-.53,0-1.14,0-1.84.09l-1.8.13a35.85,35.85,0,0,1-3.61.17,16.68,16.68,0,0,1-6.29-1.36A8,8,0,0,1,298,92.63a21.68,21.68,0,0,1-.82-6.88l.06-3.69.07-3.69q.06-4.29,0-7.37l-.1-7.08-.06-7.11a4,4,0,0,1,1.31-3,4.36,4.36,0,0,1,6.16,0,4.12,4.12,0,0,1,1.28,3l0,6.63.07,6.66q.09,8,0,13.26l-.07,3.33v.35l0,.39v.78a2.23,2.23,0,0,0,.46,1.39,2.36,2.36,0,0,0,1.73.74q.44,0,1,0l.53,0,.42,0,1.51-.1,1.51-.09c1.22-.11,2.22-.17,3-.17a4.4,4.4,0,0,1,4.36,4.37Z"/><path class="cls-3" d="M350,94.74a3.36,3.36,0,0,1-1.28,3A4.45,4.45,0,0,1,345.57,99a3.91,3.91,0,0,1-3-1.29,5.27,5.27,0,0,1-1.31-3c-.24-2-.45-3.69-.62-5.17l-7.61,0c-.37,2.42-.74,4.55-1.11,6.41a3.64,3.64,0,0,1-2,2.58,4.4,4.4,0,0,1-3.34.42,4.07,4.07,0,0,1-2.62-2,4.64,4.64,0,0,1-.46-3.27q.81-4.08,1.77-11.06l.36-2.75.36-2.81q.45-3.17.92-5.72.25-1.56.42-2.43c.18-.9.34-1.73.49-2.49a42.31,42.31,0,0,1,1.41-5,17,17,0,0,1,5.68-8.18,3.54,3.54,0,0,1,3.18-.48,4.4,4.4,0,0,1,2.65,1.81,18.12,18.12,0,0,1,4,7.43,40.4,40.4,0,0,1,1.22,5l.46,2.56.42,2.52Q348.35,81.06,350,94.74Zm-15.8-13.91h5.25q-.46-2.91-.92-5.76l-.36-2.23-.4-2.2c-.3-1.7-.61-3.16-.91-4.39a84.09,84.09,0,0,0-1.87,9c-.24,1.56-.47,3.18-.69,4.89Z"/><path class="cls-3" d="M353.57,69.06a109.18,109.18,0,0,0-5.35-10.19A4.37,4.37,0,0,1,349.8,53a4.07,4.07,0,0,1,3.31-.42,4.14,4.14,0,0,1,2.69,2A122,122,0,0,1,362.22,67q1-2.3,2.92-6.24l1.51-3.07,1.44-3.1a3.54,3.54,0,0,1,2.66-2,4.37,4.37,0,0,1,3.34.42,3.93,3.93,0,0,1,2,2.62,5,5,0,0,1-.39,3.3l-1.28,2.68-1.28,2.69q-1.71,3.52-2.56,5.4l-.72,1.65-.07.16-.06.13,0,.13-.07.19q-.69,1.68-1.11,2.88A45.41,45.41,0,0,0,367,80.18l-.1.36c0,1-.05,2.16-.13,3.56l-.2,3.55a46.1,46.1,0,0,0,.07,7.09,3.5,3.5,0,0,1-1.32,3A4.52,4.52,0,0,1,362.19,99a4,4,0,0,1-3.08-1.3,5.06,5.06,0,0,1-1.28-3.07,47.81,47.81,0,0,1,0-7.47l.09-1.87.1-1.88c.09-1.44.12-2.69.1-3.75l-.06-.16q-1.38-3.47-2.33-5.69s-.1-.24-.23-.59l-.1-.19-.07-.16a1,1,0,0,0-.09-.2l-.53-1.22Z"/></svg>