<svg id="Layer_1" data-name="Layer 1" xmlns="http://www.w3.org/2000/svg" xmlns:xlink="http://www.w3.org/1999/xlink" viewBox="0 0 480 640"><defs><style>.cls-1{fill:none;}.cls-2{clip-path:url(#clip-path);}.cls-3{fill:#683614;}.cls-4{fill:#683615;}.cls-5{fill:#693615;}.cls-6{fill:#693716;}.cls-7{fill:#6a3717;}.cls-8{fill:#6a3817;}.cls-9{fill:#6a3818;}.cls-10{fill:#6b3918;}.cls-11{fill:#6b3919;}.cls-12{fill:#6c3a1a;}.cls-13{fill:#6c3b1b;}.cls-14{fill:#6d3b1b;}.cls-15{fill:#6d3c1c;}.cls-16{fill:#6e3c1c;}.cls-17{fill:#6e3d1d;}.cls-18{fill:#6f3d1e;}.cls-19{fill:#6f3e1e;}.cls-20{fill:#703f1f;}.cls-21{fill:#703f20;}.cls-22{fill:#714021;}.cls-23{fill:#724121;}.cls-24{fill:#724122;}.cls-25{fill:#734223;}.cls-26{fill:#744324;}.cls-27{fill:#754425;}.cls-28{fill:#764526;}.cls-29{fill:#774627;}.cls-30{fill:#784728;}.cls-31{fill:#794829;}.cls-32{fill:#79492a;}.cls-33{fill:#7a4a2b;}.cls-34{fill:#7c4b2c;}.cls-35{fill:#7d4c2d;}.cls-36{fill:#7e4d2e;}.cls-37{fill:#7f4e2f;}.cls-38{fill:#804f31;}.cls-39{fill:#815032;}.cls-40{fill:#825133;}.cls-41{fill:#845334;}.cls-42{fill:#855435;}.cls-43{fill:#865537;}.cls-44{fill:#875638;}.cls-45{fill:#885839;}.cls-46{fill:#8a593a;}.cls-47{fill:#8b5a3b;}.cls-48{fill:#8c5b3c;}.cls-49{fill:#8d5c3d;}.cls-50{fill:#8f5e3f;}.cls-51{fill:#905f40;}.cls-52{fill:#916141;}.cls-53{fill:#936243;}.cls-54{fill:#946444;}.cls-55{fill:#966545;}.cls-56{fill:#986747;}.cls-57{fill:#996848;}.cls-58{fill:#9b6a4a;}.cls-59{fill:#653414;}.cls-60{clip-path:url(#clip-path-2);}.cls-61{fill:#49392e;}.cls-62{fill:#48382c;}.cls-63{fill:#47362b;}.cls-64{fill:#463529;}.cls-65{fill:#453327;}.cls-66{fill:#433225;}.cls-67{fill:#423023;}.cls-68{fill:#412f20;}.cls-69{fill:#402d1e;}.cls-70{fill:#3f2b1c;}.cls-71{fill:#3e2a19;}.cls-72{fill:#3c2816;}.cls-73{fill:#3b2613;}.cls-74{fill:#3a2410;}.cls-75{fill:#39220c;}.cls-76{fill:#382107;}.cls-77{fill:#371f03;}.cls-78{fill:#361d00;}.cls-79{fill:#341b00;}.cls-80{fill:#331900;}.cls-81{fill:#321700;}.cls-82{fill:#311400;}.cls-83{fill:#311200;}.cls-84{fill:#301000;}.cls-85{fill:#2f0f00;}.cls-86{fill:#2f0d00;}.cls-87{opacity:0.29;}.cls-88{fill:#060305;}.cls-89{opacity:0.95;}.cls-90{fill:#040102;}.cls-91{fill:#fff;}.cls-92{fill:#241010;}.cls-93{fill:#a0252a;}.cls-94{fill:#d0cdcd;}.cls-95{fill:#e3e2e1;}.cls-96{fill:#473332;}.cls-97{fill:#0b1d19;}.cls-98{fill:#0f2923;}.cls-99{fill:#0e2621;}.cls-100{opacity:0.65;}</style><clipPath id="clip-path"><path class="cls-1" d="M14,603.58c18,26.32,80.16,27.43,204.41,29.65,139.54,2.5,160.29-15.35,169.36-27.46C418.3,565.05,385,498,374.69,477.31c-26.46-53.22-93.87-135-182.94-131.57C59.54,350.9-29.22,540.45,14,603.58Z"/></clipPath><clipPath id="clip-path-2"><ellipse class="cls-1" cx="203.35" cy="294.5" rx="74.87" ry="43.3"/></clipPath></defs><g class="cls-2"><rect class="cls-3" x="-29.22" y="342.26" width="447.51" height="293.47"/><path class="cls-3" d="M22.41,498c1.89,46.75,23.35,88.29,56.5,117.64a176.83,176.83,0,0,0,26.94,19.62q3.62,2.13,7.33,4.11v-2.77H281.4v3.78c2.53-1.29,5-2.64,7.46-4.05q7.33-4.21,14.19-9.07a175.79,175.79,0,0,0,25.27-21.73C359,573.55,377,530.42,375.12,483.66S351.77,395.37,318.61,366a176.15,176.15,0,0,0-26.94-19.62q-7.21-4.27-14.88-7.89v2.92h-153v-3.86a177.19,177.19,0,0,0-54.58,38.56C38.53,408.06,20.51,451.2,22.41,498Z"/><path class="cls-4" d="M25.16,497.84c1.87,46,23,86.92,55.62,115.81A173.65,173.65,0,0,0,107.3,633q7.11,4.21,14.65,7.77v-4.17H272.56v5.09a174.43,174.43,0,0,0,53.73-37.95c30.19-31.44,47.94-73.9,46.07-119.93s-23-86.91-55.62-115.8a173,173,0,0,0-26.52-19.31q-7.11-4.21-14.65-7.77v.54H125V340a174.75,174.75,0,0,0-53.73,38C41,409.36,23.3,451.81,25.16,497.84Z"/><path class="cls-4" d="M27.92,497.73c1.83,45.3,22.62,85.53,54.74,114a170.87,170.87,0,0,0,26.09,19q7,4.15,14.42,7.65v-1.79H271.39v2.7a171.9,171.9,0,0,0,52.88-37.36c29.71-30.93,47.17-72.72,45.33-118s-22.62-85.53-54.74-114A171.72,171.72,0,0,0,259.14,337v4.46H141.61V336.2q-7.94,2.73-15.47,6.16a171.47,171.47,0,0,0-52.88,37.35C43.54,410.65,26.08,452.43,27.92,497.73Z"/><path class="cls-4" d="M30.67,497.62c1.81,44.57,22.26,84.15,53.86,112.13a169.12,169.12,0,0,0,54.83,32.42v-5.61H270.22v.31a169.18,169.18,0,0,0,52-36.76c29.24-30.44,46.42-71.55,44.61-116.11S344.59,399.84,313,371.87a169,169,0,0,0-54.83-32.42v2H142.53V338.7q-7.8,2.67-15.22,6.05a169,169,0,0,0-52,36.75C46.05,411.94,28.87,453.05,30.67,497.62Z"/><path class="cls-5" d="M33.43,497.51c1.78,43.84,21.89,82.77,53,110.29a166.41,166.41,0,0,0,53.93,31.89v-3.13H254.07v3.87q7.67-2.64,15-6a166.19,166.19,0,0,0,51.18-36.15c28.75-29.94,45.65-70.38,43.87-114.21s-21.89-82.78-53-110.29a166.24,166.24,0,0,0-53.93-31.89q-7.55-2.71-15.41-4.72v4.22H159.14v-4.79a169.72,169.72,0,0,0-30.66,10.5A166.35,166.35,0,0,0,77.3,383.29C48.55,413.23,31.65,453.67,33.43,497.51Z"/><path class="cls-5" d="M36.18,497.4c1.75,43.1,21.53,81.39,52.1,108.45a163.42,163.42,0,0,0,53,31.36v-.65H253.15v1.37q7.54-2.58,14.72-5.85a163.47,163.47,0,0,0,50.32-35.55c28.28-29.44,44.89-69.2,43.15-112.31s-21.53-81.4-52.09-108.45a163.57,163.57,0,0,0-53-31.36,165.81,165.81,0,0,0-30.88-7.86v4.88H159.8v-2.22a164.74,164.74,0,0,0-80.47,45.88C51.05,414.53,34.44,454.29,36.18,497.4Z"/><path class="cls-6" d="M38.94,497.29c1.72,42.37,21.16,80,51.21,106.61a160.71,160.71,0,0,0,52.13,30.83q7.29,2.61,14.89,4.56v-2.73h79.89v3.28a163.91,163.91,0,0,0,29.64-10.16,160.71,160.71,0,0,0,49.47-34.94c27.8-28.94,44.13-68,42.41-110.41s-21.16-80-51.21-106.61a160.61,160.61,0,0,0-52.13-30.83,165.28,165.28,0,0,0-62.7-9.54C104.27,340.93,35.5,412.53,38.94,497.29Z"/><path class="cls-6" d="M41.7,497.17C43.38,538.82,62.49,575.81,92,602a158,158,0,0,0,51.24,30.29,160.84,160.84,0,0,0,29.83,7.6v-3.28h31.78v5.06c86.75-3.52,154.33-73.89,151-157.18S279.39,336.48,192.65,340,38.32,413.88,41.7,497.17Z"/><path class="cls-6" d="M44.45,497.06C46.11,538,64.88,574.32,93.89,600a157.21,157.21,0,0,0,110.88,39c85.22-3.45,151.62-72.59,148.3-154.42S278,339.19,192.76,342.64,41.13,415.23,44.45,497.06Z"/><ellipse class="cls-7" cx="198.76" cy="490.81" rx="151.68" ry="145.64" transform="translate(-19.71 8.45) rotate(-2.32)"/><ellipse class="cls-8" cx="198.76" cy="490.81" rx="148.92" ry="142.99" transform="translate(-19.71 8.45) rotate(-2.32)"/><ellipse class="cls-9" cx="198.76" cy="490.81" rx="146.16" ry="140.34" transform="translate(-19.71 8.45) rotate(-2.32)"/><ellipse class="cls-9" cx="198.76" cy="490.81" rx="143.41" ry="137.69" transform="translate(-19.71 8.45) rotate(-2.32)"/><ellipse class="cls-10" cx="198.76" cy="490.81" rx="140.65" ry="135.05" transform="translate(-19.71 8.45) rotate(-2.32)"/><ellipse class="cls-11" cx="198.76" cy="490.81" rx="137.89" ry="132.4" transform="translate(-19.71 8.45) rotate(-2.32)"/><ellipse class="cls-12" cx="198.76" cy="490.81" rx="135.13" ry="129.75" transform="translate(-19.71 8.45) rotate(-2.32)"/><ellipse class="cls-12" cx="198.76" cy="490.81" rx="132.37" ry="127.1" transform="translate(-19.71 8.45) rotate(-2.32)"/><ellipse class="cls-13" cx="198.76" cy="490.81" rx="129.62" ry="124.45" transform="translate(-19.71 8.45) rotate(-2.32)"/><ellipse class="cls-14" cx="198.76" cy="490.81" rx="126.86" ry="121.81" transform="translate(-19.71 8.45) rotate(-2.32)"/><ellipse class="cls-15" cx="198.76" cy="490.81" rx="124.1" ry="119.16" transform="matrix(1, -0.04, 0.04, 1, -19.71, 8.45)"/><ellipse class="cls-16" cx="198.76" cy="490.81" rx="121.34" ry="116.51" transform="translate(-19.71 8.45) rotate(-2.32)"/><ellipse class="cls-17" cx="198.76" cy="490.81" rx="118.59" ry="113.86" transform="translate(-19.71 8.45) rotate(-2.32)"/><ellipse class="cls-18" cx="198.76" cy="490.81" rx="115.83" ry="111.21" transform="translate(-19.71 8.45) rotate(-2.32)"/><ellipse class="cls-19" cx="198.76" cy="490.81" rx="113.07" ry="108.57" transform="translate(-19.71 8.45) rotate(-2.32)"/><ellipse class="cls-20" cx="198.76" cy="490.81" rx="110.31" ry="105.92" transform="translate(-19.71 8.45) rotate(-2.32)"/><ellipse class="cls-21" cx="198.76" cy="490.81" rx="107.55" ry="103.27" transform="matrix(1, -0.04, 0.04, 1, -19.71, 8.45)"/><ellipse class="cls-22" cx="198.76" cy="490.81" rx="104.8" ry="100.62" transform="translate(-19.71 8.45) rotate(-2.32)"/><ellipse class="cls-23" cx="198.76" cy="490.81" rx="102.04" ry="97.97" transform="translate(-19.71 8.45) rotate(-2.32)"/><ellipse class="cls-24" cx="198.76" cy="490.81" rx="99.28" ry="95.33" transform="translate(-19.71 8.45) rotate(-2.32)"/><ellipse class="cls-25" cx="198.76" cy="490.81" rx="96.52" ry="92.68" transform="matrix(1, -0.04, 0.04, 1, -19.71, 8.45)"/><ellipse class="cls-26" cx="198.76" cy="490.81" rx="93.77" ry="90.03" transform="translate(-19.71 8.45) rotate(-2.32)"/><ellipse class="cls-26" cx="198.76" cy="490.81" rx="91.01" ry="87.38" transform="translate(-19.71 8.45) rotate(-2.32)"/><ellipse class="cls-27" cx="198.76" cy="490.81" rx="88.25" ry="84.73" transform="translate(-19.71 8.45) rotate(-2.32)"/><ellipse class="cls-28" cx="198.76" cy="490.81" rx="85.49" ry="82.09" transform="translate(-19.71 8.45) rotate(-2.32)"/><ellipse class="cls-29" cx="198.76" cy="490.81" rx="82.73" ry="79.44" transform="matrix(1, -0.04, 0.04, 1, -19.71, 8.45)"/><ellipse class="cls-30" cx="198.76" cy="490.81" rx="79.98" ry="76.79" transform="translate(-19.71 8.45) rotate(-2.32)"/><ellipse class="cls-31" cx="198.76" cy="490.81" rx="77.22" ry="74.14" transform="translate(-19.71 8.45) rotate(-2.32)"/><ellipse class="cls-32" cx="198.76" cy="490.81" rx="74.46" ry="71.49" transform="translate(-19.71 8.45) rotate(-2.32)"/><ellipse class="cls-33" cx="198.76" cy="490.81" rx="71.7" ry="68.85" transform="translate(-19.71 8.45) rotate(-2.32)"/><ellipse class="cls-34" cx="198.76" cy="490.81" rx="68.94" ry="66.2" transform="translate(-19.71 8.45) rotate(-2.32)"/><ellipse class="cls-35" cx="198.76" cy="490.81" rx="66.19" ry="63.55" transform="translate(-19.71 8.45) rotate(-2.32)"/><ellipse class="cls-36" cx="198.76" cy="490.81" rx="63.43" ry="60.9" transform="translate(-19.71 8.45) rotate(-2.32)"/><ellipse class="cls-37" cx="198.76" cy="490.81" rx="60.67" ry="58.26" transform="translate(-19.71 8.45) rotate(-2.32)"/><ellipse class="cls-38" cx="198.76" cy="490.81" rx="57.91" ry="55.61" transform="translate(-19.71 8.45) rotate(-2.32)"/><ellipse class="cls-39" cx="198.76" cy="490.81" rx="55.16" ry="52.96" transform="translate(-19.71 8.45) rotate(-2.32)"/><ellipse class="cls-40" cx="198.76" cy="490.81" rx="52.4" ry="50.31" transform="translate(-19.71 8.45) rotate(-2.32)"/><ellipse class="cls-41" cx="198.76" cy="490.81" rx="49.64" ry="47.66" transform="translate(-19.71 8.45) rotate(-2.32)"/><ellipse class="cls-42" cx="198.76" cy="490.81" rx="46.88" ry="45.02" transform="translate(-19.71 8.45) rotate(-2.32)"/><ellipse class="cls-43" cx="198.76" cy="490.81" rx="44.12" ry="42.37" transform="translate(-19.71 8.45) rotate(-2.32)"/><ellipse class="cls-44" cx="198.76" cy="490.81" rx="41.37" ry="39.72" transform="translate(-19.71 8.45) rotate(-2.32)"/><ellipse class="cls-45" cx="198.76" cy="490.81" rx="38.61" ry="37.07" transform="translate(-19.71 8.45) rotate(-2.32)"/><ellipse class="cls-46" cx="198.76" cy="490.81" rx="35.85" ry="34.42" transform="translate(-19.71 8.45) rotate(-2.32)"/><ellipse class="cls-47" cx="198.76" cy="490.81" rx="33.09" ry="31.78" transform="translate(-19.71 8.45) rotate(-2.32)"/><ellipse class="cls-48" cx="198.76" cy="490.81" rx="30.34" ry="29.13" transform="translate(-19.71 8.45) rotate(-2.32)"/><ellipse class="cls-49" cx="198.76" cy="490.81" rx="27.58" ry="26.48" transform="translate(-19.71 8.45) rotate(-2.32)"/><ellipse class="cls-50" cx="198.76" cy="490.81" rx="24.82" ry="23.83" transform="translate(-19.71 8.45) rotate(-2.32)"/><ellipse class="cls-51" cx="198.76" cy="490.81" rx="22.06" ry="21.18" transform="translate(-19.71 8.45) rotate(-2.32)"/><ellipse class="cls-52" cx="198.76" cy="490.81" rx="19.3" ry="18.54" transform="translate(-19.71 8.45) rotate(-2.32)"/><ellipse class="cls-53" cx="198.76" cy="490.81" rx="16.55" ry="15.89" transform="translate(-19.71 8.45) rotate(-2.32)"/><ellipse class="cls-54" cx="198.76" cy="490.81" rx="13.79" ry="13.24" transform="translate(-19.71 8.45) rotate(-2.32)"/><ellipse class="cls-55" cx="198.76" cy="490.81" rx="11.03" ry="10.59" transform="translate(-19.71 8.45) rotate(-2.32)"/><ellipse class="cls-56" cx="198.76" cy="490.81" rx="8.27" ry="7.94" transform="translate(-19.71 8.45) rotate(-2.32)"/><ellipse class="cls-57" cx="198.76" cy="490.81" rx="5.52" ry="5.3" transform="translate(-19.71 8.45) rotate(-2.32)"/><ellipse class="cls-58" cx="198.76" cy="490.81" rx="2.76" ry="2.65" transform="translate(-19.71 8.45) rotate(-2.32)"/></g><path class="cls-59" d="M103,211.39c5.22,7.67,9.49,20,4.54,22.55-5.48,2.88-25.52-4.44-31.44-17.08-3.54-7.57-3.72-20.7-10.34-27.89-.38-.42-.9-.94-.68-1.12C66.36,186.82,91.51,194.51,103,211.39Z"/><path class="cls-59" d="M308.87,214.47c-5.23,7.67-9.5,19.95-4.55,22.55,5.49,2.87,25.53-4.45,31.44-17.09,3.55-7.57,3.72-20.69,10.34-27.88.39-.42.91-.94.68-1.13C345.54,189.89,320.38,197.59,308.87,214.47Z"/><path class="cls-3" d="M157.81,313h91.08c8.43-.89,25.1-3.94,39.88-16.59,21.14-18.09,29.74-48.39,23.31-78.76a108.88,108.88,0,0,0-23.31-41.67c-35.17-38.83-86.4-36.3-93.58-35.82-8.88.58-49,3.22-77.25,35.82a101.81,101.81,0,0,0-20.67,38.36c-8.56,31.42-.75,63.37,20.67,82.07C132.55,309.12,149.35,312.11,157.81,313Z"/><ellipse class="cls-3" cx="203.35" cy="333.96" rx="149.75" ry="86.6"/><g class="cls-60"><polygon class="cls-61" points="278.23 276.54 234.33 251.19 278.23 251.19 278.23 276.54"/><polygon class="cls-61" points="278.23 280.18 228.02 251.19 234.33 251.19 278.23 276.54 278.23 280.18"/><polygon class="cls-62" points="278.23 283.83 221.71 251.19 228.02 251.19 278.23 280.18 278.23 283.83"/><polygon class="cls-63" points="278.23 287.47 215.4 251.19 221.71 251.19 278.23 283.83 278.23 287.47"/><polygon class="cls-64" points="278.23 291.12 209.08 251.19 215.4 251.19 278.23 287.47 278.23 291.12"/><polygon class="cls-65" points="278.23 294.76 202.77 251.19 209.08 251.19 278.23 291.12 278.23 294.76"/><polygon class="cls-66" points="278.23 298.4 196.46 251.19 202.77 251.19 278.23 294.76 278.23 298.4"/><polygon class="cls-67" points="278.23 302.05 190.15 251.19 196.46 251.19 278.23 298.4 278.23 302.05"/><polygon class="cls-68" points="278.23 305.69 183.84 251.19 190.15 251.19 278.23 302.05 278.23 305.69"/><polygon class="cls-69" points="278.23 309.33 177.53 251.19 183.84 251.19 278.23 305.69 278.23 309.33"/><polygon class="cls-70" points="278.23 312.98 171.22 251.19 177.53 251.19 278.23 309.33 278.23 312.98"/><polygon class="cls-71" points="278.23 316.62 164.9 251.19 171.22 251.19 278.23 312.98 278.23 316.62"/><polygon class="cls-72" points="278.23 320.27 158.59 251.19 164.9 251.19 278.23 316.62 278.23 320.27"/><polygon class="cls-73" points="278.23 321.73 277.29 323.37 152.28 251.19 158.59 251.19 278.23 320.27 278.23 321.73"/><polygon class="cls-74" points="277.29 323.37 275.71 326.1 145.97 251.19 152.28 251.19 277.29 323.37"/><polygon class="cls-75" points="275.71 326.1 274.13 328.83 139.66 251.19 145.97 251.19 275.71 326.1"/><polygon class="cls-76" points="274.13 328.83 272.55 331.56 136.65 253.1 137.75 251.19 139.66 251.19 274.13 328.83"/><rect class="cls-77" x="202.23" y="215.24" width="3.16" height="156.92" transform="translate(-152.45 323.36) rotate(-60)"/><rect class="cls-78" x="200.66" y="217.97" width="3.16" height="156.92" transform="translate(-155.6 323.36) rotate(-60)"/><polygon class="cls-79" points="269.39 337.03 268.95 337.8 264.41 337.8 131.92 261.3 133.5 258.57 269.39 337.03"/><polygon class="cls-80" points="258.1 337.8 130.34 264.04 131.92 261.3 264.41 337.8 258.1 337.8"/><polygon class="cls-81" points="251.79 337.8 128.76 266.77 130.34 264.04 258.1 337.8 251.79 337.8"/><polygon class="cls-82" points="245.47 337.8 128.48 270.25 128.48 267.26 128.76 266.77 251.79 337.8 245.47 337.8"/><polygon class="cls-83" points="239.16 337.8 128.48 273.89 128.48 270.25 245.47 337.8 239.16 337.8"/><polygon class="cls-84" points="232.85 337.8 128.48 277.54 128.48 273.89 239.16 337.8 232.85 337.8"/><polygon class="cls-85" points="226.54 337.8 128.48 281.18 128.48 277.54 232.85 337.8 226.54 337.8"/><polygon class="cls-86" points="220.23 337.8 128.48 284.82 128.48 281.18 226.54 337.8 220.23 337.8"/><polygon class="cls-86" points="128.48 284.82 220.23 337.8 128.48 337.8 128.48 284.82"/></g><path class="cls-86" d="M225.21,369.6c.21.35-27.75,17.46-60.82,10.21-32.34-7.08-49.63-33.07-49.3-33.3S133.17,371.1,164.6,378C196.87,385.11,225,369.25,225.21,369.6Z"/><g class="cls-87"><path class="cls-88" d="M276,248.47a248.72,248.72,0,0,0-59.2-9.28,308.48,308.48,0,0,0-86.11,8.59l-.2-.8a309.15,309.15,0,0,1,86.35-8.62,249.22,249.22,0,0,1,59.39,9.31Z"/></g><g class="cls-89"><path class="cls-88" d="M229.57,209.81c4.12-7.59,14.38-18.62,26.95-16.17,15.46,3,18.74,23.37,18.87,24.26,1.42,9.76-1.54,22.94-9.44,26.28-2.86,1.21-4.06.15-16.84-2-15.28-2.6-17-1.67-19.54-4C223.18,232.24,224.77,218.64,229.57,209.81Z"/></g><g class="cls-89"><path class="cls-90" d="M178.46,210.3c-4-7.68-14-18.91-26.63-16.71-15.51,2.71-19.2,23-19.35,23.88-1.62,9.73,1.08,23,8.91,26.46,2.84,1.27,4.06.24,16.88-1.68,15.33-2.3,17-1.33,19.62-3.66C184.4,232.85,183.07,219.22,178.46,210.3Z"/></g><ellipse class="cls-91" cx="168.74" cy="214.9" rx="6.74" ry="6.06"/><ellipse class="cls-91" cx="240.29" cy="214.9" rx="6.74" ry="6.06"/><circle class="cls-91" cx="267.81" cy="206.2" r="1.36"/><ellipse class="cls-91" cx="143.59" cy="206.07" rx="1.36" ry="1.22"/><path class="cls-92" d="M116.26,205.1c3.27-3.65,15-15.87,34.2-18.17a53.6,53.6,0,0,1,25,3.06q-1.09-9.36-2.2-18.72c-6.39-.44-29.71-1.3-45.25,14.82A44.16,44.16,0,0,0,121.4,195Z"/><path class="cls-92" d="M292.78,205.1c-3.27-3.65-15-15.87-34.2-18.17a53.64,53.64,0,0,0-25,3.06q1.11-9.36,2.21-18.72c6.38-.44,29.71-1.3,45.25,14.82a44.54,44.54,0,0,1,6.63,8.91Z"/><path class="cls-93" d="M214.66,8.12c33.38-5.43,60.59,4.42,72.89,9a169,169,0,0,1,41.08,22.57c23.55,17,37.47,34.77,51.51,53,14.73,19.08,23.94,34.86,36.39,56.19,11.27,19.29,19.85,35.78,25.69,47.47-43.14-9.86-61.05-13.92-61.06-13.88a.68.68,0,0,0,.15,0c.06-.2-28.81-8.2-55-20.56-17.77-8.37-31-14.6-45.55-27.43-8.22-7.24-29.08-27.35-41.27-33.74-5.21-2.74-11.57-6-11.57-6-3.54-1.79-6.5-3.25-9.77-4.87C208.83,85.36,199,81.83,190,76.77c-3.56-2-13.11-9.15-22-21.26-6.18-8.39-9.3-12.57-9.16-16.67C159.29,23.91,191.68,11.87,214.66,8.12Z"/><path class="cls-93" d="M213,153.32c56.4-1.45,64.26,1.06,72.44-7.68,22.69-24.24-3.94-79.85-7.39-87-8.26-17.24-18-37.58-40.18-46.05-29.14-11.13-58.11,6.72-66.54,11.91-44.17,27.2-48.7,80.06-50.31,98.78-1.27,14.76.73,19.48,2.71,22.45C133.11,159.76,155.77,154.79,213,153.32Z"/><circle class="cls-94" cx="449.55" cy="199.08" r="18.57"/><circle class="cls-94" cx="426.52" cy="208.37" r="18.57"/><circle class="cls-94" cx="438.41" cy="226.93" r="18.57"/><circle class="cls-94" cx="458.46" cy="220.99" r="18.57"/><path class="cls-95" d="M129.05,172.88a168.62,168.62,0,0,1,158.71,4.2c1.83.09,7.69.15,11.29-3.68,4.89-5.21,4.23-16.11-4-24.5a168,168,0,0,0-44.35-17.24,182.71,182.71,0,0,0-40-4.34c-38,0-70.44,11.36-90.79,20.5-8.59,9-8.46,20.06-3.63,24.12C120.58,175.54,128,173.21,129.05,172.88Z"/><path class="cls-96" d="M105.75,193.23c1.16.12,9,.75,14.92-5.12A18.24,18.24,0,0,0,125.74,178a176.43,176.43,0,0,1-19.41-17.67c-3.6-3.8-14.44-19.9-31.73-45.93A435,435,0,0,1,38.88,49.21c-2.51-5-6-8.9-8.85-8.47-3.51.53-6.61,7.75-5.74,18.2Q65,126.1,105.75,193.23Z"/><path class="cls-96" d="M44,76.81c0-.85,0-1.72,0-2.6.44-11,6.36-19.77,11.46-25.44,3.38-4.68,3.17-6.28,2.69-6.91-1.47-1.93-8.48,1-12.45,2.92A55.59,55.59,0,0,1,40.39,63a55.13,55.13,0,0,1-6.2,9.84Z"/><path class="cls-96" d="M47.15,100.63l3.18-7.78A90.18,90.18,0,0,1,27.42,86a91,91,0,0,1-12.14-6.64C10.45,75,6,72.91,4.78,74S5.19,79.75,9,85Z"/><path class="cls-96" d="M74.81,139.34l13.63,2A69.19,69.19,0,0,1,91,106.27L83.2,99Z"/><path class="cls-96" d="M81.61,116.66l5.75-3A32.11,32.11,0,0,1,76.71,97.83,29.64,29.64,0,0,1,75.62,91c.3-2.47.18-3.8-.35-4q-1.23-.46-5.4,7Z"/><path class="cls-96" d="M94,162.27l.38-16.45a200.49,200.49,0,0,1-30.23,1.48,200.8,200.8,0,0,1-28.59-2.83c-4.45-.77-8.91-.8-9.31.44-.47,1.47,5,4.53,9.8,7l26.49,4.73Z"/><path class="cls-96" d="M61.3,148.6l-5.9,2.64A32.19,32.19,0,0,0,49.65,133,29.94,29.94,0,0,0,45,127.88q-3.18-1.95-2.92-2.77.42-1.24,8.82.13Z"/><path class="cls-96" d="M55.69,144.72l1.08-4.49c-.81,0-12.09.42-13.72-5.9a6.41,6.41,0,0,1-.19-2c-.76-1-1.36-1.37-1.79-1.24q-1.4.44-.47,8.4Z"/><path class="cls-96" d="M22.34,90.15l5.76-2.94a18.33,18.33,0,0,1-8.85-17.35c.54-2,.56-3.1.07-3.21q-1.12-.25-5.83,6.15Z"/><path class="cls-96" d="M35.3,94.76l-3.83-5.21A19.25,19.25,0,0,1,21.12,99.86a18.67,18.67,0,0,1-5.35,1.22q-3.13-.3-3.18.45-.08,1.14,7,4.77Z"/><path class="cls-96" d="M44.57,53.56,45.36,60A24.15,24.15,0,0,1,64.69,57.6c1.83-2,6.23-7,5-8.71-.33-.48-1.34-1.09-5.06-.1a25.36,25.36,0,0,1-20.07,4.77Z"/><path class="cls-96" d="M108.62,180.45l9.41-.82c-.91-8.47-1.21-15.6-1.27-21-.09-7.78-.14-11.67.4-14.58.8-4.32,2.08-7.71.9-8.49s-3.47,1.06-5.32,2.62c.46-2.27-.43-4-1.53-4.31a2.34,2.34,0,0,0-1.8.58,85.76,85.76,0,0,1,2.49,14.49A86.75,86.75,0,0,1,108.62,180.45Z"/><path class="cls-96" d="M113.4,155.15l1.63-2.71c-.6-.31-9-4.66-9-9.77a4.59,4.59,0,0,1,.23-1.47c-.39-1-.75-1.52-1.09-1.61q-1.11-.27-1.9,5.72Z"/><path class="cls-96" d="M104.21,183.64l.56-3.76c-2.36.08-4.86.11-7.48.1-3,0-5.89-.09-8.62-.21Q85.18,182.41,86,183c.41.29,1.57.22,3.51-.21q2.7.31,5.64.52C98.36,183.55,101.39,183.64,104.21,183.64Z"/><path class="cls-96" d="M93.77,181.09l-2.14.62c.06-.33.88-4.88-2-5.28a3.49,3.49,0,0,0-.91,0c-.4-.27-.55-.49-.47-.67.19-.39,1.49-.56,3.92-.53Z"/><path class="cls-96" d="M303.49,199c-1.16,0-9,0-14.46-6.31a18.38,18.38,0,0,1-4.24-10.45,177.34,177.34,0,0,0,20.78-16c3.9-3.5,16-18.68,35.34-43.22a435.15,435.15,0,0,0,40.87-62.14c2.9-4.72,6.69-8.38,9.5-7.72,3.46.81,6,8.26,4.26,18.61Q349.52,135.34,303.49,199Z"/><path class="cls-96" d="M374.48,87.92c.1-.84.18-1.7.21-2.59.46-11-4.74-20.22-9.37-26.28-3-4.94-2.64-6.51-2.11-7.11,1.61-1.8,8.36,1.74,12.17,3.92a54.79,54.79,0,0,0,9.16,28.87Z"/><path class="cls-96" d="M369.38,111.41l-2.54-8a90.46,90.46,0,0,0,23.39-5,90.16,90.16,0,0,0,12.64-5.64c5.16-3.93,9.77-5.7,10.9-4.51s-.88,5.69-5.06,10.64Z"/><path class="cls-96" d="M338.68,147.76l-13.75.92a69.17,69.17,0,0,0,.27-35.19l8.38-6.67Z"/><path class="cls-96" d="M333.73,124.6l-5.48-3.42a32.1,32.1,0,0,0,11.89-15,29.52,29.52,0,0,0,1.65-6.76c-.11-2.49.12-3.81.67-4q1.26-.36,4.82,7.38Z"/><path class="cls-96" d="M317.71,169.07l1-16.43a200.71,200.71,0,0,0,30,3.91A200,200,0,0,0,377.4,156c4.49-.41,9-.07,9.24,1.2.35,1.5-5.31,4.11-10.33,6.14L349.52,166Q333.62,167.51,317.71,169.07Z"/><path class="cls-96" d="M351.4,158.07l5.67,3.11a32.16,32.16,0,0,1,7.2-17.69,29.59,29.59,0,0,1,5.1-4.74c2.21-1.13,3.26-2,3.12-2.53-.2-.85-3.14-1-8.8-.58Q357.56,146.86,351.4,158.07Z"/><path class="cls-96" d="M357.31,154.67l-.72-4.57c.8.11,12,1.4,14.16-4.77a6.55,6.55,0,0,0,.34-2q1.26-1.34,1.89-1.08,1.35.54-.22,8.4Z"/><path class="cls-96" d="M395,103l-5.5-3.4a19.24,19.24,0,0,0,9.44-11.15,18.89,18.89,0,0,0,.79-5.42c-.38-2.07-.31-3.14.18-3.21q1.14-.17,5.32,6.6Z"/><path class="cls-96" d="M381.67,106.52l4.23-4.89a18.38,18.38,0,0,0,14.72,12.77c2.1,0,3.14.19,3.13.7q0,1.16-7.37,4.18Z"/><path class="cls-96" d="M375.75,64.7,374.45,71a24.16,24.16,0,0,0-19.08-3.94c-1.66-2.11-5.64-7.44-4.29-9.09.37-.45,1.43-1,5.06.32a25.34,25.34,0,0,0,19.61,6.37Z"/><path class="cls-96" d="M301.66,186l-9.31-1.58c1.6-8.37,2.47-15.46,3-20.88.72-7.75,1.08-11.62.77-14.57-.45-4.36-1.44-7.85-.2-8.54s3.37,1.34,5.08,3.05c-.27-2.3.76-4,1.88-4.17a2.29,2.29,0,0,1,1.74.72A85.59,85.59,0,0,0,301,154.28,86.6,86.6,0,0,0,301.66,186Z"/><path class="cls-96" d="M299,160.4l-1.41-2.84c.62-.25,9.33-3.91,9.78-9a4.51,4.51,0,0,0-.12-1.48c.47-.95.88-1.46,1.23-1.51.74-.12,1.22,1.83,1.42,5.85Z"/><path class="cls-96" d="M305.8,189.54l-.26-3.79c2.35.26,4.84.5,7.45.7q4.51.35,8.61.49,3.27,2.91,2.4,3.44c-.43.26-1.58.1-3.48-.49-1.81.06-3.7.09-5.66.07C311.64,189.92,308.61,189.77,305.8,189.54Z"/><path class="cls-96" d="M316.41,187.84l2.09.79c0-.33-.48-4.94,2.37-5.1a3.86,3.86,0,0,1,.91.08c.42-.23.59-.44.52-.63-.15-.4-1.44-.68-3.86-.85C317.76,184,317.09,185.94,316.41,187.84Z"/><path class="cls-97" d="M277,419.58q5.52,38.15,11,76.29c-4.75-7.47-12.26-11.35-19.39-10-9.54,1.85-13.42,12.15-13.79,13.18q-6.15-37.08-12.31-74.16Z"/><path class="cls-98" d="M71.94,400.87C70.67,423,142.4,453,208.73,453.56c58,.54,126.56-21.2,128.19-47,.59-9.37-8-16.49-8.45-16.86-22.83-18.42-59.4,27.65-117.81,29.36C147.17,421,106,369,79.38,389.73,77.19,391.44,72.26,395.27,71.94,400.87Z"/><path class="cls-99" d="M286.67,395.54l45.23,81.34c-7.93-6.73-16.81-8.51-22.95-4.56-8.21,5.29-7.2,18.08-7.08,19.36l-47.11-82.07Z"/><g class="cls-100"><path class="cls-86" d="M96.11,219.43c-9.26,0-16.79-9.36-16.79-20.88h.62c0,11.17,7.26,20.26,16.17,20.26Z"/></g><g class="cls-100"><path class="cls-86" d="M313.55,225.73v-.62c8.92,0,16.17-9.09,16.17-20.26h.62C330.34,216.36,322.81,225.73,313.55,225.73Z"/></g></svg>