<svg id="Layer_1" data-name="Layer 1" xmlns="http://www.w3.org/2000/svg" viewBox="0 0 150 150"><defs><style>.cls-1{fill:#00582d;}.cls-2{fill:#b31f2b;}.cls-3{opacity:0.48;}.cls-4{fill:#2f0d00;}.cls-5{fill:#fff;}</style></defs><circle class="cls-1" cx="75" cy="75" r="73.41"/><circle class="cls-2" cx="75" cy="75.76" r="64.18"/><g class="cls-3"><path class="cls-4" d="M65.4,119.64a34.66,34.66,0,0,1-18.29-4.94c-15.54-9.5-18.93-30.18-15.49-45.37,2.84-12.6,11.64-24.49,23.51-31.81C65.73,31,77.4,28.84,88,31.48c13,3.24,28.07,14.71,30.44,32.24,2,14.69-5.8,25.94-9.24,30.1a3.16,3.16,0,1,1-4.87-4c2.91-3.52,9.5-13,7.85-25.22-2-14.61-14.71-24.22-25.71-26.95-8.94-2.23-18.89-.35-28,5.28C48,49.35,40.26,59.75,37.78,70.72c-2.12,9.38-2.21,29.52,12.63,38.58,10.76,6.58,23.3,3.27,26.89,2.1a3.16,3.16,0,1,1,2,6A45.76,45.76,0,0,1,65.4,119.64Z"/><polygon class="cls-5" points="97.99 72.2 95.64 106.55 125.41 89.24 97.99 72.2 95.64 106.55 125.41 89.24 97.99 72.2"/><path class="cls-4" d="M95.64,109.71a3.22,3.22,0,0,1-1.67-.47,3.17,3.17,0,0,1-1.49-2.69,1.48,1.48,0,0,1,0-.21L94.83,72a3.17,3.17,0,0,1,4.83-2.47l27.41,17a3.17,3.17,0,0,1,1.5,2.69v0A3.18,3.18,0,0,1,127,92L97.23,109.28A3.11,3.11,0,0,1,95.64,109.71Zm5.14-32L99.2,100.82l20.07-11.67Z"/></g><path class="cls-5" d="M63.15,119.64a34.69,34.69,0,0,1-18.29-4.94c-15.54-9.5-18.93-30.18-15.49-45.37C32.22,56.73,41,44.84,52.89,37.52c10.59-6.53,22.27-8.68,32.87-6,13,3.24,28.07,14.71,30.45,32.24,2,14.69-5.81,25.94-9.25,30.1a3.16,3.16,0,1,1-4.87-4c2.27-2.74,9.55-12.66,7.85-25.21C108,50,95.23,40.35,84.23,37.62c-8.94-2.23-18.89-.35-28,5.28C45.74,49.35,38,59.75,35.54,70.72c-2.13,9.38-2.22,29.52,12.62,38.58,10.76,6.58,23.3,3.27,26.89,2.1a3.16,3.16,0,0,1,2,6A45.84,45.84,0,0,1,63.15,119.64Z"/><polygon class="cls-5" points="95.74 72.2 93.39 106.55 123.16 89.24 95.74 72.2 93.39 106.55 123.16 89.24 95.74 72.2"/><path class="cls-5" d="M93.39,109.71a3.25,3.25,0,0,1-1.67-.47,3.17,3.17,0,0,1-1.49-2.69,1.48,1.48,0,0,1,0-.21L92.58,72a3.17,3.17,0,0,1,4.83-2.47l27.42,17a3.18,3.18,0,0,1,1.49,2.69v0A3.2,3.2,0,0,1,124.75,92L95,109.28A3.11,3.11,0,0,1,93.39,109.71Zm5.15-32L97,100.82,117,89.15Z"/></svg>