<svg id="Layer_1" data-name="Layer 1" xmlns="http://www.w3.org/2000/svg" xmlns:xlink="http://www.w3.org/1999/xlink" viewBox="0 0 480 640"><defs><style>.cls-1{fill:none;}.cls-2{clip-path:url(#clip-path);}.cls-3{fill:#683614;}.cls-4{fill:#683615;}.cls-5{fill:#693615;}.cls-6{fill:#693716;}.cls-7{fill:#6a3717;}.cls-8{fill:#6a3817;}.cls-9{fill:#6a3818;}.cls-10{fill:#6b3918;}.cls-11{fill:#6b3919;}.cls-12{fill:#6c3a1a;}.cls-13{fill:#6c3b1b;}.cls-14{fill:#6d3b1b;}.cls-15{fill:#6d3c1c;}.cls-16{fill:#6e3c1c;}.cls-17{fill:#6e3d1d;}.cls-18{fill:#6f3d1e;}.cls-19{fill:#6f3e1e;}.cls-20{fill:#703f1f;}.cls-21{fill:#703f20;}.cls-22{fill:#714021;}.cls-23{fill:#724121;}.cls-24{fill:#724122;}.cls-25{fill:#734223;}.cls-26{fill:#744324;}.cls-27{fill:#754425;}.cls-28{fill:#764526;}.cls-29{fill:#774627;}.cls-30{fill:#784728;}.cls-31{fill:#794829;}.cls-32{fill:#79492a;}.cls-33{fill:#7a4a2b;}.cls-34{fill:#7c4b2c;}.cls-35{fill:#7d4c2d;}.cls-36{fill:#7e4d2e;}.cls-37{fill:#7f4e2f;}.cls-38{fill:#804f31;}.cls-39{fill:#815032;}.cls-40{fill:#825133;}.cls-41{fill:#845334;}.cls-42{fill:#855435;}.cls-43{fill:#865537;}.cls-44{fill:#875638;}.cls-45{fill:#885839;}.cls-46{fill:#8a593a;}.cls-47{fill:#8b5a3b;}.cls-48{fill:#8c5b3c;}.cls-49{fill:#8d5c3d;}.cls-50{fill:#8f5e3f;}.cls-51{fill:#905f40;}.cls-52{fill:#916141;}.cls-53{fill:#936243;}.cls-54{fill:#946444;}.cls-55{fill:#966545;}.cls-56{fill:#986747;}.cls-57{fill:#996848;}.cls-58{fill:#9b6a4a;}.cls-59{fill:#653414;}.cls-60{clip-path:url(#clip-path-2);}.cls-61{fill:#b31f2b;}.cls-62{fill:#af1e29;}.cls-63{fill:#ab1d27;}.cls-64{fill:#a71d25;}.cls-65{fill:#a41c23;}.cls-66{fill:#a11c22;}.cls-67{fill:#9f1c20;}.cls-68{fill:#9c1c1f;}.cls-69{fill:#991b1d;}.cls-70{fill:#971b1b;}.cls-71{fill:#941b19;}.cls-72{fill:#921b16;}.cls-73{fill:#901b14;}.cls-74{fill:#8d1c12;}.cls-75{fill:#8b1c10;}.cls-76{fill:#891d0e;}.cls-77{fill:#871d0c;}.cls-78{fill:#861e0a;}.cls-79{fill:#841e08;}.cls-80{fill:#821f06;}.cls-81{fill:#811f04;}.cls-82{fill:#7f2003;}.cls-83{fill:#7e2001;}.cls-84{fill:#7c2100;}.cls-85{fill:#7b2100;}.cls-86{fill:#792100;}.cls-87{fill:#782100;}.cls-88{fill:#720;}.cls-89{fill:#752200;}.cls-90{fill:#742200;}.cls-91{fill:#732200;}.cls-92{fill:#722200;}.cls-93{fill:#702200;}.cls-94{fill:#6f2100;}.cls-95{fill:#6e2100;}.cls-96{fill:#6d2100;}.cls-97{fill:#6c2000;}.cls-98{fill:#6b2000;}.cls-99{fill:#691f00;}.cls-100{fill:#681f00;}.cls-101{fill:#671e00;}.cls-102{fill:#661e00;}.cls-103{fill:#651d00;}.cls-104{fill:#641d00;}.cls-105{fill:#641c00;}.cls-106{fill:#631c00;}.cls-107{fill:#621b00;}.cls-108{fill:#611b00;}.cls-109{fill:#601a00;}.cls-110{fill:#5f1a00;}.cls-111{fill:#5e1900;}.cls-112{fill:#5d1900;}.cls-113{fill:#5d1800;}.cls-114{fill:#5c1800;}.cls-115{fill:#5b1700;}.cls-116{fill:#5a1700;}.cls-117{fill:#5a1600;}.cls-118{fill:#591600;}.cls-119{fill:#581600;}.cls-120{fill:#581500;}.cls-121{fill:#571500;}.cls-122{fill:#571400;}.cls-123{fill:#561400;}.cls-124{fill:#551400;}.cls-125{fill:#551300;}.cls-126{fill:#2f0d00;}.cls-127{opacity:0.29;}.cls-128{fill:#060305;}.cls-129{opacity:0.95;}.cls-130{fill:#040102;}.cls-131{fill:#fff;}.cls-132{fill:#241010;}.cls-133{fill:#a0252a;}.cls-134{fill:#d0cdcd;}.cls-135{fill:#e3e2e1;}.cls-136{fill:#473332;}.cls-137{opacity:0.6;}</style><clipPath id="clip-path"><path class="cls-1" d="M466,603.58c-18,26.32-80.16,27.43-204.41,29.65C122,635.73,101.27,617.88,92.2,605.77,61.7,565.05,95,498,105.31,477.31c26.46-53.22,93.87-135,182.94-131.57C420.46,350.9,509.22,540.45,466,603.58Z"/></clipPath><clipPath id="clip-path-2"><ellipse class="cls-1" cx="276.65" cy="294.5" rx="74.87" ry="43.3"/></clipPath></defs><g class="cls-2"><rect class="cls-3" x="61.7" y="342.26" width="447.51" height="293.47"/><path class="cls-3" d="M457.59,498c-1.89,46.75-23.35,88.29-56.5,117.64a176.83,176.83,0,0,1-26.94,19.62q-3.61,2.13-7.33,4.11v-2.77H198.6v3.78c-2.53-1.29-5-2.64-7.46-4.05q-7.33-4.21-14.19-9.07a175.79,175.79,0,0,1-25.27-21.73C121,573.55,103,530.42,104.88,483.66S128.23,395.37,161.39,366a176.15,176.15,0,0,1,26.94-19.62q7.21-4.27,14.88-7.89v2.92h153v-3.86a177.19,177.19,0,0,1,54.58,38.56C441.47,408.06,459.49,451.2,457.59,498Z"/><path class="cls-4" d="M454.84,497.84c-1.87,46-23,86.92-55.62,115.81A173.65,173.65,0,0,1,372.7,633q-7.11,4.21-14.65,7.77v-4.17H207.44v5.09a174.43,174.43,0,0,1-53.73-37.95c-30.19-31.44-47.94-73.9-46.07-119.93s23-86.91,55.62-115.8a173,173,0,0,1,26.52-19.31q7.11-4.21,14.65-7.77v.54H355V340a174.75,174.75,0,0,1,53.73,38C439,409.36,456.7,451.81,454.84,497.84Z"/><path class="cls-4" d="M452.08,497.73c-1.83,45.3-22.62,85.53-54.74,114a170.87,170.87,0,0,1-26.09,19q-7,4.15-14.42,7.65v-1.79H208.61v2.7a171.9,171.9,0,0,1-52.88-37.36C126,571,108.56,529.18,110.4,483.88s22.62-85.53,54.74-114A171.72,171.72,0,0,1,220.86,337v4.46H338.39V336.2q7.94,2.73,15.47,6.16a171.47,171.47,0,0,1,52.88,37.35C436.46,410.65,453.92,452.43,452.08,497.73Z"/><path class="cls-4" d="M449.33,497.62c-1.81,44.57-22.26,84.15-53.86,112.13a169.12,169.12,0,0,1-54.83,32.42v-5.61H209.78v.31a169.18,169.18,0,0,1-52-36.76c-29.24-30.44-46.42-71.55-44.61-116.11S135.41,399.84,167,371.87a169,169,0,0,1,54.83-32.42v2H337.47V338.7q7.8,2.67,15.22,6.05a169,169,0,0,1,52,36.75C434,411.94,451.13,453.05,449.33,497.62Z"/><path class="cls-5" d="M446.57,497.51c-1.78,43.84-21.89,82.77-53,110.29a166.41,166.41,0,0,1-53.93,31.89v-3.13H225.93v3.87q-7.67-2.64-15-6a166.19,166.19,0,0,1-51.18-36.15c-28.75-29.94-45.65-70.38-43.87-114.21s21.89-82.78,53-110.29a166.24,166.24,0,0,1,53.93-31.89q7.55-2.71,15.41-4.72v4.22h82.64v-4.79a169.72,169.72,0,0,1,30.66,10.5,166.35,166.35,0,0,1,51.18,36.15C431.45,413.23,448.35,453.67,446.57,497.51Z"/><path class="cls-5" d="M443.82,497.4c-1.75,43.1-21.53,81.39-52.1,108.45a163.42,163.42,0,0,1-53,31.36v-.65H226.85v1.37q-7.54-2.58-14.72-5.85a163.47,163.47,0,0,1-50.32-35.55c-28.28-29.44-44.89-69.2-43.15-112.31s21.53-81.4,52.09-108.45a163.57,163.57,0,0,1,53-31.36,165.81,165.81,0,0,1,30.88-7.86v4.88H320.2v-2.22a164.74,164.74,0,0,1,80.47,45.88C429,414.53,445.56,454.29,443.82,497.4Z"/><path class="cls-6" d="M441.06,497.29c-1.72,42.37-21.16,80-51.21,106.61a160.71,160.71,0,0,1-52.13,30.83q-7.29,2.61-14.89,4.56v-2.73H242.94v3.28a163.91,163.91,0,0,1-29.64-10.16,160.71,160.71,0,0,1-49.47-34.94c-27.8-28.94-44.13-68-42.41-110.41s21.16-80,51.21-106.61a160.61,160.61,0,0,1,52.13-30.83,165.28,165.28,0,0,1,62.7-9.54C375.73,340.93,444.5,412.53,441.06,497.29Z"/><path class="cls-6" d="M438.3,497.17C436.62,538.82,417.51,575.81,388,602a158,158,0,0,1-51.24,30.29,160.84,160.84,0,0,1-29.83,7.6v-3.28H275.13v5.06c-86.75-3.52-154.33-73.89-151-157.18s76.44-148,163.18-144.44S441.68,413.88,438.3,497.17Z"/><path class="cls-6" d="M435.55,497.06C433.89,538,415.12,574.32,386.11,600a157.21,157.21,0,0,1-110.88,39c-85.22-3.45-151.62-72.59-148.3-154.42S202,339.19,287.24,342.64,438.87,415.23,435.55,497.06Z"/><ellipse class="cls-7" cx="281.24" cy="490.81" rx="145.64" ry="151.68" transform="translate(-220.56 751.94) rotate(-87.68)"/><ellipse class="cls-8" cx="281.24" cy="490.81" rx="142.99" ry="148.92" transform="translate(-220.56 751.94) rotate(-87.68)"/><ellipse class="cls-9" cx="281.24" cy="490.81" rx="140.34" ry="146.16" transform="translate(-220.56 751.94) rotate(-87.68)"/><ellipse class="cls-9" cx="281.24" cy="490.81" rx="137.69" ry="143.41" transform="translate(-220.56 751.94) rotate(-87.68)"/><ellipse class="cls-10" cx="281.24" cy="490.81" rx="135.05" ry="140.65" transform="translate(-220.56 751.94) rotate(-87.68)"/><ellipse class="cls-11" cx="281.24" cy="490.81" rx="132.4" ry="137.89" transform="translate(-220.56 751.94) rotate(-87.68)"/><ellipse class="cls-12" cx="281.24" cy="490.81" rx="129.75" ry="135.13" transform="matrix(0.04, -1, 1, 0.04, -220.56, 751.94)"/><ellipse class="cls-12" cx="281.24" cy="490.81" rx="127.1" ry="132.37" transform="translate(-220.56 751.94) rotate(-87.68)"/><ellipse class="cls-13" cx="281.24" cy="490.81" rx="124.45" ry="129.62" transform="translate(-220.56 751.94) rotate(-87.68)"/><ellipse class="cls-14" cx="281.24" cy="490.81" rx="121.81" ry="126.86" transform="translate(-220.56 751.94) rotate(-87.68)"/><ellipse class="cls-15" cx="281.24" cy="490.81" rx="119.16" ry="124.1" transform="translate(-220.56 751.94) rotate(-87.68)"/><ellipse class="cls-16" cx="281.24" cy="490.81" rx="116.51" ry="121.34" transform="translate(-220.56 751.94) rotate(-87.68)"/><ellipse class="cls-17" cx="281.24" cy="490.81" rx="113.86" ry="118.59" transform="translate(-220.56 751.94) rotate(-87.68)"/><ellipse class="cls-18" cx="281.24" cy="490.81" rx="111.21" ry="115.83" transform="translate(-220.56 751.94) rotate(-87.68)"/><ellipse class="cls-19" cx="281.24" cy="490.81" rx="108.57" ry="113.07" transform="translate(-220.56 751.94) rotate(-87.68)"/><ellipse class="cls-20" cx="281.24" cy="490.81" rx="105.92" ry="110.31" transform="translate(-220.56 751.94) rotate(-87.68)"/><ellipse class="cls-21" cx="281.24" cy="490.81" rx="103.27" ry="107.55" transform="translate(-220.56 751.94) rotate(-87.68)"/><ellipse class="cls-22" cx="281.24" cy="490.81" rx="100.62" ry="104.8" transform="matrix(0.04, -1, 1, 0.04, -220.56, 751.94)"/><ellipse class="cls-23" cx="281.24" cy="490.81" rx="97.97" ry="102.04" transform="translate(-220.56 751.94) rotate(-87.68)"/><ellipse class="cls-24" cx="281.24" cy="490.81" rx="95.33" ry="99.28" transform="translate(-220.56 751.94) rotate(-87.68)"/><ellipse class="cls-25" cx="281.24" cy="490.81" rx="92.68" ry="96.52" transform="translate(-220.56 751.94) rotate(-87.68)"/><ellipse class="cls-26" cx="281.24" cy="490.81" rx="90.03" ry="93.77" transform="translate(-220.56 751.94) rotate(-87.68)"/><ellipse class="cls-26" cx="281.24" cy="490.81" rx="87.38" ry="91.01" transform="translate(-220.56 751.94) rotate(-87.68)"/><ellipse class="cls-27" cx="281.24" cy="490.81" rx="84.73" ry="88.25" transform="translate(-220.56 751.94) rotate(-87.68)"/><ellipse class="cls-28" cx="281.24" cy="490.81" rx="82.09" ry="85.49" transform="translate(-220.56 751.94) rotate(-87.68)"/><ellipse class="cls-29" cx="281.24" cy="490.81" rx="79.44" ry="82.73" transform="matrix(0.04, -1, 1, 0.04, -220.56, 751.94)"/><ellipse class="cls-30" cx="281.24" cy="490.81" rx="76.79" ry="79.98" transform="translate(-220.56 751.94) rotate(-87.68)"/><ellipse class="cls-31" cx="281.24" cy="490.81" rx="74.14" ry="77.22" transform="translate(-220.56 751.94) rotate(-87.68)"/><ellipse class="cls-32" cx="281.24" cy="490.81" rx="71.49" ry="74.46" transform="translate(-220.56 751.94) rotate(-87.68)"/><ellipse class="cls-33" cx="281.24" cy="490.81" rx="68.85" ry="71.7" transform="translate(-220.56 751.94) rotate(-87.68)"/><ellipse class="cls-34" cx="281.24" cy="490.81" rx="66.2" ry="68.94" transform="translate(-220.56 751.94) rotate(-87.68)"/><ellipse class="cls-35" cx="281.24" cy="490.81" rx="63.55" ry="66.19" transform="translate(-220.56 751.94) rotate(-87.68)"/><ellipse class="cls-36" cx="281.24" cy="490.81" rx="60.9" ry="63.43" transform="matrix(0.04, -1, 1, 0.04, -220.56, 751.94)"/><ellipse class="cls-37" cx="281.24" cy="490.81" rx="58.26" ry="60.67" transform="translate(-220.56 751.94) rotate(-87.68)"/><ellipse class="cls-38" cx="281.24" cy="490.81" rx="55.61" ry="57.91" transform="translate(-220.56 751.94) rotate(-87.68)"/><ellipse class="cls-39" cx="281.24" cy="490.81" rx="52.96" ry="55.16" transform="translate(-220.56 751.94) rotate(-87.68)"/><ellipse class="cls-40" cx="281.24" cy="490.81" rx="50.31" ry="52.4" transform="matrix(0.04, -1, 1, 0.04, -220.56, 751.94)"/><ellipse class="cls-41" cx="281.24" cy="490.81" rx="47.66" ry="49.64" transform="translate(-220.56 751.94) rotate(-87.68)"/><ellipse class="cls-42" cx="281.24" cy="490.81" rx="45.02" ry="46.88" transform="translate(-220.56 751.94) rotate(-87.68)"/><ellipse class="cls-43" cx="281.24" cy="490.81" rx="42.37" ry="44.12" transform="matrix(0.04, -1, 1, 0.04, -220.56, 751.94)"/><ellipse class="cls-44" cx="281.24" cy="490.81" rx="39.72" ry="41.37" transform="translate(-220.56 751.94) rotate(-87.68)"/><ellipse class="cls-45" cx="281.24" cy="490.81" rx="37.07" ry="38.61" transform="translate(-220.56 751.94) rotate(-87.68)"/><ellipse class="cls-46" cx="281.24" cy="490.81" rx="34.42" ry="35.85" transform="translate(-220.56 751.94) rotate(-87.68)"/><ellipse class="cls-47" cx="281.24" cy="490.81" rx="31.78" ry="33.09" transform="translate(-220.56 751.94) rotate(-87.68)"/><ellipse class="cls-48" cx="281.24" cy="490.81" rx="29.13" ry="30.34" transform="translate(-220.56 751.94) rotate(-87.68)"/><ellipse class="cls-49" cx="281.24" cy="490.81" rx="26.48" ry="27.58" transform="translate(-220.56 751.94) rotate(-87.68)"/><ellipse class="cls-50" cx="281.24" cy="490.81" rx="23.83" ry="24.82" transform="translate(-220.56 751.94) rotate(-87.68)"/><ellipse class="cls-51" cx="281.24" cy="490.81" rx="21.18" ry="22.06" transform="translate(-220.56 751.94) rotate(-87.68)"/><ellipse class="cls-52" cx="281.24" cy="490.81" rx="18.54" ry="19.3" transform="translate(-220.56 751.94) rotate(-87.68)"/><ellipse class="cls-53" cx="281.24" cy="490.81" rx="15.89" ry="16.55" transform="translate(-220.56 751.94) rotate(-87.68)"/><ellipse class="cls-54" cx="281.24" cy="490.81" rx="13.24" ry="13.79" transform="translate(-220.56 751.94) rotate(-87.68)"/><ellipse class="cls-55" cx="281.24" cy="490.81" rx="10.59" ry="11.03" transform="translate(-220.56 751.94) rotate(-87.68)"/><ellipse class="cls-56" cx="281.24" cy="490.81" rx="7.94" ry="8.27" transform="translate(-220.56 751.94) rotate(-87.68)"/><ellipse class="cls-57" cx="281.24" cy="490.81" rx="5.3" ry="5.52" transform="translate(-220.56 751.94) rotate(-87.68)"/><ellipse class="cls-58" cx="281.24" cy="490.81" rx="2.65" ry="2.76" transform="translate(-220.56 751.94) rotate(-87.68)"/></g><path class="cls-59" d="M377,211.39c-5.22,7.67-9.49,20-4.54,22.55,5.48,2.88,25.52-4.44,31.44-17.08,3.54-7.57,3.72-20.7,10.34-27.89.38-.42.9-.94.68-1.12C413.64,186.82,388.49,194.51,377,211.39Z"/><path class="cls-59" d="M171.13,214.47c5.23,7.67,9.5,19.95,4.55,22.55-5.49,2.87-25.53-4.45-31.44-17.09-3.55-7.57-3.72-20.69-10.34-27.88-.39-.42-.91-.94-.68-1.13C134.46,189.89,159.62,197.59,171.13,214.47Z"/><path class="cls-3" d="M322.19,313H231.11c-8.43-.89-25.1-3.94-39.88-16.59-21.14-18.09-29.74-48.39-23.31-78.76a108.88,108.88,0,0,1,23.31-41.67c35.17-38.83,86.4-36.3,93.58-35.82,8.88.58,49,3.22,77.25,35.82a101.81,101.81,0,0,1,20.67,38.36c8.56,31.42.75,63.37-20.67,82.07C347.45,309.12,330.65,312.11,322.19,313Z"/><ellipse class="cls-3" cx="276.65" cy="333.96" rx="149.75" ry="86.6"/><g class="cls-60"><polygon class="cls-61" points="245.67 251.19 201.77 276.54 201.77 251.19 245.67 251.19"/><polygon class="cls-61" points="247.75 251.19 201.77 277.74 201.77 276.54 245.67 251.19 247.75 251.19"/><polygon class="cls-62" points="249.82 251.19 201.77 278.94 201.77 277.74 247.75 251.19 249.82 251.19"/><polygon class="cls-63" points="251.9 251.19 201.77 280.13 201.77 278.94 249.82 251.19 251.9 251.19"/><polygon class="cls-64" points="253.97 251.19 201.77 281.33 201.77 280.13 251.9 251.19 253.97 251.19"/><polygon class="cls-65" points="256.05 251.19 201.77 282.53 201.77 281.33 253.97 251.19 256.05 251.19"/><polygon class="cls-66" points="258.12 251.19 201.77 283.73 201.77 282.53 256.05 251.19 258.12 251.19"/><polygon class="cls-67" points="260.2 251.19 201.77 284.93 201.77 283.73 258.12 251.19 260.2 251.19"/><polygon class="cls-68" points="262.27 251.19 201.77 286.13 201.77 284.93 260.2 251.19 262.27 251.19"/><polygon class="cls-69" points="264.35 251.19 201.77 287.32 201.77 286.13 262.27 251.19 264.35 251.19"/><polygon class="cls-70" points="266.42 251.19 201.77 288.52 201.77 287.32 264.35 251.19 266.42 251.19"/><polygon class="cls-71" points="268.5 251.19 201.77 289.72 201.77 288.52 266.42 251.19 268.5 251.19"/><polygon class="cls-72" points="270.57 251.19 201.77 290.92 201.77 289.72 268.5 251.19 270.57 251.19"/><polygon class="cls-73" points="272.65 251.19 201.77 292.12 201.77 290.92 270.57 251.19 272.65 251.19"/><polygon class="cls-74" points="274.73 251.19 201.77 293.31 201.77 292.12 272.65 251.19 274.73 251.19"/><polygon class="cls-75" points="276.8 251.19 201.77 294.51 201.77 293.31 274.73 251.19 276.8 251.19"/><polygon class="cls-76" points="278.88 251.19 201.77 295.71 201.77 294.51 276.8 251.19 278.88 251.19"/><polygon class="cls-77" points="280.95 251.19 201.77 296.91 201.77 295.71 278.88 251.19 280.95 251.19"/><polygon class="cls-78" points="283.03 251.19 201.77 298.11 201.77 296.91 280.95 251.19 283.03 251.19"/><polygon class="cls-79" points="285.1 251.19 201.77 299.31 201.77 298.11 283.03 251.19 285.1 251.19"/><polygon class="cls-80" points="287.18 251.19 201.77 300.5 201.77 299.31 285.1 251.19 287.18 251.19"/><polygon class="cls-81" points="289.25 251.19 201.77 301.7 201.77 300.5 287.18 251.19 289.25 251.19"/><polygon class="cls-82" points="291.33 251.19 201.77 302.9 201.77 301.7 289.25 251.19 291.33 251.19"/><polygon class="cls-83" points="293.4 251.19 201.77 304.1 201.77 302.9 291.33 251.19 293.4 251.19"/><polygon class="cls-84" points="295.48 251.19 201.77 305.3 201.77 304.1 293.4 251.19 295.48 251.19"/><polygon class="cls-85" points="297.55 251.19 201.77 306.49 201.77 305.3 295.48 251.19 297.55 251.19"/><polygon class="cls-86" points="299.63 251.19 201.77 307.69 201.77 306.49 297.55 251.19 299.63 251.19"/><polygon class="cls-87" points="301.7 251.19 201.77 308.89 201.77 307.69 299.63 251.19 301.7 251.19"/><polygon class="cls-88" points="303.78 251.19 201.77 310.09 201.77 308.89 301.7 251.19 303.78 251.19"/><polygon class="cls-89" points="305.86 251.19 201.77 311.29 201.77 310.09 303.78 251.19 305.86 251.19"/><polygon class="cls-90" points="307.93 251.19 201.77 312.49 201.77 311.29 305.86 251.19 307.93 251.19"/><polygon class="cls-91" points="310.01 251.19 201.77 313.68 201.77 312.49 307.93 251.19 310.01 251.19"/><polygon class="cls-92" points="312.08 251.19 201.77 314.88 201.77 313.68 310.01 251.19 312.08 251.19"/><polygon class="cls-93" points="314.16 251.19 201.77 316.08 201.77 314.88 312.08 251.19 314.16 251.19"/><polygon class="cls-94" points="316.23 251.19 201.77 317.28 201.77 316.08 314.16 251.19 316.23 251.19"/><polygon class="cls-95" points="318.31 251.19 201.77 318.48 201.77 317.28 316.23 251.19 318.31 251.19"/><polygon class="cls-96" points="320.38 251.19 201.77 319.68 201.77 318.48 318.31 251.19 320.38 251.19"/><polygon class="cls-97" points="322.46 251.19 201.77 320.87 201.77 319.68 320.38 251.19 322.46 251.19"/><polygon class="cls-98" points="324.53 251.19 201.92 321.99 201.77 321.73 201.77 320.87 322.46 251.19 324.53 251.19"/><polygon class="cls-99" points="326.61 251.19 202.44 322.88 201.92 321.99 324.53 251.19 326.61 251.19"/><polygon class="cls-100" points="328.69 251.19 202.96 323.78 202.44 322.88 326.61 251.19 328.69 251.19"/><polygon class="cls-101" points="330.76 251.19 203.47 324.68 202.96 323.78 328.69 251.19 330.76 251.19"/><polygon class="cls-102" points="332.83 251.19 203.99 325.58 203.47 324.68 330.76 251.19 332.83 251.19"/><polygon class="cls-103" points="334.91 251.19 204.51 326.48 203.99 325.58 332.83 251.19 334.91 251.19"/><polygon class="cls-104" points="336.99 251.19 205.03 327.38 204.51 326.48 334.91 251.19 336.99 251.19"/><polygon class="cls-105" points="339.06 251.19 205.55 328.28 205.03 327.38 336.99 251.19 339.06 251.19"/><polygon class="cls-106" points="341.14 251.19 206.07 329.18 205.55 328.28 339.06 251.19 341.14 251.19"/><polygon class="cls-107" points="342.25 251.19 342.49 251.61 206.59 330.07 206.07 329.18 341.14 251.19 342.25 251.19"/><rect class="cls-108" x="196.34" y="290.77" width="156.92" height="1.04" transform="translate(-108.83 176.42) rotate(-30)"/><rect class="cls-109" x="196.85" y="291.67" width="156.92" height="1.04" transform="translate(-109.21 176.8) rotate(-30)"/><rect class="cls-109" x="197.37" y="292.57" width="156.92" height="1.04" transform="translate(-109.59 177.18) rotate(-30)"/><rect class="cls-110" x="197.89" y="293.47" width="156.92" height="1.04" transform="translate(-109.97 177.56) rotate(-30)"/><rect class="cls-111" x="198.41" y="294.37" width="156.92" height="1.04" transform="translate(-110.35 177.94) rotate(-30)"/><rect class="cls-112" x="198.93" y="295.27" width="156.92" height="1.04" transform="translate(-110.73 178.32) rotate(-30)"/><rect class="cls-113" x="199.45" y="296.17" width="156.92" height="1.04" transform="matrix(0.87, -0.5, 0.5, 0.87, -111.11, 178.7)"/><rect class="cls-114" x="199.97" y="297.06" width="156.92" height="1.04" transform="translate(-111.49 179.08) rotate(-30)"/><polygon class="cls-114" points="346.64 258.8 347.16 259.7 211.89 337.8 211.05 337.8 210.74 337.26 346.64 258.8"/><polygon class="cls-115" points="347.16 259.7 347.68 260.6 213.97 337.8 211.89 337.8 347.16 259.7"/><polygon class="cls-115" points="347.68 260.6 348.2 261.5 216.04 337.8 213.97 337.8 347.68 260.6"/><polygon class="cls-116" points="348.2 261.5 348.71 262.4 218.12 337.8 216.04 337.8 348.2 261.5"/><polygon class="cls-116" points="348.71 262.4 349.23 263.3 220.19 337.8 218.12 337.8 348.71 262.4"/><polygon class="cls-117" points="349.23 263.3 349.75 264.19 222.27 337.8 220.19 337.8 349.23 263.3"/><polygon class="cls-118" points="349.75 264.19 350.27 265.09 224.34 337.8 222.27 337.8 349.75 264.19"/><polygon class="cls-118" points="350.27 265.09 350.79 265.99 226.42 337.8 224.34 337.8 350.27 265.09"/><polygon class="cls-119" points="350.79 265.99 351.31 266.89 228.5 337.8 226.42 337.8 350.79 265.99"/><polygon class="cls-120" points="351.31 266.89 351.52 267.26 351.52 267.96 230.57 337.8 228.5 337.8 351.31 266.89"/><polygon class="cls-120" points="351.52 269.16 232.65 337.8 230.57 337.8 351.52 267.96 351.52 269.16"/><polygon class="cls-120" points="351.52 270.36 234.72 337.8 232.65 337.8 351.52 269.16 351.52 270.36"/><polygon class="cls-121" points="351.52 271.56 236.8 337.8 234.72 337.8 351.52 270.36 351.52 271.56"/><polygon class="cls-121" points="351.52 272.76 238.87 337.8 236.8 337.8 351.52 271.56 351.52 272.76"/><polygon class="cls-122" points="351.52 273.96 240.95 337.8 238.87 337.8 351.52 272.76 351.52 273.96"/><polygon class="cls-122" points="351.52 275.15 243.02 337.8 240.95 337.8 351.52 273.96 351.52 275.15"/><polygon class="cls-123" points="351.52 276.35 245.1 337.8 243.02 337.8 351.52 275.15 351.52 276.35"/><polygon class="cls-123" points="351.52 277.55 247.17 337.8 245.1 337.8 351.52 276.35 351.52 277.55"/><polygon class="cls-123" points="351.52 278.75 249.25 337.8 247.17 337.8 351.52 277.55 351.52 278.75"/><polygon class="cls-123" points="351.52 279.95 251.32 337.8 249.25 337.8 351.52 278.75 351.52 279.95"/><polygon class="cls-123" points="351.52 281.14 253.4 337.8 251.32 337.8 351.52 279.95 351.52 281.14"/><polygon class="cls-123" points="351.52 282.34 255.47 337.8 253.4 337.8 351.52 281.14 351.52 282.34"/><polygon class="cls-123" points="351.52 283.54 257.55 337.8 255.47 337.8 351.52 282.34 351.52 283.54"/><polygon class="cls-123" points="351.52 284.74 259.63 337.8 257.55 337.8 351.52 283.54 351.52 284.74"/><polygon class="cls-124" points="351.52 285.94 261.7 337.8 259.63 337.8 351.52 284.74 351.52 285.94"/><polygon class="cls-125" points="351.52 287.14 263.78 337.8 261.7 337.8 351.52 285.94 351.52 287.14"/><polygon class="cls-125" points="351.52 288.33 265.85 337.8 263.78 337.8 351.52 287.14 351.52 288.33"/><polygon class="cls-125" points="351.52 289.53 267.93 337.8 265.85 337.8 351.52 288.33 351.52 289.53"/><polygon class="cls-125" points="351.52 290.73 270 337.8 267.93 337.8 351.52 289.53 351.52 290.73"/><polygon class="cls-125" points="351.52 291.93 272.08 337.8 270 337.8 351.52 290.73 351.52 291.93"/><polygon class="cls-125" points="351.52 293.13 274.15 337.8 272.08 337.8 351.52 291.93 351.52 293.13"/><polygon class="cls-125" points="351.52 294.33 276.23 337.8 274.15 337.8 351.52 293.13 351.52 294.33"/><polygon class="cls-125" points="351.52 295.52 278.3 337.8 276.23 337.8 351.52 294.33 351.52 295.52"/><polygon class="cls-125" points="351.52 296.72 280.38 337.8 278.3 337.8 351.52 295.52 351.52 296.72"/><polygon class="cls-125" points="351.52 297.92 282.45 337.8 280.38 337.8 351.52 296.72 351.52 297.92"/><polygon class="cls-125" points="351.52 299.12 284.53 337.8 282.45 337.8 351.52 297.92 351.52 299.12"/><polygon class="cls-125" points="351.52 300.32 286.61 337.8 284.53 337.8 351.52 299.12 351.52 300.32"/><polygon class="cls-125" points="351.52 301.51 288.68 337.8 286.61 337.8 351.52 300.32 351.52 301.51"/><polygon class="cls-125" points="351.52 302.71 290.76 337.8 288.68 337.8 351.52 301.51 351.52 302.71"/><polygon class="cls-125" points="351.52 303.91 292.83 337.8 290.76 337.8 351.52 302.71 351.52 303.91"/><polygon class="cls-125" points="351.52 305.11 294.91 337.8 292.83 337.8 351.52 303.91 351.52 305.11"/><polygon class="cls-125" points="351.52 306.31 296.98 337.8 294.91 337.8 351.52 305.11 351.52 306.31"/><polygon class="cls-125" points="351.52 307.51 299.06 337.8 296.98 337.8 351.52 306.31 351.52 307.51"/><polygon class="cls-125" points="351.52 308.7 301.13 337.8 299.06 337.8 351.52 307.51 351.52 308.7"/><polygon class="cls-125" points="351.52 309.9 303.21 337.8 301.13 337.8 351.52 308.7 351.52 309.9"/><polygon class="cls-125" points="351.52 311.1 305.28 337.8 303.21 337.8 351.52 309.9 351.52 311.1"/><polygon class="cls-125" points="351.52 312.3 307.36 337.8 305.28 337.8 351.52 311.1 351.52 312.3"/><polygon class="cls-125" points="307.36 337.8 351.52 312.3 351.52 337.8 307.36 337.8"/></g><path class="cls-126" d="M259.58,365.19c-.2.38,30.75,14.85,65.75,4.53,34.23-10.1,51.23-37.68,50.86-37.87S358.26,358.1,325,367.94C290.84,378,259.79,364.82,259.58,365.19Z"/><g class="cls-127"><path class="cls-128" d="M204,248.47l-.23-.8a249.22,249.22,0,0,1,59.39-9.31A309.15,309.15,0,0,1,349.47,247l-.2.8a308.43,308.43,0,0,0-86.11-8.59A248.72,248.72,0,0,0,204,248.47Z"/></g><g class="cls-129"><path class="cls-128" d="M250.43,209.81c-4.12-7.59-14.38-18.62-27-16.17-15.46,3-18.74,23.37-18.87,24.26-1.42,9.76,1.54,22.94,9.44,26.28,2.86,1.21,4.06.15,16.84-2,15.28-2.6,17-1.67,19.54-4C256.82,232.24,255.23,218.64,250.43,209.81Z"/></g><g class="cls-129"><path class="cls-130" d="M301.54,210.3c4-7.68,14-18.91,26.63-16.71,15.51,2.71,19.2,23,19.35,23.88,1.62,9.73-1.08,23-8.91,26.46-2.84,1.27-4.06.24-16.88-1.68-15.33-2.3-17-1.33-19.62-3.66C295.6,232.85,296.93,219.22,301.54,210.3Z"/></g><ellipse class="cls-131" cx="311.26" cy="214.9" rx="6.74" ry="6.06"/><ellipse class="cls-131" cx="239.71" cy="214.9" rx="6.74" ry="6.06"/><circle class="cls-131" cx="212.19" cy="206.2" r="1.36"/><ellipse class="cls-131" cx="336.41" cy="206.07" rx="1.36" ry="1.22"/><path class="cls-132" d="M363.74,205.1c-3.27-3.65-15-15.87-34.2-18.17a53.6,53.6,0,0,0-25,3.06q1.1-9.36,2.2-18.72c6.39-.44,29.71-1.3,45.25,14.82A44.16,44.16,0,0,1,358.6,195Z"/><path class="cls-132" d="M187.22,205.1c3.27-3.65,15-15.87,34.2-18.17a53.64,53.64,0,0,1,25,3.06q-1.11-9.36-2.21-18.72c-6.38-.44-29.71-1.3-45.25,14.82a44.54,44.54,0,0,0-6.63,8.91Z"/><path class="cls-133" d="M265.34,8.12c-33.38-5.43-60.59,4.42-72.89,9a169,169,0,0,0-41.08,22.57c-23.55,17-37.47,34.77-51.51,53-14.73,19.08-23.94,34.86-36.39,56.19-11.27,19.29-19.85,35.78-25.69,47.47,43.14-9.86,61.05-13.92,61.06-13.88a.68.68,0,0,1-.15,0c-.06-.2,28.81-8.2,55-20.56,17.77-8.37,31-14.6,45.55-27.43,8.22-7.24,29.08-27.35,41.27-33.74,5.21-2.74,11.57-6,11.57-6,3.54-1.79,6.5-3.25,9.77-4.87,9.28-4.6,19.09-8.13,28.13-13.19,3.56-2,13.11-9.15,22-21.26,6.18-8.39,9.3-12.57,9.16-16.67C320.71,23.91,288.32,11.87,265.34,8.12Z"/><path class="cls-133" d="M267,153.32c-56.4-1.45-64.26,1.06-72.44-7.68-22.69-24.24,3.94-79.85,7.39-87,8.26-17.24,18-37.58,40.18-46.05,29.14-11.13,58.11,6.72,66.54,11.91,44.17,27.2,48.7,80.06,50.31,98.78,1.27,14.76-.73,19.48-2.71,22.45C346.89,159.76,324.23,154.79,267,153.32Z"/><circle class="cls-134" cx="30.45" cy="199.08" r="18.57"/><circle class="cls-134" cx="53.48" cy="208.37" r="18.57"/><circle class="cls-134" cx="41.59" cy="226.93" r="18.57"/><circle class="cls-134" cx="21.54" cy="220.99" r="18.57"/><path class="cls-135" d="M351,172.88a168.62,168.62,0,0,0-158.71,4.2c-1.83.09-7.69.15-11.29-3.68-4.89-5.21-4.23-16.11,4-24.5a168,168,0,0,1,44.35-17.24,182.71,182.71,0,0,1,40-4.34c38,0,70.44,11.36,90.79,20.5,8.59,9,8.46,20.06,3.63,24.12C359.42,175.54,352,173.21,351,172.88Z"/><path class="cls-136" d="M374.25,193.23c-1.16.12-9,.75-14.92-5.12A18.24,18.24,0,0,1,354.26,178a176.43,176.43,0,0,0,19.41-17.67c3.6-3.8,14.44-19.9,31.73-45.93a435,435,0,0,0,35.72-65.23c2.51-5,6-8.9,8.85-8.47,3.51.53,6.61,7.75,5.74,18.2Q415,126.1,374.25,193.23Z"/><path class="cls-136" d="M436,76.81c0-.85,0-1.72,0-2.6-.44-11-6.36-19.77-11.46-25.44-3.38-4.68-3.17-6.28-2.69-6.91,1.47-1.93,8.48,1,12.45,2.92a54.75,54.75,0,0,0,11.47,28Z"/><path class="cls-136" d="M432.85,100.63l-3.18-7.78A90.18,90.18,0,0,0,452.58,86a91,91,0,0,0,12.14-6.64C469.55,75,474,72.91,475.22,74s-.41,5.75-4.18,11Z"/><path class="cls-136" d="M405.19,139.34l-13.63,2A69.19,69.19,0,0,0,389,106.27L396.8,99Z"/><path class="cls-136" d="M398.39,116.66l-5.75-3a32.11,32.11,0,0,0,10.65-15.86A29.64,29.64,0,0,0,404.38,91c-.3-2.47-.18-3.8.35-4q1.23-.46,5.4,7Z"/><path class="cls-136" d="M386,162.27l-.38-16.45a200.49,200.49,0,0,0,30.23,1.48,200.8,200.8,0,0,0,28.59-2.83c4.45-.77,8.91-.8,9.31.44.47,1.47-5,4.53-9.8,7l-26.49,4.73Z"/><path class="cls-136" d="M418.7,148.6l5.9,2.64A32.19,32.19,0,0,1,430.35,133a29.94,29.94,0,0,1,4.69-5.14q3.18-1.95,2.92-2.77-.42-1.24-8.82.13Z"/><path class="cls-136" d="M424.31,144.72l-1.08-4.49c.81,0,12.09.42,13.72-5.9a6.41,6.41,0,0,0,.19-2c.76-1,1.36-1.37,1.79-1.24q1.4.44.47,8.4Z"/><path class="cls-136" d="M457.66,90.15l-5.76-2.94a18.33,18.33,0,0,0,8.85-17.35c-.54-2-.56-3.1-.07-3.21q1.13-.25,5.83,6.15Z"/><path class="cls-136" d="M444.7,94.76l3.83-5.21a19.25,19.25,0,0,0,10.35,10.31,18.67,18.67,0,0,0,5.35,1.22q3.13-.3,3.18.45.07,1.14-7,4.77Z"/><path class="cls-136" d="M435.43,53.56,434.64,60a24.15,24.15,0,0,0-19.33-2.38c-1.83-2-6.23-7-5-8.71.33-.48,1.34-1.09,5.06-.1a25.36,25.36,0,0,0,20.07,4.77Z"/><path class="cls-136" d="M371.38,180.45l-9.41-.82c.91-8.47,1.21-15.6,1.27-21,.09-7.78.14-11.67-.4-14.58-.8-4.32-2.08-7.71-.9-8.49s3.47,1.06,5.32,2.62c-.46-2.27.43-4,1.53-4.31a2.34,2.34,0,0,1,1.8.58,85.76,85.76,0,0,0-2.49,14.49A86.75,86.75,0,0,0,371.38,180.45Z"/><path class="cls-136" d="M366.6,155.15,365,152.44c.6-.31,9-4.66,9-9.77a4.59,4.59,0,0,0-.23-1.47c.39-1,.75-1.52,1.09-1.61q1.11-.27,1.9,5.72Z"/><path class="cls-136" d="M375.79,183.64l-.56-3.76c2.36.08,4.86.11,7.48.1,3,0,5.89-.09,8.62-.21q3.5,2.64,2.67,3.24c-.41.29-1.57.22-3.51-.21q-2.7.31-5.64.52C381.64,183.55,378.61,183.64,375.79,183.64Z"/><path class="cls-136" d="M386.23,181.09l2.14.62c-.06-.33-.88-4.88,2-5.28a3.49,3.49,0,0,1,.91,0c.4-.27.55-.49.47-.67-.19-.39-1.49-.56-3.92-.53Z"/><path class="cls-136" d="M176.51,199c1.16,0,9,0,14.46-6.31a18.38,18.38,0,0,0,4.24-10.45,177.34,177.34,0,0,1-20.78-16c-3.9-3.5-16-18.68-35.34-43.22A435.15,435.15,0,0,1,98.22,60.82c-2.9-4.72-6.69-8.38-9.5-7.72-3.46.81-6,8.26-4.26,18.61Q130.48,135.34,176.51,199Z"/><path class="cls-136" d="M105.52,87.92c-.1-.84-.18-1.7-.21-2.59-.46-11,4.74-20.22,9.37-26.28,3-4.94,2.64-6.51,2.11-7.11-1.61-1.8-8.36,1.74-12.17,3.92a54.79,54.79,0,0,1-9.16,28.87Z"/><path class="cls-136" d="M110.62,111.41l2.54-8a90.46,90.46,0,0,1-23.39-5A90.16,90.16,0,0,1,77.13,92.8c-5.16-3.93-9.77-5.7-10.9-4.51s.88,5.69,5.06,10.64Z"/><path class="cls-136" d="M141.32,147.76l13.75.92a69.17,69.17,0,0,1-.27-35.19l-8.38-6.67Z"/><path class="cls-136" d="M146.27,124.6l5.48-3.42a32.1,32.1,0,0,1-11.89-15,29.52,29.52,0,0,1-1.65-6.76c.11-2.49-.12-3.81-.67-4q-1.26-.36-4.82,7.38Z"/><path class="cls-136" d="M162.29,169.07l-.95-16.43a200.71,200.71,0,0,1-30,3.91A200,200,0,0,1,102.6,156c-4.49-.41-8.95-.07-9.24,1.2-.35,1.5,5.31,4.11,10.33,6.14L130.48,166Q146.38,167.51,162.29,169.07Z"/><path class="cls-136" d="M128.6,158.07l-5.67,3.11a32.16,32.16,0,0,0-7.2-17.69,29.59,29.59,0,0,0-5.1-4.74c-2.21-1.13-3.26-2-3.12-2.53.2-.85,3.14-1,8.8-.58Q122.45,146.86,128.6,158.07Z"/><path class="cls-136" d="M122.69,154.67l.72-4.57c-.8.11-12,1.4-14.16-4.77a6.55,6.55,0,0,1-.34-2q-1.26-1.34-1.89-1.08-1.35.54.22,8.4Z"/><path class="cls-136" d="M85.05,103l5.5-3.4a19.24,19.24,0,0,1-9.44-11.15A18.89,18.89,0,0,1,80.32,83c.38-2.07.31-3.14-.18-3.21q-1.14-.17-5.32,6.6Z"/><path class="cls-136" d="M98.33,106.52l-4.23-4.89A18.38,18.38,0,0,1,79.38,114.4c-2.1,0-3.14.19-3.13.7q0,1.16,7.37,4.18Z"/><path class="cls-136" d="M104.25,64.7l1.3,6.34a24.16,24.16,0,0,1,19.08-3.94c1.66-2.11,5.64-7.44,4.29-9.09-.37-.45-1.43-1-5.06.32a25.34,25.34,0,0,1-19.61,6.37Z"/><path class="cls-136" d="M178.34,186l9.31-1.58c-1.6-8.37-2.47-15.46-3-20.88-.72-7.75-1.08-11.62-.77-14.57.45-4.36,1.44-7.85.2-8.54s-3.37,1.34-5.08,3.05c.27-2.3-.76-4-1.88-4.17a2.29,2.29,0,0,0-1.74.72,85.59,85.59,0,0,1,3.64,14.24A86.6,86.6,0,0,1,178.34,186Z"/><path class="cls-136" d="M181.05,160.4l1.41-2.84c-.62-.25-9.33-3.91-9.78-9a4.51,4.51,0,0,1,.12-1.48c-.47-.95-.88-1.46-1.23-1.51-.74-.12-1.22,1.83-1.42,5.85Z"/><path class="cls-136" d="M174.2,189.54l.26-3.79c-2.35.26-4.84.5-7.45.7q-4.51.35-8.61.49-3.27,2.91-2.4,3.44c.43.26,1.58.1,3.48-.49,1.81.06,3.7.09,5.66.07C168.36,189.92,171.39,189.77,174.2,189.54Z"/><path class="cls-136" d="M163.59,187.84l-2.09.79c0-.33.48-4.94-2.37-5.1a3.86,3.86,0,0,0-.91.08c-.42-.23-.59-.44-.52-.63.15-.4,1.44-.68,3.86-.85C162.24,184,162.91,185.94,163.59,187.84Z"/><path class="cls-125" d="M203,419.58q-5.52,38.15-11,76.29c4.75-7.47,12.26-11.35,19.39-10,9.54,1.85,13.42,12.15,13.79,13.18q6.15-37.08,12.31-74.16Z"/><path class="cls-61" d="M408.06,400.87C409.33,423,337.6,453,271.27,453.56c-58,.54-126.56-21.2-128.19-47-.59-9.37,8-16.49,8.45-16.86,22.83-18.42,59.4,27.65,117.81,29.36C332.83,421,374,369,400.62,389.73,402.81,391.44,407.74,395.27,408.06,400.87Z"/><path class="cls-61" d="M193.33,395.54,148.1,476.88c7.93-6.73,16.81-8.51,23-4.56,8.21,5.29,7.2,18.08,7.08,19.36l47.11-82.07Z"/><g class="cls-137"><path class="cls-126" d="M165.86,226.16a18.89,18.89,0,0,1-12.61-6,16.72,16.72,0,0,1-4.48-12.63l.83.06a15.89,15.89,0,0,0,4.26,12,18.09,18.09,0,0,0,12.06,5.73Z"/></g><g class="cls-137"><path class="cls-126" d="M384.72,223.45l-.06-.83a18.12,18.12,0,0,0,12.06-5.74,15.88,15.88,0,0,0,4.26-12l.83-.06a16.72,16.72,0,0,1-4.48,12.62A19,19,0,0,1,384.72,223.45Z"/></g></svg>