<svg id="Layer_1" data-name="Layer 1" xmlns="http://www.w3.org/2000/svg" viewBox="0 0 150 150"><defs><style>.cls-1{fill:#00543b;}.cls-2{fill:#aa202b;}.cls-3{opacity:0.49;}.cls-4{fill:#2b0f09;}.cls-5{fill:#fff;}</style></defs><circle class="cls-1" cx="75" cy="75" r="71.72"/><circle class="cls-2" cx="75" cy="75.74" r="62.71"/><g class="cls-3"><path class="cls-4" d="M78.64,131.89H73.55a4.34,4.34,0,0,1-4.32-3.7L67.4,116.42a41.74,41.74,0,0,1-14.46-6l-9.62,7a4.34,4.34,0,0,1-5.67-.44l-3.6-3.6a4.34,4.34,0,0,1-.44-5.67l7-9.62a42,42,0,0,1-6-14.45L22.88,81.85a4.36,4.36,0,0,1-3.7-4.32v-5.1a4.36,4.36,0,0,1,3.7-4.32l11.77-1.83a42,42,0,0,1,6-14.45l-7-9.62a4.34,4.34,0,0,1,.44-5.67l3.6-3.6a4.34,4.34,0,0,1,5.67-.44l9.62,7a41.74,41.74,0,0,1,14.46-6l1.83-11.77a4.34,4.34,0,0,1,4.32-3.7h5.09A4.34,4.34,0,0,1,83,21.77l1.83,11.77a41.74,41.74,0,0,1,14.46,6l9.61-7a4.36,4.36,0,0,1,5.68.44l3.6,3.6a4.35,4.35,0,0,1,.43,5.67l-7,9.62a42,42,0,0,1,6,14.45l11.76,1.83A4.36,4.36,0,0,1,133,72.43v5.1a4.36,4.36,0,0,1-3.71,4.32l-11.76,1.83a42,42,0,0,1-6,14.45l7,9.62a4.35,4.35,0,0,1-.43,5.67l-3.6,3.6a4.36,4.36,0,0,1-5.68.44l-9.61-7a41.74,41.74,0,0,1-14.46,6L83,128.19A4.34,4.34,0,0,1,78.64,131.89ZM52.91,109.18l.3.2A41,41,0,0,0,68,115.49l.35.07L70.24,128a3.34,3.34,0,0,0,3.31,2.83h5.09a3.32,3.32,0,0,0,3.3-2.83l1.94-12.47.36-.07A40.86,40.86,0,0,0,99,109.38l.3-.2,10.2,7.45a3.32,3.32,0,0,0,4.34-.34l3.6-3.59a3.33,3.33,0,0,0,.33-4.34l-7.45-10.2.2-.3a40.91,40.91,0,0,0,6.11-14.74l.07-.35,12.48-1.94a3.33,3.33,0,0,0,2.83-3.3v-5.1a3.33,3.33,0,0,0-2.83-3.3l-12.48-1.94-.07-.35a40.91,40.91,0,0,0-6.11-14.74l-.2-.3,7.45-10.2a3.33,3.33,0,0,0-.33-4.34l-3.6-3.59a3.32,3.32,0,0,0-4.34-.34l-10.2,7.45-.3-.2a40.86,40.86,0,0,0-14.73-6.11l-.36-.07L81.94,21.93a3.32,3.32,0,0,0-3.3-2.83H73.55a3.34,3.34,0,0,0-3.31,2.83L68.3,34.4l-.35.07a41,41,0,0,0-14.74,6.11l-.3.2-10.2-7.45a3.31,3.31,0,0,0-4.33.34l-3.6,3.59a3.32,3.32,0,0,0-.34,4.34l7.45,10.2-.2.3a40.89,40.89,0,0,0-6.1,14.74l-.07.35L23,69.13a3.33,3.33,0,0,0-2.83,3.3v5.1A3.33,3.33,0,0,0,23,80.83l12.48,1.94.07.35a40.89,40.89,0,0,0,6.1,14.74l.2.3-7.45,10.2a3.32,3.32,0,0,0,.34,4.34l3.6,3.59a3.31,3.31,0,0,0,4.33.34Z"/><path class="cls-4" d="M76.09,102.48A27.5,27.5,0,1,1,103.59,75,27.53,27.53,0,0,1,76.09,102.48Zm0-54A26.47,26.47,0,1,0,102.56,75,26.5,26.5,0,0,0,76.09,48.51Z"/><path class="cls-4" d="M67.46,40.5a.86.86,0,0,0,0-1.72.86.86,0,0,0,0,1.72Z"/><path class="cls-4" d="M67.57,38.78a4.32,4.32,0,0,0-1.68.21,16.41,16.41,0,0,0-1.6.73c-1,.5-2,1-2.85,1.54S58.56,43,59.68,44.15a.87.87,0,0,0,.84.22,26.18,26.18,0,0,0,2.93-1.27c1-.47,2-.93,3-1.41s1.95-1,2.94-1.41c.48-.21,1-.43,1.45-.62l.69-.26a4.73,4.73,0,0,1,.53-.23.89.89,0,0,0,.86-.86.86.86,0,0,0-.86-.85,6.05,6.05,0,0,0-1.37.43c-.56.2-1.1.44-1.64.68C68,39,67,39.5,66,40l-3,1.43a26.61,26.61,0,0,1-2.95,1.29l.83.22a1.49,1.49,0,0,1,.14.79s.09-.07,0,0,.12-.11.17-.16a5.9,5.9,0,0,1,.47-.37c.34-.24.69-.48,1-.69.78-.45,1.62-.84,2.42-1.27a13.08,13.08,0,0,1,1.2-.56,2.79,2.79,0,0,1,1.22-.14.86.86,0,0,0,0-1.72Z"/><path class="cls-4" d="M132.32,72.42a2.58,2.58,0,0,0-.72-1.7,6.14,6.14,0,0,0-4.36-2.51,22.7,22.7,0,0,0-4.35-.38,5.29,5.29,0,0,1-2.4-.29l0,0a4.88,4.88,0,0,0-1.45-.66,2.36,2.36,0,0,0-1.34,0,7.23,7.23,0,0,0-.66-1.55l0,0-.56-1.38a1.89,1.89,0,0,0-.72-.84,30.08,30.08,0,0,0-2.34-6.41,1.54,1.54,0,0,0-.54-.61,23.52,23.52,0,0,0-2.22-4.21,20.25,20.25,0,0,0,3.07-4.26,29.4,29.4,0,0,1,3.83-4.85,2.47,2.47,0,0,0,.66-1.94,3,3,0,0,0-.51-3.67,2.25,2.25,0,0,0-.78-.53L116.6,36a2,2,0,0,0-1.07-1,3.76,3.76,0,0,0-.42-1,4.1,4.1,0,0,0-5-1.45c-1.73.65-3.1,2.23-4.57,3.31-2.13,1.54-4.51,2.82-6.48,4.53a2.23,2.23,0,0,0-1-.51,3,3,0,0,0-.65-.63c-1.89-1.31-4.36-2.06-6.43-3.07A20.6,20.6,0,0,0,84.26,34a10.57,10.57,0,0,0-.36-2.17c-.37-1.58-.69-3.17-1-4.77-.41-2.41-.11-6-2.35-7.54-2-1.44-6.24-1.19-8.45-.26-3.09,1.29-3,5-3.34,7.8A56.93,56.93,0,0,0,68,34a24.75,24.75,0,0,0-4.56,1.22A15.09,15.09,0,0,0,60,36.81a32.92,32.92,0,0,0-6.63,3.46,2.64,2.64,0,0,0-.67-.23,9.4,9.4,0,0,1-3.09-1.77l-.11-.07a2.42,2.42,0,0,0-1-1.28,7.52,7.52,0,0,0-1.6-.75,1.74,1.74,0,0,0-.3-.31,6.14,6.14,0,0,0-.53-.4h0c-1.4-1.06-3-2.72-4.75-3s-3,.93-4.2,2.13c-1.35,1.35-3,2.18-3.55,4.19a4.25,4.25,0,0,0,1.59,4.44,4.54,4.54,0,0,0,1,.58,2.64,2.64,0,0,0,1.17,2.64,2.27,2.27,0,0,0,1.45,1.38,2.4,2.4,0,0,0,1.59,2,2.69,2.69,0,0,0,.7,1.94,12.54,12.54,0,0,0-3,7.13,2.41,2.41,0,0,0-1.32,2.23A8.39,8.39,0,0,1,36,64.17c-.23.78-.16,1.76-.43,2.52a2.75,2.75,0,0,0-1.42.66,35.35,35.35,0,0,0-8.25,1.13c-2.24-.07-4.31.18-5.43,2.39a7.55,7.55,0,0,0-.82,3.07A15.38,15.38,0,0,0,20,76.58,4.15,4.15,0,0,0,22,80.72a12.21,12.21,0,0,0,4.13,1.1,3.25,3.25,0,0,0,1.55-.1c2.15.46,4.37.52,6.48,1.18a3.2,3.2,0,0,0,.71.12,2.42,2.42,0,0,0,.7,1.66,10.94,10.94,0,0,0,1.27,4.19c.64,1.47,1,3.07,1.69,4.54a28.55,28.55,0,0,0,2.76,4.72l.07.08a4,4,0,0,0-.42.49l-4,5.41c-1.2,1.64-3.35,3.68-3.57,5.77a3.43,3.43,0,0,0,.94,2.81,4.54,4.54,0,0,0,.73.58c.06.16.12.32.19.48a4,4,0,0,0,2.26,2.13,2.78,2.78,0,0,0,2.38,1.6c2.24.25,4.3-1.51,6.1-2.62a11.12,11.12,0,0,0,3.23-1.81,10.81,10.81,0,0,0,3-3.19l.08-.15c.54.31,1.12.58,1.74.88a21.56,21.56,0,0,0,3.59,1.75,2.55,2.55,0,0,0,.85.5l5.6,2.11a8.8,8.8,0,0,0,4,.76,33,33,0,0,0,1.08,6.39,2.63,2.63,0,0,0,0,.57,17.93,17.93,0,0,0,.26,3.1,18.46,18.46,0,0,0,.64,1.8l.08.92,0,.27a2.23,2.23,0,0,0,.58,1.34,2.28,2.28,0,0,0,2,1h.1l.41,0a6.24,6.24,0,0,0,2.12.14A3.24,3.24,0,0,0,76,131a2.78,2.78,0,0,0,1.87.82A2.39,2.39,0,0,0,80,130.73a2.39,2.39,0,0,0,1.53-1.28s.07-.1.1-.16a8.21,8.21,0,0,0,1-4.66,16.32,16.32,0,0,0,.42-3,2.68,2.68,0,0,0,.54-1.92,3.76,3.76,0,0,0-.17-.77,8.55,8.55,0,0,0,1.32-3.38,1.6,1.6,0,0,0,.44,0c2.91-.12,5.66-.74,7.45-2.65l.59-.17a3,3,0,0,0,.81-.37,5.51,5.51,0,0,0,1.77-.72,2.69,2.69,0,0,0,.77-.77l1.64-.47a2.64,2.64,0,0,0,1.12-.62,2.74,2.74,0,0,0,.55.52c2.27,1.63,4.53,3.64,7.1,4.76a19.77,19.77,0,0,0,2.34,1.87,4.23,4.23,0,0,0,4.15,0,2,2,0,0,0,1.19-1.37c.29-.18.69-.38.92-.53a5.54,5.54,0,0,0,1.89-2,3.12,3.12,0,0,0,.23-.59,2.58,2.58,0,0,0,.81-3.45c-1.93-2.61-4.18-5.17-5.51-8.15a2.12,2.12,0,0,0-1.39-1.14c-.23-.56-.43-1.13-.55-1.4a2,2,0,0,0-.24-.38,6.46,6.46,0,0,1,1-1.24,2.24,2.24,0,0,0,.72-2.38,11.79,11.79,0,0,0,2.23-3.43A2.46,2.46,0,0,0,115,90c.21-.27.41-.54.59-.8a2.15,2.15,0,0,0,.21-2.31,6,6,0,0,0,.28-.63c.26-.63.19-1.56.49-2.12a3.58,3.58,0,0,1,.58-.78,11.64,11.64,0,0,0,4.17-.66,41.85,41.85,0,0,1,4.86-.85c1.38-.16,2.9-.11,4.12-.89C132.89,79.31,132.48,75.08,132.32,72.42Zm-29.47,5.46c-.39,3.11-.77,6.41-2.22,9.23-.95,1.84-2.91,3.37-3.58,5.34a2.64,2.64,0,0,0-.78.81,13.91,13.91,0,0,1-.88,1.21,11.36,11.36,0,0,0-3.93,3.2,2.45,2.45,0,0,0-1.4.4,28,28,0,0,1-3.66,2c-1.26.55-2.68.8-3.9,1.42l-.07,0a2.93,2.93,0,0,0-1.64.26,7.29,7.29,0,0,1-1.26.45,2.78,2.78,0,0,0-.83-.06,28,28,0,0,1-12.22-1.71,2.18,2.18,0,0,0-.78-.14,1.89,1.89,0,0,0-.64-.48A27.59,27.59,0,0,1,57.4,95a3.22,3.22,0,0,0-.45-.33,2.45,2.45,0,0,0-1.18-1.33,2.84,2.84,0,0,0-.6-1.14,30.53,30.53,0,0,1-2.64-3.55A2.61,2.61,0,0,0,52,88v0a2,2,0,0,0-.35-.88l-.26-.36a.88.88,0,0,0-.05-.15c-.44-1.07-.58-2.18-1-3.25-.31-.8-.65-1.59-1-2.38a3,3,0,0,0,0-.31c0-1.88-.43-3.71-.36-5.59a10,10,0,0,0,0-3.54c.1-.43.21-.85.33-1.27A2.61,2.61,0,0,0,49.35,69c.13-.37.27-.73.43-1.09a3.21,3.21,0,0,0,.3-1.33c1-2.08,2-4.15,3-6.23a.84.84,0,0,0,.37-.33,28.65,28.65,0,0,1,2.26-3.4,1.13,1.13,0,0,0,.25-.12,53,53,0,0,0,6.33-5.06.62.62,0,0,0,.14-.19,24.22,24.22,0,0,0,5-1.5l5.41-1.86.33-.14a2.47,2.47,0,0,0,1,.15,31.42,31.42,0,0,1,5,.07,13.42,13.42,0,0,1,3.73.67c1.32.55,2.72.79,4,1.36a30.63,30.63,0,0,1,4.09,2.24l.26.15a3.06,3.06,0,0,0,1,.68l0,0a2.73,2.73,0,0,0,1.41,1,10.49,10.49,0,0,1,.77.86,1.86,1.86,0,0,0,.65.5,2.12,2.12,0,0,0,.49.5A2.29,2.29,0,0,0,96.83,57c.32.43.65.86,1,1.3a3.69,3.69,0,0,0,.53.58,2.38,2.38,0,0,0,1,1.3c.47.86.91,1.73,1.3,2.62a1.72,1.72,0,0,0,.31.48c.23.62.44,1.25.65,1.89a2.75,2.75,0,0,0,.57,1,68.47,68.47,0,0,1,1.43,10.09A3,3,0,0,0,102.85,77.88Z"/></g><path class="cls-5" d="M75.93,131.71H70.84a4.36,4.36,0,0,1-4.33-3.7l-1.83-11.76a42.16,42.16,0,0,1-14.45-6l-9.62,7a4.34,4.34,0,0,1-5.67-.44l-3.6-3.6a4.34,4.34,0,0,1-.44-5.67l7-9.62a41.88,41.88,0,0,1-6-14.45L20.17,81.67a4.35,4.35,0,0,1-3.7-4.32V72.26a4.37,4.37,0,0,1,3.7-4.33L31.94,66.1a42,42,0,0,1,6-14.45L30.9,42a4.34,4.34,0,0,1,.44-5.67l3.6-3.6a4.34,4.34,0,0,1,5.67-.44l9.62,7a42,42,0,0,1,14.45-6l1.83-11.77a4.37,4.37,0,0,1,4.33-3.7h5.09a4.35,4.35,0,0,1,4.32,3.7l1.83,11.77a41.8,41.8,0,0,1,14.45,6l9.62-7a4.34,4.34,0,0,1,5.67.44l3.6,3.6a4.34,4.34,0,0,1,.44,5.67l-7,9.62a42.16,42.16,0,0,1,6,14.45l11.76,1.83a4.36,4.36,0,0,1,3.7,4.33v5.09a4.34,4.34,0,0,1-3.7,4.32L114.83,83.5a42,42,0,0,1-6,14.45l7,9.62a4.34,4.34,0,0,1-.44,5.67l-3.6,3.6a4.34,4.34,0,0,1-5.67.44l-9.62-7a42,42,0,0,1-14.45,6L80.25,128A4.34,4.34,0,0,1,75.93,131.71ZM50.2,109l.3.2a41,41,0,0,0,14.74,6.11l.35.07,1.94,12.47a3.34,3.34,0,0,0,3.31,2.83h5.09a3.32,3.32,0,0,0,3.3-2.83l1.94-12.47.35-.07a40.84,40.84,0,0,0,14.74-6.11l.3-.2,10.2,7.45a3.33,3.33,0,0,0,4.34-.33l3.6-3.6a3.33,3.33,0,0,0,.33-4.34L107.58,98l.2-.3a40.84,40.84,0,0,0,6.11-14.74l.07-.35,12.47-1.94a3.32,3.32,0,0,0,2.83-3.3V72.26A3.34,3.34,0,0,0,126.43,69L114,67l-.07-.35a41,41,0,0,0-6.11-14.74l-.2-.3L115,41.42a3.32,3.32,0,0,0-.33-4.33l-3.6-3.6a3.32,3.32,0,0,0-4.34-.34L96.56,40.6l-.3-.2a41,41,0,0,0-14.74-6.11l-.35-.07L79.23,21.75a3.32,3.32,0,0,0-3.3-2.83H70.84a3.34,3.34,0,0,0-3.31,2.83L65.59,34.22l-.35.07A41.16,41.16,0,0,0,50.5,40.4l-.3.2L40,33.15a3.31,3.31,0,0,0-4.33.34l-3.6,3.6a3.31,3.31,0,0,0-.34,4.33l7.45,10.2-.2.3a41.16,41.16,0,0,0-6.11,14.74L32.8,67,20.33,69a3.34,3.34,0,0,0-2.83,3.31v5.09a3.32,3.32,0,0,0,2.83,3.3L32.8,82.59l.07.35A41,41,0,0,0,39,97.68l.2.3-7.45,10.2a3.32,3.32,0,0,0,.34,4.34l3.6,3.6a3.32,3.32,0,0,0,4.33.33Z"/><path class="cls-5" d="M73.38,102.3a27.5,27.5,0,1,1,27.5-27.5A27.53,27.53,0,0,1,73.38,102.3Zm0-54A26.47,26.47,0,1,0,99.85,74.8,26.49,26.49,0,0,0,73.38,48.34Z"/><path class="cls-5" d="M64.75,40.32a.86.86,0,0,0,0-1.72.86.86,0,0,0,0,1.72Z"/><path class="cls-5" d="M64.85,38.6a4.29,4.29,0,0,0-1.67.21,15.39,15.39,0,0,0-1.6.73c-.95.5-2,1-2.85,1.54S55.85,42.82,57,44a.85.85,0,0,0,.83.22,23.91,23.91,0,0,0,2.94-1.27c1-.47,2-.93,3-1.41s2-1,2.95-1.41c.48-.21,1-.43,1.45-.62l.69-.26a4,4,0,0,1,.53-.23.89.89,0,0,0,.86-.85.86.86,0,0,0-.86-.86,6.05,6.05,0,0,0-1.37.43c-.56.2-1.1.44-1.64.68-1,.45-2,.93-3,1.42s-2,1-3,1.43a27.45,27.45,0,0,1-2.95,1.29l.83.23a1.44,1.44,0,0,1,.14.78s.09-.07,0,0,.12-.12.17-.16A3.32,3.32,0,0,1,59,43c.34-.24.69-.48,1.05-.69.78-.46,1.62-.85,2.42-1.28a13.08,13.08,0,0,1,1.2-.56,2.92,2.92,0,0,1,1.21-.14.86.86,0,0,0,0-1.72Z"/><path class="cls-5" d="M129.61,72.24a2.63,2.63,0,0,0-.72-1.7A6.18,6.18,0,0,0,124.53,68a22.8,22.8,0,0,0-4.36-.38,5.27,5.27,0,0,1-2.39-.29l0,0a4.88,4.88,0,0,0-1.45-.66,2.36,2.36,0,0,0-1.34,0,6.94,6.94,0,0,0-.66-1.54l0,0-.56-1.38a1.89,1.89,0,0,0-.72-.84,30,30,0,0,0-2.34-6.4,1.5,1.5,0,0,0-.54-.62,24.55,24.55,0,0,0-2.22-4.21A20.45,20.45,0,0,0,111,47.36a29,29,0,0,1,3.83-4.86,2.47,2.47,0,0,0,.66-1.94,3,3,0,0,0-.51-3.66,2.14,2.14,0,0,0-.78-.54l-.26-.59a2.09,2.09,0,0,0-1.07-1,3.7,3.7,0,0,0-.42-1,4.09,4.09,0,0,0-5-1.46c-1.73.65-3.1,2.23-4.57,3.31-2.13,1.55-4.51,2.82-6.48,4.53a2.12,2.12,0,0,0-1-.5A3,3,0,0,0,94.7,39C92.81,37.71,90.34,37,88.27,36a20.6,20.6,0,0,0-6.72-2.17,10.57,10.57,0,0,0-.36-2.17c-.37-1.58-.69-3.17-1-4.77-.41-2.41-.11-6-2.35-7.54-2-1.44-6.24-1.19-8.45-.26-3.1,1.3-3,5-3.34,7.8a56.93,56.93,0,0,0-.75,7,24.31,24.31,0,0,0-4.57,1.23,15,15,0,0,0-3.52,1.56,32.92,32.92,0,0,0-6.63,3.46,2.64,2.64,0,0,0-.67-.23,9.3,9.3,0,0,1-3.09-1.77L46.74,38a2.42,2.42,0,0,0-1-1.28,7.52,7.52,0,0,0-1.6-.75,2.91,2.91,0,0,0-.3-.31,6.14,6.14,0,0,0-.53-.4h0c-1.41-1.06-3-2.71-4.75-3s-3,.93-4.21,2.14-3,2.17-3.54,4.18A4.24,4.24,0,0,0,32.38,43a4,4,0,0,0,1,.58,2.64,2.64,0,0,0,1.17,2.64A2.3,2.3,0,0,0,36,47.65a2.4,2.4,0,0,0,1.59,2,2.69,2.69,0,0,0,.7,1.94,12.54,12.54,0,0,0-3,7.13A2.41,2.41,0,0,0,34,60.93,8.39,8.39,0,0,1,33.29,64c-.23.78-.16,1.76-.43,2.52a2.83,2.83,0,0,0-1.42.66,35.27,35.27,0,0,0-8.25,1.13c-2.24-.07-4.31.19-5.43,2.4a7.47,7.47,0,0,0-.82,3.07,15.39,15.39,0,0,0,.34,2.63,4.15,4.15,0,0,0,2,4.14,12,12,0,0,0,4.13,1.1,3.14,3.14,0,0,0,1.55-.1c2.15.46,4.37.53,6.48,1.18a3.2,3.2,0,0,0,.71.12,2.4,2.4,0,0,0,.7,1.66,10.84,10.84,0,0,0,1.27,4.19c.64,1.48,1,3.07,1.69,4.54A28.55,28.55,0,0,0,38.62,98l.07.09a2.78,2.78,0,0,0-.42.48c-1.32,1.8-2.64,3.61-4,5.41-1.19,1.64-3.34,3.68-3.56,5.77a3.45,3.45,0,0,0,.94,2.82,5.1,5.1,0,0,0,.73.57c.06.16.12.33.19.49a4.08,4.08,0,0,0,2.25,2.12,2.81,2.81,0,0,0,2.39,1.6c2.24.25,4.3-1.51,6.1-2.62a11.46,11.46,0,0,0,3.23-1.8,10.84,10.84,0,0,0,3-3.2l.08-.15c.54.31,1.12.58,1.74.88A21.62,21.62,0,0,0,55,112.17a2.71,2.71,0,0,0,.85.49l5.6,2.11a8.78,8.78,0,0,0,4,.76,33.86,33.86,0,0,0,1.09,6.4,2.48,2.48,0,0,0,0,.56,16.92,16.92,0,0,0,.26,3.1,18.46,18.46,0,0,0,.64,1.8l.08.92a2.48,2.48,0,0,0,0,.27,2.29,2.29,0,0,0,.58,1.35,2.33,2.33,0,0,0,2,1h.1l.41,0a6.24,6.24,0,0,0,2.12.14,3.24,3.24,0,0,0,.62-.12,2.78,2.78,0,0,0,1.87.82,2.38,2.38,0,0,0,2.07-1.12,2.43,2.43,0,0,0,1.54-1.29c0-.05.07-.1.1-.16a8.21,8.21,0,0,0,1-4.66,16.32,16.32,0,0,0,.42-3,2.67,2.67,0,0,0,.54-1.92,3.32,3.32,0,0,0-.18-.77A8.44,8.44,0,0,0,82,115.4a3.15,3.15,0,0,0,.44,0c2.91-.12,5.66-.74,7.45-2.66l.59-.17a3,3,0,0,0,.81-.37,5.51,5.51,0,0,0,1.77-.72,2.65,2.65,0,0,0,.77-.76l1.64-.47a2.65,2.65,0,0,0,1.12-.63,2.74,2.74,0,0,0,.55.52c2.27,1.63,4.53,3.64,7.1,4.76a19.47,19.47,0,0,0,2.33,1.87,4.25,4.25,0,0,0,4.16,0,2,2,0,0,0,1.19-1.37c.29-.18.69-.38.92-.53a5.46,5.46,0,0,0,1.89-2,3.12,3.12,0,0,0,.23-.59,2.58,2.58,0,0,0,.81-3.45c-1.93-2.61-4.18-5.17-5.51-8.15a2.12,2.12,0,0,0-1.4-1.14c-.22-.56-.42-1.13-.54-1.4a2.45,2.45,0,0,0-.24-.38,6.11,6.11,0,0,1,1-1.23,2.25,2.25,0,0,0,.72-2.38,11.84,11.84,0,0,0,2.23-3.44,2.46,2.46,0,0,0,.18-.92c.21-.27.41-.54.59-.8a2.15,2.15,0,0,0,.21-2.31,6,6,0,0,0,.28-.63c.26-.63.19-1.56.49-2.12a3.49,3.49,0,0,1,.58-.78c1.39.22,2.85-.36,4.17-.66a44.32,44.32,0,0,1,4.85-.85c1.39-.16,2.91-.11,4.13-.89C130.17,79.13,129.77,74.9,129.61,72.24Zm-29.47,5.47c-.39,3.1-.78,6.4-2.22,9.22-1,1.85-2.91,3.37-3.58,5.34a2.64,2.64,0,0,0-.78.81,12.17,12.17,0,0,1-.89,1.21,11.42,11.42,0,0,0-3.92,3.2,2.53,2.53,0,0,0-1.4.4,28.6,28.6,0,0,1-3.66,2c-1.26.56-2.68.8-3.9,1.42l-.07,0a2.93,2.93,0,0,0-1.64.26,6.4,6.4,0,0,1-1.27.45A2.69,2.69,0,0,0,76,102a28,28,0,0,1-12.22-1.71,2.22,2.22,0,0,0-.78-.14,1.89,1.89,0,0,0-.64-.48,27.33,27.33,0,0,1-7.67-4.84,2.66,2.66,0,0,0-.44-.33,2.52,2.52,0,0,0-1.18-1.33,2.84,2.84,0,0,0-.6-1.14,30.53,30.53,0,0,1-2.64-3.55,2.8,2.8,0,0,0-.57-.65v0a2,2,0,0,0-.35-.87l-.26-.37a.88.88,0,0,0-.05-.15c-.45-1.07-.58-2.18-1-3.24-.31-.81-.65-1.6-1-2.39a3,3,0,0,0,0-.31c0-1.88-.43-3.71-.36-5.59a10.27,10.27,0,0,0,0-3.54c.1-.43.21-.85.33-1.27a2.61,2.61,0,0,0,.09-1.19c.13-.37.27-.73.43-1.09a3.21,3.21,0,0,0,.3-1.33c1-2.07,2-4.15,3-6.22a.79.79,0,0,0,.36-.34A30,30,0,0,1,53,56.46a1.13,1.13,0,0,0,.25-.12,53,53,0,0,0,6.33-5.06.59.59,0,0,0,.14-.18,24.86,24.86,0,0,0,5.05-1.51l5.41-1.86a2.33,2.33,0,0,0,.33-.14,2.63,2.63,0,0,0,1,.16,31.53,31.53,0,0,1,5,.06,13.42,13.42,0,0,1,3.73.67c1.32.55,2.72.79,4,1.37a30.56,30.56,0,0,1,4.09,2.23l.26.15a3.14,3.14,0,0,0,.94.68l0,0a2.73,2.73,0,0,0,1.41,1c.27.28.53.56.77.86a1.86,1.86,0,0,0,.65.5,2.12,2.12,0,0,0,.49.5,2.25,2.25,0,0,0,1.14,1.07c.32.43.65.86,1,1.3a3.69,3.69,0,0,0,.53.58,2.38,2.38,0,0,0,1,1.3c.47.86.91,1.73,1.3,2.62a1.52,1.52,0,0,0,.31.48c.23.63.44,1.25.65,1.89a2.75,2.75,0,0,0,.57,1,68.6,68.6,0,0,1,1.43,10.1A2.93,2.93,0,0,0,100.14,77.71Z"/></svg>