<svg id="Layer_1" data-name="Layer 1" xmlns="http://www.w3.org/2000/svg" viewBox="0 0 830 490"><defs><style>.cls-1{opacity:0.8;}.cls-2{fill:#b31f2b;}.cls-3{fill:#00582d;}.cls-4{fill:#fff;}.cls-5{fill:#551300;}</style></defs><g class="cls-1"><rect class="cls-2" x="15.25" y="16.43" width="799.5" height="457.14" rx="15.43"/><path class="cls-3" d="M799.32,485.07H30.69A27,27,0,0,1,3.75,458.14V31.86A27,27,0,0,1,30.69,4.93H799.32a27,27,0,0,1,26.93,26.93V458.14A27,27,0,0,1,799.32,485.07ZM30.69,27.93a4,4,0,0,0-3.94,3.93V458.14a4,4,0,0,0,3.94,3.93H799.32a4,4,0,0,0,3.93-3.93V31.86a4,4,0,0,0-3.93-3.93Z"/></g><path class="cls-4" d="M62.88,75.33a15.07,15.07,0,0,1-4.42-6.42,12.12,12.12,0,0,1-.4-8,11.67,11.67,0,0,1,4.62-6.45,10.74,10.74,0,0,1,8.61-1.74,10.4,10.4,0,0,1,7.17,5,3.73,3.73,0,0,1,.4,2.91A3.61,3.61,0,0,1,77.11,63a3.82,3.82,0,0,1-5.22-1.34,2.68,2.68,0,0,0-1-.91,5.08,5.08,0,0,0-1.26-.55,3.43,3.43,0,0,0-2.51.49,4,4,0,0,0-1.74,1.91,4.51,4.51,0,0,0,0,3.2A8.94,8.94,0,0,0,67,68.69a7,7,0,0,0,1.74,1.48c.24.17.57.37,1,.6l1,.54a31.21,31.21,0,0,1,3.76,2.57,11.43,11.43,0,0,1,4.4,8.22A10.56,10.56,0,0,1,76,90.26,10.67,10.67,0,0,1,66,93.39a12.22,12.22,0,0,1-4.67-2.19,9.84,9.84,0,0,1-3.29-3.94,4.71,4.71,0,0,1-.34-2.91A3.43,3.43,0,0,1,59.45,82a4,4,0,0,1,2.91-.4,3,3,0,0,1,2.32,1.77,4.22,4.22,0,0,0,1.88,2,3.05,3.05,0,0,0,2.71.34,2.83,2.83,0,0,0,1.85-2.25,3.43,3.43,0,0,0-.62-2.91,9.89,9.89,0,0,0-2.49-2c-.49-.31-1.05-.64-1.68-1A23.18,23.18,0,0,1,62.88,75.33Z"/><path class="cls-4" d="M100.8,86a3.58,3.58,0,0,1,2.65,1.15,3.53,3.53,0,0,1,1.12,2.68,3.61,3.61,0,0,1-1.14,2.68,3.73,3.73,0,0,1-2.69,1.11c-3.27,0-6-.05-8.24-.11q-5.76-.12-7.39-4.88a12.51,12.51,0,0,1-.4-4.62c0-.61.06-1.33.06-2.17l0-2.17,0-4.22q0-2.46-.06-4.23L84.6,69l-.09-2.23c0-1.69,0-3.16,0-4.42l0-1,.06-1.05a12.22,12.22,0,0,1,.25-2.11,6.14,6.14,0,0,1,1.91-3.6,9.36,9.36,0,0,1,6.48-2c1.05,0,2.3.05,3.77,0h3.79a3.86,3.86,0,0,1,3.77,3.85,3.6,3.6,0,0,1-1.14,2.66,3.73,3.73,0,0,1-2.69,1.11l-3.56,0q-2.12,0-3.54,0l-1.14,0-.29,0,0,.54c-.05,1.22-.08,2.42-.08,3.6l.06,2.65.08,2.62h5.25a3.62,3.62,0,0,1,2.68,1.17,3.66,3.66,0,0,1,1.12,2.69,3.89,3.89,0,0,1-3.86,3.79H92.36v2l0,1.83V83l0,.74-.06.72a10.36,10.36,0,0,0-.06,1.48h1.37q1.36-.06,3.6,0L99,86Z"/><path class="cls-4" d="M118.9,89.77q0-3.13-.2-7.25l-.17-3.62-.18-3.62Q117.87,66,118,60.75a31.31,31.31,0,0,1-4-.17,4.43,4.43,0,0,1-2.69-1.17,3.54,3.54,0,0,1-1.11-2.68,3.8,3.8,0,0,1,1.14-2.68A3.15,3.15,0,0,1,114.07,53,50.67,50.67,0,0,0,122,53l2-.14,2-.14q2.31-.15,3.93-.15a3.6,3.6,0,0,1,2.69,1.15,3.71,3.71,0,0,1,1.11,2.68,3.77,3.77,0,0,1-1.14,2.68,3.93,3.93,0,0,1-2.71,1.11c-1.13,0-2.5.06-4.14.17q-.15,5.4.31,14.75l.2,3.69.17,3.68c.12,2.77.18,5.23.2,7.36a3.61,3.61,0,0,1-1.14,2.68,3.81,3.81,0,0,1-2.71,1.11A3.61,3.61,0,0,1,120,92.48,3.8,3.8,0,0,1,118.9,89.77Z"/><path class="cls-4" d="M148,89.77c0-2.09-.08-4.51-.2-7.25l-.17-3.62-.17-3.62Q147,66,147.09,60.75a31.23,31.23,0,0,1-4-.17,4.43,4.43,0,0,1-2.69-1.17,3.54,3.54,0,0,1-1.11-2.68,3.8,3.8,0,0,1,1.14-2.68A3.14,3.14,0,0,1,143.15,53,50.67,50.67,0,0,0,151,53l2-.14,2-.14c1.55-.1,2.86-.15,3.94-.15a3.56,3.56,0,0,1,2.68,1.15,3.68,3.68,0,0,1,1.12,2.68,3.77,3.77,0,0,1-1.14,2.68,4,4,0,0,1-2.72,1.11c-1.12,0-2.5.06-4.13.17q-.15,5.4.31,14.75l.2,3.69.17,3.68c.12,2.77.18,5.23.2,7.36a3.61,3.61,0,0,1-1.14,2.68,3.81,3.81,0,0,1-2.71,1.11,3.6,3.6,0,0,1-2.68-1.14A3.81,3.81,0,0,1,148,89.77Z"/><path class="cls-4" d="M168.86,89.77c0-2,0-4.85-.2-8.56l-.2-4.28c-.05-1.6-.08-3-.08-4.28,0-3.46.05-6.29.14-8.47l.12-1.94.11-2c.11-1.64.18-2.93.2-3.88a3.92,3.92,0,0,1,1.14-2.68,3.73,3.73,0,0,1,2.71-1.12,3.66,3.66,0,0,1,2.68,1.14,3.54,3.54,0,0,1,1.09,2.72c0,.91-.09,2.2-.2,3.88l-.12,2-.11,1.94c-.1,2.61-.14,5.44-.14,8.48,0,1.25,0,2.68.08,4.28l.2,4.28q.25,5.53.2,8.56a3.61,3.61,0,0,1-1.14,2.68,3.82,3.82,0,0,1-6.48-2.74Z"/><path class="cls-4" d="M185.65,93.34A4,4,0,0,1,183,92.2a3.17,3.17,0,0,1-1.08-2.71,133.14,133.14,0,0,0,.6-16.7l-.12-4.16-.11-4.2c-.09-3.46-.15-6.24-.17-8.36a3.61,3.61,0,0,1,.48-1.79,3.69,3.69,0,0,1,1.4-1.46,4,4,0,0,1,.46-.2l.17-.08h0a3.77,3.77,0,0,1,1.31-.23,4,4,0,0,1,.89.11,3.07,3.07,0,0,1,2.36,1.77l.06.14a4.27,4.27,0,0,1,.26.57q2.91,6.8,8.44,18l.55,1.08.14-9c0-3.37.06-6.36.06-9a3.79,3.79,0,0,1,6.5-2.62,3.71,3.71,0,0,1,1.11,2.68q0,3.7-.05,8.36l-.12,8.33q-.16,11.13-.2,16.69a3.62,3.62,0,0,1-1.22,2.74,3.9,3.9,0,0,1-1,.86,4,4,0,0,1-2.91.4,3,3,0,0,1-2.31-1.74c-.94-2.23-2.12-4.8-3.54-7.73l-1.86-3.8-1.88-3.79-1.08-2.2a123.56,123.56,0,0,1-.63,15.29,4.75,4.75,0,0,1-1.17,2.68A3.53,3.53,0,0,1,185.65,93.34Z"/><path class="cls-4" d="M219.8,92.82A11.13,11.13,0,0,1,214.38,87q-3.1-6.68-2.37-16a43.37,43.37,0,0,1,1.66-8.59A19.3,19.3,0,0,1,217,55.3,7.71,7.71,0,0,1,221,52.82a7.53,7.53,0,0,1,4.63.14c2.62,1,4.84,3.13,6.64,6.54a3.8,3.8,0,0,1,.4,2.88,3.52,3.52,0,0,1-1.74,2.34,3.7,3.7,0,0,1-2.88.37,3.47,3.47,0,0,1-2.34-1.74l-.11-.2-.12-.26c-.13-.21-.24-.41-.34-.6a8.2,8.2,0,0,0-.91-1.22c-.82-.88-1.48-.86-2,0l-.34.72,0,0a39.65,39.65,0,0,0-1.94,6.82,26.22,26.22,0,0,0-.37,3.71,34.69,34.69,0,0,0,0,3.54,20.94,20.94,0,0,0,1,6.28l.37.83.4.85a7.33,7.33,0,0,0,.46.86,2.75,2.75,0,0,0,.6.74,1.27,1.27,0,0,0,1.71.11,5.71,5.71,0,0,0,1.77-2q.32-.57.63-1.29a12.86,12.86,0,0,0,.51-1.19,20.77,20.77,0,0,0,.83-2.6h-2a3.66,3.66,0,0,1-2.68-1.14,3.73,3.73,0,0,1,.06-5.37,3.65,3.65,0,0,1,2.68-1.11h6.45a3.61,3.61,0,0,1,2.68,1.14,3.76,3.76,0,0,1,1.11,2.71,3.45,3.45,0,0,1-.4,1.63,24.85,24.85,0,0,1-2.31,9q-2.4,5-5.85,7.07A8.14,8.14,0,0,1,219.8,92.82Zm2.94-32.55-.11.06-.06,0h0l.11-.08Zm0,0,.09-.06Zm2.63,23.94,0-.06,0,0,0,0A.09.09,0,0,1,225.37,84.21Z"/><path class="cls-4" d="M246.91,75.33a15.16,15.16,0,0,1-4.42-6.42,12.18,12.18,0,0,1-.4-8,11.67,11.67,0,0,1,4.62-6.45,10.76,10.76,0,0,1,8.62-1.74,10.36,10.36,0,0,1,7.16,5,3.64,3.64,0,0,1,.4,2.91A3.56,3.56,0,0,1,261.15,63a3.75,3.75,0,0,1-2.91.4,3.7,3.7,0,0,1-2.31-1.74,2.64,2.64,0,0,0-1-.91,4.88,4.88,0,0,0-1.25-.55,3.43,3.43,0,0,0-2.51.49,4,4,0,0,0-1.75,1.91,4.51,4.51,0,0,0,0,3.2A9.34,9.34,0,0,0,251,68.69a7.43,7.43,0,0,0,1.74,1.48c.25.17.57.37,1,.6l1,.54a30.61,30.61,0,0,1,3.77,2.57,11.42,11.42,0,0,1,4.39,8.22,10.74,10.74,0,0,1-7.44,11,10.36,10.36,0,0,1-5.37.28,12.33,12.33,0,0,1-4.68-2.19,9.81,9.81,0,0,1-3.28-3.94,4.64,4.64,0,0,1-.34-2.91A3.43,3.43,0,0,1,243.49,82a4,4,0,0,1,2.91-.4,3,3,0,0,1,2.31,1.77,4.27,4.27,0,0,0,1.88,2,3.07,3.07,0,0,0,2.72.34,2.87,2.87,0,0,0,1.85-2.25,3.4,3.4,0,0,0-.63-2.91,9.82,9.82,0,0,0-2.48-2c-.49-.31-1.06-.64-1.68-1A22.84,22.84,0,0,1,246.91,75.33Z"/><path class="cls-4" d="M82.59,195.64v.12l0,14.07,0,14a3,3,0,0,1-1,2.25,3.17,3.17,0,0,1-2.28.94,3,3,0,0,1-2.25-1,3.19,3.19,0,0,1-.91-2.28l0-9.52,0-9.51-.55,1.2-.56,1.2c-.44.92-.84,1.71-1.19,2.34a3.09,3.09,0,0,1-2.14,1.9,2.93,2.93,0,0,1-2.42-.34,3.2,3.2,0,0,1-1.48-1.91,14.61,14.61,0,0,0-1.27-2.88l-.94-1.51c0,1.39-.06,3-.12,4.77l-.17,4.77q-.21,6.1-.21,9.54a3,3,0,0,1-1,2.25,3.14,3.14,0,0,1-2.25.94,3.05,3.05,0,0,1-2.26-1,3.17,3.17,0,0,1-.93-2.28q0-2.93.14-7l.12-3.53.12-3.52q.27-8.58-.07-14.09a2.67,2.67,0,0,1,.86-2.16l.05-.07a3.53,3.53,0,0,1,1.08-.7,3.33,3.33,0,0,1,1.84-.19,2.71,2.71,0,0,1,1.61.86l1.65,1.87c.64.72,1.19,1.35,1.66,1.9a47.11,47.11,0,0,1,3.07,3.95c.22-.48.43-.88.62-1.22A21.84,21.84,0,0,1,77.78,193a2.61,2.61,0,0,1,3-.07,3.23,3.23,0,0,1,1.77,2.54v.21Z"/><path class="cls-4" d="M105.18,219.92q-1.11,4.32-3.86,6A8,8,0,0,1,97.43,227a7.7,7.7,0,0,1-4-.79A9.53,9.53,0,0,1,89,220.57a23.7,23.7,0,0,1-.91-3.69c-.16-1-.3-2.24-.41-3.6a116.47,116.47,0,0,1,.12-17.45,3.52,3.52,0,0,1,1-2.25,3,3,0,0,1,2.26-.93,3.21,3.21,0,0,1,2.25,1,2.75,2.75,0,0,1,.93,2.27l-.09,1.3-.1,1.32-.19,2.63c-.13,2.06-.2,3.86-.21,5.39a41.64,41.64,0,0,0,1.07,10.58l.2.67.19.67.09.29.12.31.27.6a2,2,0,0,0,.88.88,1.34,1.34,0,0,0,1.37-.14,2.09,2.09,0,0,0,.86-1.15,29.26,29.26,0,0,0,1.3-6.86,82.77,82.77,0,0,0-.48-16.51,2.56,2.56,0,0,1,.93-2.25,3.39,3.39,0,0,1,2.3-.94,2.94,2.94,0,0,1,2.23,1,3.93,3.93,0,0,1,1,2.26q.44,3.47.55,7.76A59.65,59.65,0,0,1,105.18,219.92Z"/><path class="cls-4" d="M115.73,211.7a12.71,12.71,0,0,1-3.72-5.39,10.34,10.34,0,0,1-.34-6.69,9.81,9.81,0,0,1,3.89-5.42,9,9,0,0,1,7.24-1.46,8.69,8.69,0,0,1,6,4.2,3.1,3.1,0,0,1,.34,2.44,3,3,0,0,1-1.46,1.94,3.14,3.14,0,0,1-2.45.34,3.08,3.08,0,0,1-1.94-1.46,2.36,2.36,0,0,0-.84-.77,4.2,4.2,0,0,0-1-.46,2.94,2.94,0,0,0-2.11.41,3.41,3.41,0,0,0-1.47,1.61,3.8,3.8,0,0,0,0,2.68,7.66,7.66,0,0,0,1.32,2.45,5.91,5.91,0,0,0,1.46,1.24q.31.22.81.51l.84.45a27,27,0,0,1,3.17,2.16,9.6,9.6,0,0,1,3.69,6.9,8.85,8.85,0,0,1-2.45,6.86,9,9,0,0,1-8.31,2.63,10.08,10.08,0,0,1-3.93-1.84,8.28,8.28,0,0,1-2.76-3.31,3.93,3.93,0,0,1-.29-2.44,2.94,2.94,0,0,1,1.44-1.95,3.37,3.37,0,0,1,2.44-.33,2.55,2.55,0,0,1,1.95,1.49,3.59,3.59,0,0,0,1.58,1.72,2.58,2.58,0,0,0,2.27.29,2.37,2.37,0,0,0,1.56-1.89,2.89,2.89,0,0,0-.52-2.45,8.56,8.56,0,0,0-2.09-1.73l-1.41-.83A19.43,19.43,0,0,1,115.73,211.7Z"/><path class="cls-4" d="M134.28,223.83c0-1.68,0-4.07-.17-7.19L134,213c0-1.34-.08-2.54-.08-3.59q0-4.37.12-7.12l.1-1.63.1-1.65c.09-1.38.15-2.46.16-3.26a3.35,3.35,0,0,1,1-2.26,3.17,3.17,0,0,1,2.28-.93,3.08,3.08,0,0,1,2.25,1,3,3,0,0,1,.91,2.27c0,.77-.07,1.86-.16,3.26l-.1,1.66-.1,1.63q-.12,3.28-.12,7.12c0,1.05,0,2.25.08,3.59l.16,3.6c.15,3.1.2,5.49.17,7.19a3,3,0,0,1-1,2.25,3.2,3.2,0,0,1-5.44-2.3Z"/><path class="cls-4" d="M164.34,218.8a3,3,0,0,1,.94,2.25,3.56,3.56,0,0,1-.91,2.28A10.36,10.36,0,0,1,157,227a8.73,8.73,0,0,1-7.62-2.78q-4.32-4.73-4.22-13.5.09-8.31,3.55-13.28a14.09,14.09,0,0,1,2.71-3,7.27,7.27,0,0,1,3.64-1.75q4.89-.72,7.38,2.4a11.26,11.26,0,0,1,2.69,6.8,6.12,6.12,0,0,1-.89,3.7,7.1,7.1,0,0,1-3.43,2.63,2.52,2.52,0,0,1-2.42-.31,3.34,3.34,0,0,1-1.51-1.94,2.9,2.9,0,0,1,.58-2.73,1.72,1.72,0,0,1,.41-.39l.23-.16.2-.17a1.22,1.22,0,0,0,.48-1,2.6,2.6,0,0,0-.84-1.77,2.19,2.19,0,0,0-1.2-.68,1.61,1.61,0,0,0-1.32.32,6.41,6.41,0,0,0-2,2.54,17.32,17.32,0,0,0-1.08,3.06,22.79,22.79,0,0,0-.6,8.73,12.91,12.91,0,0,0,1.94,5.7l.07.1a3.25,3.25,0,0,0,3.12,1.05,4.94,4.94,0,0,0,3-1.77,2.6,2.6,0,0,1,2.23-.93A3.14,3.14,0,0,1,164.34,218.8Z"/><path class="cls-4" d="M64.65,311.2a12.78,12.78,0,0,1-3.71-5.39,10.2,10.2,0,0,1-.34-6.69,9.82,9.82,0,0,1,3.88-5.41,9,9,0,0,1,7.24-1.46,8.69,8.69,0,0,1,6,4.19,3.23,3.23,0,0,1-1.13,4.39,3.11,3.11,0,0,1-2.44.33,3.06,3.06,0,0,1-1.94-1.46,2.36,2.36,0,0,0-.84-.77,4.35,4.35,0,0,0-1.06-.45,2.9,2.9,0,0,0-2.11.4,3.43,3.43,0,0,0-1.46,1.61,3.79,3.79,0,0,0,0,2.68,7.55,7.55,0,0,0,1.32,2.45,6.19,6.19,0,0,0,1.47,1.25c.2.14.47.31.81.5l.84.46A25,25,0,0,1,74.38,310a9.6,9.6,0,0,1,3.69,6.91,9,9,0,0,1-6.25,9.25,8.68,8.68,0,0,1-4.51.24,10.38,10.38,0,0,1-3.93-1.85,8.21,8.21,0,0,1-2.76-3.31,3.91,3.91,0,0,1-.28-2.44,2.84,2.84,0,0,1,1.44-1.94,3.32,3.32,0,0,1,2.44-.34A2.52,2.52,0,0,1,66.16,318a3.54,3.54,0,0,0,1.58,1.72A2.57,2.57,0,0,0,70,320a2.39,2.39,0,0,0,1.56-1.89,2.9,2.9,0,0,0-.53-2.45A8.26,8.26,0,0,0,69,313.94c-.42-.26-.89-.54-1.42-.84A20,20,0,0,1,64.65,311.2Z"/><path class="cls-4" d="M101.35,301.33a24,24,0,0,1,1.63,8.94,22.14,22.14,0,0,1-1.8,8.87,13.68,13.68,0,0,1-4.53,6,6.84,6.84,0,0,1-7.09.79A9.45,9.45,0,0,1,85,321.1,22.81,22.81,0,0,1,83,314a34.37,34.37,0,0,1,1.13-13.37,17,17,0,0,1,2.7-6,6.24,6.24,0,0,1,3-2.13,6.72,6.72,0,0,1,3.69-.21,8.38,8.38,0,0,1,4.94,3.54A26.56,26.56,0,0,1,101.35,301.33Zm-4.86,11.19a19.9,19.9,0,0,0-1.13-9.08l-.1-.22,0-.14,0-.17c-.1-.3-.19-.57-.29-.79a14.43,14.43,0,0,0-.79-1.87c-.78-1.53-1.54-2.08-2.28-1.63a2.11,2.11,0,0,0-.74,1.1c-.07.19-.14.43-.22.72l-.07.31-.09.32c-.39,1.26-.7,2.48-.94,3.66a26,26,0,0,0-.55,6.4,29.27,29.27,0,0,0,.26,3.21,12.05,12.05,0,0,0,.89,3.12l.05.1,0,.12a1.15,1.15,0,0,0,.07.19l.14.29.17.33c.13.27.25.5.36.7a1.77,1.77,0,0,0,1,.91,1.47,1.47,0,0,0,1.37-.6c.16-.19.34-.43.53-.7l.19-.33.09-.17.1-.14a15.08,15.08,0,0,0,1.39-3A14,14,0,0,0,96.49,312.52Z"/><path class="cls-4" d="M125.57,319.43q-1.11,4.31-3.86,5.94a8,8,0,0,1-3.89,1.17,7.7,7.7,0,0,1-4-.79,9.53,9.53,0,0,1-4.43-5.68,23.7,23.7,0,0,1-.91-3.69c-.16-1-.3-2.24-.41-3.59a116.47,116.47,0,0,1,.12-17.45,3.52,3.52,0,0,1,1-2.26,3,3,0,0,1,2.26-.93,3.27,3.27,0,0,1,2.25,1,2.76,2.76,0,0,1,.93,2.28l-.09,1.29-.1,1.32-.19,2.63c-.13,2.07-.2,3.86-.21,5.4a41.6,41.6,0,0,0,1.07,10.57l.2.67.19.67.09.29.12.31.27.6a2,2,0,0,0,.88.89,1.36,1.36,0,0,0,1.37-.15,2.05,2.05,0,0,0,.86-1.15,29.27,29.27,0,0,0,1.3-6.85,82.85,82.85,0,0,0-.48-16.52,2.56,2.56,0,0,1,.93-2.25,3.39,3.39,0,0,1,2.3-.94,3,3,0,0,1,2.23,1,3.87,3.87,0,0,1,1,2.25c.29,2.32.47,4.9.55,7.76A59.76,59.76,0,0,1,125.57,319.43Z"/><path class="cls-4" d="M134.84,326.33a3.36,3.36,0,0,1-2.25-1,2.63,2.63,0,0,1-.91-2.28,110,110,0,0,0,.5-14l-.09-3.5-.1-3.52q-.12-4.37-.14-7a2.91,2.91,0,0,1,.41-1.51,3,3,0,0,1,1.17-1.23,1.89,1.89,0,0,1,.38-.16l.15-.08h0a3.58,3.58,0,0,1,1.1-.19,2.87,2.87,0,0,1,.75.1,2.58,2.58,0,0,1,2,1.48l0,.12a3.51,3.51,0,0,1,.22.48q2.44,5.71,7.09,15.15l.46.91.12-7.52q0-4.24.05-7.55a3,3,0,0,1,1-2.23,3.14,3.14,0,0,1,4.5,0,3.1,3.1,0,0,1,.94,2.25q0,3.12,0,7l-.1,7q-.13,9.34-.16,14a3.06,3.06,0,0,1-1,2.3,3.21,3.21,0,0,1-.84.72,3.4,3.4,0,0,1-2.45.33,2.47,2.47,0,0,1-1.94-1.46q-1.17-2.81-3-6.49l-1.56-3.19-1.58-3.19-.91-1.85a103.89,103.89,0,0,1-.53,12.85,3.94,3.94,0,0,1-1,2.25A3,3,0,0,1,134.84,326.33Z"/><path class="cls-4" d="M174.64,309.41a16.17,16.17,0,0,1-2.9,10A17.7,17.7,0,0,1,167,324a15.89,15.89,0,0,1-3.24,1.46l-.72.24-.72.24-.38.17-.19.07a3.6,3.6,0,0,1-2.45.31,2.92,2.92,0,0,1-1.94-1.44,3.15,3.15,0,0,1-.17-2.94l.15-6.71.12-6.72q.09-7.7-.07-13.42a3,3,0,0,1,1.58-2.73,2.7,2.7,0,0,1,2.71-.48,21.59,21.59,0,0,1,9.7,7.29A16.62,16.62,0,0,1,174.64,309.41Zm-6.52,1.94,0,0a12,12,0,0,0-.72-6.16,11.06,11.06,0,0,0-2.75-3.83c-.32-.32-.6-.58-.82-.77q0,4,0,9l-.07,4.48-.09,4.49a9.2,9.2,0,0,0,3-3.07A10,10,0,0,0,168.12,311.35Z"/><path class="cls-4" d="M205.64,320.17a3.18,3.18,0,0,1,2.2,5.46,3.1,3.1,0,0,1-2.25.94q-4.12,0-6.93-.1-4.84-.09-6.21-4.1a10.34,10.34,0,0,1-.33-3.88c0-.51,0-1.12,0-1.82l0-1.82,0-3.55c0-1.37,0-2.56-.05-3.55l0-1.87L192,304c0-1.42,0-2.66,0-3.71l0-.84.05-.89a10.67,10.67,0,0,1,.22-1.77,5.1,5.1,0,0,1,1.6-3,7.87,7.87,0,0,1,5.44-1.65c.88,0,1.94,0,3.17,0h3.19a3.23,3.23,0,0,1,3.16,3.24,3,3,0,0,1-1,2.22,3.1,3.1,0,0,1-2.25.94l-3,0-3,0-1,0-.24,0,0,.45c-.05,1-.07,2-.07,3l0,2.23.08,2.21h4.41a3.26,3.26,0,0,1,3.18,3.23,3.11,3.11,0,0,1-1,2.26,3.06,3.06,0,0,1-2.25.93h-4.27v1.66l0,1.53v1.53l0,.63,0,.6a9.54,9.54,0,0,0,0,1.24h1.15c.76,0,1.77,0,3,0l1.51,0Z"/><path class="cls-4" d="M225.53,312.52l-1.29,0-1.32,0q-1.56,0-2.61.09h-.14l0,5.42c0,2.06,0,3.86.07,5.39a2.85,2.85,0,0,1-1,2.25,3.13,3.13,0,0,1-2.25.94,3,3,0,0,1-2.25-1,3.36,3.36,0,0,1-.94-2.28q-.09-2.62-.09-6.8v-6.81l-.08-2.06-.07-2.09c-.08-1.69-.09-3.07-.05-4.14a20.23,20.23,0,0,1,.6-4.32,7.23,7.23,0,0,1,2.19-3.69,7,7,0,0,1,4.81-1.73c.43,0,1,0,1.66.1l.81.07.82.05a10.08,10.08,0,0,0,1.63,0l.31,0,.45-.1a3.32,3.32,0,0,1,2.42.34,3.08,3.08,0,0,1,1.51,1.94,3,3,0,0,1-.33,2.42,2.9,2.9,0,0,1-1.94,1.49,13.7,13.7,0,0,1-3.36.29l-1.65-.08-.86-.07-.84,0-.24,0h-.22a1.15,1.15,0,0,0-.38,0,.67.67,0,0,0-.53.5,13.22,13.22,0,0,0-.46,4c0,.88,0,2.06.08,3.55l.72-.05c.65,0,1.45,0,2.39,0h1.22l1.2,0a3.19,3.19,0,0,1,3.17,3.21,3.05,3.05,0,0,1-1,2.26A3.1,3.1,0,0,1,225.53,312.52Z"/><path class="cls-4" d="M247.64,312.52l-1.3,0-1.31,0c-1,0-1.91,0-2.62.09h-.14l0,5.42c0,2.06,0,3.86.08,5.39a2.85,2.85,0,0,1-1,2.25,3.17,3.17,0,0,1-2.26.94,3,3,0,0,1-2.25-1,3.35,3.35,0,0,1-.93-2.28q-.1-2.62-.1-6.8v-6.81l-.07-2.06-.07-2.09c-.08-1.69-.1-3.07,0-4.14a20.23,20.23,0,0,1,.6-4.32,7.22,7.22,0,0,1,2.18-3.69,7.06,7.06,0,0,1,4.82-1.73c.43,0,1,0,1.65.1l.81.07.82.05a10.08,10.08,0,0,0,1.63,0l.31,0,.46-.1a3.33,3.33,0,0,1,2.42.34,3.14,3.14,0,0,1,1.17,4.36,2.86,2.86,0,0,1-1.94,1.49,13.66,13.66,0,0,1-3.35.29l-1.66-.08-.86-.07-.84,0-.24,0h-.22a1.15,1.15,0,0,0-.38,0,.67.67,0,0,0-.53.5,12.94,12.94,0,0,0-.45,4c0,.88,0,2.06.07,3.55l.72-.05c.65,0,1.45,0,2.4,0h1.22l1.2,0a3.08,3.08,0,0,1,2.25,1,3.19,3.19,0,0,1-.05,4.51A3.06,3.06,0,0,1,247.64,312.52Z"/><path class="cls-4" d="M271.47,320.17a3.18,3.18,0,0,1,2.2,5.46,3.1,3.1,0,0,1-2.25.94q-4.12,0-6.93-.1c-3.23-.06-5.29-1.43-6.21-4.1a10.34,10.34,0,0,1-.33-3.88c0-.51.05-1.12.05-1.82l0-1.82,0-3.55c0-1.37,0-2.56-.05-3.55l0-1.87-.07-1.87c0-1.42,0-2.66,0-3.71l0-.84.05-.89a10.67,10.67,0,0,1,.22-1.77,5.1,5.1,0,0,1,1.6-3,7.87,7.87,0,0,1,5.44-1.65c.88,0,1.94,0,3.17,0h3.19a3.23,3.23,0,0,1,3.16,3.24,3,3,0,0,1-1,2.22,3.1,3.1,0,0,1-2.25.94l-3,0-3,0-1,0-.24,0,0,.45c-.05,1-.07,2-.07,3l0,2.23.08,2.21h4.41a3.26,3.26,0,0,1,3.18,3.23,3.11,3.11,0,0,1-1,2.26,3.06,3.06,0,0,1-2.25.93h-4.27v1.66l0,1.53v1.53l0,.63-.05.6a9.54,9.54,0,0,0,0,1.24h1.15c.76,0,1.77,0,3,0l1.51,0Z"/><path class="cls-4" d="M295.42,318.3a3,3,0,0,1,.93,2.25,3.56,3.56,0,0,1-.91,2.28,10.3,10.3,0,0,1-7.33,3.69,8.73,8.73,0,0,1-7.63-2.78q-4.31-4.73-4.22-13.49.11-8.33,3.55-13.28a14.18,14.18,0,0,1,2.71-3.05,7.31,7.31,0,0,1,3.64-1.75q4.89-.72,7.39,2.4a11.27,11.27,0,0,1,2.68,6.81,6.07,6.07,0,0,1-.89,3.69,7.06,7.06,0,0,1-3.42,2.63,2.52,2.52,0,0,1-2.42-.31,3.26,3.26,0,0,1-1.51-1.94,2.89,2.89,0,0,1,.57-2.73,1.69,1.69,0,0,1,.41-.38l.24-.17.19-.17a1.22,1.22,0,0,0,.48-1,2.6,2.6,0,0,0-.84-1.77,2.14,2.14,0,0,0-1.2-.67,1.58,1.58,0,0,0-1.32.31,6.41,6.41,0,0,0-2,2.54,17.16,17.16,0,0,0-1.08,3.07,22.72,22.72,0,0,0-.6,8.72,13.13,13.13,0,0,0,1.94,5.71l.08.09A3.24,3.24,0,0,0,288,320.1a5,5,0,0,0,3-1.78,2.63,2.63,0,0,1,2.23-.93A3.16,3.16,0,0,1,295.42,318.3Z"/><path class="cls-4" d="M308.27,323.33c0-1.75-.07-3.78-.17-6.09l-.14-3-.15-3q-.4-7.77-.28-12.2a29.24,29.24,0,0,1-3.36-.15,3.69,3.69,0,0,1-2.25-1,2.94,2.94,0,0,1-.94-2.25,3.2,3.2,0,0,1,1-2.26,2.66,2.66,0,0,1,2.28-.91,41.86,41.86,0,0,0,6.61,0l1.66-.12,1.65-.12c1.29-.08,2.4-.12,3.31-.12a2.93,2.93,0,0,1,2.25,1,3.14,3.14,0,0,1,.94,2.25,3.17,3.17,0,0,1-1,2.25,3.3,3.3,0,0,1-2.28.94c-.94,0-2.1,0-3.48.14q-.12,4.53.27,12.39l.17,3.09.14,3.1c.1,2.33.15,4.39.17,6.18a3,3,0,0,1-1,2.25,3.2,3.2,0,0,1-2.28.94,3,3,0,0,1-2.25-1A3.19,3.19,0,0,1,308.27,323.33Z"/><path class="cls-4" d="M328.21,311.2a12.78,12.78,0,0,1-3.71-5.39,10.27,10.27,0,0,1-.34-6.69,9.79,9.79,0,0,1,3.89-5.41,8.94,8.94,0,0,1,7.23-1.46,8.69,8.69,0,0,1,6,4.19,3.1,3.1,0,0,1,.34,2.44,3,3,0,0,1-1.47,1.95,3.22,3.22,0,0,1-4.38-1.13,2.36,2.36,0,0,0-.84-.77,4.19,4.19,0,0,0-1.06-.45,2.87,2.87,0,0,0-2.1.4,3.41,3.41,0,0,0-1.47,1.61,3.74,3.74,0,0,0,0,2.68,7.19,7.19,0,0,0,1.32,2.45,5.93,5.93,0,0,0,1.46,1.25c.21.14.48.31.81.5l.84.46A25.87,25.87,0,0,1,338,310a9.64,9.64,0,0,1,3.69,6.91,8.83,8.83,0,0,1-2.45,6.85,9,9,0,0,1-8.32,2.64,10.38,10.38,0,0,1-3.93-1.85,8.1,8.1,0,0,1-2.75-3.31,3.85,3.85,0,0,1-.29-2.44,2.84,2.84,0,0,1,1.44-1.94,3.32,3.32,0,0,1,2.44-.34,2.52,2.52,0,0,1,1.94,1.49,3.56,3.56,0,0,0,1.59,1.72,2.55,2.55,0,0,0,2.27.29,2.39,2.39,0,0,0,1.56-1.89,2.86,2.86,0,0,0-.53-2.45,8.26,8.26,0,0,0-2.08-1.72c-.42-.26-.89-.54-1.42-.84A20.55,20.55,0,0,1,328.21,311.2Z"/><path class="cls-4" d="M76.1,391a3.08,3.08,0,0,1,2.25,1,2.83,2.83,0,0,1,.93,2.25c-.08,1.17-.24,2.53-.5,4.08l-.33,2-.36,2q-.68,3.87-1.59,7.51A71.69,71.69,0,0,1,71.85,424a2.64,2.64,0,0,1-1.22,1.23,3.63,3.63,0,0,1-1.68.36A2.79,2.79,0,0,1,66.2,424a72.26,72.26,0,0,1-4.65-14.14q-.87-3.48-1.63-7.84l-.36-1.94-.34-1.94c-.22-1.47-.37-2.78-.45-3.94a2.71,2.71,0,0,1,1-2.22A3.15,3.15,0,0,1,62,391a2.9,2.9,0,0,1,2.23,1,3.43,3.43,0,0,1,.94,2.25,29.69,29.69,0,0,0,.38,3.14l.34,1.8L66.2,401q.61,3.56,1.53,7.17l.63,2.54.67,2.52q.57-2.12,1.29-5.06.89-3.62,1.58-7.5l.17-.89.14-.84c.13-.65.23-1.19.29-1.6q.28-1.75.39-3.15a3.23,3.23,0,0,1,1-2.22A2.94,2.94,0,0,1,76.1,391Z"/><path class="cls-4" d="M102.54,400.32a24,24,0,0,1,1.63,8.94,22.53,22.53,0,0,1-1.8,8.87,13.68,13.68,0,0,1-4.53,6,6.84,6.84,0,0,1-7.09.79,9.41,9.41,0,0,1-4.56-4.82,22.81,22.81,0,0,1-2-7.12,34.36,34.36,0,0,1,1.12-13.37,17,17,0,0,1,2.71-6,6.18,6.18,0,0,1,3-2.13,6.72,6.72,0,0,1,3.69-.22,8.48,8.48,0,0,1,4.94,3.55A27.29,27.29,0,0,1,102.54,400.32Zm-4.87,11.19a19.74,19.74,0,0,0-1.12-9.08l-.1-.22,0-.14,0-.17c-.1-.3-.2-.57-.29-.79a13.85,13.85,0,0,0-.79-1.87c-.79-1.54-1.55-2.08-2.28-1.63a2,2,0,0,0-.74,1.1c-.07.19-.14.43-.22.72l-.07.31-.1.31c-.38,1.27-.69,2.49-.93,3.67a25.94,25.94,0,0,0-.55,6.4,29.49,29.49,0,0,0,.26,3.21,11.67,11.67,0,0,0,.89,3.12l0,.09,0,.12a1.14,1.14,0,0,0,.08.2l.14.28.17.34a5.44,5.44,0,0,0,.36.69,1.71,1.71,0,0,0,1.05.91,1.45,1.45,0,0,0,1.37-.59c.16-.2.33-.43.52-.7l.2-.34.09-.16.1-.15a15.58,15.58,0,0,0,1.39-3A13.41,13.41,0,0,0,97.67,411.51Z"/><path class="cls-4" d="M126,422.1a3,3,0,0,1-1,2.23,3.11,3.11,0,0,1-2.26.94c-.38,0-.83,0-1.34.07l-1.32.1c-1.12.09-2,.13-2.63.12a12.1,12.1,0,0,1-4.61-1,5.88,5.88,0,0,1-3.28-3.74,16.07,16.07,0,0,1-.6-5.1L109,413l0-2.73c0-2.12,0-3.95,0-5.46l-.07-5.25-.05-5.28a3.23,3.23,0,0,1,3.24-3.16,3,3,0,0,1,2.22,1,3,3,0,0,1,.94,2.25l0,4.91,0,4.94c.05,4,0,7.24,0,9.83l0,2.47v.26l0,.29v.57a1.66,1.66,0,0,0,.33,1,1.74,1.74,0,0,0,1.27.55l.74,0,.39,0,.31,0,1.1-.07,1.1-.07q1.35-.12,2.19-.12a3,3,0,0,1,2.25,1A3.16,3.16,0,0,1,126,422.1Z"/><path class="cls-4" d="M145.48,418.41q-1.11,4.32-3.86,5.95a8,8,0,0,1-3.89,1.17,7.7,7.7,0,0,1-4-.79,9.53,9.53,0,0,1-4.43-5.68,23.7,23.7,0,0,1-.91-3.69c-.16-1-.3-2.24-.41-3.6a116.47,116.47,0,0,1,.12-17.45,3.52,3.52,0,0,1,1-2.25,3,3,0,0,1,2.26-.93,3.23,3.23,0,0,1,2.25,1,2.75,2.75,0,0,1,.93,2.27l-.09,1.3-.1,1.32-.19,2.63q-.19,3.09-.21,5.4A41.6,41.6,0,0,0,135,415.59l.2.67.19.67.09.29.12.31.27.6a2,2,0,0,0,.88.88,1.34,1.34,0,0,0,1.37-.14,2.09,2.09,0,0,0,.86-1.15,29.26,29.26,0,0,0,1.3-6.86,82.77,82.77,0,0,0-.48-16.51,2.56,2.56,0,0,1,.93-2.25,3.39,3.39,0,0,1,2.3-.94,2.94,2.94,0,0,1,2.23,1,3.93,3.93,0,0,1,1,2.26q.44,3.47.55,7.76A59.65,59.65,0,0,1,145.48,418.41Z"/><path class="cls-4" d="M175.39,394.13v.12l.05,14.07,0,14.05a3,3,0,0,1-1,2.25,3.13,3.13,0,0,1-2.28.94,3,3,0,0,1-2.25-1,3.19,3.19,0,0,1-.91-2.28l0-9.51,0-9.52-.55,1.2-.56,1.2c-.44.92-.84,1.71-1.19,2.35a3.1,3.1,0,0,1-2.14,1.89,2.93,2.93,0,0,1-2.42-.34,3.2,3.2,0,0,1-1.48-1.91,14.61,14.61,0,0,0-1.27-2.88l-.94-1.51q0,2.08-.12,4.77l-.17,4.77q-.21,6.1-.21,9.54a3,3,0,0,1-1,2.25,3.1,3.1,0,0,1-2.25.94,3.05,3.05,0,0,1-2.26-1,3.17,3.17,0,0,1-.93-2.28c0-1.95,0-4.29.14-7l.12-3.53.12-3.52q.27-8.58-.07-14.09a2.67,2.67,0,0,1,.86-2.16l0-.07a3.53,3.53,0,0,1,1.08-.7,3.33,3.33,0,0,1,1.84-.19,2.71,2.71,0,0,1,1.61.86l1.65,1.87c.64.72,1.19,1.35,1.66,1.9a47.11,47.11,0,0,1,3.07,3.95c.22-.48.43-.88.62-1.22a21.93,21.93,0,0,1,6.25-6.95,2.62,2.62,0,0,1,3.05-.07,3.23,3.23,0,0,1,1.77,2.54v.21Z"/><path class="cls-4" d="M193.92,419.16a3.18,3.18,0,0,1,2.21,5.46,3.1,3.1,0,0,1-2.25.94q-4.12,0-6.93-.1-4.84-.09-6.21-4.1a10.34,10.34,0,0,1-.33-3.88c0-.51,0-1.12,0-1.82l0-1.82,0-3.55c0-1.38,0-2.56,0-3.55l-.05-1.87-.07-1.87c0-1.42,0-2.66,0-3.71l0-.84.05-.89a9.71,9.71,0,0,1,.22-1.77,5.07,5.07,0,0,1,1.6-3,7.86,7.86,0,0,1,5.44-1.66c.88,0,1.94,0,3.17,0h3.18a3,3,0,0,1,2.23,1,3,3,0,0,1,.94,2.27,3,3,0,0,1-1,2.23,3.1,3.1,0,0,1-2.25.94l-3,0-3,0-1,0-.24,0,0,.45c-.05,1-.08,2-.08,3l0,2.23.07,2.21h4.41a3,3,0,0,1,2.26,1,3.06,3.06,0,0,1,.93,2.25,3.11,3.11,0,0,1-1,2.26,3.08,3.08,0,0,1-2.25.93h-4.27v1.65l0,1.54v1.53l0,.63-.05.59a10.09,10.09,0,0,0-.05,1.25h1.15c.77,0,1.78,0,3,0l1.51.05Z"/><g class="cls-1"><rect class="cls-5" x="602.47" y="181.34" width="180.53" height="68.13" rx="34.06"/></g><rect class="cls-4" x="599" y="177.55" width="180.53" height="68.13" rx="34.06" transform="translate(1378.52 423.23) rotate(-180)"/><rect class="cls-3" x="693.2" y="179.72" width="83.65" height="63.79" rx="31.9" transform="translate(1470.04 423.23) rotate(-180)"/><g class="cls-1"><rect class="cls-5" x="595.52" y="280.14" width="180.53" height="68.13" rx="34.06" transform="translate(1371.57 628.4) rotate(-180)"/></g><rect class="cls-4" x="599" y="276.35" width="180.53" height="68.13" rx="34.06"/><rect class="cls-3" x="602.14" y="278.52" width="83.65" height="63.79" rx="31.9"/><rect class="cls-3" x="341.75" y="405.87" width="437.78" height="19.69" rx="9.84"/><circle class="cls-4" cx="415" cy="415.71" r="17.17"/><rect class="cls-4" x="751.82" y="39.08" width="6.49" height="59.51" rx="2.29" transform="translate(1197.43 684.61) rotate(-130.9)"/><rect class="cls-4" x="751.82" y="39.08" width="6.49" height="59.51" rx="2.29" transform="translate(238.66 623.99) rotate(-52.28)"/></svg>