<svg id="Layer_1" data-name="Layer 1" xmlns="http://www.w3.org/2000/svg" xmlns:xlink="http://www.w3.org/1999/xlink" viewBox="0 0 161.38 185.62"><defs><style>.cls-1{fill:none;}.cls-2{fill:#173b2f;}.cls-3{clip-path:url(#clip-path);}.cls-4{fill:#00582d;}.cls-5{fill:#00572d;}.cls-6{fill:#00562d;}.cls-7{fill:#00552d;}.cls-8{fill:#00542d;}.cls-9{fill:#00532d;}.cls-10{fill:#00522d;}.cls-11{fill:#00512e;}.cls-12{fill:#00502e;}.cls-13{fill:#004f2e;}.cls-14{fill:#004e2e;}.cls-15{fill:#004e2f;}.cls-16{fill:#004d2f;}.cls-17{fill:#004c2f;}.cls-18{fill:#004c30;}.cls-19{fill:#004b30;}.cls-20{fill:#004a30;}.cls-21{fill:#004a31;}.cls-22{fill:#004931;}.cls-23{fill:#004831;}.cls-24{fill:#004731;}.cls-25{fill:#004732;}.cls-26{fill:#004632;}.cls-27{fill:#004532;}.cls-28{fill:#004432;}.cls-29{fill:#014432;}.cls-30{fill:#034332;}.cls-31{fill:#054332;}.cls-32{fill:#064232;}.cls-33{fill:#084231;}.cls-34{fill:#0a4231;}.cls-35{fill:#0b4131;}.cls-36{fill:#0d4131;}.cls-37{fill:#0e4031;}.cls-38{fill:#0f4031;}.cls-39{fill:#103f31;}.cls-40{fill:#113f31;}.cls-41{fill:#123f31;}.cls-42{fill:#133e30;}.cls-43{fill:#143d30;}.cls-44{fill:#153d30;}.cls-45{fill:#153c30;}.cls-46{fill:#163c30;}.cls-47{fill:#b31f2b;}.cls-48{clip-path:url(#clip-path-2);}.cls-49{fill:#00522e;}.cls-50{fill:#024332;}.cls-51{fill:#044332;}.cls-52{fill:#074232;}.cls-53{fill:#0c4131;}.cls-54{fill:#104031;}.cls-55{fill:#123e31;}.cls-56{fill:#163c2f;}.cls-57{fill:#163b2f;}.cls-58{fill:#fff;}.cls-59{fill:#2f0d00;}.cls-60{fill:#551300;}</style><clipPath id="clip-path"><path class="cls-1" d="M2.92,38.43h9.65A3.46,3.46,0,0,1,16,41.89v6.19a3.46,3.46,0,0,1-3.46,3.46H2.92a0,0,0,0,1,0,0V38.43A0,0,0,0,1,2.92,38.43Z" transform="translate(47.98 70.09) rotate(135)"/></clipPath><clipPath id="clip-path-2"><path class="cls-1" d="M81,0H92.45A3.46,3.46,0,0,1,95.9,3.46v8a3.46,3.46,0,0,1-3.46,3.46H81a0,0,0,0,1,0,0V0A0,0,0,0,1,81,0Z"/></clipPath></defs><rect class="cls-2" x="73.68" y="14.94" width="14.13" height="14.13"/><rect class="cls-2" x="64.45" width="31.45" height="14.94" rx="3.46"/><rect class="cls-2" x="17.76" y="42.33" width="12.39" height="12.39" transform="translate(-27.3 31.16) rotate(-45)"/><rect class="cls-2" x="0.8" y="33.31" width="27.59" height="13.11" rx="3.46" transform="translate(-23.91 22) rotate(-45)"/><g class="cls-3"><polygon class="cls-4" points="0.82 45.6 8.86 53.64 0.82 53.64 0.82 45.6"/><polygon class="cls-4" points="0.82 45.37 9.09 53.64 8.86 53.64 0.82 45.6 0.82 45.37"/><polygon class="cls-5" points="0.82 45.15 9.31 53.64 9.09 53.64 0.82 45.37 0.82 45.15"/><polygon class="cls-5" points="0.82 44.92 9.54 53.64 9.31 53.64 0.82 45.15 0.82 44.92"/><polygon class="cls-5" points="0.82 44.69 9.76 53.64 9.54 53.64 0.82 44.92 0.82 44.69"/><polygon class="cls-6" points="0.82 44.47 9.99 53.64 9.76 53.64 0.82 44.69 0.82 44.47"/><polygon class="cls-6" points="0.82 44.24 10.21 53.64 9.99 53.64 0.82 44.47 0.82 44.24"/><polygon class="cls-6" points="0.82 44.02 10.44 53.64 10.21 53.64 0.82 44.24 0.82 44.02"/><polygon class="cls-7" points="0.82 43.79 10.67 53.64 10.44 53.64 0.82 44.02 0.82 43.79"/><polygon class="cls-7" points="0.82 43.57 10.89 53.64 10.67 53.64 0.82 43.79 0.82 43.57"/><polygon class="cls-7" points="0.82 43.34 11.12 53.64 10.89 53.64 0.82 43.57 0.82 43.34"/><polygon class="cls-8" points="0.82 43.12 11.34 53.64 11.12 53.64 0.82 43.34 0.82 43.12"/><polygon class="cls-8" points="0.82 42.89 11.57 53.64 11.34 53.64 0.82 43.12 0.82 42.89"/><polygon class="cls-8" points="0.82 42.79 0.88 42.73 11.73 53.58 11.67 53.64 11.57 53.64 0.82 42.89 0.82 42.79"/><rect class="cls-8" x="6.28" y="40.42" width="0.16" height="15.34" transform="translate(-32.15 18.59) rotate(-45)"/><rect class="cls-9" x="6.4" y="40.31" width="0.16" height="15.34" transform="translate(-32.03 18.63) rotate(-45)"/><rect class="cls-9" x="6.51" y="40.2" width="0.16" height="15.34" transform="translate(-31.92 18.68) rotate(-45)"/><rect class="cls-9" x="6.62" y="40.09" width="0.16" height="15.34" transform="translate(-31.81 18.73) rotate(-45)"/><rect class="cls-10" x="6.73" y="39.97" width="0.16" height="15.34" transform="translate(-31.69 18.77) rotate(-45)"/><rect class="cls-10" x="6.85" y="39.86" width="0.16" height="15.34" transform="translate(-31.58 18.82) rotate(-45)"/><rect class="cls-10" x="6.96" y="39.75" width="0.16" height="15.34" transform="translate(-31.47 18.87) rotate(-45)"/><rect class="cls-11" x="7.07" y="39.64" width="0.16" height="15.34" transform="translate(-31.36 18.91) rotate(-45)"/><rect class="cls-11" x="7.18" y="39.52" width="0.16" height="15.34" transform="translate(-31.24 18.96) rotate(-45)"/><rect class="cls-11" x="7.3" y="39.41" width="0.16" height="15.34" transform="translate(-31.13 19.01) rotate(-45)"/><rect class="cls-11" x="7.41" y="39.3" width="0.16" height="15.34" transform="translate(-31.02 19.05) rotate(-45)"/><rect class="cls-12" x="7.52" y="39.18" width="0.16" height="15.34" transform="translate(-30.91 19.1) rotate(-45)"/><rect class="cls-12" x="7.64" y="39.07" width="0.16" height="15.34" transform="translate(-30.79 19.15) rotate(-45)"/><rect class="cls-12" x="7.75" y="38.96" width="0.16" height="15.34" transform="translate(-30.68 19.19) rotate(-45)"/><rect class="cls-13" x="7.86" y="38.85" width="0.16" height="15.34" transform="translate(-30.57 19.24) rotate(-45)"/><rect class="cls-13" x="7.97" y="38.73" width="0.16" height="15.34" transform="translate(-30.45 19.29) rotate(-45)"/><rect class="cls-13" x="8.09" y="38.62" width="0.16" height="15.34" transform="translate(-30.34 19.33) rotate(-45)"/><rect class="cls-14" x="8.2" y="38.51" width="0.16" height="15.34" transform="translate(-30.23 19.38) rotate(-45)"/><rect class="cls-14" x="8.31" y="38.39" width="0.16" height="15.34" transform="translate(-30.12 19.43) rotate(-45)"/><rect class="cls-15" x="8.42" y="38.28" width="0.16" height="15.34" transform="translate(-30 19.47) rotate(-45)"/><rect class="cls-15" x="8.54" y="38.17" width="0.16" height="15.34" transform="translate(-29.89 19.52) rotate(-45)"/><rect class="cls-16" x="8.65" y="38.06" width="0.16" height="15.34" transform="translate(-29.78 19.57) rotate(-45)"/><rect class="cls-16" x="8.76" y="37.94" width="0.16" height="15.34" transform="translate(-29.67 19.61) rotate(-45)"/><rect class="cls-16" x="8.88" y="37.83" width="0.16" height="15.34" transform="translate(-29.55 19.66) rotate(-45)"/><rect class="cls-17" x="8.99" y="37.72" width="0.16" height="15.34" transform="translate(-29.44 19.71) rotate(-45)"/><rect class="cls-17" x="9.1" y="37.61" width="0.16" height="15.34" transform="translate(-29.33 19.75) rotate(-45)"/><rect class="cls-18" x="9.21" y="37.49" width="0.16" height="15.34" transform="translate(-29.21 19.8) rotate(-45)"/><rect class="cls-19" x="9.33" y="37.38" width="0.16" height="15.34" transform="translate(-29.1 19.85) rotate(-45)"/><rect class="cls-19" x="9.44" y="37.27" width="0.16" height="15.34" transform="translate(-28.99 19.89) rotate(-45)"/><rect class="cls-19" x="9.55" y="37.15" width="0.16" height="15.34" transform="translate(-28.88 19.94) rotate(-45)"/><rect class="cls-20" x="9.66" y="37.04" width="0.16" height="15.34" transform="translate(-28.76 19.99) rotate(-45)"/><rect class="cls-20" x="9.78" y="36.93" width="0.16" height="15.34" transform="translate(-28.65 20.03) rotate(-45)"/><rect class="cls-21" x="9.89" y="36.82" width="0.16" height="15.34" transform="translate(-28.54 20.08) rotate(-45)"/><rect class="cls-22" x="10" y="36.7" width="0.16" height="15.34" transform="translate(-28.43 20.13) rotate(-45)"/><rect class="cls-22" x="10.12" y="36.59" width="0.16" height="15.34" transform="translate(-28.31 20.17) rotate(-45)"/><rect class="cls-22" x="10.23" y="36.48" width="0.16" height="15.34" transform="translate(-28.2 20.22) rotate(-45)"/><rect class="cls-23" x="10.34" y="36.37" width="0.16" height="15.34" transform="translate(-28.09 20.27) rotate(-45)"/><rect class="cls-23" x="10.45" y="36.25" width="0.16" height="15.34" transform="translate(-27.97 20.31) rotate(-45)"/><rect class="cls-23" x="10.57" y="36.14" width="0.16" height="15.34" transform="translate(-27.86 20.36) rotate(-45)"/><rect class="cls-24" x="10.68" y="36.03" width="0.16" height="15.34" transform="translate(-27.75 20.41) rotate(-45)"/><rect class="cls-24" x="10.79" y="35.91" width="0.16" height="15.34" transform="translate(-27.64 20.45) rotate(-45)"/><rect class="cls-25" x="10.9" y="35.8" width="0.16" height="15.34" transform="translate(-27.52 20.5) rotate(-45)"/><rect class="cls-26" x="11.02" y="35.69" width="0.16" height="15.34" transform="translate(-27.41 20.55) rotate(-45)"/><rect class="cls-26" x="11.13" y="35.58" width="0.16" height="15.34" transform="translate(-27.3 20.59) rotate(-45)"/><rect class="cls-26" x="11.24" y="35.46" width="0.16" height="15.34" transform="translate(-27.19 20.64) rotate(-45)"/><rect class="cls-27" x="11.36" y="35.35" width="0.16" height="15.34" transform="translate(-27.07 20.69) rotate(-45)"/><rect class="cls-27" x="11.47" y="35.24" width="0.16" height="15.34" transform="translate(-26.96 20.73) rotate(-45)"/><rect class="cls-28" x="11.58" y="35.13" width="0.16" height="15.34" transform="translate(-26.85 20.78) rotate(-45)"/><rect class="cls-28" x="11.69" y="35.01" width="0.16" height="15.34" transform="translate(-26.73 20.83) rotate(-45)"/><rect class="cls-29" x="11.81" y="34.9" width="0.16" height="15.34" transform="translate(-26.62 20.87) rotate(-45)"/><rect class="cls-30" x="11.92" y="34.79" width="0.16" height="15.34" transform="translate(-26.51 20.92) rotate(-45)"/><rect class="cls-31" x="12.03" y="34.67" width="0.16" height="15.34" transform="translate(-26.4 20.97) rotate(-45)"/><rect class="cls-32" x="12.14" y="34.56" width="0.16" height="15.34" transform="translate(-26.28 21.01) rotate(-45)"/><rect class="cls-33" x="12.26" y="34.45" width="0.16" height="15.34" transform="translate(-26.17 21.06) rotate(-45)"/><rect class="cls-34" x="12.37" y="34.34" width="0.16" height="15.34" transform="translate(-26.06 21.11) rotate(-45)"/><rect class="cls-35" x="12.48" y="34.22" width="0.16" height="15.34" transform="translate(-25.94 21.15) rotate(-45)"/><rect class="cls-36" x="12.6" y="34.11" width="0.16" height="15.34" transform="translate(-25.83 21.2) rotate(-45)"/><rect class="cls-37" x="12.71" y="34" width="0.16" height="15.34" transform="translate(-25.72 21.25) rotate(-45)"/><rect class="cls-38" x="12.82" y="33.89" width="0.16" height="15.34" transform="translate(-25.61 21.29) rotate(-45)"/><rect class="cls-39" x="12.93" y="33.77" width="0.16" height="15.34" transform="translate(-25.49 21.34) rotate(-45)"/><rect class="cls-40" x="13.05" y="33.66" width="0.16" height="15.34" transform="translate(-25.38 21.39) rotate(-45)"/><rect class="cls-41" x="13.16" y="33.55" width="0.16" height="15.34" transform="translate(-25.27 21.43) rotate(-45)"/><polygon class="cls-42" points="7.87 35.74 7.89 35.72 8.07 35.72 18.74 46.38 18.74 46.57 18.72 46.59 7.87 35.74"/><polygon class="cls-42" points="8.3 35.72 18.74 46.16 18.74 46.38 8.07 35.72 8.3 35.72"/><polygon class="cls-43" points="8.53 35.72 18.74 45.93 18.74 46.16 8.3 35.72 8.53 35.72"/><polygon class="cls-44" points="8.75 35.72 18.74 45.71 18.74 45.93 8.53 35.72 8.75 35.72"/><polygon class="cls-45" points="8.98 35.72 18.74 45.48 18.74 45.71 8.75 35.72 8.98 35.72"/><polygon class="cls-46" points="9.2 35.72 18.74 45.26 18.74 45.48 8.98 35.72 9.2 35.72"/><polygon class="cls-2" points="9.43 35.72 18.74 45.03 18.74 45.26 9.2 35.72 9.43 35.72"/><polygon class="cls-2" points="18.74 45.03 9.43 35.72 18.74 35.72 18.74 45.03"/></g><circle class="cls-47" cx="80.69" cy="104.93" r="5.51"/><g class="cls-48"><rect class="cls-4" x="94.81" width="1.09" height="14.94"/><rect class="cls-4" x="94.64" width="0.17" height="14.94"/><rect class="cls-5" x="94.47" width="0.17" height="14.94"/><rect class="cls-6" x="94.3" width="0.17" height="14.94"/><rect class="cls-6" x="94.14" width="0.17" height="14.94"/><rect class="cls-7" x="93.97" width="0.17" height="14.94"/><rect class="cls-7" x="93.8" width="0.17" height="14.94"/><rect class="cls-8" x="93.63" width="0.17" height="14.94"/><rect class="cls-8" x="93.46" width="0.17" height="14.94"/><rect class="cls-8" x="93.29" width="0.17" height="14.94"/><rect class="cls-9" x="93.13" width="0.17" height="14.94"/><rect class="cls-9" x="92.96" width="0.17" height="14.94"/><rect class="cls-10" x="92.79" width="0.17" height="14.94"/><rect class="cls-49" x="92.62" width="0.17" height="14.94"/><rect class="cls-11" x="92.45" width="0.17" height="14.94"/><rect class="cls-11" x="92.28" width="0.17" height="14.94"/><rect class="cls-12" x="92.11" width="0.17" height="14.94"/><rect class="cls-12" x="91.95" width="0.17" height="14.94"/><rect class="cls-13" x="91.78" width="0.17" height="14.94"/><rect class="cls-13" x="91.61" width="0.17" height="14.94"/><rect class="cls-13" x="91.44" width="0.17" height="14.94"/><rect class="cls-14" x="91.27" width="0.17" height="14.94"/><rect class="cls-15" x="91.1" width="0.17" height="14.94"/><rect class="cls-16" x="90.94" width="0.17" height="14.94"/><rect class="cls-16" x="90.77" width="0.17" height="14.94"/><rect class="cls-17" x="90.6" width="0.17" height="14.94"/><rect class="cls-17" x="90.43" width="0.17" height="14.94"/><rect class="cls-18" x="90.26" width="0.17" height="14.94"/><rect class="cls-19" x="90.09" width="0.17" height="14.94"/><rect class="cls-19" x="89.93" width="0.17" height="14.94"/><rect class="cls-20" x="89.76" width="0.17" height="14.94"/><rect class="cls-20" x="89.59" width="0.17" height="14.94"/><rect class="cls-21" x="89.42" width="0.17" height="14.94"/><rect class="cls-22" x="89.25" width="0.17" height="14.94"/><rect class="cls-22" x="89.08" width="0.17" height="14.94"/><rect class="cls-23" x="88.91" width="0.17" height="14.94"/><rect class="cls-23" x="88.75" width="0.17" height="14.94"/><rect class="cls-23" x="88.58" width="0.17" height="14.94"/><rect class="cls-24" x="88.41" width="0.17" height="14.94"/><rect class="cls-24" x="88.24" width="0.17" height="14.94"/><rect class="cls-26" x="88.07" width="0.17" height="14.94"/><rect class="cls-26" x="87.9" width="0.17" height="14.94"/><rect class="cls-26" x="87.74" width="0.17" height="14.94"/><rect class="cls-27" x="87.57" width="0.17" height="14.94"/><rect class="cls-27" x="87.4" width="0.17" height="14.94"/><rect class="cls-28" x="87.23" width="0.17" height="14.94"/><rect class="cls-28" x="87.06" width="0.17" height="14.94"/><rect class="cls-28" x="86.89" width="0.17" height="14.94"/><rect class="cls-50" x="86.73" width="0.17" height="14.94"/><rect class="cls-51" x="86.56" width="0.17" height="14.94"/><rect class="cls-31" x="86.39" width="0.17" height="14.94"/><rect class="cls-52" x="86.22" width="0.17" height="14.94"/><rect class="cls-33" x="86.05" width="0.17" height="14.94"/><rect class="cls-34" x="85.88" width="0.17" height="14.94"/><rect class="cls-35" x="85.71" width="0.17" height="14.94"/><rect class="cls-53" x="85.55" width="0.17" height="14.94"/><rect class="cls-36" x="85.38" width="0.17" height="14.94"/><rect class="cls-37" x="85.21" width="0.17" height="14.94"/><rect class="cls-38" x="85.04" width="0.17" height="14.94"/><rect class="cls-54" x="84.87" width="0.17" height="14.94"/><rect class="cls-39" x="84.7" width="0.17" height="14.94"/><rect class="cls-40" x="84.54" width="0.17" height="14.94"/><rect class="cls-41" x="84.37" width="0.17" height="14.94"/><rect class="cls-55" x="84.2" width="0.17" height="14.94"/><rect class="cls-42" x="84.03" width="0.17" height="14.94"/><rect class="cls-42" x="83.86" width="0.17" height="14.94"/><rect class="cls-42" x="83.69" width="0.17" height="14.94"/><rect class="cls-43" x="83.53" width="0.17" height="14.94"/><rect class="cls-43" x="83.36" width="0.17" height="14.94"/><rect class="cls-43" x="83.19" width="0.17" height="14.94"/><rect class="cls-44" x="83.02" width="0.17" height="14.94"/><rect class="cls-44" x="82.85" width="0.17" height="14.94"/><rect class="cls-45" x="82.68" width="0.17" height="14.94"/><rect class="cls-45" x="82.51" width="0.17" height="14.94"/><rect class="cls-46" x="82.35" width="0.17" height="14.94"/><rect class="cls-46" x="82.18" width="0.17" height="14.94"/><rect class="cls-46" x="82.01" width="0.17" height="14.94"/><rect class="cls-56" x="81.84" width="0.17" height="14.94"/><rect class="cls-57" x="81.67" width="0.17" height="14.94"/><rect class="cls-57" x="81.5" width="0.17" height="14.94"/><rect class="cls-57" x="81.34" width="0.17" height="14.94"/><rect class="cls-2" x="81.17" width="0.17" height="14.94"/><rect class="cls-2" x="81" width="0.17" height="14.94"/><rect class="cls-2" x="80.96" width="0.04" height="14.94"/></g><circle class="cls-4" cx="80.69" cy="104.93" r="80.69"/><circle class="cls-58" cx="80.69" cy="104.93" r="71.77"/><rect class="cls-59" x="76.15" y="36.61" width="7.87" height="23.57"/><rect class="cls-59" x="47.97" y="44.49" width="7.87" height="23.57" transform="translate(-21.18 33.49) rotate(-30)"/><rect class="cls-59" x="27.5" y="65.4" width="7.87" height="23.57" transform="matrix(0.5, -0.87, 0.87, 0.5, -51.13, 65.81)"/><rect class="cls-59" x="20.22" y="93.75" width="7.87" height="23.57" transform="translate(-81.38 129.69) rotate(-90)"/><rect class="cls-59" x="28.09" y="121.93" width="7.87" height="23.57" transform="translate(-67.76 228.32) rotate(-120)"/><rect class="cls-59" x="49.01" y="142.41" width="7.87" height="23.57" transform="translate(21.7 314.2) rotate(-150)"/><rect class="cls-59" x="77.35" y="149.68" width="7.87" height="23.57" transform="translate(162.58 322.93) rotate(-180)"/><rect class="cls-59" x="105.54" y="141.81" width="7.87" height="23.57" transform="translate(281.08 231.87) rotate(150)"/><rect class="cls-59" x="126.01" y="120.89" width="7.87" height="23.57" transform="translate(309.83 86.48) rotate(120)"/><rect class="cls-59" x="133.29" y="92.55" width="7.87" height="23.57" transform="translate(241.56 -32.89) rotate(90)"/><rect class="cls-59" x="125.41" y="64.36" width="7.87" height="23.57" transform="translate(130.62 -73.95) rotate(60)"/><rect class="cls-59" x="104.5" y="43.89" width="7.87" height="23.57" transform="translate(42.37 -46.76) rotate(30)"/><circle class="cls-47" cx="80.69" cy="104.93" r="5.51"/><circle class="cls-60" cx="80.69" cy="104.93" r="2.23"/><path class="cls-47" d="M79.17,42c0-4.32.79-7.32,1.42-7.38s1.51,2.76,1.74,7q.49,29.46,1,58.93H77.85Z"/><polygon class="cls-47" points="82.73 120.35 78.46 120.35 77.85 109.65 83.34 109.65 82.73 120.35"/><circle class="cls-47" cx="80.69" cy="104.93" r="5.51"/></svg>